<?xml version="1.0" encoding="UTF-8"?>
<svg width="207px" height="190px" viewBox="0 0 207 190" version="1.1" xmlns="http://www.w3.org/2000/svg" xmlns:xlink="http://www.w3.org/1999/xlink">
    <!-- Generator: Sketch 59 (86127) - https://sketch.com -->
    <title>cereal</title>
    <desc>Created with Sketch.</desc>
    <g id="Page-1" stroke="none" stroke-width="1" fill="none" fill-rule="evenodd">
        <g id="graphql-requests" transform="translate(-302.000000, -58.000000)" fill="#000000" fill-rule="nonzero">
            <g id="cereal" transform="translate(322.551302, 77.768914)">
                <path d="M99.6867167,0.000704538902 L99.8355079,0.0126950946 C104.496648,0.622554361 108.50618,1.2406499 112.058606,1.88905525 L112.058606,1.88905525 L113.02707,2.06838481 C118.430345,3.08373866 122.449104,4.09644665 127.897831,5.70592254 L127.897831,5.70592254 L131.838434,6.86808002 C137.577254,8.55545123 140.021276,9.23744213 143.211367,9.98004722 L143.211367,9.98004722 L144.37484,10.2463958 L147.666436,10.970032 C147.822041,10.9741694 147.974145,11.0026458 148.117873,11.0526753 C148.520356,11.0542479 148.922069,11.2179141 149.216298,11.5388914 C149.882044,12.26516 150.492309,12.9163927 151.204017,13.6573338 L151.204017,13.6573338 L152.187321,14.6723716 L156.850533,19.4039123 C157.50541,20.0721123 158.056699,20.6405737 158.565832,21.1738253 L158.565832,21.1738253 L159.305593,21.9553615 L160.298481,23.0260527 C160.302373,23.0301869 160.306242,23.0343453 160.31009,23.038528 L160.398338,23.1439743 C160.643884,23.4632284 160.736148,23.8421477 160.698577,24.2040577 C160.691386,24.2729498 160.679682,24.3408862 160.663453,24.407553 C160.660345,24.4199309 160.657261,24.4319366 160.654032,24.4439025 C160.647241,24.4694204 160.639543,24.4951921 160.631167,24.5207269 C160.625299,24.5385271 160.619278,24.5558642 160.612947,24.5730895 C160.605973,24.5919111 160.598509,24.6109372 160.590664,24.6298022 C160.580937,24.6536621 160.570614,24.6769461 160.559707,24.6999676 C160.552972,24.7133826 160.546219,24.7270161 160.53926,24.7405466 C160.399992,25.0141499 160.176339,25.247291 159.882853,25.3938888 C159.837242,25.4155135 159.791022,25.4359997 159.743329,25.4543154 L159.86405,25.4031159 C159.832256,25.4184417 159.799663,25.4327608 159.766287,25.4460162 L159.743329,25.4543154 C158.99735,25.7407973 158.033033,26.1014376 157.025209,26.4745115 L162.995355,29.128551 C163.637182,29.4138073 163.979921,30.0943988 163.864326,30.7562806 C163.925203,30.9289659 163.953732,31.1123081 163.947972,31.2972573 C163.222086,54.6049149 162.860351,68.0615654 162.661221,79.1086958 L162.661221,79.1086958 L162.55146,86.1140339 L162.453015,95.5635048 L162.437592,96.7667096 L162.362083,100.300046 C162.218221,107.819571 162.469038,113.172557 163.702323,122.37278 L163.702323,122.37278 L163.911019,123.899382 L164.120718,125.382313 C164.16732,125.707112 164.106135,126.038233 163.946539,126.324931 L163.946539,126.324931 L163.759314,126.661262 C163.681548,126.80096 163.581947,126.927327 163.464283,127.035578 L163.464283,127.035578 L138.464283,150.035578 C137.897243,150.557255 137.036724,150.559525 136.467888,150.06677 L136.571065,150.071465 C136.407978,150.071465 136.245983,150.044869 136.091457,149.992724 L122.390051,145.42231 C117.791446,143.877166 113.380816,142.376643 111.587361,141.709307 L111.290659,141.59733 L110.814494,141.405048 L110.048206,141.071459 C109.439624,140.80167 108.643761,140.441022 107.709611,140.013132 L105.227226,138.869179 L85.8918213,129.848419 C85.3221594,129.585354 84.9767278,128.995512 85.025237,128.369943 L85.8266317,118.06503 L86.1472684,113.623185 C86.2031431,112.796645 86.9184821,112.171896 87.7450227,112.227771 C88.5229434,112.280359 89.1221137,112.917109 89.1433294,113.680931 L89.140437,113.825525 L88.0972557,127.563649 L105.299453,135.596353 C108.523207,137.09357 111.116007,138.282807 112.073592,138.680133 L112.423485,138.819103 L113.227752,139.116058 C114.451148,139.557387 116.415859,140.234608 118.707094,141.013032 L120.962363,141.776521 L135.204208,146.535072 C134.603422,140.885066 134.468364,136.420869 134.53232,130.140884 L134.568745,126.602526 L134.568709,125.996962 C134.568433,125.935031 134.568066,125.874524 134.567608,125.815081 L134.564707,125.536448 L134.532549,123.987677 C134.521238,123.387151 134.51371,122.796523 134.50977,122.205529 L134.507369,121.019913 C134.510759,120.421074 134.524101,119.535083 134.544293,118.460374 L134.598024,115.853966 L135.001527,99.1239285 L135.112781,93.0692373 C135.266615,83.7486769 135.370997,72.8093959 135.41764,59.4475652 L135.429893,55.3655357 L135.445182,44.0251743 L88.1758589,34.5715673 L88.2283226,42.0644125 C88.2961611,50.7087593 88.383069,58.3831936 88.4874307,65.2458115 L88.6351878,73.8464312 L88.8092876,81.8698923 C88.8294005,82.6980753 88.1743304,83.385755 87.3461474,83.4058679 C86.5179645,83.4259809 85.8302848,82.7709107 85.8101719,81.9427278 L85.6724947,75.7567865 C85.5021357,67.3888051 85.3636882,57.6268819 85.261434,46.0502764 L85.2044589,38.8831853 L85.1685704,33.435346 C85.0271999,33.1834424 84.9576122,32.88989 84.9812766,32.5868925 C84.8082103,32.0936549 84.8987737,31.5238643 85.2676441,31.102298 L85.2033378,31.1806626 C85.3205779,30.7151932 85.6555115,30.3357748 86.0940933,30.1577322 L98.476998,16.0058937 C98.4563215,15.1045555 98.4284628,14.2931345 98.3848577,13.3656998 L98.3848577,13.3656998 L98.293083,11.623741 L98.0423031,7.49848347 C97.9668317,6.24122087 97.9135003,5.2618683 97.8742329,4.36467825 L97.8742329,4.36467825 L97.8295016,3.19992878 L97.7949188,1.92841635 C97.7866426,1.55341888 97.9191617,1.18892816 98.1663477,0.906809906 L98.1663477,0.906809906 L98.5127019,0.511508812 C98.842725,0.134846868 99.3389513,-0.0522739067 99.8355079,0.0126950946 Z M160.904604,32.6454514 C159.47049,33.3187926 158.060385,33.9970151 156.368476,34.8270161 L156.368476,34.8270161 L154.396263,35.7997449 L148.596695,38.6910236 C145.566915,40.2031146 143.409135,41.2693815 141.47974,42.1989042 L141.47974,42.1989042 L139.739612,43.0299523 C139.547099,43.1863605 139.321804,43.2895456 139.085851,43.3362171 L138.444578,43.635 L138.432838,54.1358648 C138.401116,68.2193768 138.309934,79.7519743 138.167682,89.5493796 L138.11472,92.9760541 L137.958649,101.144905 C137.874539,104.67293 137.59363,115.168136 137.522828,119.712161 L137.507855,120.944774 L137.509703,122.185498 C137.513563,122.764487 137.520939,123.343105 137.532026,123.931615 L137.554708,124.959544 C137.561311,125.249086 137.565668,125.522301 137.567826,125.820861 L137.568516,126.681357 L137.524251,131.081086 C137.483614,136.776803 137.630154,140.972376 138.186753,146.211397 L161.060206,125.17086 C159.591366,114.807855 159.236262,109.092039 159.343498,101.395555 L159.343498,101.395555 L159.362416,100.254331 L159.446143,96.1801014 L159.532491,87.578792 C159.611012,81.1886398 159.731326,74.6391412 159.941473,66.1563233 L159.941473,66.1563233 L160.230227,55.2782147 Z M100.931578,17.754 L88.7875784,31.634 L134.764578,40.829 L134.760388,40.7700001 L134.711467,40.0519818 L134.610804,38.3939679 C134.550445,37.3827189 134.503049,36.6732565 134.447682,36.0229301 L134.447682,36.0229301 L134.388882,35.3833287 L134.344432,34.9522016 C131.52446,31.7281011 127.987726,28.2570543 127.941841,28.1988811 L127.941841,28.1988811 L127.834054,28.0584384 C127.448038,27.5409973 127.157943,26.9866573 126.788453,26.0796069 L126.788453,26.0796069 L126.577985,25.5479744 L125.829578,23.544 L100.931578,17.754 Z M152.975578,27.957 L151.484231,28.5037454 L151.083857,28.6570576 C149.669885,29.2135094 149.064833,29.5677135 148.56559,30.0919254 C148.381744,30.2849656 146.12006,33.9198736 143.411528,37.9161872 L143.980038,37.6362313 L149.67714,34.7976277 C153.667555,32.8047687 156.178036,31.5668931 158.555342,30.4372532 L152.975578,27.957 Z M143.064578,19.457 L142.607808,22.1545353 L142.113626,25.0323513 L139.829019,37.8307467 C142.622925,33.790151 145.323553,29.50283 146.17022,28.3130478 L146.17022,28.3130478 L146.325665,28.1028633 L146.393163,28.0229731 C147.298265,27.0726046 148.290327,26.5153529 150.282649,25.7498571 L150.282649,25.7498571 L154.350578,24.257 L143.064578,19.457 Z M137.094578,16.896 L127.528082,19.5059147 L128.250965,21.4461751 C128.377346,21.6364838 128.460361,21.855252 128.489877,22.0862051 L129.179456,23.9420882 L129.542922,24.8894235 C129.855252,25.6637486 130.051042,26.0287675 130.29592,26.3378945 C130.34078,26.3594989 132.897352,28.8725373 135.450552,31.6851335 L135.450552,31.6851335 L136.213896,32.5357072 L136.777193,33.1775213 C136.879541,33.2953895 136.962862,33.4285114 137.024149,33.5720799 L137.024149,33.5720799 L137.188567,33.957241 C137.246148,34.0921297 137.283636,34.2347341 137.299832,34.3805019 L137.299832,34.3805019 L137.336759,34.720774 L139.234673,24.0827047 L140.047231,19.2978951 L140.230578,18.251 L137.094578,16.896 Z M147.468578,14.067 L141.743578,15.628 L154.099939,20.8849026 L150.316288,17.050132 C149.660592,16.3801449 149.108893,15.8098552 148.594912,15.269642 L148.594912,15.269642 L147.843943,14.4731769 L147.468578,14.067 Z M100.830247,3.1712618 C100.843696,3.57154419 100.859532,3.9726057 100.878612,4.39505677 L100.878612,4.39505677 L100.94644,5.74718913 L101.325624,12.1238313 L101.394705,13.5102375 L101.442578,14.793 L124.570578,20.171 L124.401018,19.7156251 L124.347638,19.5450552 L124.170306,18.8318009 C123.973606,18.0406489 124.444802,17.23724 125.231313,17.0227368 L125.231313,17.0227368 L141.419525,12.6065372 C139.441131,12.1215557 137.549696,11.6261404 135.668766,11.104845 L135.668766,11.104845 L134.995448,10.917062 C134.771285,10.8541529 134.546989,10.7908158 134.321333,10.7267116 L134.321333,10.7267116 L132.941262,10.330164 L131.15917,9.80706573 L126.116606,8.30972969 C120.916757,6.79458241 116.986335,5.83805095 111.519931,4.84029731 C108.374723,4.26621906 104.858236,3.71507879 100.830247,3.1712618 Z" id="carton"></path>
                <path d="M0.944024008,62.4536811 C3.20571161,60.6368618 7.16208125,63.2690927 16.3556956,71.6288221 L16.3556956,71.6288221 L18.5141319,73.6069521 L21.6023588,76.476187 L26.8312587,81.3889415 C33.8157884,80.960036 41.7275144,80.731086 49.9486985,80.731086 C62.4994183,80.731086 74.267537,81.2663005 82.9895297,82.2041492 C93.1024649,83.2915616 97.9486985,84.5235813 97.9486985,87.231086 C97.9486985,87.3243168 97.9429522,87.4157981 97.9314426,87.5055842 C95.9193431,112.237379 82.3612083,128.502769 55.7787452,131.073387 C25.976422,133.955377 1.94869848,114.397144 1.94869848,87.0485872 L1.95,87.2896721 L1.94869848,87.231086 C1.94869848,87.2179988 1.94881501,87.2049449 1.94904811,87.191924 L1.94869848,87.0485872 C2.16052096,84.6773171 6.38295561,83.4296972 14.8505009,82.4320006 C13.2457015,80.9413291 11.6560261,79.4162658 10.1652148,77.9290867 L10.1652148,77.9290867 L9.73608046,77.4993471 C6.61637832,74.3630206 4.10080182,71.5624616 2.44663751,69.3362264 C0.0246508597,66.0766276 -0.831062671,63.8796126 0.944024008,62.4536811 Z M94.3783988,90.3146797 C91.9041813,91.1160414 88.1262587,91.7056865 82.9895297,92.2580229 L82.9895297,92.2580229 L82.2946641,92.3312247 C74.6107637,93.1242659 64.6910496,93.6132731 54.0016839,93.7123695 L54.0016839,93.7123695 L51.9235575,93.7266576 L49.9486985,93.731086 C42.4429895,93.731086 35.21717,93.5396719 28.7553617,93.1851998 C28.4114766,93.2954643 28.0293748,93.2802378 27.6851665,93.1252314 C23.7541864,92.8949093 20.123946,92.6038378 16.9078672,92.2580229 L16.9078672,92.2580229 L16.4302781,92.2061267 C11.2146208,91.6332983 7.44547799,91.0148932 5.06221312,90.1589825 C6.80467135,114.014342 28.536805,130.693784 55.4899816,128.087317 C79.4356711,125.771684 91.9397952,111.907701 94.6371167,90.2301821 Z M49.9486985,83.731086 C42.8861633,83.731086 36.0564729,83.901207 29.8603074,84.2224304 L31.8815117,86.0822172 C33.897675,87.9177711 35.4102859,89.2228627 36.5022555,90.0566779 L36.5022555,90.0566779 L36.8507799,90.3172429 L37.1411559,90.5242367 C37.1474773,90.5286235 37.1537544,90.5330502 37.1599874,90.5375162 C39.998174,90.6262149 42.9324843,90.6847966 45.9285558,90.7125411 L45.9285558,90.7125411 L47.9897381,90.7266976 L49.9486985,90.731086 C62.3989508,90.731086 74.0624671,90.2006289 82.6687979,89.275217 C86.842913,88.8263874 90.1695632,88.2969153 92.4249205,87.7235536 C93.0721889,87.5590037 93.6208784,87.3931279 94.0626256,87.231086 L94.0626256,87.231086 L93.8328789,87.1497695 C93.4352436,87.0137891 92.9643109,86.8757434 92.4249205,86.7386185 C90.3656812,86.2151143 87.4133604,85.7281987 83.7383262,85.3058462 L83.7383262,85.3058462 L82.6687979,85.1869551 L81.2421179,85.0399153 C73.7638276,84.3012483 64.228446,83.844638 53.9688412,83.749631 L53.9688412,83.749631 L51.9076588,83.7354745 Z M3.38253328,65.2538811 C3.68340075,65.8625157 4.17927459,66.6380145 4.85466732,67.5469829 C6.19002519,69.3441567 8.17117689,71.5931737 10.6233634,74.121828 L10.6233634,74.121828 L11.4579649,74.9748335 L12.6590783,76.1781078 C17.9335522,81.4037278 24.3707175,87.0404286 28.1309936,89.7995993 L28.1309936,89.7995993 L28.6507584,90.1748606 C29.7950338,90.238649 30.9642656,90.2972713 32.1556443,90.3505598 C31.8329192,90.0689469 31.4928621,89.7686803 31.1350378,89.4492741 L31.1350378,89.4492741 L29.8829543,88.3198383 L28.6749286,87.2125729 C28.0001629,86.5903738 27.2879116,85.9282041 26.45502,85.1491692 L26.45502,85.1491692 L18.2893087,77.4888526 C14.2665597,73.7490646 11.1989176,71.0123011 8.67384459,68.9574812 L8.67384459,68.9574812 L8.10057907,68.4952513 L7.54544971,68.0563556 C5.9144076,66.7802619 4.58873573,65.8733157 3.60210613,65.3634162 L3.60210613,65.3634162 Z M17.8068296,85.1255635 L17.3299418,85.1760956 C13.6875346,85.5653626 10.6807488,86.0161411 8.46003211,86.5053573 L8.46003211,86.5053573 L7.81459035,86.6539652 C7.01783696,86.8459637 6.3537423,87.0406425 5.83474801,87.231086 C6.27649926,87.3931221 6.82519665,87.5590008 7.47247641,87.7235536 C9.53171575,88.2470578 12.4840366,88.7339734 16.1590708,89.1563259 L16.1590708,89.1563259 L17.2285991,89.275217 L18.655279,89.4222568 C20.1235441,89.5672844 21.6711063,89.7014393 23.2878781,89.8241194 C21.6139356,88.4586354 19.736872,86.8495093 17.8068296,85.1255635 Z" id="bowl"></path>
                <path d="M94.4819068,58.8088721 L94.5379216,58.5596794 L94.6194488,61.2734026 L94.6502939,61.9125459 L94.6889652,62.5138273 C94.9110276,65.5231633 95.4939593,67.0286535 97.1738813,67.2194666 C99.3462167,67.4662103 100.28851,65.941002 101.345969,62.2892119 L101.701282,61.0265028 C101.92462,60.2330463 102.124992,59.6222589 102.294152,59.1735739 L102.28595,59.5024856 L102.265246,59.9583315 L102.234204,60.4406527 C102.058146,62.867183 101.503416,66.6795391 100.510045,72.0437163 C100.40948,72.5867678 100.768186,73.1085226 101.311237,73.2090882 C101.854289,73.3096538 102.376043,72.9509481 102.476609,72.4078965 L102.803571,70.6183684 C104.722193,59.9579314 104.829034,56.1788407 102.822379,56.1788407 C101.384594,56.1788407 100.783385,57.1128612 100.019492,59.6462885 L99.5096871,61.4363349 C98.7162701,64.245389 98.1010961,65.3119238 97.399599,65.2322446 C97.1197868,65.2004622 96.780229,63.9880924 96.6458921,61.7477706 L96.6054054,60.8745818 L96.5356446,58.4578882 L96.5169495,58.0304838 C96.5002411,57.7052658 96.4801816,57.4498085 96.4528108,57.2069607 L96.4394921,57.0943319 C96.2909112,55.8938051 96.0179797,55.231086 95.0128365,55.231086 C92.9151383,55.231086 92.4111926,57.1161819 91.8853652,63.655632 L91.2990183,71.3475403 C91.2528953,71.8978958 91.6616565,72.3814371 92.2120119,72.4275601 C92.7623673,72.4736831 93.2459087,72.0649219 93.2920317,71.5145665 L93.8804039,63.7993128 L93.9768901,62.6636426 C94.1358591,60.8929532 94.2887173,59.7119512 94.4819068,58.8088721 Z" id="M"></path>
                <path d="M106.390268,58.1691493 L105.510969,72.3386177 C105.476762,72.8898421 105.895888,73.3644278 106.447113,73.3986345 C106.998337,73.4328412 107.472923,73.0137155 107.507129,72.4624911 L108.386428,58.2930228 C108.420634,57.7417984 108.001509,57.2672127 107.450284,57.233006 C106.89906,57.1987993 106.424474,57.6179249 106.390268,58.1691493 Z" id="I"></path>
                <path d="M111.564408,60.231086 C111.564408,62.1107492 111.503681,63.7637921 111.382951,65.6474732 L111.139135,69.289984 L111.097303,70.0989705 C111.004907,72.2264715 111.164432,72.6221916 111.71447,73.4831933 C112.630806,74.9175797 114.237664,75.3314426 118.416453,75.57884 C118.967773,75.6114798 119.441165,75.191007 119.473805,74.6396876 C119.506445,74.0883682 119.085972,73.6149757 118.534653,73.5823358 L117.906843,73.5422734 L117.031461,73.4741244 C114.762746,73.2738945 113.82097,72.9778341 113.441409,72.466673 L113.399904,72.4064794 C113.067208,71.8856937 113.006968,71.4663041 113.176232,68.7708645 L113.322604,66.6106222 C113.483187,64.328818 113.564408,62.4321478 113.564408,60.231086 C113.564408,59.6788013 113.116693,59.231086 112.564408,59.231086 C112.012124,59.231086 111.564408,59.6788013 111.564408,60.231086 Z" id="L"></path>
                <path d="M123.405162,59.232367 C123.956739,59.2603123 124.381227,59.7301082 124.353282,60.2816855 L124.353282,60.2816855 L124.026811,66.7200627 L129.653533,60.3920648 C129.992265,60.0110691 130.556895,59.950136 130.966392,60.2316401 L131.065314,60.3091632 C131.47806,60.6761233 131.515176,61.3081995 131.148216,61.7209448 L131.148216,61.7209448 L126.836295,66.5727919 C128.044455,68.6684558 128.92919,70.3595912 129.492973,71.6544473 C129.991998,72.8005718 130.519206,74.2601034 131.076866,76.0364758 L131.076866,76.0364758 L131.358244,76.9510814 C131.51778,77.4798223 131.218479,78.0377803 130.689738,78.1973154 C130.160997,78.3568506 129.603039,78.0575501 129.443504,77.5288092 C128.801809,75.4020632 128.205855,73.7082609 127.659249,72.4528551 C127.249298,71.5113105 126.645112,70.320925 125.84784,68.8855311 L125.84784,68.8855311 L125.432811,68.1480627 L123.864811,69.9120627 L123.541553,76.3033777 C123.515604,76.8155566 123.108672,77.218153 122.609047,77.2506791 L122.492235,77.2514973 C121.940658,77.223552 121.51617,76.7537561 121.544115,76.2021788 L121.544115,76.2021788 L122.355843,60.1804866 C122.383789,59.6289093 122.853585,59.2044217 123.405162,59.232367 Z" id="K"></path>
            </g>
        </g>
    </g>
</svg>