<?xml version="1.0" encoding="UTF-8"?>
<svg width="842px" height="388px" viewBox="0 0 842 388" version="1.1" xmlns="http://www.w3.org/2000/svg" xmlns:xlink="http://www.w3.org/1999/xlink">
    <!-- Generator: Sketch 59 (86127) - https://sketch.com -->
    <title>client-architecture</title>
    <desc>Created with Sketch.</desc>
    <defs>
        <linearGradient x1="100%" y1="48.8755673%" x2="0%" y2="48.8755673%" id="linearGradient-1">
            <stop stop-color="#F5E2F5" offset="0%"></stop>
            <stop stop-color="#F5E2F5" offset="7.04569094%"></stop>
            <stop stop-color="#F4DEF4" stop-opacity="0.924314283" offset="75.4804604%"></stop>
            <stop stop-color="#F3DCF3" stop-opacity="0" offset="100%"></stop>
        </linearGradient>
        <linearGradient x1="100%" y1="48.8755673%" x2="0%" y2="48.8755673%" id="linearGradient-2">
            <stop stop-color="#F5E2F5" offset="0%"></stop>
            <stop stop-color="#F5E2F5" stop-opacity="0.889632123" offset="23.4819084%"></stop>
            <stop stop-color="#F9ECF9" stop-opacity="0.796028191" offset="85.205156%"></stop>
            <stop stop-color="#FAF0FA" stop-opacity="0" offset="100%"></stop>
        </linearGradient>
    </defs>
    <g id="Page-1" stroke="none" stroke-width="1" fill="none" fill-rule="evenodd">
        <g id="Slide-9" transform="translate(0.000000, -182.000000)">
            <g id="Group-9" transform="translate(55.000000, 195.000000)">
                <g id="Group-6" transform="translate(103.000000, 0.000000)">
                    <g id="Group-3" transform="translate(0.000000, 37.000000)">
                        <g id="Group" transform="translate(312.000000, 111.000000)">
                            <ellipse id="Oval" fill="#C8B8FF" cx="41" cy="40.5" rx="41" ry="40.5"></ellipse>
                            <text id="Client." opacity="0.9" font-family="TitlingGothicFBNormal-Medium, TitlingGothicFB Normal" font-size="19" font-weight="400" letter-spacing="0.3" fill="#000000">
                                <tspan x="7.257" y="46">Client.</tspan>
                            </text>
                        </g>
                        <g id="Group-2">
                            <path d="M0,0 C199.073873,4.26412174 352.210207,6.39618261 459.409001,6.39618261 C559.51803,6.39618261 583,44.3223901 583,68 L546.34011,68 C545.695804,61.7352465 541.879347,56.4676903 536.945144,53.3060023 C525.453982,45.9428119 506.434356,40.9665613 472.747404,40.9665613 C450.289436,40.9665613 292.706968,40.9665613 0,40.9665613 L0,0 Z" id="Rectangle" fill="url(#linearGradient-1)"></path>
                            <path d="M583,68 C583,82.246087 580.230886,103.044064 533.244471,115.246774 C501.149703,123.582016 461.068213,131.166425 413,138 L413,123.31812 C483.217394,113.238011 525.052009,102.012396 538.503846,89.6412756 C546.042212,82.7085397 546.323121,74.6670494 546.323121,68 L583,68 Z" id="Rectangle" fill="url(#linearGradient-2)"></path>
                        </g>
                        <g id="Group-2" transform="translate(414.500000, 227.000000) scale(-1, -1) translate(-414.500000, -227.000000) translate(123.000000, 158.000000)">
                            <path d="M0,0 C199.073873,4.26412174 352.210207,6.39618261 459.409001,6.39618261 C559.51803,6.39618261 583,44.3223901 583,68 L546.34011,68 C545.695804,61.7352465 541.879347,56.4676903 536.945144,53.3060023 C525.453982,45.9428119 506.434356,40.9665613 472.747404,40.9665613 C450.289436,40.9665613 292.706968,40.9665613 0,40.9665613 L0,0 Z" id="Rectangle" fill="url(#linearGradient-1)"></path>
                            <path d="M583,68 C583,82.246087 580.230886,103.044064 533.244471,115.246774 C501.149703,123.582016 461.068213,131.166425 413,138 L413,123.31812 C483.217394,113.238011 525.052009,102.012396 538.503846,89.6412756 C546.042212,82.7085397 546.323121,74.6670494 546.323121,68 L583,68 Z" id="Rectangle" fill="url(#linearGradient-2)"></path>
                        </g>
                    </g>
                    <g id="Group-7" transform="translate(93.000000, 55.000000)">
                        <rect id="Rectangle" stroke="#F395A9" stroke-width="2" fill="#F0647D" x="0" y="0" width="35" height="35"></rect>
                        <text id="A." opacity="0.9" font-family="TitlingGothicFBNormal-Regular, TitlingGothicFB Normal" font-size="18" font-weight="normal" letter-spacing="0.2842105" fill="#000000">
                            <tspan x="8.7207895" y="24">A.</tspan>
                        </text>
                    </g>
                    <rect id="Rectangle" stroke="#F395A9" stroke-width="2" fill="#F0647D" x="218" y="55" width="35" height="35"></rect>
                    <rect id="Rectangle" stroke="#F395A9" stroke-width="2" fill="#F0647D" x="343" y="55" width="35" height="35"></rect>
                    <g id="Group-8" transform="translate(330.000000, 283.000000)">
                        <rect id="Rectangle" stroke="#D22A4E" stroke-width="2" fill="#F0647D" x="0" y="0" width="35" height="35"></rect>
                        <text id="A." opacity="0.9" font-family="TitlingGothicFBNormal-Regular, TitlingGothicFB Normal" font-size="18" font-weight="normal" letter-spacing="0.2842105" fill="#000000">
                            <tspan x="8.7207895" y="25">A.</tspan>
                        </text>
                    </g>
                    <rect id="Rectangle" stroke="#D22A4E" stroke-width="2" fill="#F0647D" x="455" y="283" width="35" height="35"></rect>
                    <rect id="Rectangle" stroke="#D22A4E" stroke-width="2" fill="#F0647D" x="580" y="283" width="35" height="35"></rect>
                    <text id="B." opacity="0.9" font-family="TitlingGothicFBNormal-Regular, TitlingGothicFB Normal" font-size="18" font-weight="normal" letter-spacing="0.2842105" fill="#000000">
                        <tspan x="226.39679" y="79">B.</tspan>
                    </text>
                    <text id="C." opacity="0.9" font-family="TitlingGothicFBNormal-Regular, TitlingGothicFB Normal" font-size="18" font-weight="normal" letter-spacing="0.2842105" fill="#000000">
                        <tspan x="351.486789" y="79">C.</tspan>
                    </text>
                    <text id="B." opacity="0.9" font-family="TitlingGothicFBNormal-Regular, TitlingGothicFB Normal" font-size="18" font-weight="normal" letter-spacing="0.2842105" fill="#000000">
                        <tspan x="588.396789" y="308">B.</tspan>
                    </text>
                    <text id="C." opacity="0.9" font-family="TitlingGothicFBNormal-Regular, TitlingGothicFB Normal" font-size="18" font-weight="normal" letter-spacing="0.2842105" fill="#000000">
                        <tspan x="463.486789" y="308">C.</tspan>
                    </text>
                    <g id="Group-4" transform="translate(87.000000, 0.000000)">
                        <path id="Path-2" d="M104,7.71841873 C104.552285,7.71841873 105,8.16613398 105,8.71841873 L105,8.71841873 L104.999,13.718 L109,13.7184187 C109.512836,13.7184187 109.935507,14.1044589 109.993272,14.6017976 L110,14.7184187 C110,15.2707035 109.552285,15.7184187 109,15.7184187 L109,15.7184187 L104.999,15.718 L105,20.7184187 C105,21.2312546 104.61396,21.6539259 104.116621,21.711691 L104,21.7184187 C103.447715,21.7184187 103,21.2707035 103,20.7184187 L103,20.7184187 L103,8.71841873 C103,8.16613398 103.447715,7.71841873 104,7.71841873 Z M182.958344,7.71841873 C183.087992,7.71841873 183.215859,7.74860405 183.331819,7.80658421 L183.331819,7.80658421 L195.661405,13.9713774 C196.073934,14.1776419 196.241145,14.6792732 196.03488,15.0918022 C195.954071,15.2534199 195.823023,15.3844683 195.661405,15.4652771 L195.661405,15.4652771 L183.331819,21.6300703 C182.91929,21.8363348 182.417659,21.6691244 182.211394,21.2565954 C182.153414,21.1406351 182.123229,21.012768 182.123229,20.8831204 L182.123229,20.8831204 L182.123,15.718 L181,15.7184187 C180.487164,15.7184187 180.064493,15.3323785 180.006728,14.8350399 L180,14.7184187 C180,14.166134 180.447715,13.7184187 181,13.7184187 L181,13.7184187 L182.123,13.718 L182.123229,8.55353409 C182.123229,8.12779119 182.441813,7.7764576 182.853589,7.72492547 Z M120,13.7184187 C120.552285,13.7184187 121,14.166134 121,14.7184187 C121,15.2707035 120.552285,15.7184187 120,15.7184187 L120,15.7184187 L115,15.7184187 C114.447715,15.7184187 114,15.2707035 114,14.7184187 C114,14.166134 114.447715,13.7184187 115,13.7184187 L115,13.7184187 Z M131,13.7184187 C131.552285,13.7184187 132,14.166134 132,14.7184187 C132,15.2707035 131.552285,15.7184187 131,15.7184187 L131,15.7184187 L126,15.7184187 C125.447715,15.7184187 125,15.2707035 125,14.7184187 C125,14.166134 125.447715,13.7184187 126,13.7184187 L126,13.7184187 Z M142,13.7184187 C142.552285,13.7184187 143,14.166134 143,14.7184187 C143,15.2707035 142.552285,15.7184187 142,15.7184187 L142,15.7184187 L137,15.7184187 C136.447715,15.7184187 136,15.2707035 136,14.7184187 C136,14.166134 136.447715,13.7184187 137,13.7184187 L137,13.7184187 Z M153,13.7184187 C153.552285,13.7184187 154,14.166134 154,14.7184187 C154,15.2707035 153.552285,15.7184187 153,15.7184187 L153,15.7184187 L148,15.7184187 C147.447715,15.7184187 147,15.2707035 147,14.7184187 C147,14.166134 147.447715,13.7184187 148,13.7184187 L148,13.7184187 Z M164,13.7184187 C164.552285,13.7184187 165,14.166134 165,14.7184187 C165,15.2707035 164.552285,15.7184187 164,15.7184187 L164,15.7184187 L159,15.7184187 C158.447715,15.7184187 158,15.2707035 158,14.7184187 C158,14.166134 158.447715,13.7184187 159,13.7184187 L159,13.7184187 Z M175,13.7184187 C175.552285,13.7184187 176,14.166134 176,14.7184187 C176,15.2707035 175.552285,15.7184187 175,15.7184187 L175,15.7184187 L170,15.7184187 C169.447715,15.7184187 169,15.2707035 169,14.7184187 C169,14.166134 169.447715,13.7184187 170,13.7184187 L170,13.7184187 Z" fill="#D22A80" fill-rule="nonzero"></path>
                        <text id="Operations" opacity="0.9" font-family="NeueHaasUnicaW1G-Medium, Neue Haas Unica W1G" font-size="18" font-weight="400" letter-spacing="0.2842104" fill="#000000">
                            <tspan x="0" y="21">Operations</tspan>
                        </text>
                    </g>
                    <g id="Group-5" transform="translate(453.000000, 341.000000)">
                        <path id="Path-2" d="M79.0137794,7.62121543 C79.143423,7.62223506 79.2710487,7.65342507 79.3865494,7.71231541 L79.3865494,7.71231541 L91.6672707,13.9738853 C92.0781648,14.1833879 92.2414249,14.6863187 92.0319224,15.0972128 C91.949845,15.2581899 91.81777,15.3882036 91.6555218,15.4677389 L91.6555218,15.4677389 L79.2778331,21.535374 C78.8636946,21.7383878 78.3633939,21.5672374 78.1603801,21.1530989 C78.1033137,21.0366862 78.074135,20.9085857 78.0751546,20.7789421 L78.0751546,20.7789421 L78.116,15.614 L76.989754,15.6055442 C76.4769341,15.6015109 76.0573119,15.2121585 76.0034599,14.7143809 L75.9976496,14.5977105 C76.0019931,14.0454428 76.4532156,13.6012625 77.0054833,13.605606 L77.0054833,13.605606 L78.131,13.614 L78.172122,8.4497371 C78.1754703,8.02400737 78.4968077,7.67519019 78.9089764,7.62689811 Z M0.0550522828,7.00021649 C0.607319952,7.00455999 1.05150025,7.4557825 1.04715674,8.00805017 L1.04715674,8.00805017 L1.007,13.008 L5.00770998,13.039354 C5.52052996,13.0433872 5.94015215,13.4327396 5.9940041,13.9305172 L5.99981444,14.0471877 C5.99547094,14.5994553 5.54424843,15.0436356 4.99198076,15.0392921 L4.99198076,15.0392921 L0.992,15.007 L0.952781402,20.0076791 C0.948748148,20.520499 0.55939575,20.9401212 0.0616181469,20.9939732 L-0.0550522829,20.9997835 C-0.607319952,20.99544 -1.05150025,20.5442175 -1.04715674,19.9919498 L-1.04715674,19.9919498 L-0.952781402,7.99232095 C-0.948437897,7.44005328 -0.497215387,6.99587298 0.0550522828,7.00021649 Z M66.0058235,13.5190953 L71.0056688,13.5584184 C71.5579365,13.5627619 72.0021168,14.0139844 71.9977733,14.5662521 C71.9934298,15.1185197 71.5422073,15.5627 70.9899396,15.5583565 L70.9899396,15.5583565 L65.9900942,15.5190335 C65.4378266,15.5146899 64.9936463,15.0634674 64.9979898,14.5111998 C65.0023333,13.9589321 65.4535558,13.5147518 66.0058235,13.5190953 L66.0058235,13.5190953 Z M55.0061637,13.4325846 L60.006009,13.4719076 C60.5582767,13.4762511 61.002457,13.9274737 60.9981135,14.4797413 C60.99377,15.032009 60.5425475,15.4761893 59.9902798,15.4718458 L59.9902798,15.4718458 L54.9904344,15.4325227 C54.4381668,15.4281792 53.9939865,14.9769567 53.99833,14.424689 C54.0026735,13.8724214 54.453896,13.4282411 55.0061637,13.4325846 L55.0061637,13.4325846 Z M44.0065038,13.3460738 L49.0063492,13.3853969 C49.5586169,13.3897404 50.0027972,13.8409629 49.9984537,14.3932306 C49.9941102,14.9454983 49.5428877,15.3896786 48.99062,15.3853351 L48.99062,15.3853351 L43.9907746,15.346012 C43.438507,15.3416685 42.9943267,14.890446 42.9986702,14.3381783 C43.0030137,13.7859106 43.4542362,13.3417303 44.0065038,13.3460738 L44.0065038,13.3460738 Z M33.006844,13.2595631 L38.0066894,13.2988862 C38.5589571,13.3032297 39.0031374,13.7544522 38.9987939,14.3067199 C38.9944504,14.8589875 38.5432278,15.3031678 37.9909602,15.2988243 L37.9909602,15.2988243 L32.9911148,15.2595013 C32.4388471,15.2551578 31.9946668,14.8039352 31.9990104,14.2516676 C32.0033539,13.6993999 32.4545764,13.2552196 33.006844,13.2595631 L33.006844,13.2595631 Z M22.0071842,13.1730524 L27.0070296,13.2123754 C27.5592973,13.216719 28.0034776,13.6679415 27.9991341,14.2202091 C27.9947906,14.7724768 27.543568,15.2166571 26.9913004,15.2123136 L26.9913004,15.2123136 L21.991455,15.1729905 C21.4391873,15.168647 20.995007,14.7174245 20.9993505,14.1651568 C21.003694,13.6128892 21.4549166,13.1687089 22.0071842,13.1730524 L22.0071842,13.1730524 Z M11.0075244,13.0865417 L16.0073698,13.1258647 C16.5596375,13.1302082 17.0038178,13.5814307 16.9994742,14.1336984 C16.9951307,14.6859661 16.5439082,15.1301464 15.9916406,15.1258029 L15.9916406,15.1258029 L10.9917952,15.0864798 C10.4395275,15.0821363 9.99534723,14.6309138 9.99969073,14.0786461 C10.0040342,13.5263784 10.4552568,13.0821982 11.0075244,13.0865417 L11.0075244,13.0865417 Z" fill="#D22A80" fill-rule="nonzero"></path>
                        <text id="Results" opacity="0.9" font-family="NeueHaasUnicaW1G-Medium, Neue Haas Unica W1G" font-size="18" font-weight="400" letter-spacing="0.2842104" fill="#000000">
                            <tspan x="102" y="21">Results</tspan>
                        </text>
                    </g>
                </g>
                <path id="Path-2" d="M426.287286,281.015191 C427.383466,277.307861 431.27748,275.191106 434.984809,276.287286 C438.692139,277.383466 440.808894,281.27748 439.712714,284.984809 C438.616534,288.692139 434.72252,290.808894 431.015191,289.712714 C427.307861,288.616534 425.191106,284.72252 426.287286,281.015191 Z M434.417721,278.205204 C431.769628,277.422218 428.98819,278.934186 428.205204,281.582279 C427.422218,284.230372 428.934186,287.01181 431.582279,287.794796 C434.230372,288.577782 437.01181,287.065814 437.794796,284.417721 C438.577782,281.769628 437.065814,278.98819 434.417721,278.205204 Z M416.335693,277.808326 C416.510275,277.284361 417.076559,277.00113 417.600524,277.175712 C419.180488,277.702146 420.760926,278.21775 422.341839,278.722523 C422.867956,278.890508 423.15828,279.453189 422.990295,279.979306 C422.82231,280.505424 422.259628,280.795747 421.733511,280.627762 C420.144612,280.120439 418.55621,279.602238 416.968307,279.073158 C416.444342,278.898576 416.161111,278.332292 416.335693,277.808326 Z M405.948666,274.160369 C406.137429,273.641344 406.711205,273.373614 407.23023,273.562378 C408.795623,274.131693 410.361482,274.690349 411.927808,275.238343 C412.449109,275.420726 412.723857,275.991174 412.541475,276.512476 C412.359092,277.033777 411.788644,277.308525 411.267342,277.126142 C409.69329,276.575444 408.119728,276.014041 406.546657,275.441933 C406.027632,275.253169 405.759902,274.679394 405.948666,274.160369 Z M395.666369,270.236743 C395.868822,269.722903 396.449491,269.470474 396.963331,269.672927 C398.513532,270.283705 400.064192,270.884001 401.61531,271.473814 C402.131533,271.670109 402.390887,272.247719 402.194593,272.763942 C401.998299,273.280166 401.420689,273.53952 400.904465,273.343226 C399.345889,272.750576 397.787796,272.147403 396.230186,271.533705 C395.716346,271.331253 395.463916,270.750583 395.666369,270.236743 Z M385.488377,266.045539 C385.704021,265.537094 386.29101,265.299732 386.799455,265.515375 C388.333254,266.165896 389.867502,266.806128 391.402199,267.436071 C391.913118,267.645786 392.157292,268.229975 391.947576,268.740894 C391.737861,269.251813 391.153671,269.495986 390.642753,269.286271 C389.100874,268.65338 387.55947,268.010162 386.018541,267.356618 C385.510096,267.140974 385.272733,266.553984 385.488377,266.045539 Z M375.423268,261.598877 C375.651591,261.095999 376.244348,260.873428 376.747226,261.101752 C378.264521,261.790655 379.782255,262.469463 381.300431,263.138176 C381.805858,263.360802 382.035113,263.951005 381.812487,264.456432 C381.589861,264.961859 380.999658,265.191114 380.494231,264.968488 C378.969152,264.296734 377.44454,263.61485 375.920393,262.922836 C375.417514,262.694512 375.194944,262.101756 375.423268,261.598877 Z M365.470592,256.905476 C365.711087,256.408304 366.309085,256.200226 366.806258,256.440722 C368.306561,257.166459 369.807295,257.8823 371.308462,258.588246 C371.808242,258.823275 372.022865,259.418955 371.787836,259.918735 C371.552807,260.418515 370.957127,260.633138 370.457347,260.398109 C368.949557,259.689048 367.442223,258.970059 365.935346,258.241142 C365.438174,258.000646 365.230096,257.402648 365.470592,256.905476 Z M355.638881,251.978591 C355.891035,251.487229 356.493774,251.293313 356.985136,251.545468 C358.468193,252.306535 359.951673,253.057908 361.435575,253.799587 C361.92959,254.046503 362.129902,254.647147 361.882985,255.141162 C361.636069,255.635177 361.035425,255.835489 360.54141,255.588572 C359.051161,254.843721 357.561359,254.089146 356.072004,253.324847 C355.580642,253.072692 355.386726,252.469953 355.638881,251.978591 Z M345.927666,246.827526 C346.190975,246.342051 346.797986,246.16195 347.283461,246.425259 C348.748382,247.219795 350.213717,248.004849 351.679466,248.78042 C352.167625,249.03872 352.353963,249.643845 352.095663,250.132004 C351.837364,250.620163 351.232239,250.806502 350.744079,250.548202 C349.27226,249.769418 347.800877,248.981124 346.329933,248.183322 C345.844457,247.920012 345.664356,247.313002 345.927666,246.827526 Z M336.318588,241.451205 C336.59258,240.971677 337.203428,240.805058 337.682956,241.07905 C339.13118,241.906534 340.579809,242.724727 342.028844,243.53363 C342.511078,243.80283 342.683776,244.411988 342.414575,244.894222 C342.145375,245.376456 341.536217,245.549154 341.053983,245.279954 C339.599141,244.467809 338.144728,243.646349 336.690744,242.815573 C336.211216,242.541581 336.044596,241.930733 336.318588,241.451205 Z M326.838079,235.873381 C327.122263,235.399823 327.736535,235.246305 328.210094,235.530489 C329.639273,236.388144 331.068848,237.23673 332.498819,238.076245 C332.975091,238.355857 333.134515,238.968623 332.854902,239.444895 C332.57529,239.921168 331.962524,240.080592 331.486252,239.800979 C330.05074,238.958211 328.615646,238.10635 327.180971,237.245396 C326.707413,236.961212 326.553895,236.34694 326.838079,235.873381 Z M317.476735,230.098167 C317.770646,229.630583 318.387959,229.489794 318.855543,229.783705 C320.266812,230.670792 321.678468,231.549014 323.09051,232.418369 C323.560808,232.707918 323.707333,233.323896 323.417784,233.794193 C323.128235,234.264491 322.512258,234.411016 322.04196,234.121467 C320.62463,233.248856 319.207709,232.367359 317.791197,231.476976 C317.323613,231.183064 317.182823,230.565751 317.476735,230.098167 Z M308.234121,224.134454 C308.537309,223.672832 309.157311,223.544395 309.618933,223.847584 C311.013464,224.763496 312.408373,225.67073 313.80366,226.569286 C314.26799,226.868311 314.401996,227.487133 314.102971,227.951463 C313.803945,228.415793 313.185124,228.549799 312.720794,228.250773 C311.320459,227.348967 309.920525,226.438465 308.520991,225.519266 C308.059369,225.216078 307.930932,224.596076 308.234121,224.134454 Z M299.100907,217.984911 C299.412948,217.529226 300.035313,217.412779 300.490998,217.724819 C301.866919,218.667012 303.243211,219.600737 304.619872,220.525993 C305.078247,220.834068 305.20009,221.455399 304.892015,221.913775 C304.58394,222.37215 303.962609,222.493993 303.504233,222.185918 C302.122765,221.25743 300.741687,220.320458 299.360999,219.375002 C298.905314,219.062961 298.788866,218.440596 299.100907,217.984911 Z M290.094496,211.670226 C290.414964,211.220427 291.039388,211.115582 291.489187,211.43605 C292.849201,212.405016 294.209578,213.365688 295.570316,214.318068 C296.022787,214.634752 296.132864,215.258275 295.81618,215.710746 C295.499496,216.163216 294.875973,216.273293 294.423503,215.95661 C293.058177,215.00102 291.693234,214.037122 290.328672,213.064916 C289.878873,212.744449 289.774029,212.120025 290.094496,211.670226 Z M281.205563,205.193103 C281.534057,204.749132 282.160264,204.655519 282.604235,204.984013 C283.944103,205.975382 285.284324,206.958682 286.624897,207.933914 C287.071507,208.258812 287.170174,208.884241 286.845277,209.330851 C286.52038,209.777461 285.89495,209.876129 285.44834,209.551232 C284.103407,208.572827 282.758844,207.586341 281.414653,206.591774 C280.970682,206.26328 280.877069,205.637074 281.205563,205.193103 Z M272.45249,198.519752 C272.792434,198.084486 273.420866,198.007211 273.856132,198.347155 C275.156224,199.362528 276.473018,200.377063 277.806514,201.390758 C278.246184,201.724986 278.331662,202.352355 277.997434,202.792025 C277.663206,203.231696 277.035837,203.317173 276.596167,202.982945 C275.255764,201.963999 273.932071,200.944149 272.625088,199.923394 C272.189821,199.583451 272.112547,198.955019 272.45249,198.519752 Z M263.906358,191.593482 C264.25962,191.168953 264.890143,191.111179 265.314672,191.46444 C266.581981,192.518999 267.867174,193.572664 269.170252,194.625435 C269.599852,194.972512 269.666749,195.602134 269.319671,196.031733 C268.972593,196.461332 268.342972,196.528229 267.913373,196.181151 C266.602816,195.122339 265.310158,194.062554 264.0354,193.001796 C263.610871,192.648535 263.553097,192.018011 263.906358,191.593482 Z M255.583572,184.380488 C255.951258,183.968389 256.583398,183.932386 256.995497,184.300072 C258.224966,185.397039 259.473642,186.493051 260.741525,187.588107 C261.159496,187.949103 261.205683,188.580581 260.844687,188.998553 C260.48369,189.416524 259.852212,189.462711 259.434241,189.101714 C258.158259,187.999664 256.901508,186.896564 255.663988,185.792414 C255.251889,185.424727 255.215886,184.792587 255.583572,184.380488 Z M247.536813,176.870963 C247.920077,176.473312 248.553135,176.46165 248.950786,176.844914 C250.136496,177.987727 251.342891,179.129517 252.569973,180.270283 C252.974464,180.646322 252.99753,181.279066 252.621491,181.683558 C252.245452,182.088049 251.612707,182.111115 251.208216,181.735076 C249.972375,180.586167 248.757256,179.436121 247.562861,178.284937 C247.16521,177.901672 247.153548,177.268614 247.536813,176.870963 Z M239.848461,169.081737 C240.248414,168.700875 240.88139,168.716351 241.262252,169.116304 C242.39706,170.307995 243.554183,171.49859 244.733622,172.688087 C245.122484,173.080266 245.119796,173.713425 244.727617,174.102288 C244.335439,174.49115 243.702279,174.488462 243.313417,174.096283 C242.124537,172.897266 240.958029,171.697014 239.813894,170.495528 C239.433031,170.095575 239.448508,169.462599 239.848461,169.081737 Z M232.481211,160.895372 C232.899157,160.534345 233.530638,160.580487 233.891665,160.998433 C234.966693,162.24295 236.065859,163.486289 237.189164,164.728449 C237.559599,165.138078 237.527825,165.770446 237.118195,166.14088 C236.708565,166.511315 236.076198,166.479541 235.705763,166.069911 C234.572338,164.81656 233.463133,163.561865 232.37815,162.305825 C232.017124,161.887879 232.063266,161.256398 232.481211,160.895372 Z M225.543121,152.327613 C225.980188,151.989988 226.6082,152.070601 226.945826,152.507668 C227.950525,153.808282 228.98136,155.10763 230.038335,156.405708 C230.387056,156.833975 230.322571,157.463847 229.894305,157.812568 C229.466038,158.161289 228.836165,158.096804 228.487445,157.668538 C227.419724,156.357263 226.378264,155.044524 225.363066,153.730318 C225.025441,153.293251 225.106054,152.665238 225.543121,152.327613 Z M219.129903,143.381046 C219.586935,143.070981 220.20879,143.190121 220.518855,143.647154 C221.44037,145.005457 222.390138,146.362398 223.368163,147.717975 C223.691303,148.165857 223.590179,148.790895 223.142296,149.114035 C222.694413,149.437174 222.069375,149.33605 221.746236,148.888167 C220.75699,147.517038 219.796175,146.144315 218.863795,144.769997 C218.553731,144.312965 218.672871,143.69111 219.129903,143.381046 Z M213.318812,134.024414 C213.796251,133.746797 214.408344,133.908784 214.685961,134.386222 C215.511334,135.805677 216.367275,137.223661 217.253789,138.640175 C217.546782,139.108335 217.404782,139.725371 216.936623,140.018365 C216.468464,140.311358 215.851427,140.169359 215.558434,139.701199 C214.660468,138.266386 213.793323,136.829841 212.957004,135.391562 C212.679387,134.914124 212.841374,134.302031 213.318812,134.024414 Z M208.233547,124.294787 C208.731033,124.05494 209.328759,124.263797 209.568606,124.761283 C210.281162,126.23925 211.026537,127.715638 211.804736,129.190446 C212.062476,129.678901 211.875443,130.283812 211.386988,130.541551 C210.898532,130.799291 210.293621,130.612258 210.035882,130.123802 C209.246436,128.627681 208.490157,127.129695 207.767052,125.629846 C207.527205,125.132361 207.736062,124.534634 208.233547,124.294787 Z M203.951776,114.140764 C204.468047,113.944594 205.045594,114.204086 205.241765,114.720357 C205.82503,116.255364 206.443337,117.788671 207.096692,119.320282 C207.313393,119.828277 207.077252,120.415759 206.569257,120.63246 C206.061262,120.849161 205.47378,120.613021 205.257079,120.105025 C204.593274,118.548919 203.964972,116.990827 203.372182,115.430753 C203.176012,114.914482 203.435505,114.336934 203.951776,114.140764 Z M200.614209,103.662651 C201.146566,103.515632 201.697309,103.82801 201.844328,104.360367 C202.281655,105.943935 202.755884,107.525685 203.267022,109.105626 C203.437021,109.631096 203.148854,110.194885 202.623384,110.364883 C202.097914,110.534882 201.534125,110.246715 201.364126,109.721245 C200.844097,108.113822 200.36155,106.504328 199.916493,104.89277 C199.769474,104.360413 200.081852,103.80967 200.614209,103.662651 Z M196.650592,81.0702266 C200.4778,80.5239836 204.023183,83.1837314 204.569426,87.0109396 C205.066085,90.4907375 202.912375,93.7375524 199.64056,94.7089145 C199.873509,96.0007346 200.131631,97.2920305 200.414098,98.5821069 C200.532224,99.121611 200.19063,99.6547258 199.651126,99.7728523 C199.111622,99.8909788 198.578507,99.5493848 198.460381,99.0098808 C198.099438,97.3613914 197.777494,95.7107875 197.494555,94.0580799 L197.661352,95.000824 C194.220925,95.0158157 191.20973,92.4912273 190.709879,88.9890604 C190.163636,85.1618523 192.823384,81.6164696 196.650592,81.0702266 Z M202.589491,87.2935283 C202.199317,84.5598081 199.666901,82.6599883 196.933181,83.0501619 C194.199461,83.4403354 192.299641,85.9727516 192.689815,88.7064717 C193.066554,91.3460648 195.440552,93.2081944 198.064538,92.9820561 C198.141295,92.9445181 198.224083,92.9186386 198.311474,92.9036776 C198.418055,92.8854311 198.523582,92.8847777 198.62508,92.8996133 C201.207609,92.385522 202.966267,89.9333838 202.589491,87.2935283 Z" fill="#D22A80" fill-rule="nonzero"></path>
                <line x1="43" y1="168" x2="172" y2="168" id="Line" stroke="#D22A80" stroke-width="2" stroke-linecap="square"></line>
                <line x1="143" y1="187" x2="217" y2="187" id="Line" stroke="#D22A80" stroke-width="2" stroke-linecap="square"></line>
                <text id="Each-Operation-Resul" opacity="0.9" font-family="NeueHaasUnicaW1G-Medium, Neue Haas Unica W1G" font-size="16" font-weight="400" line-spacing="19" letter-spacing="0.2526315" fill="#000000">
                    <tspan x="0" y="167.176">Each </tspan>
                    <tspan x="41.7431575" y="167" font-family="NeueHaasUnicaW1G-Bold, Neue Haas Unica W1G" font-weight="bold">Operation Result</tspan>
                    <tspan x="171.913262" y="167.176"> </tspan>
                    <tspan x="0" y="186.176">corresponds to an </tspan>
                    <tspan x="140.883367" y="186" font-family="NeueHaasUnicaW1G-Bold, Neue Haas Unica W1G" font-weight="bold">Operation</tspan>
                    <tspan x="217.76505" y="186.176"> </tspan>
                    <tspan x="0" y="205.176">that has been sent to the </tspan>
                    <tspan x="190.808419" y="205" font-family="NeueHaasUnicaW1G-Bold, Neue Haas Unica W1G" font-weight="bold">Client</tspan>
                    <tspan x="236.756208" y="205.176">.</tspan>
                </text>
            </g>
        </g>
    </g>
</svg>