<?xml version="1.0" encoding="UTF-8"?>
<svg width="744px" height="301px" viewBox="0 0 744 301" version="1.1" xmlns="http://www.w3.org/2000/svg" xmlns:xlink="http://www.w3.org/1999/xlink">
    <!-- Generator: Sketch 59 (86127) - https://sketch.com -->
    <title>client-event-hub</title>
    <desc>Created with Sketch.</desc>
    <g id="Page-1" stroke="none" stroke-width="1" fill="none" fill-rule="evenodd">
        <g id="Slide-6" transform="translate(-43.000000, -223.000000)">
            <g id="Group-2" transform="translate(60.000000, 239.000000)">
                <g id="Group" transform="translate(627.000000, 130.000000)">
                    <ellipse id="Oval" fill="#C8B8FF" cx="41" cy="40.5" rx="41" ry="40.5"></ellipse>
                    <text id="Client." opacity="0.9" font-family="TitlingGothicFBNormal-Medium, TitlingGothicFB Normal" font-size="19" font-weight="400" letter-spacing="0.3" fill="#000000">
                        <tspan x="7.257" y="46">Client.</tspan>
                    </text>
                </g>
                <g id="Group" transform="translate(0.000000, 144.000000)">
                    <rect id="Rectangle" fill="#C8B8FF" x="0" y="0" width="142" height="55" rx="8"></rect>
                    <text id="useQuery." opacity="0.9" font-family="TitlingGothicFBNormal-Medium, TitlingGothicFB Normal" font-size="19" font-weight="400" letter-spacing="0.3" fill="#000000">
                        <tspan x="18.551" y="34">useQuery.</tspan>
                    </text>
                </g>
                <g id="Group-7" transform="translate(266.000000, 97.000000)">
                    <rect id="Rectangle" stroke="#F395A9" stroke-width="2" fill="#F0647D" x="0" y="0" width="35" height="35"></rect>
                    <text id="A." opacity="0.9" font-family="TitlingGothicFBNormal-Regular, TitlingGothicFB Normal" font-size="18" font-weight="normal" letter-spacing="0.2842105" fill="#000000">
                        <tspan x="8.7207895" y="24">A.</tspan>
                    </text>
                </g>
                <g id="Group-7" transform="translate(508.000000, 93.000000)" fill="#F0647D" stroke="#F395A9" stroke-width="2">
                    <rect id="Rectangle" x="0" y="0" width="35" height="35"></rect>
                </g>
                <line x1="509" y1="94" x2="542" y2="127" id="Line" stroke="#000000" stroke-width="2" opacity="0.721865699" style="mix-blend-mode: darken;" stroke-linecap="round"></line>
                <line x1="509" y1="127" x2="542" y2="94" id="Line" stroke="#000000" stroke-width="2" opacity="0.721865699" style="mix-blend-mode: darken;" stroke-linecap="round"></line>
                <g id="Group-8" transform="translate(342.000000, 209.000000)">
                    <rect id="Rectangle" stroke="#D22A4E" stroke-width="2" fill="#F0647D" x="0" y="0" width="35" height="35"></rect>
                    <text id="A." opacity="0.9" font-family="TitlingGothicFBNormal-Regular, TitlingGothicFB Normal" font-size="18" font-weight="normal" letter-spacing="0.2842105" fill="#000000">
                        <tspan x="8.7207895" y="25">A.</tspan>
                    </text>
                </g>
                <g id="Group-8" transform="translate(440.000000, 209.000000)">
                    <rect id="Rectangle" stroke="#D22A4E" stroke-width="2" fill="#F0647D" x="0" y="0" width="35" height="35"></rect>
                    <text id="A." opacity="0.9" font-family="TitlingGothicFBNormal-Regular, TitlingGothicFB Normal" font-size="18" font-weight="normal" letter-spacing="0.2842105" fill="#000000">
                        <tspan x="8.7207895" y="25">A.</tspan>
                    </text>
                </g>
                <g id="Group-5" transform="translate(162.000000, 174.000000)">
                    <path id="Path-2" d="M374.345451,7.71841873 C374.897736,7.71841873 375.345451,8.16613398 375.345451,8.71841873 L375.345451,8.71841873 L375.345451,20.7184187 C375.345451,21.2707035 374.897736,21.7184187 374.345451,21.7184187 C373.793166,21.7184187 373.345451,21.2707035 373.345451,20.7184187 L373.345451,20.7184187 L373.345451,8.71841873 C373.345451,8.16613398 373.793166,7.71841873 374.345451,7.71841873 Z M13.3871069,7.71841873 C13.8483283,7.71841873 14.2222222,8.09231261 14.2222222,8.55353409 L14.2222222,8.55353409 L14.222,13.718 L18.2222222,13.7184187 C18.7350581,13.7184187 19.1577294,14.1044589 19.2154945,14.6017976 L19.2222222,14.7184187 C19.2222222,15.2707035 18.774507,15.7184187 18.2222222,15.7184187 L18.2222222,15.7184187 L14.222,15.718 L14.2222222,20.8831204 C14.2222222,20.9695521 14.2088065,21.0551925 14.1826834,21.1370412 L14.1340567,21.2565954 C13.9277922,21.6691244 13.426161,21.8363348 13.0136319,21.6300703 L13.0136319,21.6300703 L0.684045575,15.4652771 C0.522427869,15.3844683 0.391379486,15.2534199 0.310570634,15.0918022 C0.104306119,14.6792732 0.271516546,14.1776419 0.684045575,13.9713774 L0.684045575,13.9713774 L13.0136319,7.80658421 C13.1295922,7.74860405 13.2574593,7.71841873 13.3871069,7.71841873 Z M29.2222222,13.7184187 C29.774507,13.7184187 30.2222222,14.166134 30.2222222,14.7184187 C30.2222222,15.2707035 29.774507,15.7184187 29.2222222,15.7184187 L29.2222222,15.7184187 L24.2222222,15.7184187 C23.6699375,15.7184187 23.2222222,15.2707035 23.2222222,14.7184187 C23.2222222,14.166134 23.6699375,13.7184187 24.2222222,13.7184187 L24.2222222,13.7184187 Z M40.2222222,13.7184187 C40.774507,13.7184187 41.2222222,14.166134 41.2222222,14.7184187 C41.2222222,15.2707035 40.774507,15.7184187 40.2222222,15.7184187 L40.2222222,15.7184187 L35.2222222,15.7184187 C34.6699375,15.7184187 34.2222222,15.2707035 34.2222222,14.7184187 C34.2222222,14.166134 34.6699375,13.7184187 35.2222222,13.7184187 L35.2222222,13.7184187 Z M51.2222222,13.7184187 C51.774507,13.7184187 52.2222222,14.166134 52.2222222,14.7184187 C52.2222222,15.2707035 51.774507,15.7184187 51.2222222,15.7184187 L51.2222222,15.7184187 L46.2222222,15.7184187 C45.6699375,15.7184187 45.2222222,15.2707035 45.2222222,14.7184187 C45.2222222,14.166134 45.6699375,13.7184187 46.2222222,13.7184187 L46.2222222,13.7184187 Z M62.2222222,13.7184187 C62.774507,13.7184187 63.2222222,14.166134 63.2222222,14.7184187 C63.2222222,15.2707035 62.774507,15.7184187 62.2222222,15.7184187 L62.2222222,15.7184187 L57.2222222,15.7184187 C56.6699375,15.7184187 56.2222222,15.2707035 56.2222222,14.7184187 C56.2222222,14.166134 56.6699375,13.7184187 57.2222222,13.7184187 L57.2222222,13.7184187 Z M73.2222222,13.7184187 C73.774507,13.7184187 74.2222222,14.166134 74.2222222,14.7184187 C74.2222222,15.2707035 73.774507,15.7184187 73.2222222,15.7184187 L73.2222222,15.7184187 L68.2222222,15.7184187 C67.6699375,15.7184187 67.2222222,15.2707035 67.2222222,14.7184187 C67.2222222,14.166134 67.6699375,13.7184187 68.2222222,13.7184187 L68.2222222,13.7184187 Z M84.2222222,13.7184187 C84.774507,13.7184187 85.2222222,14.166134 85.2222222,14.7184187 C85.2222222,15.2707035 84.774507,15.7184187 84.2222222,15.7184187 L84.2222222,15.7184187 L79.2222222,15.7184187 C78.6699375,15.7184187 78.2222222,15.2707035 78.2222222,14.7184187 C78.2222222,14.166134 78.6699375,13.7184187 79.2222222,13.7184187 L79.2222222,13.7184187 Z M95.2222222,13.7184187 C95.774507,13.7184187 96.2222222,14.166134 96.2222222,14.7184187 C96.2222222,15.2707035 95.774507,15.7184187 95.2222222,15.7184187 L95.2222222,15.7184187 L90.2222222,15.7184187 C89.6699375,15.7184187 89.2222222,15.2707035 89.2222222,14.7184187 C89.2222222,14.166134 89.6699375,13.7184187 90.2222222,13.7184187 L90.2222222,13.7184187 Z M106.222222,13.7184187 C106.774507,13.7184187 107.222222,14.166134 107.222222,14.7184187 C107.222222,15.2707035 106.774507,15.7184187 106.222222,15.7184187 L106.222222,15.7184187 L101.222222,15.7184187 C100.669937,15.7184187 100.222222,15.2707035 100.222222,14.7184187 C100.222222,14.166134 100.669937,13.7184187 101.222222,13.7184187 L101.222222,13.7184187 Z M117.222222,13.7184187 C117.774507,13.7184187 118.222222,14.166134 118.222222,14.7184187 C118.222222,15.2707035 117.774507,15.7184187 117.222222,15.7184187 L117.222222,15.7184187 L112.222222,15.7184187 C111.669937,15.7184187 111.222222,15.2707035 111.222222,14.7184187 C111.222222,14.166134 111.669937,13.7184187 112.222222,13.7184187 L112.222222,13.7184187 Z M128.222222,13.7184187 C128.774507,13.7184187 129.222222,14.166134 129.222222,14.7184187 C129.222222,15.2707035 128.774507,15.7184187 128.222222,15.7184187 L128.222222,15.7184187 L123.222222,15.7184187 C122.669937,15.7184187 122.222222,15.2707035 122.222222,14.7184187 C122.222222,14.166134 122.669937,13.7184187 123.222222,13.7184187 L123.222222,13.7184187 Z M139.222222,13.7184187 C139.774507,13.7184187 140.222222,14.166134 140.222222,14.7184187 C140.222222,15.2707035 139.774507,15.7184187 139.222222,15.7184187 L139.222222,15.7184187 L134.222222,15.7184187 C133.669937,15.7184187 133.222222,15.2707035 133.222222,14.7184187 C133.222222,14.166134 133.669937,13.7184187 134.222222,13.7184187 L134.222222,13.7184187 Z M150.222222,13.7184187 C150.774507,13.7184187 151.222222,14.166134 151.222222,14.7184187 C151.222222,15.2707035 150.774507,15.7184187 150.222222,15.7184187 L150.222222,15.7184187 L145.222222,15.7184187 C144.669937,15.7184187 144.222222,15.2707035 144.222222,14.7184187 C144.222222,14.166134 144.669937,13.7184187 145.222222,13.7184187 L145.222222,13.7184187 Z M161.222222,13.7184187 C161.774507,13.7184187 162.222222,14.166134 162.222222,14.7184187 C162.222222,15.2707035 161.774507,15.7184187 161.222222,15.7184187 L161.222222,15.7184187 L156.222222,15.7184187 C155.669937,15.7184187 155.222222,15.2707035 155.222222,14.7184187 C155.222222,14.166134 155.669937,13.7184187 156.222222,13.7184187 L156.222222,13.7184187 Z M172.222222,13.7184187 C172.774507,13.7184187 173.222222,14.166134 173.222222,14.7184187 C173.222222,15.2707035 172.774507,15.7184187 172.222222,15.7184187 L172.222222,15.7184187 L167.222222,15.7184187 C166.669937,15.7184187 166.222222,15.2707035 166.222222,14.7184187 C166.222222,14.166134 166.669937,13.7184187 167.222222,13.7184187 L167.222222,13.7184187 Z M183.222222,13.7184187 C183.774507,13.7184187 184.222222,14.166134 184.222222,14.7184187 C184.222222,15.2707035 183.774507,15.7184187 183.222222,15.7184187 L183.222222,15.7184187 L178.222222,15.7184187 C177.669937,15.7184187 177.222222,15.2707035 177.222222,14.7184187 C177.222222,14.166134 177.669937,13.7184187 178.222222,13.7184187 L178.222222,13.7184187 Z M194.222222,13.7184187 C194.774507,13.7184187 195.222222,14.166134 195.222222,14.7184187 C195.222222,15.2707035 194.774507,15.7184187 194.222222,15.7184187 L194.222222,15.7184187 L189.222222,15.7184187 C188.669937,15.7184187 188.222222,15.2707035 188.222222,14.7184187 C188.222222,14.166134 188.669937,13.7184187 189.222222,13.7184187 L189.222222,13.7184187 Z M205.222222,13.7184187 C205.774507,13.7184187 206.222222,14.166134 206.222222,14.7184187 C206.222222,15.2707035 205.774507,15.7184187 205.222222,15.7184187 L205.222222,15.7184187 L200.222222,15.7184187 C199.669937,15.7184187 199.222222,15.2707035 199.222222,14.7184187 C199.222222,14.166134 199.669937,13.7184187 200.222222,13.7184187 L200.222222,13.7184187 Z M216.222222,13.7184187 C216.774507,13.7184187 217.222222,14.166134 217.222222,14.7184187 C217.222222,15.2707035 216.774507,15.7184187 216.222222,15.7184187 L216.222222,15.7184187 L211.222222,15.7184187 C210.669937,15.7184187 210.222222,15.2707035 210.222222,14.7184187 C210.222222,14.166134 210.669937,13.7184187 211.222222,13.7184187 L211.222222,13.7184187 Z M227.222222,13.7184187 C227.774507,13.7184187 228.222222,14.166134 228.222222,14.7184187 C228.222222,15.2707035 227.774507,15.7184187 227.222222,15.7184187 L227.222222,15.7184187 L222.222222,15.7184187 C221.669937,15.7184187 221.222222,15.2707035 221.222222,14.7184187 C221.222222,14.166134 221.669937,13.7184187 222.222222,13.7184187 L222.222222,13.7184187 Z M238.222222,13.7184187 C238.774507,13.7184187 239.222222,14.166134 239.222222,14.7184187 C239.222222,15.2707035 238.774507,15.7184187 238.222222,15.7184187 L238.222222,15.7184187 L233.222222,15.7184187 C232.669937,15.7184187 232.222222,15.2707035 232.222222,14.7184187 C232.222222,14.166134 232.669937,13.7184187 233.222222,13.7184187 L233.222222,13.7184187 Z M249.222222,13.7184187 C249.774507,13.7184187 250.222222,14.166134 250.222222,14.7184187 C250.222222,15.2707035 249.774507,15.7184187 249.222222,15.7184187 L249.222222,15.7184187 L244.222222,15.7184187 C243.669937,15.7184187 243.222222,15.2707035 243.222222,14.7184187 C243.222222,14.166134 243.669937,13.7184187 244.222222,13.7184187 L244.222222,13.7184187 Z M260.222222,13.7184187 C260.774507,13.7184187 261.222222,14.166134 261.222222,14.7184187 C261.222222,15.2707035 260.774507,15.7184187 260.222222,15.7184187 L260.222222,15.7184187 L255.222222,15.7184187 C254.669937,15.7184187 254.222222,15.2707035 254.222222,14.7184187 C254.222222,14.166134 254.669937,13.7184187 255.222222,13.7184187 L255.222222,13.7184187 Z M271.222222,13.7184187 C271.774507,13.7184187 272.222222,14.166134 272.222222,14.7184187 C272.222222,15.2707035 271.774507,15.7184187 271.222222,15.7184187 L271.222222,15.7184187 L266.222222,15.7184187 C265.669937,15.7184187 265.222222,15.2707035 265.222222,14.7184187 C265.222222,14.166134 265.669937,13.7184187 266.222222,13.7184187 L266.222222,13.7184187 Z M282.222222,13.7184187 C282.774507,13.7184187 283.222222,14.166134 283.222222,14.7184187 C283.222222,15.2707035 282.774507,15.7184187 282.222222,15.7184187 L282.222222,15.7184187 L277.222222,15.7184187 C276.669937,15.7184187 276.222222,15.2707035 276.222222,14.7184187 C276.222222,14.166134 276.669937,13.7184187 277.222222,13.7184187 L277.222222,13.7184187 Z M293.222222,13.7184187 C293.774507,13.7184187 294.222222,14.166134 294.222222,14.7184187 C294.222222,15.2707035 293.774507,15.7184187 293.222222,15.7184187 L293.222222,15.7184187 L288.222222,15.7184187 C287.669937,15.7184187 287.222222,15.2707035 287.222222,14.7184187 C287.222222,14.166134 287.669937,13.7184187 288.222222,13.7184187 L288.222222,13.7184187 Z M304.222222,13.7184187 C304.774507,13.7184187 305.222222,14.166134 305.222222,14.7184187 C305.222222,15.2707035 304.774507,15.7184187 304.222222,15.7184187 L304.222222,15.7184187 L299.222222,15.7184187 C298.669937,15.7184187 298.222222,15.2707035 298.222222,14.7184187 C298.222222,14.166134 298.669937,13.7184187 299.222222,13.7184187 L299.222222,13.7184187 Z M315.222222,13.7184187 C315.774507,13.7184187 316.222222,14.166134 316.222222,14.7184187 C316.222222,15.2707035 315.774507,15.7184187 315.222222,15.7184187 L315.222222,15.7184187 L310.222222,15.7184187 C309.669937,15.7184187 309.222222,15.2707035 309.222222,14.7184187 C309.222222,14.166134 309.669937,13.7184187 310.222222,13.7184187 L310.222222,13.7184187 Z M326.222222,13.7184187 C326.774507,13.7184187 327.222222,14.166134 327.222222,14.7184187 C327.222222,15.2707035 326.774507,15.7184187 326.222222,15.7184187 L326.222222,15.7184187 L321.222222,15.7184187 C320.669937,15.7184187 320.222222,15.2707035 320.222222,14.7184187 C320.222222,14.166134 320.669937,13.7184187 321.222222,13.7184187 L321.222222,13.7184187 Z M337.222222,13.7184187 C337.774507,13.7184187 338.222222,14.166134 338.222222,14.7184187 C338.222222,15.2707035 337.774507,15.7184187 337.222222,15.7184187 L337.222222,15.7184187 L332.222222,15.7184187 C331.669937,15.7184187 331.222222,15.2707035 331.222222,14.7184187 C331.222222,14.166134 331.669937,13.7184187 332.222222,13.7184187 L332.222222,13.7184187 Z M348.222222,13.7184187 C348.774507,13.7184187 349.222222,14.166134 349.222222,14.7184187 C349.222222,15.2707035 348.774507,15.7184187 348.222222,15.7184187 L348.222222,15.7184187 L343.222222,15.7184187 C342.669937,15.7184187 342.222222,15.2707035 342.222222,14.7184187 C342.222222,14.166134 342.669937,13.7184187 343.222222,13.7184187 L343.222222,13.7184187 Z M359.222222,13.7184187 C359.774507,13.7184187 360.222222,14.166134 360.222222,14.7184187 C360.222222,15.2707035 359.774507,15.7184187 359.222222,15.7184187 L359.222222,15.7184187 L354.222222,15.7184187 C353.669937,15.7184187 353.222222,15.2707035 353.222222,14.7184187 C353.222222,14.166134 353.669937,13.7184187 354.222222,13.7184187 L354.222222,13.7184187 Z M370.222222,13.7184187 C370.774507,13.7184187 371.222222,14.166134 371.222222,14.7184187 C371.222222,15.2707035 370.774507,15.7184187 370.222222,15.7184187 L370.222222,15.7184187 L365.222222,15.7184187 C364.669937,15.7184187 364.222222,15.2707035 364.222222,14.7184187 C364.222222,14.166134 364.669937,13.7184187 365.222222,13.7184187 L365.222222,13.7184187 Z" fill="#D22A80" fill-rule="nonzero"></path>
                    <text id="Results" opacity="0.9" font-family="NeueHaasUnicaW1G-Medium, Neue Haas Unica W1G" font-size="18" font-weight="400" letter-spacing="0.2842104" fill="#000000">
                        <tspan x="385" y="21">Results</tspan>
                    </text>
                </g>
                <g id="Group-4" transform="translate(161.000000, 141.000000)">
                    <path id="Path-2" d="M104,7.71841873 C104.552285,7.71841873 105,8.16613398 105,8.71841873 L105,8.71841873 L104.999,13.718 L109,13.7184187 C109.512836,13.7184187 109.935507,14.1044589 109.993272,14.6017976 L110,14.7184187 C110,15.2707035 109.552285,15.7184187 109,15.7184187 L109,15.7184187 L104.999,15.718 L105,20.7184187 C105,21.2312546 104.61396,21.6539259 104.116621,21.711691 L104,21.7184187 C103.447715,21.7184187 103,21.2707035 103,20.7184187 L103,20.7184187 L103,8.71841873 C103,8.16613398 103.447715,7.71841873 104,7.71841873 Z M435.612893,7.71841873 C435.742541,7.71841873 435.870408,7.74860405 435.986368,7.80658421 L435.986368,7.80658421 L448.315954,13.9713774 C448.728483,14.1776419 448.895694,14.6792732 448.689429,15.0918022 C448.608621,15.2534199 448.477572,15.3844683 448.315954,15.4652771 L448.315954,15.4652771 L435.986368,21.6300703 C435.573839,21.8363348 435.072208,21.6691244 434.865943,21.2565954 C434.807963,21.1406351 434.777778,21.012768 434.777778,20.8831204 L434.777778,20.8831204 L434.777,15.718 L434,15.7184187 C433.487164,15.7184187 433.064493,15.3323785 433.006728,14.8350399 L433,14.7184187 C433,14.166134 433.447715,13.7184187 434,13.7184187 L434,13.7184187 L434.777,13.718 L434.777778,8.55353409 C434.777778,8.12779119 435.096362,7.7764576 435.508138,7.72492547 Z M120,13.7184187 C120.552285,13.7184187 121,14.166134 121,14.7184187 C121,15.2707035 120.552285,15.7184187 120,15.7184187 L120,15.7184187 L115,15.7184187 C114.447715,15.7184187 114,15.2707035 114,14.7184187 C114,14.166134 114.447715,13.7184187 115,13.7184187 L115,13.7184187 Z M131,13.7184187 C131.552285,13.7184187 132,14.166134 132,14.7184187 C132,15.2707035 131.552285,15.7184187 131,15.7184187 L131,15.7184187 L126,15.7184187 C125.447715,15.7184187 125,15.2707035 125,14.7184187 C125,14.166134 125.447715,13.7184187 126,13.7184187 L126,13.7184187 Z M142,13.7184187 C142.552285,13.7184187 143,14.166134 143,14.7184187 C143,15.2707035 142.552285,15.7184187 142,15.7184187 L142,15.7184187 L137,15.7184187 C136.447715,15.7184187 136,15.2707035 136,14.7184187 C136,14.166134 136.447715,13.7184187 137,13.7184187 L137,13.7184187 Z M153,13.7184187 C153.552285,13.7184187 154,14.166134 154,14.7184187 C154,15.2707035 153.552285,15.7184187 153,15.7184187 L153,15.7184187 L148,15.7184187 C147.447715,15.7184187 147,15.2707035 147,14.7184187 C147,14.166134 147.447715,13.7184187 148,13.7184187 L148,13.7184187 Z M164,13.7184187 C164.552285,13.7184187 165,14.166134 165,14.7184187 C165,15.2707035 164.552285,15.7184187 164,15.7184187 L164,15.7184187 L159,15.7184187 C158.447715,15.7184187 158,15.2707035 158,14.7184187 C158,14.166134 158.447715,13.7184187 159,13.7184187 L159,13.7184187 Z M175,13.7184187 C175.552285,13.7184187 176,14.166134 176,14.7184187 C176,15.2707035 175.552285,15.7184187 175,15.7184187 L175,15.7184187 L170,15.7184187 C169.447715,15.7184187 169,15.2707035 169,14.7184187 C169,14.166134 169.447715,13.7184187 170,13.7184187 L170,13.7184187 Z M186,13.7184187 C186.552285,13.7184187 187,14.166134 187,14.7184187 C187,15.2707035 186.552285,15.7184187 186,15.7184187 L186,15.7184187 L181,15.7184187 C180.447715,15.7184187 180,15.2707035 180,14.7184187 C180,14.166134 180.447715,13.7184187 181,13.7184187 L181,13.7184187 Z M197,13.7184187 C197.552285,13.7184187 198,14.166134 198,14.7184187 C198,15.2707035 197.552285,15.7184187 197,15.7184187 L197,15.7184187 L192,15.7184187 C191.447715,15.7184187 191,15.2707035 191,14.7184187 C191,14.166134 191.447715,13.7184187 192,13.7184187 L192,13.7184187 Z M208,13.7184187 C208.552285,13.7184187 209,14.166134 209,14.7184187 C209,15.2707035 208.552285,15.7184187 208,15.7184187 L208,15.7184187 L203,15.7184187 C202.447715,15.7184187 202,15.2707035 202,14.7184187 C202,14.166134 202.447715,13.7184187 203,13.7184187 L203,13.7184187 Z M219,13.7184187 C219.552285,13.7184187 220,14.166134 220,14.7184187 C220,15.2707035 219.552285,15.7184187 219,15.7184187 L219,15.7184187 L214,15.7184187 C213.447715,15.7184187 213,15.2707035 213,14.7184187 C213,14.166134 213.447715,13.7184187 214,13.7184187 L214,13.7184187 Z M230,13.7184187 C230.552285,13.7184187 231,14.166134 231,14.7184187 C231,15.2707035 230.552285,15.7184187 230,15.7184187 L230,15.7184187 L225,15.7184187 C224.447715,15.7184187 224,15.2707035 224,14.7184187 C224,14.166134 224.447715,13.7184187 225,13.7184187 L225,13.7184187 Z M241,13.7184187 C241.552285,13.7184187 242,14.166134 242,14.7184187 C242,15.2707035 241.552285,15.7184187 241,15.7184187 L241,15.7184187 L236,15.7184187 C235.447715,15.7184187 235,15.2707035 235,14.7184187 C235,14.166134 235.447715,13.7184187 236,13.7184187 L236,13.7184187 Z M252,13.7184187 C252.552285,13.7184187 253,14.166134 253,14.7184187 C253,15.2707035 252.552285,15.7184187 252,15.7184187 L252,15.7184187 L247,15.7184187 C246.447715,15.7184187 246,15.2707035 246,14.7184187 C246,14.166134 246.447715,13.7184187 247,13.7184187 L247,13.7184187 Z M263,13.7184187 C263.552285,13.7184187 264,14.166134 264,14.7184187 C264,15.2707035 263.552285,15.7184187 263,15.7184187 L263,15.7184187 L258,15.7184187 C257.447715,15.7184187 257,15.2707035 257,14.7184187 C257,14.166134 257.447715,13.7184187 258,13.7184187 L258,13.7184187 Z M274,13.7184187 C274.552285,13.7184187 275,14.166134 275,14.7184187 C275,15.2707035 274.552285,15.7184187 274,15.7184187 L274,15.7184187 L269,15.7184187 C268.447715,15.7184187 268,15.2707035 268,14.7184187 C268,14.166134 268.447715,13.7184187 269,13.7184187 L269,13.7184187 Z M285,13.7184187 C285.552285,13.7184187 286,14.166134 286,14.7184187 C286,15.2707035 285.552285,15.7184187 285,15.7184187 L285,15.7184187 L280,15.7184187 C279.447715,15.7184187 279,15.2707035 279,14.7184187 C279,14.166134 279.447715,13.7184187 280,13.7184187 L280,13.7184187 Z M296,13.7184187 C296.552285,13.7184187 297,14.166134 297,14.7184187 C297,15.2707035 296.552285,15.7184187 296,15.7184187 L296,15.7184187 L291,15.7184187 C290.447715,15.7184187 290,15.2707035 290,14.7184187 C290,14.166134 290.447715,13.7184187 291,13.7184187 L291,13.7184187 Z M307,13.7184187 C307.552285,13.7184187 308,14.166134 308,14.7184187 C308,15.2707035 307.552285,15.7184187 307,15.7184187 L307,15.7184187 L302,15.7184187 C301.447715,15.7184187 301,15.2707035 301,14.7184187 C301,14.166134 301.447715,13.7184187 302,13.7184187 L302,13.7184187 Z M318,13.7184187 C318.552285,13.7184187 319,14.166134 319,14.7184187 C319,15.2707035 318.552285,15.7184187 318,15.7184187 L318,15.7184187 L313,15.7184187 C312.447715,15.7184187 312,15.2707035 312,14.7184187 C312,14.166134 312.447715,13.7184187 313,13.7184187 L313,13.7184187 Z M329,13.7184187 C329.552285,13.7184187 330,14.166134 330,14.7184187 C330,15.2707035 329.552285,15.7184187 329,15.7184187 L329,15.7184187 L324,15.7184187 C323.447715,15.7184187 323,15.2707035 323,14.7184187 C323,14.166134 323.447715,13.7184187 324,13.7184187 L324,13.7184187 Z M340,13.7184187 C340.552285,13.7184187 341,14.166134 341,14.7184187 C341,15.2707035 340.552285,15.7184187 340,15.7184187 L340,15.7184187 L335,15.7184187 C334.447715,15.7184187 334,15.2707035 334,14.7184187 C334,14.166134 334.447715,13.7184187 335,13.7184187 L335,13.7184187 Z M351,13.7184187 C351.552285,13.7184187 352,14.166134 352,14.7184187 C352,15.2707035 351.552285,15.7184187 351,15.7184187 L351,15.7184187 L346,15.7184187 C345.447715,15.7184187 345,15.2707035 345,14.7184187 C345,14.166134 345.447715,13.7184187 346,13.7184187 L346,13.7184187 Z M362,13.7184187 C362.552285,13.7184187 363,14.166134 363,14.7184187 C363,15.2707035 362.552285,15.7184187 362,15.7184187 L362,15.7184187 L357,15.7184187 C356.447715,15.7184187 356,15.2707035 356,14.7184187 C356,14.166134 356.447715,13.7184187 357,13.7184187 L357,13.7184187 Z M373,13.7184187 C373.552285,13.7184187 374,14.166134 374,14.7184187 C374,15.2707035 373.552285,15.7184187 373,15.7184187 L373,15.7184187 L368,15.7184187 C367.447715,15.7184187 367,15.2707035 367,14.7184187 C367,14.166134 367.447715,13.7184187 368,13.7184187 L368,13.7184187 Z M384,13.7184187 C384.552285,13.7184187 385,14.166134 385,14.7184187 C385,15.2707035 384.552285,15.7184187 384,15.7184187 L384,15.7184187 L379,15.7184187 C378.447715,15.7184187 378,15.2707035 378,14.7184187 C378,14.166134 378.447715,13.7184187 379,13.7184187 L379,13.7184187 Z M395,13.7184187 C395.552285,13.7184187 396,14.166134 396,14.7184187 C396,15.2707035 395.552285,15.7184187 395,15.7184187 L395,15.7184187 L390,15.7184187 C389.447715,15.7184187 389,15.2707035 389,14.7184187 C389,14.166134 389.447715,13.7184187 390,13.7184187 L390,13.7184187 Z M406,13.7184187 C406.552285,13.7184187 407,14.166134 407,14.7184187 C407,15.2707035 406.552285,15.7184187 406,15.7184187 L406,15.7184187 L401,15.7184187 C400.447715,15.7184187 400,15.2707035 400,14.7184187 C400,14.166134 400.447715,13.7184187 401,13.7184187 L401,13.7184187 Z M417,13.7184187 C417.552285,13.7184187 418,14.166134 418,14.7184187 C418,15.2707035 417.552285,15.7184187 417,15.7184187 L417,15.7184187 L412,15.7184187 C411.447715,15.7184187 411,15.2707035 411,14.7184187 C411,14.166134 411.447715,13.7184187 412,13.7184187 L412,13.7184187 Z M428,13.7184187 C428.552285,13.7184187 429,14.166134 429,14.7184187 C429,15.2707035 428.552285,15.7184187 428,15.7184187 L428,15.7184187 L423,15.7184187 C422.447715,15.7184187 422,15.2707035 422,14.7184187 C422,14.166134 422.447715,13.7184187 423,13.7184187 L423,13.7184187 Z" fill="#D22A80" fill-rule="nonzero"></path>
                    <text id="Operations" opacity="0.9" font-family="NeueHaasUnicaW1G-Medium, Neue Haas Unica W1G" font-size="18" font-weight="400" letter-spacing="0.2842104" fill="#000000">
                        <tspan x="0" y="21">Operations</tspan>
                    </text>
                </g>
                <text id="teardown" font-family="iAWriterQuattroS-Bold, iA Writer Quattro S" font-size="22" font-weight="bold" line-spacing="24" letter-spacing="0.3473684" fill="#F0647D">
                    <tspan x="526" y="23">teardown</tspan>
                </text>
                <text id="results" font-family="iAWriterQuattroS-Bold, iA Writer Quattro S" font-size="22" font-weight="bold" line-spacing="24" letter-spacing="0.3473684" fill="#F0647D">
                    <tspan x="160" y="243">results</tspan>
                </text>
                <text id="operation" font-family="iAWriterQuattroS-Bold, iA Writer Quattro S" font-size="22" font-weight="bold" line-spacing="24" letter-spacing="0.3473684" fill="#F0647D">
                    <tspan x="150" y="23">operation</tspan>
                </text>
                <text id="on-update" font-family="NeueHaasUnicaW1G-MediumIt, Neue Haas Unica W1G" font-size="18" font-style="italic" font-weight="400" line-spacing="24" letter-spacing="0.3473684" fill="#F0647D">
                    <tspan x="150" y="44">on update</tspan>
                </text>
                <text id="filtered-by-key" font-family="NeueHaasUnicaW1G-MediumIt, Neue Haas Unica W1G" font-size="18" font-style="italic" font-weight="400" line-spacing="24" letter-spacing="0.3473684" fill="#F0647D">
                    <tspan x="160" y="265">filtered by key</tspan>
                </text>
                <text id="on-unmount" font-family="NeueHaasUnicaW1G-MediumIt, Neue Haas Unica W1G" font-size="18" font-style="italic" font-weight="400" line-spacing="24" letter-spacing="0.3473684" fill="#F0647D">
                    <tspan x="531" y="41">on unmount</tspan>
                </text>
                <path id="Path-2" d="M567.10864,102.483967 C567.499671,102.09395 568.132835,102.094772 568.522852,102.485803 C568.912869,102.876835 568.912047,103.509999 568.521016,103.900016 C567.376825,105.04124 566.153277,106.197935 564.85036,107.370189 L565.554831,106.730549 C567.409989,109.625959 566.893437,113.519258 564.206657,115.818462 C561.269351,118.332053 556.850526,117.988565 554.336935,115.051259 C551.823344,112.113954 552.166833,107.695129 555.104138,105.181538 C557.77554,102.895493 561.67237,102.97266 564.246893,105.214995 C565.252505,104.294754 566.206327,103.38394 567.10864,102.483967 Z M563.279749,107.055397 C561.460075,105.137535 558.436146,104.962521 556.404498,106.701099 C554.306423,108.496521 554.061074,111.652824 555.856496,113.750899 C557.651918,115.848975 560.808222,116.094324 562.906297,114.298901 C564.936589,112.561484 565.231934,109.549698 563.62193,107.455682 C563.555424,107.410821 563.493783,107.357513 563.438113,107.295638 C563.381283,107.232473 563.333986,107.164061 563.296129,107.092166 Z M574.131989,94.2597552 C574.446582,93.8058285 575.069591,93.6928765 575.523518,94.0074699 C575.977444,94.3220633 576.090396,94.9450719 575.775803,95.3989986 C574.859561,96.7210441 573.821183,98.0658522 572.660763,99.433737 C572.303485,99.8548911 571.672441,99.9066727 571.251287,99.5493945 C570.830133,99.1921163 570.778352,98.5610723 571.13563,98.1399183 C572.255112,96.8202902 573.253867,95.5267978 574.131989,94.2597552 Z M578.636784,84.6722591 C578.775518,84.1376834 579.321344,83.8167905 579.855919,83.9555248 C580.390495,84.094259 580.711388,84.6400847 580.572654,85.1746604 C580.381663,85.910591 580.174452,86.622132 579.95097,87.3092841 C579.658968,88.2071145 579.301694,89.1162721 578.879393,90.0368177 C578.649108,90.5388008 578.055487,90.7590553 577.553503,90.5287699 C577.05152,90.2984845 576.831266,89.7048635 577.061551,89.2028804 C577.452269,88.3511829 577.781347,87.5137744 578.04903,86.6907159 C578.259864,86.0424574 578.455798,85.3696382 578.636784,84.6722591 Z M581.207064,73.0395519 C581.758594,73.0684245 582.182291,73.5389334 582.153418,74.0904629 C582.060738,75.8608445 581.91246,77.5457948 581.708439,79.1454247 C581.638565,79.6932715 581.137804,80.080745 580.589957,80.0108711 C580.04211,79.9409972 579.654637,79.4402357 579.72451,78.8923889 C579.922083,77.3433185 580.066012,75.7077872 580.156153,73.9859059 C580.185026,73.4343764 580.655535,73.0106793 581.207064,73.0395519 Z M580.195063,51.0180604 C584.051082,50.7405298 587.401985,53.6414675 587.679516,57.4974862 C587.933288,61.0234 585.5295,64.1269806 582.168012,64.8447032 C582.213749,65.9264161 582.24401,66.9839353 582.258788,68.0174636 C582.266684,68.5696919 581.825416,69.0237626 581.273188,69.0316588 C580.720959,69.0395551 580.266889,68.5982868 580.258992,68.0460585 C580.240296,66.7385468 580.19633,65.390816 580.127074,64.0028929 L580.170992,64.9811 C576.764643,64.7284377 573.968138,62.010763 573.715637,58.5025138 C573.438106,54.646495 576.339044,51.2955911 580.195063,51.0180604 Z M585.684676,57.6410616 C585.48644,54.8867625 583.092937,52.8146641 580.338638,53.0129003 C577.584339,53.2111365 575.512241,55.6046393 575.710477,58.3589384 C575.903302,61.038059 578.17319,63.0717119 580.831823,62.9982902 C580.908776,62.9733173 580.990876,62.9585462 581.075995,62.9542989 C581.144772,62.950867 581.212272,62.954468 581.277798,62.9644707 C583.920785,62.6596708 585.877573,60.3211777 585.684676,57.6410616 Z" fill="#D22A80" fill-rule="nonzero"></path>
                <path id="Path-2" d="M241.550291,113.83205 C242.604416,110.581512 245.910153,108.509724 249.379036,109.098801 C253.190463,109.746049 255.755536,113.360519 255.108289,117.171946 C254.461041,120.983373 250.846571,123.548447 247.035144,122.901199 C243.550838,122.309502 241.108125,119.238056 241.208983,115.803311 C239.846976,115.538885 238.518538,115.259887 237.222618,114.967629 C236.683863,114.846128 236.345613,114.310886 236.467113,113.772132 C236.588614,113.233378 237.123856,112.895127 237.66261,113.016627 C239.233544,113.370907 240.853924,113.70561 242.523734,114.020719 Z M249.044194,111.070572 C246.411901,110.623562 243.911127,112.321618 243.330492,114.895413 C243.343056,114.990803 243.3397,115.089477 243.320954,115.188811 C243.304495,115.276032 243.277173,115.358454 243.240652,115.434942 C242.938447,118.055065 244.738264,120.482515 247.369986,120.929428 C250.092433,121.391748 252.674198,119.559552 253.136518,116.837104 C253.598837,114.114657 251.766642,111.532892 249.044194,111.070572 Z M225.89329,110.740835 C226.069518,110.217421 226.63669,109.935971 227.160104,110.112199 C228.672525,110.621415 230.248907,111.105526 231.889229,111.564479 C232.421088,111.713291 232.731609,112.265083 232.582798,112.796941 C232.433987,113.3288 231.882195,113.639321 231.350336,113.49051 C229.677177,113.022369 228.067714,112.528099 226.521926,112.007649 C225.998512,111.831421 225.717062,111.264249 225.89329,110.740835 Z M215.822053,106.32376 C216.079823,105.83532 216.684745,105.648325 217.173184,105.906095 C218.567101,106.641723 220.048043,107.3437 221.616022,108.011888 C222.124097,108.228402 222.360453,108.815797 222.143939,109.323872 C221.927425,109.831947 221.34003,110.068304 220.831955,109.85179 C219.214148,109.162368 217.683398,108.436781 216.239718,107.674891 C215.751278,107.417122 215.564283,106.812199 215.822053,106.32376 Z M206.970904,99.8367016 C207.348932,99.4340689 207.981783,99.414123 208.384416,99.7921512 C209.520854,100.859143 210.779124,101.879752 212.159562,102.853769 C212.610824,103.172172 212.718527,103.79611 212.400123,104.247372 C212.081719,104.698634 211.457782,104.806337 211.00652,104.487933 C209.551513,103.461302 208.221045,102.382132 207.015455,101.250213 C206.612822,100.872185 206.592876,100.239334 206.970904,99.8367016 Z M200.387822,90.9971171 C200.854931,90.7024514 201.472471,90.842244 201.767137,91.3093527 C202.66757,92.7367335 203.591747,94.0956186 204.539611,95.3860419 C204.866561,95.8311513 204.770773,96.4570288 204.325664,96.7839784 C203.880555,97.110928 203.254677,97.0151406 202.927727,96.5700312 C201.951568,95.2410872 201.000873,93.8432094 200.075587,92.3764318 C199.780921,91.9093231 199.920714,91.2917829 200.387822,90.9971171 Z M195.237186,81.2707466 C195.736822,81.0354127 196.332633,81.2496721 196.567967,81.7493083 C197.288529,83.2791292 198.028319,84.7539269 198.787305,86.1737033 C199.047677,86.6607608 198.863912,87.2666719 198.376854,87.5270437 C197.889797,87.7874154 197.283886,87.6036503 197.023514,87.1165928 C196.248382,85.6666135 195.49343,84.1615912 194.758624,82.6015279 C194.52329,82.1018916 194.737549,81.5060806 195.237186,81.2707466 Z M191.105677,71.0762762 C191.624366,70.8865928 192.198615,71.1533049 192.388299,71.6719942 C192.968985,73.2598806 193.565493,74.8027798 194.177804,76.300687 C194.38678,76.8119085 194.141762,77.395744 193.630541,77.6047201 C193.119319,77.8136963 192.535484,77.568678 192.326508,77.0574565 C191.704641,75.5361759 191.099131,73.9699915 190.509958,72.3588985 C190.320275,71.8402091 190.586987,71.2659596 191.105677,71.0762762 Z M185.34515,51.2087413 C188.989232,50.2957636 192.727588,52.4317171 193.771007,56.0705247 C194.741363,59.4545322 193.046379,62.971398 189.929561,64.3777676 C190.10351,64.936265 190.27889,65.4909204 190.455946,66.0408232 C190.625212,66.56653 190.336259,67.1299165 189.810553,67.2991822 C189.284846,67.468448 188.72146,67.1794956 188.552194,66.6537889 C188.36914,66.0852603 188.187881,65.5117844 188.008415,64.9333608 C184.60796,65.4123257 181.287107,63.3253398 180.313351,59.9294753 C179.247731,56.2132463 181.396475,52.3367919 185.112704,51.2711721 L185.112704,51.2711721 Z M191.848485,56.6218034 C191.087328,53.967354 188.318432,52.4325374 185.663982,53.1936943 L185.663982,53.1936943 L185.451234,53.2597676 C182.928247,54.1044378 181.495288,56.7954892 182.235873,59.3781966 C182.99703,62.032646 185.765926,63.5674626 188.420376,62.8063057 L188.294,62.839 L188.401764,62.8004211 C188.447852,62.7863887 188.49417,62.7758471 188.540436,62.7686448 C191.121033,61.960854 192.598052,59.2358347 191.848485,56.6218034 Z" fill="#D22A80" fill-rule="nonzero"></path>
            </g>
        </g>
    </g>
</svg>