<?xml version="1.0" encoding="UTF-8"?>
<svg width="732px" height="253px" viewBox="0 0 732 253" version="1.1" xmlns="http://www.w3.org/2000/svg" xmlns:xlink="http://www.w3.org/1999/xlink">
    <!-- Generator: Sketch 59 (86127) - https://sketch.com -->
    <title>combined-error</title>
    <desc>Created with Sketch.</desc>
    <defs>
        <linearGradient x1="100%" y1="48.8755673%" x2="0%" y2="48.8755673%" id="linearGradient-1">
            <stop stop-color="#FAF0FA" stop-opacity="0" offset="0%"></stop>
            <stop stop-color="#F9ECF9" stop-opacity="0.796028191" offset="14.794844%"></stop>
            <stop stop-color="#F4DEF4" stop-opacity="0.924314283" offset="75.4804604%"></stop>
            <stop stop-color="#F3DCF3" stop-opacity="0" offset="100%"></stop>
        </linearGradient>
        <linearGradient x1="100%" y1="48.8755673%" x2="0%" y2="48.8755673%" id="linearGradient-2">
            <stop stop-color="#FAF0FA" stop-opacity="0" offset="0%"></stop>
            <stop stop-color="#F9ECF9" stop-opacity="0.796028191" offset="14.794844%"></stop>
            <stop stop-color="#F4DEF4" stop-opacity="0.924314283" offset="75.4804604%"></stop>
            <stop stop-color="#F3DCF3" stop-opacity="0" offset="100%"></stop>
        </linearGradient>
    </defs>
    <g id="Page-1" stroke="none" stroke-width="1" fill="none" fill-rule="evenodd">
        <g id="Slide-6" transform="translate(-50.000000, -170.000000)">
            <g id="Group" transform="translate(71.000000, 189.000000)">
                <path d="M111.820785,88.3330884 C109.19722,88.3330884 112.924692,88.3330884 123.0032,88.3330884 C210.618856,88.3330884 234.518873,12.0128358 284.279753,4.8082187 C291.722697,3.73059377 296.935158,3.73059377 299.917136,4.8082187 L299.917136,96.0804563 C296.935158,97.0780044 291.722697,97.0780044 284.279753,96.0804563 C234.317558,89.3842232 210.618856,123.741088 123.0032,123.741088 C114.262579,123.741088 110.535108,123.741088 111.820785,123.741088 L111.820785,88.3330884 Z" id="Rectangle" fill="url(#linearGradient-1)"></path>
                <path d="M111.820785,88.3330884 C109.19722,88.3330884 112.924692,88.3330884 123.0032,88.3330884 C210.618856,88.3330884 234.510919,129.012836 284.271799,121.808219 C291.714743,120.730594 296.927204,120.730594 299.909181,121.808219 L299.909181,213.080456 C296.927204,214.078004 291.714743,214.078004 284.271799,213.080456 C234.309604,206.384223 210.618856,123.741088 123.0032,123.741088 C114.262579,123.741088 110.535108,123.741088 111.820785,123.741088 L111.820785,88.3330884 Z" id="Rectangle" fill="url(#linearGradient-2)"></path>
                <text id="CombinedError" opacity="0.9" font-family="iAWriterQuattroS-Bold, iA Writer Quattro S" font-size="19" font-weight="bold" letter-spacing="0.3" fill="#F09A64">
                    <tspan x="0.225" y="106">CombinedError</tspan>
                </text>
                <g id="Group-3" transform="translate(267.000000, 0.000000)">
                    <path d="M22.008,86.592 L15.232,86.592 C8.736,86.592 6.048,83.064 6.048,79.088 C6.048,75.224 7.056,70.688 7.056,67.216 C7.056,63.576 5.376,61 0,61 L0,54.392 C5.376,54.336 7.112,52.152 7.112,48.792 C7.112,45.6 6.048,43.92 6.048,40.392 C6.048,36.416 9.408,33 15.064,33 L22.008,33 L22.008,39.608 C16.126963,39.2232593 14.1299753,40.8884335 14.2168681,44.0740612 L14.224,44.256 C14.28,45.992 14.952,48.68 14.952,50.752 C14.952,54.112 13.216,56.912 8.904,57.36 C13.384,57.752 14.952,60.944 14.952,64.528 C14.952,67.608 14.224,71.976 14.168,75.112 C14,78.472 15.96,80.264 22.008,79.872 L22.008,86.592 Z" id="{" fill="#F4B8C6" fill-rule="nonzero" opacity="0.72"></path>
                    <text id="&quot;message&quot;:" font-family="iAWriterQuattroS-Regular, iA Writer Quattro S" font-size="18" font-weight="normal" letter-spacing="0.284210509" fill="#F0647D">
                        <tspan x="26" y="50">"message":</tspan>
                    </text>
                    <text id="&quot;[Network-Error]-..." font-family="iAWriterQuattroS-Bold, iA Writer Quattro S" font-size="18" font-weight="bold" letter-spacing="0.284210509" fill="#F09A64">
                        <tspan x="206" y="50">"[Network Error] ..."</tspan>
                    </text>
                    <text id="&quot;networkError&quot;:" font-family="iAWriterQuattroS-Regular, iA Writer Quattro S" font-size="18" font-weight="normal" letter-spacing="0.284210509" fill="#F0647D">
                        <tspan x="26" y="77">"networkError":</tspan>
                    </text>
                    <text id="with-Network-Error" opacity="0.9" font-family="NeueHaasUnicaW1G-Bold, Neue Haas Unica W1G" font-size="19" font-weight="bold" letter-spacing="0.3" fill="#000000">
                        <tspan x="0" y="22">with Network Error</tspan>
                    </text>
                    <text id="Error" font-family="iAWriterQuattroS-Bold, iA Writer Quattro S" font-size="18" font-weight="bold" letter-spacing="0.284210509" fill="#F09A64">
                        <tspan x="206" y="77">Error</tspan>
                    </text>
                </g>
                <g id="Group-2" transform="translate(267.000000, 117.000000)">
                    <path d="M22.008,86.592 L15.232,86.592 C8.736,86.592 6.048,83.064 6.048,79.088 C6.048,75.224 7.056,70.688 7.056,67.216 C7.056,63.576 5.376,61 0,61 L0,54.392 C5.376,54.336 7.112,52.152 7.112,48.792 C7.112,45.6 6.048,43.92 6.048,40.392 C6.048,36.416 9.408,33 15.064,33 L22.008,33 L22.008,39.608 C16.126963,39.2232593 14.1299753,40.8884335 14.2168681,44.0740612 L14.224,44.256 C14.28,45.992 14.952,48.68 14.952,50.752 C14.952,54.112 13.216,56.912 8.904,57.36 C13.384,57.752 14.952,60.944 14.952,64.528 C14.952,67.608 14.224,71.976 14.168,75.112 C14,78.472 15.96,80.264 22.008,79.872 L22.008,86.592 Z" id="{" fill="#F4B8C6" fill-rule="nonzero" opacity="0.72" style="mix-blend-mode: screen;"></path>
                    <path d="M22.008,86.592 L15.232,86.592 C8.736,86.592 6.048,83.064 6.048,79.088 C6.048,75.224 7.056,70.688 7.056,67.216 C7.056,63.576 5.376,61 0,61 L0,54.392 C5.376,54.336 7.112,52.152 7.112,48.792 C7.112,45.6 6.048,43.92 6.048,40.392 C6.048,36.416 9.408,33 15.064,33 L22.008,33 L22.008,39.608 C16.126963,39.2232593 14.1299753,40.8884335 14.2168681,44.0740612 L14.224,44.256 C14.28,45.992 14.952,48.68 14.952,50.752 C14.952,54.112 13.216,56.912 8.904,57.36 C13.384,57.752 14.952,60.944 14.952,64.528 C14.952,67.608 14.224,71.976 14.168,75.112 C14,78.472 15.96,80.264 22.008,79.872 L22.008,86.592 Z" id="{" fill="#F4B8C6" fill-rule="nonzero" opacity="0.72"></path>
                    <text id="&quot;message&quot;:" font-family="iAWriterQuattroS-Regular, iA Writer Quattro S" font-size="18" font-weight="normal" letter-spacing="0.284210509" fill="#F0647D">
                        <tspan x="26" y="50">"message":</tspan>
                    </text>
                    <text id="&quot;[GraphQL]-...\n&quot;" font-family="iAWriterQuattroS-Bold, iA Writer Quattro S" font-size="18" font-weight="bold" letter-spacing="0.284210509" fill="#F09A64">
                        <tspan x="206" y="50">"[GraphQL] ...\n"</tspan>
                    </text>
                    <text id="&quot;graphQLErrors&quot;:" font-family="iAWriterQuattroS-Regular, iA Writer Quattro S" font-size="18" font-weight="normal" letter-spacing="0.284210509" fill="#F0647D">
                        <tspan x="26" y="77">"graphQLErrors":</tspan>
                    </text>
                    <text id="with-GraphQL-Errors" opacity="0.9" font-family="NeueHaasUnicaW1G-Bold, Neue Haas Unica W1G" font-size="19" font-weight="bold" letter-spacing="0.3" fill="#000000">
                        <tspan x="0" y="22">with GraphQL Errors</tspan>
                    </text>
                    <text id="GraphQLError[]" font-family="iAWriterQuattroS-Bold, iA Writer Quattro S" font-size="18" font-weight="bold" letter-spacing="0.284210509" fill="#F09A64">
                        <tspan x="206" y="77">GraphQLError[]</tspan>
                    </text>
                </g>
            </g>
        </g>
    </g>
</svg>