<?xml version="1.0" encoding="UTF-8"?>
<svg width="736px" height="378px" viewBox="0 0 736 378" version="1.1" xmlns="http://www.w3.org/2000/svg" xmlns:xlink="http://www.w3.org/1999/xlink">
    <!-- Generator: Sketch 59 (86127) - https://sketch.com -->
    <title>document-caching</title>
    <desc>Created with Sketch.</desc>
    <g id="Page-1" stroke="none" stroke-width="1" fill="none" fill-rule="evenodd">
        <g id="Slide-7" transform="translate(-45.000000, -177.000000)">
            <g id="Group-3" transform="translate(55.000000, 192.000000)">
                <g id="Group-2" transform="translate(48.000000, 72.000000)" font-size="18" letter-spacing="0.2842105" line-spacing="28">
                    <text id="&quot;__typename&quot;:-&quot;Book&quot;" font-family="iAWriterQuattroS-Bold, iA Writer Quattro S" font-weight="bold">
                        <tspan x="34" y="75" fill="#F0647D">"__typename"</tspan>
                        <tspan x="169.710526" y="75" font-family="iAWriterQuattroS-Regular, iA Writer Quattro S" font-weight="normal" fill="#ACACAC">: </tspan>
                        <tspan x="189.178947" y="75" font-family="iAWriterQuattroS-Regular, iA Writer Quattro S" font-weight="normal" fill="#F09A64">"Book"</tspan>
                        <tspan x="255.68421" y="75" font-family="iAWriterQuattroS-Regular, iA Writer Quattro S" font-weight="normal" fill="#ACACAC">,</tspan>
                        <tspan x="34" y="103" fill="#F0647D">"id"</tspan>
                        <tspan x="72.936842" y="103" font-family="iAWriterQuattroS-Regular, iA Writer Quattro S" font-weight="normal" fill="#ACACAC">: </tspan>
                        <tspan x="92.405263" y="103" font-family="iAWriterQuattroS-Regular, iA Writer Quattro S" font-weight="normal" fill="#F09A64">"bbb"</tspan>
                    </text>
                    <text id="&quot;book&quot;:-{" font-family="iAWriterQuattroS-Bold, iA Writer Quattro S" font-weight="bold">
                        <tspan x="17" y="46" fill="#F0647D">"book"</tspan>
                        <tspan x="83.505263" y="46" font-family="iAWriterQuattroS-Regular, iA Writer Quattro S" font-weight="normal" fill="#ACACAC">: {</tspan>
                    </text>
                    <text id="{" font-family="iAWriterQuattroS-Regular, iA Writer Quattro S" font-weight="normal" fill="#ACACAC">
                        <tspan x="0" y="18">{</tspan>
                    </text>
                    <text id="}" font-family="iAWriterQuattroS-Regular, iA Writer Quattro S" font-weight="normal" fill="#ACACAC">
                        <tspan x="0" y="158">}</tspan>
                    </text>
                    <text id="}" font-family="iAWriterQuattroS-Regular, iA Writer Quattro S" font-weight="normal" fill="#ACACAC">
                        <tspan x="17" y="130">}</tspan>
                    </text>
                </g>
                <g id="Group-2" transform="translate(434.000000, 79.000000)" font-size="18" letter-spacing="0.2842105" line-spacing="28">
                    <text id="&quot;__typename&quot;:-&quot;Book&quot;" font-family="iAWriterQuattroS-Bold, iA Writer Quattro S" font-weight="bold">
                        <tspan x="34" y="75" fill="#F0647D">"__typename"</tspan>
                        <tspan x="169.710526" y="75" font-family="iAWriterQuattroS-Regular, iA Writer Quattro S" font-weight="normal" fill="#ACACAC">: </tspan>
                        <tspan x="189.178947" y="75" font-family="iAWriterQuattroS-Regular, iA Writer Quattro S" font-weight="normal" fill="#F09A64">"Book"</tspan>
                        <tspan x="255.68421" y="75" font-family="iAWriterQuattroS-Regular, iA Writer Quattro S" font-weight="normal" fill="#ACACAC">,</tspan>
                        <tspan x="34" y="103" fill="#F0647D">"id"</tspan>
                        <tspan x="72.936842" y="103" font-family="iAWriterQuattroS-Regular, iA Writer Quattro S" font-weight="normal" fill="#ACACAC">: </tspan>
                        <tspan x="92.405263" y="103" font-family="iAWriterQuattroS-Regular, iA Writer Quattro S" font-weight="normal" fill="#F09A64">"bbb"</tspan>
                    </text>
                    <text id="&quot;likeBook&quot;:-{" font-family="iAWriterQuattroS-Bold, iA Writer Quattro S" font-weight="bold">
                        <tspan x="17" y="46" fill="#F0647D">"likeBook"</tspan>
                        <tspan x="117.042105" y="46" font-family="iAWriterQuattroS-Regular, iA Writer Quattro S" font-weight="normal" fill="#ACACAC">: {</tspan>
                    </text>
                    <text id="{" font-family="iAWriterQuattroS-Regular, iA Writer Quattro S" font-weight="normal" fill="#ACACAC">
                        <tspan x="0" y="18">{</tspan>
                    </text>
                    <text id="}" font-family="iAWriterQuattroS-Regular, iA Writer Quattro S" font-weight="normal" fill="#ACACAC">
                        <tspan x="0" y="158">}</tspan>
                    </text>
                    <text id="}" font-family="iAWriterQuattroS-Regular, iA Writer Quattro S" font-weight="normal" fill="#ACACAC">
                        <tspan x="17" y="130">}</tspan>
                    </text>
                </g>
                <text id="&quot;Book&quot;:-[Operation]" font-family="iAWriterQuattroS-Regular, iA Writer Quattro S" font-size="18" font-weight="normal" line-spacing="28" letter-spacing="0.2842105">
                    <tspan x="47" y="335" fill="#F09A64">"Book"</tspan>
                    <tspan x="113.505263" y="335" fill="#ACACAC">: [</tspan>
                    <tspan x="144.057894" y="335" fill="#F0647D">Operation</tspan>
                    <tspan x="233.015789" y="335" fill="#ACACAC">]</tspan>
                </text>
                <g id="Group" transform="translate(0.000000, 13.000000)">
                    <rect id="Rectangle" fill="#C8B8FF" x="0" y="0" width="32" height="32"></rect>
                    <text id="1." font-family="TitlingGothicFBNormal-Medium, TitlingGothicFB Normal" font-size="24" font-weight="400" fill="#000000">
                        <tspan x="6.948" y="23">1.</tspan>
                    </text>
                </g>
                <g id="Group" transform="translate(406.000000, 13.000000)">
                    <rect id="Rectangle" fill="#C8B8FF" x="0" y="0" width="32" height="32"></rect>
                    <text id="2." font-family="TitlingGothicFBNormal-Medium, TitlingGothicFB Normal" font-size="24" font-weight="400" fill="#000000">
                        <tspan x="4.284" y="23">2.</tspan>
                    </text>
                </g>
                <line x1="48" y1="64" x2="711" y2="64" id="Line" stroke="#ACACAC" stroke-width="2" opacity="0.5" stroke-linecap="square"></line>
                <line x1="48" y1="260" x2="711" y2="260" id="Line" stroke="#ACACAC" stroke-width="2" opacity="0.5" stroke-linecap="square"></line>
                <line x1="240" y1="154" x2="302" y2="154" id="Line" stroke="#D22A80" stroke-width="2" stroke-linecap="square"></line>
                <line x1="625" y1="160" x2="687" y2="160" id="Line" stroke="#D22A80" stroke-width="2" stroke-linecap="square"></line>
                <text id="Query-(get-book)" opacity="0.9" font-family="NeueHaasUnicaW1G-Bold, Neue Haas Unica W1G" font-size="22" font-weight="bold" line-spacing="24" letter-spacing="0.3473684" fill="#000000">
                    <tspan x="50.75" y="26">Query</tspan>
                    <tspan x="48" y="50.242" font-family="NeueHaasUnicaW1G-MediumIt, Neue Haas Unica W1G" font-style="italic" font-weight="400" letter-spacing="0.4022161">(get book)</tspan>
                </text>
                <text id="Return-result-and-ma" opacity="0.9" font-family="NeueHaasUnicaW1G-Medium, Neue Haas Unica W1G" font-size="16" font-weight="400" line-spacing="19" letter-spacing="0.2526315" fill="#000000">
                    <tspan x="48" y="293">Return result and map all types to </tspan>
                    <tspan x="48" y="312">the current operation.</tspan>
                </text>
                <text id="Reexecute-and-invali" opacity="0.9" font-family="NeueHaasUnicaW1G-Medium, Neue Haas Unica W1G" font-size="16" font-weight="400" line-spacing="19" letter-spacing="0.2526315" fill="#000000">
                    <tspan x="434" y="290">Reexecute and invalidate all </tspan>
                    <tspan x="434" y="309">queries containing the type "Book".</tspan>
                </text>
                <text id="Mutation-(like-book)" opacity="0.9" font-family="NeueHaasUnicaW1G-Bold, Neue Haas Unica W1G" font-size="22" font-weight="bold" line-spacing="24" letter-spacing="0.3473684" fill="#000000">
                    <tspan x="456.75" y="29">Mutation</tspan>
                    <tspan x="454" y="53.242" font-family="NeueHaasUnicaW1G-MediumIt, Neue Haas Unica W1G" font-style="italic" font-weight="400" letter-spacing="0.4022161">(like book)</tspan>
                </text>
                <path id="Path-2" d="M441.383719,165.981658 C441.935997,165.978859 442.385975,166.4243 442.388774,166.976577 C442.391573,167.528855 441.946132,167.978833 441.393855,167.981632 C439.715535,167.990137 438.04769,167.995689 436.39032,167.998287 C435.838036,167.999152 435.389619,167.552139 435.388754,166.999855 C435.387888,166.447571 435.834901,165.999155 436.387185,165.998289 C438.042215,165.995695 439.707726,165.990151 441.383719,165.981658 Z M425.390698,165.971104 C425.942192,165.974761 426.49492,165.97807 427.048881,165.981032 L427.048881,165.981032 L430.387445,165.994643 C430.939728,165.996198 431.38618,166.445173 431.384624,166.997456 C431.383069,167.549738 430.934094,167.996191 430.381811,167.994635 C428.702597,167.989905 427.034473,167.982046 425.377438,167.97106 C424.825166,167.967399 424.380428,167.516725 424.38409,166.964453 C424.387751,166.41218 424.838425,165.967443 425.390698,165.971104 Z M452.374399,165.885535 C452.926642,165.878727 453.379842,166.320889 453.386649,166.873132 C453.393457,167.425375 452.951295,167.878575 452.399052,167.885383 C450.721432,167.906063 449.053738,167.923945 447.395968,167.939029 C446.843706,167.944054 446.391936,167.500431 446.386911,166.948169 C446.381886,166.395907 446.825509,165.944137 447.377771,165.939112 C449.033382,165.924048 450.698925,165.906189 452.374399,165.885535 Z M414.404666,165.84984 C414.955714,165.858427 415.50807,165.866646 416.061736,165.874496 L416.061736,165.874496 L419.399438,165.91718 C419.951687,165.923481 420.394265,166.376276 420.387964,166.928525 C420.381662,167.480773 419.928868,167.923351 419.376619,167.91705 C417.697142,167.897886 416.029437,167.875402 414.373504,167.849597 C413.821286,167.840992 413.380601,167.386355 413.389206,166.834137 C413.397812,166.281919 413.852449,165.841234 414.404666,165.84984 Z M463.364066,165.726194 C463.916279,165.717265 464.371174,166.157684 464.380102,166.709897 C464.389031,167.262109 463.948612,167.717004 463.396399,167.725933 L463.396399,167.725933 L458.395641,167.803074 C457.843416,167.811186 457.389173,167.370096 457.381061,166.81787 C457.372949,166.265645 457.814039,165.811402 458.366265,165.80329 L458.366265,165.80329 Z M403.416811,165.625405 C403.967493,165.639408 404.519571,165.653019 405.073045,165.666237 L405.073045,165.666237 L408.410635,165.740833 C408.9628,165.752337 409.401092,166.209281 409.389588,166.761446 C409.378084,167.313611 408.92114,167.751903 408.368975,167.740399 C407.808903,167.728731 407.250224,167.716668 406.692941,167.704213 L406.692941,167.704213 L403.36597,167.624759 C402.813863,167.61072 402.377674,167.151768 402.391713,166.599662 C402.405753,166.047555 402.864704,165.611366 403.416811,165.625405 Z M474.358878,165.529942 C474.911057,165.519139 475.367444,165.958011 475.378247,166.51019 C475.38905,167.062369 474.950178,167.518757 474.397999,167.52956 L474.397999,167.52956 L469.401719,167.623375 C468.849523,167.633313 468.393824,167.193726 468.383886,166.641531 C468.373949,166.089335 468.813535,165.633636 469.36573,165.623699 L469.36573,165.623699 Z M392.431192,165.287273 C394.082133,165.347236 395.746527,165.403415 397.424373,165.455811 C397.976388,165.47305 398.409911,165.934522 398.392672,166.486537 C398.375434,167.038553 397.913962,167.472075 397.361946,167.454837 C396.801539,167.437336 396.242625,167.419415 395.685204,167.401071 L395.685204,167.401071 L392.358599,167.285955 C391.806678,167.265909 391.375508,166.802238 391.395554,166.250317 C391.4156,165.698397 391.879271,165.267227 392.431192,165.287273 Z M485.351528,165.295252 C485.903664,165.282458 486.361631,165.719681 486.374426,166.271818 C486.38722,166.823954 485.949997,167.281921 485.39786,167.294716 L485.39786,167.294716 L480.396706,167.406413 C479.844549,167.418287 479.387312,166.980301 479.375438,166.428144 C479.363565,165.875987 479.801551,165.418749 480.353708,165.406876 L480.353708,165.406876 Z M496.345091,165.019595 C496.897174,165.004679 497.356818,165.440139 497.371734,165.992223 C497.38665,166.544306 496.95119,167.00395 496.399107,167.018866 C494.741453,167.063652 493.075528,167.107173 491.401332,167.14943 C490.849223,167.163365 490.390354,166.727089 490.376418,166.174981 C490.362483,165.622872 490.798759,165.164002 491.350868,165.150067 L491.350868,165.150067 Z M381.447771,164.82294 C383.096482,164.902835 384.759658,164.978662 386.437298,165.050423 C386.989078,165.074025 387.417251,165.540465 387.393649,166.092245 C387.370047,166.644025 386.903607,167.072198 386.351827,167.048596 C384.670425,166.976674 383.003472,166.900674 381.350967,166.820596 C380.79933,166.793865 380.373809,166.325004 380.400541,165.773367 C380.427272,165.221729 380.896133,164.796209 381.447771,164.82294 Z M507.340779,164.700176 C507.892796,164.682993 508.354224,165.116562 508.371407,165.668579 C508.38859,166.220597 507.955021,166.682025 507.403004,166.699208 L507.403004,166.699208 L502.400649,166.850135 C501.8486,166.866269 501.387997,166.431823 501.371864,165.879774 C501.35573,165.327725 501.790176,164.867122 502.342225,164.850989 L502.342225,164.850989 Z M370.366176,164.217929 L370.48299,164.21844 C371.03157,164.252496 371.581887,164.286063 372.13394,164.319142 L372.13394,164.319142 L375.467102,164.511758 C376.018532,164.542463 376.440664,165.014377 376.409959,165.565808 C376.379254,166.117239 375.90734,166.53937 375.355909,166.508665 C373.674684,166.415051 372.009071,166.317028 370.35907,166.214598 C369.807846,166.180378 369.388732,165.705783 369.422951,165.154559 C369.457171,164.603335 369.931766,164.184221 370.48299,164.21844 Z M518.325658,164.334358 C518.877595,164.314748 519.340924,164.746285 519.360533,165.298221 C519.380143,165.850158 518.948606,166.313487 518.39667,166.333096 L518.39667,166.333096 L513.400591,166.505479 C512.848615,166.523964 512.386166,166.091485 512.36768,165.53951 C512.349195,164.987535 512.781674,164.525085 513.333649,164.506599 L513.333649,164.506599 Z M529.310125,163.918428 C529.861962,163.89621 530.327326,164.325552 530.349544,164.87739 C530.371761,165.429228 529.942419,165.894591 529.390581,165.916809 L529.390581,165.916809 L524.3944,166.112446 C523.842515,166.133455 523.378094,165.703094 523.357085,165.151209 C523.336077,164.599324 523.766438,164.134902 524.318323,164.113894 C525.991773,164.050191 527.655707,163.985036 529.310125,163.918428 Z M359.407747,163.453042 L359.52454,163.455349 C361.166737,163.58267 362.825936,163.705214 364.502136,163.822982 C365.053062,163.861689 365.468298,164.339682 365.429591,164.890608 C365.390883,165.441535 364.912891,165.856771 364.361964,165.818064 C362.680978,165.69996 361.016971,165.577061 359.369942,165.449365 C358.81931,165.406674 358.407542,164.925691 358.450233,164.375058 C358.492924,163.824426 358.973907,163.412658 359.52454,163.455349 Z M621.419519,151.720387 C625.266395,151.336395 628.696191,154.143617 629.080184,157.990493 L629.080184,157.990493 L629.100047,158.230356 C629.346757,161.978955 626.576811,165.275165 622.810078,165.651157 C619.300016,166.001529 616.137196,163.695037 615.318557,160.366139 L614.289855,160.464042 L614.289855,160.464042 L612.275324,160.653479 C611.725418,160.704675 611.238128,160.300389 611.186932,159.750483 C611.135737,159.200576 611.540022,158.713286 612.089929,158.662091 C613.435574,158.536813 614.770994,158.409976 616.096188,158.28158 L615.12078,158.37537 C615.268361,154.953227 617.911711,152.070534 621.419519,151.720387 Z M540.300642,163.448219 C540.852359,163.423186 541.319907,163.850149 541.34494,164.401866 C541.369972,164.953583 540.94301,165.421131 540.391293,165.446164 L540.391293,165.446164 L535.394072,165.666937 C534.842297,165.690664 534.375761,165.262596 534.352034,164.710821 C534.328307,164.159046 534.756375,163.69251 535.30815,163.668783 L535.30815,163.668783 Z M551.284702,162.919859 C551.836272,162.891779 552.306172,163.316152 552.334252,163.867723 C552.362331,164.419293 551.937959,164.889192 551.386388,164.917272 L551.386388,164.917272 L546.388355,165.165245 C545.836714,165.191908 545.367906,164.76633 545.341242,164.21469 C545.314578,163.663049 545.740156,163.194241 546.291797,163.167577 C547.966687,163.086621 549.630988,163.004048 551.284702,162.919859 Z M348.465065,162.507983 L348.581799,162.512344 C350.22031,162.66841 351.877466,162.819241 353.553268,162.964836 C354.10348,163.012639 354.510763,163.497425 354.46296,164.047637 C354.415157,164.59785 353.930371,165.005133 353.380159,164.95733 C351.698875,164.811259 350.036208,164.659927 348.392159,164.503333 C347.842363,164.450965 347.439117,163.962815 347.491484,163.413019 C347.543852,162.863222 348.032002,162.459977 348.581799,162.512344 Z M562.266278,162.328186 C562.81767,162.296792 563.290111,162.718333 563.321505,163.269725 C563.352899,163.821117 562.931358,164.293558 562.379966,164.324952 C561.828534,164.356349 561.275856,164.387555 560.721934,164.418571 L560.721934,164.418571 L557.383466,164.60238 C556.831989,164.632232 556.360728,164.209372 556.330876,163.657894 C556.301024,163.106417 556.723884,162.635156 557.275362,162.605304 C557.833644,162.575083 558.390681,162.544673 558.946472,162.514072 L558.946472,162.514072 Z M573.239455,161.667812 C573.790629,161.632797 574.265828,162.051227 574.300843,162.6024 C574.335857,163.153574 573.917428,163.628773 573.366254,163.663788 C572.815348,163.698786 572.26312,163.733581 571.709571,163.768174 L571.709571,163.768174 L568.372421,163.973308 C567.821142,164.006636 567.347225,163.586754 567.313898,163.035476 C567.28057,162.484197 567.700452,162.01028 568.25173,161.976953 C568.809888,161.943209 569.366724,161.909264 569.922238,161.875116 L569.922238,161.875116 Z M337.544537,161.356001 L337.661157,161.362738 C339.294426,161.551932 340.948314,161.73534 342.622819,161.912961 C343.172023,161.971218 343.570014,162.463661 343.511758,163.012865 C343.453502,163.562069 342.961058,163.96006 342.411854,163.901804 C340.730993,163.723508 339.070715,163.539391 337.431021,163.349453 C336.882405,163.285903 336.489181,162.789644 336.552732,162.241027 C336.616282,161.692411 337.112541,161.299187 337.661157,161.362738 Z M627.063934,157.973786 C626.686647,155.337419 624.293629,153.443435 621.61817,153.710497 C618.962891,153.975545 617.001071,156.272174 617.119516,158.906017 C617.15577,158.99173 617.178599,159.08383 617.187964,159.180483 C617.197094,159.274719 617.192832,159.367165 617.176732,159.455934 C617.578354,162.062016 619.955751,163.926135 622.611427,163.661047 C625.359195,163.386767 627.364354,160.936912 627.090074,158.189144 L627.090074,158.189144 Z M584.204392,160.932151 C584.755299,160.89316 585.233505,161.30815 585.272496,161.859056 C585.311488,162.409963 584.896498,162.88817 584.345591,162.927161 C583.795217,162.966114 583.243434,163.004852 582.690242,163.043375 L582.690242,163.043375 L579.354191,163.271923 C578.803156,163.309058 578.32635,162.89246 578.289215,162.341425 C578.25208,161.79039 578.668678,161.313584 579.219713,161.276449 L579.219713,161.276449 Z M292.329052,154.281061 C293.249312,150.638812 296.900089,148.356394 300.599423,149.159248 C304.041102,149.906183 306.33755,153.065917 306.099326,156.478752 C307.391219,156.741026 308.705606,156.997296 310.03925,157.248181 C310.582014,157.350286 310.939239,157.873056 310.837135,158.41582 C310.73503,158.958584 310.21226,159.315809 309.669496,159.213704 C307.998835,158.899419 306.357931,158.576688 304.746782,158.245507 L305.678727,158.434582 C304.489181,161.654138 301.080801,163.58963 297.630174,162.840752 C293.852131,162.020817 291.454111,158.293419 292.274047,154.515376 L292.274047,154.515376 Z M326.655349,159.963387 L326.771775,159.972911 C328.397612,160.200768 330.046474,160.422171 331.718361,160.637117 C332.266138,160.707542 332.653107,161.208693 332.582682,161.756469 C332.512257,162.304246 332.011106,162.691215 331.46333,162.62079 C329.783969,162.404883 328.12759,162.182471 326.494192,161.953554 C325.947252,161.876901 325.566009,161.37138 325.642662,160.824441 C325.719314,160.277501 326.224835,159.896258 326.771775,159.972911 Z M595.164424,160.113229 C595.715002,160.069842 596.196506,160.481001 596.239893,161.031579 C596.28328,161.582157 595.872121,162.063661 595.321543,162.107048 C594.77168,162.150379 594.220308,162.193479 593.667428,162.236349 L593.667428,162.236349 L590.332046,162.490794 C589.78131,162.532126 589.301344,162.119173 589.260012,161.568437 C589.21868,161.017701 589.631633,160.537735 590.182369,160.496403 C590.740459,160.454519 591.29704,160.412404 591.852111,160.37006 L591.852111,160.37006 Z M606.122667,159.201534 C606.672838,159.153251 607.15798,159.56011 607.206264,160.11028 C607.254547,160.660451 606.847688,161.145593 606.297518,161.193877 C604.650189,161.338448 602.988258,161.480784 601.311725,161.620884 C600.761358,161.666876 600.277915,161.257999 600.231923,160.707633 C600.185931,160.157266 600.594808,159.673822 601.145174,159.627831 C602.818952,159.487961 604.478117,159.345862 606.122667,159.201534 Z M315.809181,158.286488 L315.925288,158.299336 C317.539543,158.572839 319.179786,158.839065 320.846014,159.098013 C321.391748,159.182826 321.765398,159.693984 321.680586,160.239718 C321.595773,160.785452 321.084615,161.159102 320.538881,161.07429 C318.86372,160.813953 317.21449,160.546268 315.59119,160.271234 C315.046666,160.178975 314.680032,159.662761 314.77229,159.118236 C314.864549,158.573712 315.380763,158.207078 315.925288,158.299336 Z M300.175245,151.113748 C297.476643,150.52808 294.814215,152.240952 294.228547,154.939554 L294.228547,154.939554 L294.187062,155.152489 C293.733713,157.776846 295.426766,160.315996 298.054353,160.886252 C300.680224,161.456135 303.271843,159.849707 303.949211,157.276466 C303.947302,157.20679 303.953977,157.135822 303.968608,157.064641 C303.984975,156.985017 304.010387,156.909565 304.043551,156.839137 C304.492446,154.218001 302.800164,151.683425 300.175245,151.113748 Z" fill="#D22A80" fill-rule="nonzero"></path>
                <path id="Path-2" d="M272.826385,325.352113 C273.287299,325.368966 273.647281,325.756273 273.630428,326.217186 L273.630428,326.217186 L273.44369,331.364733 C274.759988,331.394038 276.06759,331.417709 277.366496,331.435748 C277.918728,331.443417 278.360183,331.897306 278.352513,332.449538 C278.344844,333.001769 277.890955,333.443224 277.338724,333.435555 C275.683443,333.412567 274.014191,333.380473 272.330967,333.339271 L273.368,333.363 L273.179901,338.538538 C273.176743,338.624912 273.160207,338.710005 273.13111,338.790845 L273.078147,338.908542 C272.856947,339.313259 272.349541,339.462028 271.944824,339.240827 L271.944824,339.240827 L259.848735,332.629624 C259.690178,332.542964 259.564006,332.407215 259.489156,332.242752 C259.298103,331.822962 259.483532,331.327775 259.903322,331.136722 L259.903322,331.136722 L272.449938,325.426573 C272.56794,325.372869 272.696824,325.347376 272.826385,325.352113 Z M288.345631,331.451755 C288.89788,331.445421 289.3507,331.887973 289.357033,332.440221 C289.363367,332.992469 288.920815,333.44529 288.368567,333.451623 C286.712472,333.470616 285.041264,333.479753 283.354943,333.479035 C282.802658,333.4788 282.355134,333.030894 282.355369,332.478609 C282.355604,331.926324 282.80351,331.4788 283.355795,331.479035 C285.034222,331.47975 286.697502,331.470656 288.345631,331.451755 Z M299.315208,331.172225 C299.867049,331.150094 300.332346,331.579509 300.354477,332.13135 C300.376608,332.683191 299.947194,333.148488 299.395352,333.170619 C297.741365,333.236951 296.07098,333.292584 294.384198,333.337518 C293.832109,333.352225 293.37263,332.916591 293.357923,332.364503 C293.343216,331.812414 293.77885,331.352935 294.330939,331.338228 C296.0088,331.293531 297.670224,331.238196 299.315208,331.172225 Z M310.264219,330.558486 C310.815048,330.518407 311.294073,330.932451 311.334152,331.483279 C311.374232,332.034108 310.960187,332.513133 310.409359,332.553213 C308.758614,332.673323 307.089968,332.781746 305.403421,332.87848 C304.852042,332.910106 304.379424,332.488763 304.347799,331.937384 C304.316173,331.386006 304.737517,330.913388 305.288895,330.881762 C306.965285,330.78561 308.623726,330.677851 310.264219,330.558486 Z M321.181732,329.563654 C321.730679,329.503026 322.224837,329.898887 322.285465,330.447834 C322.346093,330.996781 321.950232,331.490939 321.401285,331.551567 C319.75695,331.733174 318.092971,331.901944 316.409348,332.057879 C315.859417,332.108812 315.37232,331.704295 315.321386,331.154364 C315.270452,330.604433 315.674969,330.117336 316.224901,330.066402 C317.896875,329.911547 319.549152,329.743963 321.181732,329.563654 Z M332.05339,328.130042 C332.599196,328.045695 333.110036,328.419782 333.194383,328.965587 C333.27873,329.511393 332.904643,330.022233 332.358838,330.10658 C330.724059,330.359213 329.067573,330.597645 327.389377,330.821878 C326.841957,330.895022 326.338891,330.510545 326.265747,329.963126 C326.192604,329.415706 326.57708,328.91264 327.1245,328.839496 C328.789231,328.617062 330.432195,328.380576 332.05339,328.130042 Z M342.821401,326.193498 C343.362242,326.081652 343.891349,326.429422 344.003195,326.970263 C344.11504,327.511104 343.767271,328.040211 343.22643,328.152056 C341.606516,328.487053 339.962461,328.806236 338.294261,329.10961 C337.750888,329.208426 337.230292,328.848042 337.131476,328.304669 C337.032659,327.761296 337.393044,327.2407 337.936416,327.141883 C339.588949,326.841359 341.217277,326.525229 342.821401,326.193498 Z M353.476933,323.676203 C354.010804,323.534783 354.558236,323.852928 354.699656,324.386799 C354.841076,324.920671 354.522932,325.468103 353.98906,325.609523 C352.359226,326.041258 350.735167,326.451001 349.116882,326.838748 C348.579799,326.967435 348.040086,326.636365 347.911399,326.099282 C347.782712,325.562199 348.113782,325.022486 348.650865,324.893799 C350.253683,324.509758 351.862372,324.103893 353.476933,323.676203 Z M363.991311,320.608867 C364.517602,320.441429 365.079982,320.732336 365.24742,321.258628 C365.414859,321.784919 365.123951,322.347299 364.597659,322.514737 C362.991268,323.025807 361.390321,323.516153 359.794817,323.985773 C359.265006,324.141718 358.709091,323.838639 358.553147,323.308828 C358.397203,322.779017 358.700281,322.223102 359.230092,322.067157 C360.811628,321.601649 362.398701,321.115553 363.991311,320.608867 Z M374.358984,317.048372 C374.877233,316.857487 375.452099,317.122868 375.642983,317.641117 C375.833868,318.159365 375.568487,318.734231 375.050239,318.925116 C373.469667,319.507282 371.894217,320.06996 370.323889,320.613149 C369.801948,320.793693 369.232472,320.516936 369.051928,319.994995 C368.871384,319.473054 369.148142,318.903578 369.670083,318.723034 C371.227841,318.184192 372.790809,317.625972 374.358984,317.048372 Z M384.555435,313.050137 C385.065433,312.838192 385.650683,313.079811 385.862628,313.589809 C386.074573,314.099807 385.832954,314.685057 385.322956,314.897002 C383.767908,315.543249 382.217685,316.17115 380.672287,316.780704 C380.158523,316.983349 379.577758,316.731137 379.375114,316.217373 C379.172469,315.703609 379.424681,315.122844 379.938445,314.9202 C381.472537,314.315106 383.011534,313.691752 384.555435,313.050137 Z M394.606832,308.646867 C395.108526,308.415953 395.702422,308.635464 395.933336,309.137158 C396.16425,309.638853 395.944739,310.232749 395.443045,310.463663 C393.91348,311.167672 392.388464,311.854398 390.867997,312.52384 C390.362536,312.746388 389.772368,312.517042 389.54982,312.011581 C389.327272,311.50612 389.556619,310.915952 390.06208,310.693404 C391.572376,310.02844 393.087294,309.346261 394.606832,308.646867 Z M404.494415,303.885722 C404.987897,303.637741 405.588971,303.836758 405.836952,304.330239 C406.084933,304.823721 405.885916,305.424795 405.392434,305.672776 C403.888867,306.428339 402.389588,307.167621 400.894596,307.890623 C400.397402,308.131074 399.799423,307.922942 399.558972,307.425748 C399.318521,306.928555 399.526653,306.330575 400.023847,306.090124 C401.509684,305.37155 402.999874,304.636749 404.494415,303.885722 Z M414.20121,298.812955 C414.686673,298.549622 415.293692,298.729693 415.557025,299.215156 C415.820359,299.700619 415.640287,300.307638 415.154825,300.570971 C413.676169,301.37305 412.201562,302.159764 410.731005,302.931112 C410.241919,303.187651 409.637469,302.999135 409.380929,302.510048 C409.12439,302.020961 409.312907,301.416511 409.801993,301.159972 C411.264292,300.392956 412.730698,299.610617 414.20121,298.812955 Z M423.466247,293.615961 C423.944157,293.339156 424.555974,293.502183 424.832779,293.980092 C425.109584,294.458002 424.946557,295.069819 424.468648,295.346624 C423.116945,296.129531 421.768552,296.899886 420.423469,297.65769 C419.942294,297.928778 419.332464,297.758469 419.061375,297.277294 C418.790287,296.796119 418.960596,296.186289 419.441771,295.915201 C420.779909,295.16131 422.121401,294.394897 423.466247,293.615961 Z" fill="#D22A80" fill-rule="nonzero"></path>
                <line x1="551" y1="291" x2="622" y2="291" id="Line" stroke="#D22A80" stroke-width="2" stroke-linecap="square"></line>
                <line x1="435" y1="291" x2="514" y2="291" id="Line" stroke="#D22A80" stroke-width="2" stroke-linecap="square"></line>
            </g>
        </g>
    </g>
</svg>