<?xml version="1.0" encoding="UTF-8"?>
<svg width="808px" height="294px" viewBox="0 0 808 294" version="1.1" xmlns="http://www.w3.org/2000/svg" xmlns:xlink="http://www.w3.org/1999/xlink">
    <!-- Generator: Sketch 59 (86127) - https://sketch.com -->
    <title>Group 4</title>
    <desc>Created with Sketch.</desc>
    <g id="Page-1" stroke="none" stroke-width="1" fill="none" fill-rule="evenodd">
        <g id="Slide-10" transform="translate(-5.000000, -258.000000)">
            <g id="Group-4" transform="translate(20.000000, 275.000000)">
                <text id="};" font-family="iAWriterQuattroS-Regular, iA Writer Quattro S" font-size="18" font-weight="normal" letter-spacing="0.2842104" fill="#F0647D">
                    <tspan x="59" y="206">};</tspan>
                </text>
                <text id="const-exchange-=-({" font-family="iAWriterQuattroS-Regular, iA Writer Quattro S" font-size="18" font-weight="normal" letter-spacing="0.2842104">
                    <tspan x="59" y="18" fill="#F0647D">const </tspan>
                    <tspan x="120.105262" y="18" fill="#B19CFE">exchange</tspan>
                    <tspan x="208.778946" y="18" fill="#F0647D"> = ({ client, </tspan>
                    <tspan x="339.657891" y="18" fill="#B19CFE">forward</tspan>
                    <tspan x="414.547364" y="18" fill="#F0647D"> }) =&gt; </tspan>
                    <tspan x="484.036837" y="18" fill="#F09A64">sendResult</tspan>
                    <tspan x="586.778941" y="18" fill="#F0647D"> =&gt; {</tspan>
                </text>
                <text id="const-next-=-forward" font-family="iAWriterQuattroS-Regular, iA Writer Quattro S" font-size="18" font-weight="normal" letter-spacing="0.2842104">
                    <tspan x="119" y="128" fill="#F0647D">const </tspan>
                    <tspan x="180.105262" y="128" fill="#F09A64">next</tspan>
                    <tspan x="221.742104" y="128" fill="#F0647D"> = </tspan>
                    <tspan x="249.594735" y="128" fill="#B19CFE">forward</tspan>
                    <tspan x="324.484208" y="128" fill="#F0647D">(result =&gt; </tspan>
                    <tspan x="430.210522" y="128" fill="#F09A64">sendResult</tspan>
                    <tspan x="532.952626" y="128" fill="#F0647D">(result));</tspan>
                    <tspan x="119" y="151" fill="#F0647D">const </tspan>
                    <tspan x="180.105262" y="151" fill="#F09A64">sendOperation</tspan>
                    <tspan x="313.399998" y="151" fill="#F0647D"> = operation =&gt; </tspan>
                    <tspan x="469.147364" y="151" fill="#F09A64">next</tspan>
                    <tspan x="510.784206" y="151" fill="#F0647D">(operation);</tspan>
                    <tspan x="119" y="174" fill="#F0647D">return </tspan>
                    <tspan x="185.789473" y="174" fill="#F09A64">sendOperation</tspan>
                    <tspan x="319.084208" y="174" fill="#F0647D">;</tspan>
                </text>
                <path id="Path-2" d="M399.634773,96.1485943 C400.100617,95.8519331 400.718749,95.9890826 401.015411,96.4549265 C401.312072,96.9207704 401.174922,97.538903 400.709078,97.8355643 C399.313207,98.7244909 397.915506,99.6262801 396.515977,100.540932 L397.330351,100.010121 C398.796314,103.103903 397.805949,106.885353 394.869522,108.83325 C391.647907,110.970327 387.303828,110.091137 385.16675,106.869522 L385.16675,106.869522 L385.031645,106.657859 C383.069005,103.460077 383.978898,99.2573701 387.130478,97.1667504 C390.071563,95.2157635 393.948141,95.778619 396.226972,98.3426186 C397.363892,97.6024445 398.499917,96.8712994 399.634773,96.1485943 Z M395.025936,100.034713 C393.455817,97.8993719 390.468603,97.352419 388.236056,98.8333931 C385.934902,100.359877 385.306909,103.462791 386.833393,105.763944 L386.833393,105.763944 L386.96804,105.957077 C388.536532,108.099224 391.528538,108.649477 393.763944,107.166607 C395.996746,105.685464 396.654308,102.72015 395.29694,100.443169 C395.234503,100.387869 395.179248,100.323489 395.13182,100.250917 C395.088657,100.184873 395.05431,100.115617 395.028489,100.044533 Z M409.015336,90.3510729 C409.489096,90.0672253 410.103259,90.2211801 410.387106,90.6949405 C410.670954,91.168701 410.516999,91.7828637 410.043239,92.0667113 C408.624047,92.9170022 407.202941,93.7807462 405.77992,94.6579435 C405.309783,94.947752 404.693724,94.8015664 404.403916,94.3314287 C404.114107,93.861291 404.260293,93.2452328 404.730431,92.9554243 C406.160601,92.0738199 407.588902,91.2057027 409.015336,90.3510729 Z M418.558863,84.8188249 C419.04071,84.548933 419.650115,84.7207568 419.920007,85.2026041 C420.189899,85.6844514 420.018075,86.2938564 419.536228,86.5637483 C418.093539,87.3718257 416.648847,88.1939744 415.202151,89.0301946 C414.723997,89.3065774 414.112325,89.1430097 413.835942,88.6648559 C413.559559,88.1867022 413.723127,87.5750295 414.201281,87.2986467 C415.655761,86.4579267 417.108289,85.6313193 418.558863,84.8188249 Z M428.269094,79.575584 C428.75915,79.3209018 429.36288,79.5117104 429.617562,80.001767 C429.872244,80.4918235 429.681436,81.0955536 429.191379,81.3502358 C427.724462,82.1125924 426.255444,82.889679 424.784328,83.6814961 C424.298013,83.9432516 423.691582,83.7612099 423.429826,83.2748946 C423.168071,82.7885794 423.350112,82.1821482 423.836428,81.9203928 C425.316027,81.1240097 426.793582,80.3424066 428.269094,79.575584 Z M438.140408,74.6514107 C438.638724,74.413294 439.235721,74.6242272 439.473837,75.1225432 C439.711954,75.6208592 439.501021,76.2178559 439.002705,76.4559727 C437.511434,77.1685658 436.017964,77.8965782 434.522295,78.6400103 C434.027736,78.8858343 433.427537,78.6841944 433.181713,78.1896351 C432.935889,77.6950757 433.137528,77.0948763 433.632088,76.8490523 C435.137001,76.1010254 436.639774,75.368478 438.140408,74.6514107 Z M448.187324,70.0679793 C448.693875,69.8479221 449.282907,70.0801708 449.502964,70.5867212 C449.723021,71.0932716 449.490772,71.6823034 448.984222,71.9023605 C447.468543,72.5608061 445.950561,73.2353911 444.430277,73.9261162 C443.927456,74.1545673 443.334643,73.9321469 443.106192,73.4293263 C442.877741,72.9265058 443.100161,72.3336929 443.602982,72.1052418 C445.133335,71.4099421 446.661449,70.7308544 448.187324,70.0679793 Z M458.391062,65.8671592 C458.906493,65.6687913 459.485141,65.9258214 459.683509,66.441252 C459.881876,66.9566825 459.624846,67.5353304 459.109416,67.7336983 C458.648261,67.9111775 458.189896,68.0900398 457.734321,68.2702851 C456.657354,68.6963792 455.579211,69.1307176 454.499891,69.5733006 C453.988898,69.7828366 453.404795,69.538458 453.195259,69.0274658 C452.985723,68.5164735 453.230101,67.9323699 453.741094,67.7228339 C454.82805,67.2771197 455.913862,66.8396919 456.99853,66.4105507 C457.45992,66.2280051 457.924097,66.0468747 458.391062,65.8671592 Z M468.835631,62.2289951 C469.362447,62.0632151 469.923907,62.3558929 470.089688,62.8827092 C470.255468,63.4095255 469.96279,63.9709858 469.435973,64.1367658 C467.832547,64.6413363 466.257672,65.1600886 464.711348,65.6930172 C464.189203,65.8729703 463.62004,65.5955691 463.440087,65.0734242 C463.260133,64.5512793 463.537535,63.9821163 464.05968,63.8021632 C465.623152,63.2633245 467.215136,62.738937 468.835631,62.2289951 Z M479.471275,59.1947022 C480.006055,59.0567599 480.551405,59.378461 480.689347,59.9132416 C480.82729,60.4480223 480.505589,60.993372 479.970808,61.1313143 C478.343952,61.5509486 476.742506,61.9832257 475.166473,62.428142 C474.634961,62.5781884 474.082449,62.2689498 473.932403,61.7374383 C473.782357,61.2059267 474.091595,60.6534148 474.623107,60.5033685 C476.2138,60.0543138 477.829855,59.618093 479.471275,59.1947022 Z M490.225316,56.6806715 C490.765692,56.566601 491.296226,56.9121901 491.410296,57.4525662 C491.524367,57.9929424 491.178778,58.5234762 490.638401,58.6375466 C488.994088,58.9846521 487.372603,59.3431306 485.773947,59.7129797 C485.235874,59.8374628 484.698766,59.502182 484.574283,58.9641092 C484.4498,58.4260363 484.785081,57.8889286 485.323154,57.7644455 C486.934427,57.3916774 488.568481,57.0304203 490.225316,56.6806715 Z M540.480859,44.0192771 C544.336206,43.7325634 547.694009,46.6255122 547.980723,50.480859 C548.267437,54.3362058 545.374488,57.6940093 541.519141,57.9807229 C538.002961,58.2422135 534.900634,55.8588827 534.164498,52.5127867 L534.063466,52.5266378 C532.39113,52.665484 530.734631,52.8122465 529.093971,52.9669246 C528.544124,53.0187631 528.056362,52.6150477 528.004524,52.0652011 C527.952685,51.5153546 528.356401,51.0275926 528.906247,50.9757542 C530.554352,50.8203742 532.218264,50.6729549 533.897985,50.5334955 C533.937643,50.5302029 533.976953,50.5292717 534.015776,50.5305846 C534.241003,47.1050844 536.959491,44.2811534 540.480859,44.0192771 Z M501.071296,54.6111852 C501.615621,54.5177579 502.132622,54.8832828 502.226049,55.4276079 C502.319476,55.971933 501.953951,56.4889334 501.409626,56.5823607 C499.754413,56.8664593 498.11982,57.1608422 496.505847,57.4655077 C495.963147,57.5679518 495.440154,57.2110537 495.33771,56.6683534 C495.235266,56.1256531 495.592164,55.6026601 496.134864,55.500216 C497.759765,55.1934875 499.405242,54.8971445 501.071296,54.6111852 Z M545.986231,50.629185 C545.781435,47.8753659 543.383004,45.8089739 540.629185,46.0137693 C537.875366,46.2185648 535.808974,48.6169958 536.013769,51.370815 C536.218565,54.1246341 538.616996,56.1910261 541.370815,55.9862307 C544.124634,55.7814352 546.191026,53.3830042 545.986231,50.629185 Z M511.969563,52.9290637 C512.516669,52.8536068 513.021356,53.2359538 513.096813,53.7830595 C513.17227,54.3301653 512.789923,54.834852 512.242817,54.9103089 C510.579197,55.1397556 508.934356,55.3785769 507.308296,55.6267716 C506.762334,55.7101048 506.25219,55.3350704 506.168857,54.7891088 C506.085524,54.2431472 506.460558,53.7330031 507.00652,53.6496699 C508.642127,53.400018 510.296475,53.1598163 511.969563,52.9290637 Z M522.919862,51.5826972 C523.468915,51.5230329 523.962377,51.9197604 524.022041,52.4688128 C524.081706,53.0178653 523.684978,53.5113277 523.135926,53.5709921 C521.467031,53.7523471 519.815333,53.9422929 518.180833,54.1408286 C517.632578,54.2074228 517.134144,53.8169594 517.06755,53.2687043 C517.000955,52.7204492 517.391419,52.2220154 517.939674,52.1554212 C519.582574,51.9558653 521.242636,51.7649576 522.919862,51.5826972 Z" fill="#D22A80" fill-rule="nonzero"></path>
                <path id="Path-2" d="M181.691701,88.3196103 C182.156115,88.0207151 182.774899,88.1548944 183.073794,88.6193081 C183.626349,89.4778499 184.180054,90.3959033 184.735028,91.3735261 C187.99332,90.2574243 191.65781,91.6880478 193.251143,94.8498866 C194.990902,98.3022974 193.602524,102.511383 190.150113,104.251143 C186.697703,105.990902 182.488617,104.602524 180.748857,101.150113 C179.168611,98.014243 180.169181,94.2540909 182.953139,92.2871845 C182.43065,91.3683785 181.910099,90.5067037 181.392003,89.7017034 C181.093108,89.2372896 181.227287,88.6185055 181.691701,88.3196103 Z M191.465102,95.749919 C190.222417,93.2839113 187.215927,92.2922126 184.749919,93.534898 L184.931637,93.4499142 C184.888847,93.4836588 184.842721,93.5143454 184.7934,93.5414804 C184.721132,93.5812409 184.646093,93.6111273 184.569837,93.6315902 C182.236186,94.9260884 181.322972,97.8451131 182.534898,100.250081 C183.777583,102.716089 186.784073,103.707787 189.250081,102.465102 C191.716089,101.222417 192.707787,98.2159267 191.465102,95.749919 Z M173.909773,80.6612912 C174.204284,80.1940853 174.821778,80.0540889 175.288984,80.3486005 C176.079507,80.8469208 176.787892,81.3545687 177.414662,81.8727399 C178.060414,82.4073199 178.698494,83.0148171 179.33733,83.7022741 C179.713286,84.106843 179.69009,84.739583 179.285521,85.1155384 C178.880952,85.4914937 178.248212,85.4682979 177.872257,85.063729 C177.290955,84.4381852 176.715753,83.8905523 176.139801,83.4137557 C175.582191,82.9527615 174.943072,82.4947517 174.222463,82.0405027 C173.755257,81.7459911 173.615261,81.1284971 173.909773,80.6612912 Z M152.374189,72.7417415 C153.583936,69.1851459 157.406195,67.2032423 161.029118,68.3005462 C164.415474,69.3261992 166.454037,72.686592 165.916187,76.0855103 C167.305611,76.5684815 168.596995,77.0606655 169.791092,77.5615862 C170.30038,77.7752312 170.540046,78.3612842 170.326401,78.8705722 C170.112756,79.3798602 169.526703,79.6195261 169.017415,79.4058811 C167.882232,78.9296746 166.652176,78.460135 165.327407,77.9974415 C163.869297,81.0830812 160.334194,82.7181271 156.970882,81.6994538 C153.270876,80.5788031 151.179895,76.6708885 152.300546,72.9708823 L152.300546,72.9708823 Z M160.44937,70.2146758 C157.806508,69.414211 155.015141,70.9077687 154.214676,73.5506302 L154.214676,73.5506302 L154.154778,73.7651995 C153.495783,76.3429222 154.979197,79.0064935 157.55063,79.7853242 C160.193492,80.585789 162.984859,79.0922313 163.785324,76.4493698 L163.726327,76.6281363 C163.733899,76.5568024 163.749312,76.4851875 163.7731,76.4143674 C163.789932,76.3642572 163.810347,76.3163612 163.833964,76.2708687 C164.518374,73.6825865 163.033095,70.9972296 160.44937,70.2146758 Z" fill="#D22A80" fill-rule="nonzero"></path>
                <path id="Path-2" d="M454.501589,206.928777 C458.35777,206.653512 461.706969,209.556418 461.982234,213.412599 L461.982234,213.412599 L461.99532,213.652927 C462.13613,217.406996 459.274255,220.623714 455.498411,220.893244 C451.979434,221.144438 448.882651,218.748991 448.158778,215.397679 L445.589894,215.570737 C445.038797,215.606944 444.562693,215.189544 444.526486,214.638447 C444.490279,214.08735 444.907679,213.611247 445.458775,213.575039 C446.628113,213.498213 447.802847,213.41919 448.982978,213.33797 L448.017529,213.403332 C448.261638,209.986718 450.985295,207.179779 454.501589,206.928777 Z M459.967259,213.338992 C459.664531,210.693027 457.325923,208.732257 454.643992,208.923701 C451.970827,209.114518 449.938994,211.373378 450.001176,214.02426 C450.027253,214.100833 450.043453,214.182297 450.049279,214.266949 C450.054992,214.349954 450.050404,214.431289 450.036607,214.509703 C450.350903,217.141907 452.682925,219.089132 455.356008,218.89832 C458.110423,218.701702 460.183928,216.309417 459.98731,213.555002 L459.98731,213.555002 Z M395.564903,215.558563 C396.117163,215.553293 396.56913,215.996716 396.574399,216.548976 C396.579669,217.101236 396.136246,217.553202 395.583986,217.558472 C393.899777,217.574543 392.230656,217.584451 390.576621,217.588197 C390.024338,217.589447 389.57561,217.142747 389.574359,216.590464 C389.573109,216.03818 390.019809,215.589452 390.572092,215.588202 C392.221253,215.584467 393.885523,215.574588 395.564903,215.558563 Z M379.583885,215.518783 C381.231738,215.543948 382.896019,215.562436 384.576726,215.574244 C385.128997,215.578125 385.573556,216.028974 385.569676,216.581246 C385.565795,217.133517 385.114945,217.578075 384.562674,217.574195 C382.876497,217.562348 381.206721,217.543799 379.553345,217.51855 C379.001124,217.510116 378.560298,217.055617 378.568731,216.503396 C378.577165,215.951176 379.031664,215.510349 379.583885,215.518783 Z M406.542328,215.371542 C407.09445,215.35815 407.55289,215.794878 407.566281,216.347001 C407.579673,216.899123 407.142945,217.357562 406.590823,217.370954 C406.029876,217.384559 405.470482,217.397531 404.912641,217.409868 L404.912641,217.409868 L401.584227,217.476283 C401.03203,217.486094 400.576432,217.046403 400.566621,216.494206 C400.556809,215.942008 400.996501,215.48641 401.548698,215.476599 C403.199247,215.447273 404.863791,215.412254 406.542328,215.371542 Z M368.603502,215.243735 C370.248966,215.301803 371.912408,215.352567 373.593827,215.396025 C374.145927,215.410295 374.581925,215.869429 374.567655,216.421529 C374.553386,216.97363 374.094252,217.409627 373.542152,217.395358 C371.854478,217.351738 370.184749,217.300782 368.532966,217.24249 C367.981025,217.223012 367.549378,216.759785 367.568856,216.207844 C367.588334,215.655903 368.051561,215.224257 368.603502,215.243735 Z M417.525166,215.031416 C418.077064,215.010747 418.541222,215.441392 418.561891,215.99329 C418.582561,216.545188 418.151915,217.009346 417.600017,217.030015 C417.039774,217.050997 416.480976,217.07139 415.923622,217.091192 L415.923622,217.091192 L412.596833,217.202932 C412.044825,217.220389 411.583181,216.78705 411.565724,216.235041 C411.548266,215.683032 411.981605,215.221389 412.533614,215.203931 C414.184448,215.151723 415.848299,215.094218 417.525166,215.031416 Z M357.642215,214.733406 C359.282861,214.829243 360.94331,214.917038 362.623561,214.996792 C363.175224,215.022977 363.601209,215.491416 363.575024,216.04308 C363.548839,216.594743 363.0804,217.020728 362.528737,216.994543 C360.841257,216.914446 359.173541,216.826266 357.525585,216.730002 C356.974241,216.697796 356.553396,216.224734 356.585602,215.673389 C356.617808,215.122044 357.09087,214.701199 357.642215,214.733406 Z M428.502788,214.553814 C429.054401,214.526582 429.523647,214.951677 429.550878,215.50329 C429.57811,216.054903 429.153014,216.52415 428.601401,216.551381 C428.041735,216.57901 427.483419,216.606088 426.926454,216.632614 L426.926454,216.632614 L423.60087,216.785158 C423.049122,216.809488 422.582118,216.38193 422.557788,215.830182 C422.533459,215.278433 422.961016,214.811429 423.512765,214.7871 C424.063155,214.76283 424.614898,214.73801 425.167993,214.71264 L425.167993,214.71264 Z M346.580776,213.946555 L346.697546,213.949792 C348.332131,214.089633 349.988749,214.220533 351.667398,214.342494 C352.21823,214.382514 352.632326,214.861495 352.592306,215.412327 C352.552286,215.96316 352.073305,216.377256 351.522472,216.337236 C349.835355,216.21466 348.170221,216.083087 346.527067,215.942513 C345.976793,215.895437 345.56887,215.411188 345.615946,214.860914 C345.663023,214.310639 346.147272,213.902716 346.697546,213.949792 Z M439.48038,213.951511 C440.031667,213.918324 440.505477,214.338326 440.538664,214.889613 C440.571851,215.4409 440.151849,215.91471 439.600562,215.947897 C439.041641,215.981544 438.483988,216.014673 437.927601,216.047286 L437.927601,216.047286 L434.604488,216.236757 C434.053049,216.267308 433.581253,215.845045 433.550702,215.293606 C433.520151,214.742167 433.942414,214.270371 434.493853,214.23982 C435.044106,214.209334 435.595628,214.178333 436.148418,214.146815 L436.148418,214.146815 Z M335.666938,212.838122 L335.783549,212.845024 L337.836883,213.080238 C338.794677,213.18692 339.760857,213.290203 340.735424,213.390087 C341.284831,213.446395 341.684566,213.937425 341.628257,214.486831 C341.571949,215.036238 341.080919,215.435973 340.531513,215.379664 C339.060896,215.228941 337.609103,215.070505 336.17613,214.904355 L336.17613,214.904355 L335.550597,214.831411 C335.002071,214.767083 334.609552,214.270267 334.67388,213.721741 C334.738208,213.173216 335.235024,212.780696 335.783549,212.845024 Z M324.777701,211.435965 L324.894134,211.445413 C326.552788,211.676765 328.20137,211.898633 329.839879,212.111017 C330.387582,212.18201 330.774031,212.683563 330.703038,213.231266 C330.632044,213.778968 330.130492,214.165418 329.582789,214.094424 C327.937854,213.881207 326.282873,213.658478 324.617845,213.426237 C324.070855,213.349942 323.689282,212.84467 323.765577,212.29768 C323.841872,211.750691 324.347144,211.369118 324.894134,211.445413 Z M313.923298,209.80724 L314.039518,209.819013 C315.692966,210.08344 317.33691,210.338916 318.97135,210.585441 C319.517457,210.667812 319.893391,211.177294 319.81102,211.723402 C319.72865,212.269509 319.219168,212.645442 318.67306,212.563072 C317.032748,212.315661 315.382956,212.059276 313.723683,211.793918 C313.178328,211.706702 312.806933,211.193902 312.894148,210.648548 C312.981364,210.103193 313.494163,209.731797 314.039518,209.819013 Z M303.088847,207.968603 L303.204831,207.982512 C304.852783,208.277245 306.491747,208.563511 308.121724,208.841312 C308.666158,208.934101 309.032289,209.450672 308.9395,209.995107 C308.846711,210.539541 308.330139,210.905672 307.785705,210.812883 C306.150344,210.534164 304.506017,210.246961 302.852722,209.951272 C302.309064,209.85404 301.947164,209.334496 302.044396,208.790838 C302.141628,208.247179 302.661173,207.885279 303.204831,207.982512 Z M291.238073,206.744982 C291.344506,206.20305 291.870111,205.850009 292.412043,205.956443 C294.054576,206.279031 295.688588,206.59359 297.314079,206.900122 C297.856799,207.002466 298.213793,207.525394 298.111448,208.068113 C298.009103,208.610832 297.486176,208.967826 296.943457,208.865481 C295.313011,208.558016 293.674063,208.242506 292.026612,207.918952 C291.48468,207.812519 291.131639,207.286914 291.238073,206.744982 Z M280.459983,204.523079 C280.574909,203.982884 281.10599,203.638136 281.646184,203.753062 C283.28372,204.101447 284.913155,204.442199 286.53449,204.775316 C287.075475,204.886467 287.423924,205.415126 287.312774,205.95611 C287.201624,206.497095 286.672965,206.845544 286.13198,206.734394 C284.506071,206.400337 282.872077,206.058632 281.23,205.709281 C280.689805,205.594355 280.345057,205.063274 280.459983,204.523079 Z M269.7222,202.140864 C269.84498,201.6024 270.381024,201.265422 270.919488,201.388202 C272.551284,201.760282 274.175371,202.125096 275.791749,202.482644 C276.330998,202.601928 276.671447,203.135774 276.552164,203.675024 C276.43288,204.214273 275.899034,204.554722 275.359784,204.435439 C273.739172,204.076954 272.110865,203.711192 270.474862,203.338153 C269.936398,203.215373 269.59942,202.679328 269.7222,202.140864 Z M259.016885,199.608555 C259.146954,199.071805 259.687518,198.742126 260.224268,198.872195 C261.849984,199.266152 263.468352,199.653182 265.079372,200.033286 C265.616898,200.16011 265.949838,200.698672 265.823014,201.236198 C265.69619,201.773724 265.157628,202.106664 264.620102,201.97984 C263.005151,201.598809 261.382865,201.210841 259.753244,200.815938 C259.216495,200.685869 258.886815,200.145305 259.016885,199.608555 Z M226.132981,190.987497 C227.146777,187.256797 230.992951,185.054311 234.72365,186.068107 C238.125446,186.992526 240.256608,190.271922 239.837335,193.671391 C241.150262,194.022901 242.458363,194.369654 243.762012,194.712209 C244.296164,194.852566 244.615398,195.399364 244.475041,195.933516 C244.334684,196.467668 243.787886,196.786901 243.253734,196.646544 C241.647913,196.224589 240.035377,195.796284 238.416125,195.36163 L239.31375,195.602056 C237.956898,198.750362 234.456561,200.503236 231.05237,199.578167 C227.32167,198.564371 225.119184,194.718197 226.132981,190.987497 Z M248.346667,196.937414 C248.48352,196.402353 249.028213,196.079541 249.563273,196.216394 C251.183932,196.630909 252.797567,197.038802 254.404178,197.440073 C254.940003,197.573903 255.265885,198.116764 255.132056,198.652589 C254.998227,199.188414 254.455365,199.514296 253.91954,199.380467 C252.309268,198.978281 250.691983,198.569465 249.067688,198.15402 C248.532627,198.017167 248.209815,197.472474 248.346667,196.937414 Z M234.199182,187.998116 C231.534396,187.273976 228.787129,188.84718 228.062989,191.511965 C227.338849,194.176751 228.912053,196.924018 231.576839,197.648158 C234.241624,198.372298 236.988891,196.799094 237.713031,194.134309 L237.701,194.174 L237.709567,194.136569 C237.713252,194.12284 237.717206,194.109254 237.721421,194.095816 C238.422186,191.443444 236.851297,188.718813 234.199182,187.998116 Z" fill="#D22A80" fill-rule="nonzero"></path>
                <text id="called-by-the-client" opacity="0.9" font-family="NeueHaasUnicaW1G-Medium, Neue Haas Unica W1G" font-size="16" font-weight="400" line-spacing="19" letter-spacing="0.2526315" fill="#000000">
                    <tspan x="471" y="221">called by the client or last </tspan>
                    <tspan x="471" y="240">exchange with an incoming </tspan>
                    <tspan x="471" y="259">operation.</tspan>
                </text>
                <text id="callback-that-passes" opacity="0.9" font-family="NeueHaasUnicaW1G-Medium, Neue Haas Unica W1G" font-size="16" font-weight="400" line-spacing="19" letter-spacing="0.2526315" fill="#000000">
                    <tspan x="560" y="51">callback that passes results </tspan>
                    <tspan x="560" y="70">back up the chain</tspan>
                    <tspan x="558" y="89" font-family="NeueHaasUnicaW1G-MediumIt, Neue Haas Unica W1G" font-style="italic">(which is wrapped here)</tspan>
                </text>
                <text id="calling-forward-give" opacity="0.9" font-family="NeueHaasUnicaW1G-Medium, Neue Haas Unica W1G" font-size="16" font-weight="400" line-spacing="19" letter-spacing="0.2526315" fill="#000000">
                    <tspan x="0" y="48">calling forward gives us the </tspan>
                    <tspan x="0" y="67">sendOperation function of </tspan>
                    <tspan x="0" y="86">the </tspan>
                    <tspan x="28.514526" y="85.824" font-family="NeueHaasUnicaW1G-Bold, Neue Haas Unica W1G" font-weight="bold">next</tspan>
                    <tspan x="62.133052" y="86"> exchange</tspan>
                </text>
                <g id="Group-2" transform="translate(177.000000, 85.000000)">
                    <circle id="Oval" stroke="#D22A80" stroke-width="2" fill="#FFFFFF" cx="12" cy="13" r="12"></circle>
                    <text id="2" font-family="NeueHaasUnicaW1G-Medium, Neue Haas Unica W1G" font-size="16" font-weight="400" letter-spacing="0.2526315" fill="#000000">
                        <tspan x="7.72568425" y="19">2</tspan>
                    </text>
                </g>
                <g id="Group-2" transform="translate(220.000000, 179.000000)">
                    <circle id="Oval" stroke="#D22A80" stroke-width="2" fill="#FFFFFF" cx="12" cy="13" r="12"></circle>
                    <text id="1" font-family="NeueHaasUnicaW1G-Medium, Neue Haas Unica W1G" font-size="16" font-weight="400" letter-spacing="0.2526315" fill="#000000">
                        <tspan x="7.72568425" y="19">1</tspan>
                    </text>
                </g>
                <g id="Group-2" transform="translate(380.000000, 87.000000)">
                    <circle id="Oval" stroke="#D22A80" stroke-width="2" fill="#FFFFFF" cx="12" cy="13" r="12"></circle>
                    <text id="3" font-family="NeueHaasUnicaW1G-Medium, Neue Haas Unica W1G" font-size="16" font-weight="400" letter-spacing="0.2526315" fill="#000000">
                        <tspan x="7.72568425" y="19">3</tspan>
                    </text>
                </g>
            </g>
        </g>
    </g>
</svg>