<?xml version="1.0" encoding="UTF-8"?>
<svg width="634px" height="444px" viewBox="0 0 634 444" version="1.1" xmlns="http://www.w3.org/2000/svg" xmlns:xlink="http://www.w3.org/1999/xlink">
    <!-- Generator: Sketch 59 (86127) - https://sketch.com -->
    <title>exchanges</title>
    <desc>Created with Sketch.</desc>
    <g id="Page-1" stroke="none" stroke-width="1" fill="none" fill-rule="evenodd">
        <g id="Slide-10" transform="translate(-88.000000, -126.000000)">
            <g id="Group-10" transform="translate(88.000000, 126.000000)">
                <g id="Group-9" transform="translate(21.000000, 93.000000)">
                    <g id="Group-6" transform="translate(48.000000, 87.000000)">
                        <text id="dedupExchange" font-family="iAWriterQuattroS-BoldItalic, iA Writer Quattro S" font-size="16" font-style="italic" font-weight="bold" letter-spacing="0.2526315" fill="#F0647D">
                            <tspan x="0" y="17">dedupExchange</tspan>
                        </text>
                        <text id="Deduplicate-ongoing" opacity="0.9" font-family="NeueHaasUnicaW1G-Medium, Neue Haas Unica W1G" font-size="18" font-weight="400" line-spacing="19" letter-spacing="0.2842104">
                            <tspan x="163" y="21.8098901" fill="#000000">Deduplicate ongoing </tspan>
                            <tspan x="345.534208" y="21" font-family="iAWriterQuattroS-Bold, iA Writer Quattro S" font-weight="bold" fill="#F09A64">operations</tspan>
                            <tspan x="444.532312" y="21.8098901" fill="#000000"> </tspan>
                            <tspan x="163" y="40.8098901" fill="#000000">by their </tspan>
                            <tspan x="232.247894" y="40" font-family="iAWriterQuattroS-Bold, iA Writer Quattro S" font-weight="bold" fill="#F09A64">key</tspan>
                            <tspan x="264.456525" y="40.8098901" fill="#000000">.</tspan>
                        </text>
                    </g>
                    <g id="Group-5" transform="translate(48.000000, 195.000000)">
                        <text id="cacheExchange" font-family="iAWriterQuattroS-BoldItalic, iA Writer Quattro S" font-size="16" font-style="italic" font-weight="bold" letter-spacing="0.2526315" fill="#F0647D">
                            <tspan x="0" y="17">cacheExchange</tspan>
                        </text>
                        <text id="Cache-results-and-re" opacity="0.9" font-family="NeueHaasUnicaW1G-Medium, Neue Haas Unica W1G" font-size="18" font-weight="400" line-spacing="19" letter-spacing="0.2842104">
                            <tspan x="163" y="21.8098901" fill="#000000">Cache </tspan>
                            <tspan x="222.665262" y="21" font-family="iAWriterQuattroS-Bold, iA Writer Quattro S" font-weight="bold" fill="#F09A64">results</tspan>
                            <tspan x="288.410735" y="21.8098901" fill="#000000"> and retrieve them </tspan>
                            <tspan x="163" y="40.8098901" fill="#000000">by the operations' </tspan>
                            <tspan x="319.599998" y="40" font-family="iAWriterQuattroS-Bold, iA Writer Quattro S" font-weight="bold" fill="#F09A64">keys</tspan>
                            <tspan x="362.892839" y="40.8098901" fill="#000000">. </tspan>
                        </text>
                    </g>
                    <g id="Group-4" transform="translate(48.000000, 303.000000)">
                        <text id="fetchExchange" font-family="iAWriterQuattroS-BoldItalic, iA Writer Quattro S" font-size="16" font-style="italic" font-weight="bold" letter-spacing="0.2526315" fill="#F0647D">
                            <tspan x="0" y="19">fetchExchange</tspan>
                        </text>
                        <text id="Send-operations-to-a" opacity="0.9" font-family="NeueHaasUnicaW1G-Medium, Neue Haas Unica W1G" font-size="18" font-weight="400" line-spacing="19" letter-spacing="0.2842104">
                            <tspan x="163" y="21.8098901" fill="#000000">Send </tspan>
                            <tspan x="212.031052" y="21" font-family="iAWriterQuattroS-Bold, iA Writer Quattro S" font-weight="bold" fill="#F09A64">operations</tspan>
                            <tspan x="311.029156" y="21.8098901" fill="#000000"> to a GraphQL API </tspan>
                            <tspan x="163" y="40.8098901" fill="#000000">and support cancellation. </tspan>
                        </text>
                    </g>
                    <g id="Group-2" transform="translate(97.000000, 131.000000)" fill="#D22A80" fill-rule="nonzero">
                        <path id="Path-2" d="M1,37.516129 C1.55228475,37.516129 2,37.9638443 2,38.516129 L2,38.516129 L2,43.516129 C2,43.6067154 1.98795514,43.6944886 1.96537961,43.7779343 L7.16488464,43.7777778 C7.62610612,43.7777778 8,44.1516717 8,44.6128931 C8,44.7425407 7.96981468,44.8704078 7.91183453,44.9863681 L7.91183453,44.9863681 L1.74704135,57.3159544 C1.54077684,57.7284835 1.03914556,57.8956939 0.626616528,57.6894294 C0.464998822,57.6086205 0.333950439,57.4775721 0.253141587,57.3159544 L0.253141587,57.3159544 L-5.91165159,44.9863681 C-6.1179161,44.573839 -5.95070568,44.0722078 -5.53817665,43.8659433 C-5.42221634,43.8079631 -5.29434927,43.7777778 -5.16470171,43.7777778 L-5.16470171,43.7777778 L0.0346203898,43.7779343 C0.0120448575,43.6944886 0,43.6067154 0,43.516129 L0,43.516129 L0,38.516129 C0,37.9638443 0.44771525,37.516129 1,37.516129 Z M1,26.516129 C1.55228475,26.516129 2,26.9638443 2,27.516129 L2,27.516129 L2,32.516129 C2,33.0684138 1.55228475,33.516129 1,33.516129 C0.44771525,33.516129 0,33.0684138 0,32.516129 L0,32.516129 L0,27.516129 C0,26.9638443 0.44771525,26.516129 1,26.516129 Z M1,15.516129 C1.55228475,15.516129 2,15.9638443 2,16.516129 L2,16.516129 L2,21.516129 C2,22.0684138 1.55228475,22.516129 1,22.516129 C0.44771525,22.516129 0,22.0684138 0,21.516129 L0,21.516129 L0,16.516129 C0,15.9638443 0.44771525,15.516129 1,15.516129 Z M1,4.51612903 C1.55228475,4.51612903 2,4.96384428 2,5.51612903 L2,5.51612903 L2,10.516129 C2,11.0684138 1.55228475,11.516129 1,11.516129 C0.44771525,11.516129 0,11.0684138 0,10.516129 L0,10.516129 L0,5.51612903 C0,4.96384428 0.44771525,4.51612903 1,4.51612903 Z"></path>
                        <path id="Path-2" d="M26.5,44.2222222 C27.0522847,44.2222222 27.5,44.6699375 27.5,45.2222222 L27.5,45.2222222 L27.5,50.2222222 C27.5,50.774507 27.0522847,51.2222222 26.5,51.2222222 C25.9477153,51.2222222 25.5,50.774507 25.5,50.2222222 L25.5,50.2222222 L25.5,45.2222222 C25.5,44.6699375 25.9477153,44.2222222 26.5,44.2222222 Z M26.5,33.2222222 C27.0522847,33.2222222 27.5,33.6699375 27.5,34.2222222 L27.5,34.2222222 L27.5,39.2222222 C27.5,39.774507 27.0522847,40.2222222 26.5,40.2222222 C25.9477153,40.2222222 25.5,39.774507 25.5,39.2222222 L25.5,39.2222222 L25.5,34.2222222 C25.5,33.6699375 25.9477153,33.2222222 26.5,33.2222222 Z M26.5,22.2222222 C27.0522847,22.2222222 27.5,22.6699375 27.5,23.2222222 L27.5,23.2222222 L27.5,28.2222222 C27.5,28.774507 27.0522847,29.2222222 26.5,29.2222222 C25.9477153,29.2222222 25.5,28.774507 25.5,28.2222222 L25.5,28.2222222 L25.5,23.2222222 C25.5,22.6699375 25.9477153,22.2222222 26.5,22.2222222 Z M26.1266165,-0.689429366 C26.5391456,-0.895693881 27.0407768,-0.728483454 27.2470414,-0.315954425 L27.2470414,-0.315954425 L33.4118345,12.0136319 C33.4698147,12.1295922 33.5,12.2574593 33.5,12.3871069 C33.5,12.8483283 33.1261061,13.2222222 32.6648846,13.2222222 L32.6648846,13.2222222 L27.5,13.222 L27.5,17.2222222 C27.5,17.7350581 27.1139598,18.1577294 26.6166211,18.2154945 L26.5,18.2222222 C25.9477153,18.2222222 25.5,17.774507 25.5,17.2222222 L25.5,17.2222222 L25.5,13.222 L20.3352983,13.2222222 C20.2488666,13.2222222 20.1632262,13.2088065 20.0813775,13.1826834 L19.9618234,13.1340567 C19.5492943,12.9277922 19.3820839,12.426161 19.5883484,12.0136319 L19.5883484,12.0136319 L25.7531416,-0.315954425 C25.8339504,-0.477572131 25.9649988,-0.608620514 26.1266165,-0.689429366 Z"></path>
                    </g>
                    <g id="Group-8">
                        <g id="Group" transform="translate(88.000000, 33.000000)" fill="#D22A80" fill-rule="nonzero">
                            <path id="Path-2" d="M16.1648846,37.7777778 C16.6261061,37.7777778 17,38.1516717 17,38.6128931 C17,38.7425407 16.9698147,38.8704078 16.9118345,38.9863681 L16.9118345,38.9863681 L10.7470414,51.3159544 C10.5407768,51.7284835 10.0391456,51.8956939 9.62661653,51.6894294 C9.46499882,51.6086205 9.33395044,51.4775721 9.25314159,51.3159544 L9.25314159,51.3159544 L3.08834841,38.9863681 C2.8820839,38.573839 3.04929432,38.0722078 3.46182335,37.8659433 C3.57778366,37.8079631 3.70565073,37.7777778 3.83529829,37.7777778 L3.83529829,37.7777778 Z M10,29.1304353 C10.5522847,29.1304353 11,29.5781506 11,30.1304353 L11,30.1304353 L11,35.0094468 C11,35.5617316 10.5522847,36.0094468 10,36.0094468 C9.44771525,36.0094468 9,35.5617316 9,35.0094468 L9,35.0094468 L9,30.1304353 C9,29.5781506 9.44771525,29.1304353 10,29.1304353 Z M10,18.1306997 C10.5522847,18.1306997 11,18.578415 11,19.1306997 L11,19.1306997 L11,24.1304955 C11,24.6827802 10.5522847,25.1304955 10,25.1304955 C9.44771525,25.1304955 9,24.6827802 9,24.1304955 L9,24.1304955 L9,19.1306997 C9,18.578415 9.44771525,18.1306997 10,18.1306997 Z M6.11195494,7.92348735 C6.58723974,7.64219958 7.20056298,7.79946524 7.48185076,8.27475003 C8.43146789,9.87929394 9.18958212,11.427511 9.75533082,12.9203891 C9.95104507,13.436833 9.69104226,14.0141513 9.17459829,14.2098656 C8.65815432,14.4055798 8.08083601,14.145577 7.88512176,13.6291331 C7.36186107,12.2483709 6.65400544,10.8027917 5.76069227,9.29338316 C5.4794045,8.81809837 5.63667015,8.20477512 6.11195494,7.92348735 Z M-0.667465264,-0.744640935 C-0.256211431,-1.11327182 0.376010049,-1.0787191 0.744640935,-0.667465264 C1.9338942,0.659295411 3.01953803,1.95400436 4.00157814,3.21687708 C4.3406064,3.65285677 4.26201174,4.28112484 3.82603205,4.6201531 C3.39005237,4.95918135 2.76178429,4.88058669 2.42275604,4.44460701 C1.4701326,3.2195632 0.414331711,1.96044412 -0.744640935,0.667465264 C-1.11327182,0.256211431 -1.0787191,-0.376010049 -0.667465264,-0.744640935 Z"></path>
                            <path id="Path-2" d="M36,40.4479375 C36.5522847,40.4479375 37,40.8956527 37,41.4479375 L37,41.4479375 L37,46.448152 C37,47.0004367 36.5522847,47.448152 36,47.448152 C35.4477153,47.448152 35,47.0004367 35,46.448152 L35,46.448152 L35,41.4479375 C35,40.8956527 35.4477153,40.4479375 36,40.4479375 Z M36,29.4479793 C36.5522847,29.4479793 37,29.8956945 37,30.4479793 L37,30.4479793 L37,35.4477151 C37,35.9999998 36.5522847,36.4477151 36,36.4477151 C35.4477153,36.4477151 35,35.9999998 35,35.4477151 L35,35.4477151 L35,30.4479793 C35,29.8956945 35.4477153,29.4479793 36,29.4479793 Z M36.0407508,18.43396 L36.1574591,18.4389517 C36.7069643,18.4942915 37.1075645,18.9846153 37.0522246,19.5341204 C37.0178659,19.875291 37.0004991,20.2086477 37.0000117,20.5327656 L37.0000117,20.5327656 L37,24.4484284 C37,25.0007132 36.5522847,25.4484284 36,25.4484284 C35.4477153,25.4484284 35,25.0007132 35,24.4484284 L35,24.4484284 L35.0000129,20.5312549 C35.0006014,20.1389604 35.0213985,19.7397595 35.0622903,19.3337173 C35.1176301,18.7842121 35.6079539,18.3836119 36.1574591,18.4389517 Z M47.6230285,-0.71799526 C47.7880154,-0.791681566 47.9724514,-0.809868052 48.1486527,-0.769824949 C48.5984063,-0.667614967 48.8801462,-0.220160014 48.7779362,0.229593663 L48.7779362,0.229593663 L45.7231044,13.6717429 C45.6943736,13.7981669 45.6366025,13.9161655 45.5543664,14.0163937 C45.261811,14.3729559 44.7355973,14.4248438 44.379035,14.1322884 L44.379035,14.1322884 L40.4851392,10.9390394 C39.7886683,12.0472831 39.1966985,13.1118687 38.7090436,14.1322715 C38.4709019,14.6305756 37.8738947,14.8414789 37.3755905,14.6033373 C36.8772864,14.3651956 36.6663831,13.7681883 36.9045248,13.2698842 C37.4580894,12.1115674 38.1322727,10.9089293 38.9268515,9.66134083 L34.8472483,6.31156327 C34.7470201,6.2293271 34.667315,6.12488456 34.6144453,6.00650686 C34.426361,5.58537793 34.6152811,5.09151309 35.03641,4.90342887 L35.03641,4.90342887 Z"></path>
                        </g>
                        <g id="Group-7" fill="#F09A64" font-family="NeueHaasUnicaW1G-Medium, Neue Haas Unica W1G" font-size="18" font-weight="400" letter-spacing="0.2842104" opacity="0.9">
                            <text id="Operations">
                                <tspan x="0.113896" y="21">Operations</tspan>
                            </text>
                            <text id="Results">
                                <tspan x="128" y="21">Results</tspan>
                            </text>
                        </g>
                    </g>
                    <g id="Group-3" transform="translate(97.000000, 239.000000)" fill="#D22A80" fill-rule="nonzero">
                        <path id="Path-2" d="M1,37.516129 C1.55228475,37.516129 2,37.9638443 2,38.516129 L2,38.516129 L2,43.516129 C2,43.6067154 1.98795514,43.6944886 1.96537961,43.7779343 L7.16488464,43.7777778 C7.62610612,43.7777778 8,44.1516717 8,44.6128931 C8,44.7425407 7.96981468,44.8704078 7.91183453,44.9863681 L7.91183453,44.9863681 L1.74704135,57.3159544 C1.54077684,57.7284835 1.03914556,57.8956939 0.626616528,57.6894294 C0.464998822,57.6086205 0.333950439,57.4775721 0.253141587,57.3159544 L0.253141587,57.3159544 L-5.91165159,44.9863681 C-6.1179161,44.573839 -5.95070568,44.0722078 -5.53817665,43.8659433 C-5.42221634,43.8079631 -5.29434927,43.7777778 -5.16470171,43.7777778 L-5.16470171,43.7777778 L0.0346203898,43.7779343 C0.0120448575,43.6944886 0,43.6067154 0,43.516129 L0,43.516129 L0,38.516129 C0,37.9638443 0.44771525,37.516129 1,37.516129 Z M1,26.516129 C1.55228475,26.516129 2,26.9638443 2,27.516129 L2,27.516129 L2,32.516129 C2,33.0684138 1.55228475,33.516129 1,33.516129 C0.44771525,33.516129 0,33.0684138 0,32.516129 L0,32.516129 L0,27.516129 C0,26.9638443 0.44771525,26.516129 1,26.516129 Z M1,15.516129 C1.55228475,15.516129 2,15.9638443 2,16.516129 L2,16.516129 L2,21.516129 C2,22.0684138 1.55228475,22.516129 1,22.516129 C0.44771525,22.516129 0,22.0684138 0,21.516129 L0,21.516129 L0,16.516129 C0,15.9638443 0.44771525,15.516129 1,15.516129 Z M1,4.51612903 C1.55228475,4.51612903 2,4.96384428 2,5.51612903 L2,5.51612903 L2,10.516129 C2,11.0684138 1.55228475,11.516129 1,11.516129 C0.44771525,11.516129 0,11.0684138 0,10.516129 L0,10.516129 L0,5.51612903 C0,4.96384428 0.44771525,4.51612903 1,4.51612903 Z"></path>
                        <path id="Path-2" d="M26.5,44.2222222 C27.0522847,44.2222222 27.5,44.6699375 27.5,45.2222222 L27.5,45.2222222 L27.5,50.2222222 C27.5,50.774507 27.0522847,51.2222222 26.5,51.2222222 C25.9477153,51.2222222 25.5,50.774507 25.5,50.2222222 L25.5,50.2222222 L25.5,45.2222222 C25.5,44.6699375 25.9477153,44.2222222 26.5,44.2222222 Z M26.5,33.2222222 C27.0522847,33.2222222 27.5,33.6699375 27.5,34.2222222 L27.5,34.2222222 L27.5,39.2222222 C27.5,39.774507 27.0522847,40.2222222 26.5,40.2222222 C25.9477153,40.2222222 25.5,39.774507 25.5,39.2222222 L25.5,39.2222222 L25.5,34.2222222 C25.5,33.6699375 25.9477153,33.2222222 26.5,33.2222222 Z M26.5,22.2222222 C27.0522847,22.2222222 27.5,22.6699375 27.5,23.2222222 L27.5,23.2222222 L27.5,28.2222222 C27.5,28.774507 27.0522847,29.2222222 26.5,29.2222222 C25.9477153,29.2222222 25.5,28.774507 25.5,28.2222222 L25.5,28.2222222 L25.5,23.2222222 C25.5,22.6699375 25.9477153,22.2222222 26.5,22.2222222 Z M26.1266165,-0.689429366 C26.5391456,-0.895693881 27.0407768,-0.728483454 27.2470414,-0.315954425 L27.2470414,-0.315954425 L33.4118345,12.0136319 C33.4698147,12.1295922 33.5,12.2574593 33.5,12.3871069 C33.5,12.8483283 33.1261061,13.2222222 32.6648846,13.2222222 L32.6648846,13.2222222 L27.5,13.222 L27.5,17.2222222 C27.5,17.7350581 27.1139598,18.1577294 26.6166211,18.2154945 L26.5,18.2222222 C25.9477153,18.2222222 25.5,17.774507 25.5,17.2222222 L25.5,17.2222222 L25.5,13.222 L20.3352983,13.2222222 C20.2488666,13.2222222 20.1632262,13.2088065 20.0813775,13.1826834 L19.9618234,13.1340567 C19.5492943,12.9277922 19.3820839,12.426161 19.5883484,12.0136319 L19.5883484,12.0136319 L25.7531416,-0.315954425 C25.8339504,-0.477572131 25.9649988,-0.608620514 26.1266165,-0.689429366 Z"></path>
                    </g>
                    <line x1="161" y1="162" x2="508" y2="162" id="Line" stroke="#ACACAC" stroke-width="2" opacity="0.5" stroke-linecap="square"></line>
                    <line x1="161" y1="270" x2="508" y2="270" id="Line" stroke="#ACACAC" stroke-width="2" opacity="0.5" stroke-linecap="square"></line>
                </g>
                <g id="Group" transform="translate(89.000000, 6.000000)">
                    <ellipse id="Oval" fill="#C8B8FF" cx="41" cy="40.5" rx="41" ry="40.5"></ellipse>
                    <text id="Client." opacity="0.9" font-family="TitlingGothicFBNormal-Medium, TitlingGothicFB Normal" font-size="19" font-weight="400" letter-spacing="0.3" fill="#000000">
                        <tspan x="7.257" y="46">Client.</tspan>
                    </text>
                </g>
            </g>
        </g>
    </g>
</svg>