<?xml version="1.0" encoding="UTF-8"?>
<svg width="730px" height="134px" viewBox="0 0 730 134" version="1.1" xmlns="http://www.w3.org/2000/svg" xmlns:xlink="http://www.w3.org/1999/xlink">
    <!-- Generator: Sketch 59 (86127) - https://sketch.com -->
    <title>Group 3</title>
    <desc>Created with Sketch.</desc>
    <g id="Page-1" stroke="none" stroke-width="1" fill="none" fill-rule="evenodd">
        <g id="Slide-10" transform="translate(-43.000000, -97.000000)">
            <g id="Group-3" transform="translate(69.000000, 111.000000)">
                <g id="Group">
                    <path id="Path-2" d="M345.617976,25.1318028 C345.747624,25.1318969 345.875469,25.162175 345.991387,25.2202393 L345.991387,25.2202393 L358.316496,31.3939788 C358.728876,31.6005426 358.895722,32.1022951 358.689158,32.5146743 C358.608232,32.6762334 358.477089,32.8071866 358.315412,32.8878781 L358.315412,32.8878781 L345.981355,39.0437218 C345.568677,39.2496869 345.067167,39.0821125 344.861202,38.6694338 C344.803306,38.5534315 344.773213,38.4255426 344.773307,38.295895 L344.773307,38.295895 L344.777,33.131 L339.999228,33.1277273 C339.486392,33.1273551 339.064001,32.7410083 339.006597,32.2436278 L338.999954,32.1270018 C339.000355,31.5747172 339.448395,31.127327 340.000679,31.1277278 L340.000679,31.1277278 L344.778,31.131 L344.782255,25.9663119 C344.782564,25.5405691 345.101403,25.1894668 345.513217,25.1382336 Z M164.00508,25.0000018 C164.557365,25.0004027 165.004755,25.4484427 165.004354,26.0007273 L165.004354,26.0007273 L165,31.001 L169.000724,31.0036289 C169.51356,31.0040011 169.935951,31.3903479 169.993355,31.8877284 L169.999998,32.0043543 C169.999598,32.556639 169.551558,33.0040292 168.999273,33.0036284 L168.999273,33.0036284 L164.999,33 L164.995645,38.0007241 C164.995273,38.5135598 164.608926,38.9359509 164.111546,38.9933551 L163.99492,38.9999982 C163.442635,38.9995973 162.995245,38.5515573 162.995646,37.9992727 L162.995646,37.9992727 L163.004355,25.9992759 C163.004755,25.4469913 163.452795,24.999601 164.00508,25.0000018 Z M329.000682,31.1197448 L334.000681,31.1233735 C334.552966,31.1237743 335.000356,31.5718143 334.999955,32.1240989 C334.999554,32.6763835 334.551514,33.1237737 333.99923,33.1233729 L333.99923,33.1233729 L328.999231,33.1197443 C328.446946,33.1193435 327.999556,32.6713035 327.999957,32.1190189 C328.000358,31.5667343 328.448398,31.119344 329.000682,31.1197448 L329.000682,31.1197448 Z M318.000685,31.1117619 L323.000684,31.1153905 C323.552968,31.1157913 324.000359,31.5638314 323.999958,32.116116 C323.999557,32.6684006 323.551517,33.1157908 322.999232,33.11539 L322.999232,33.11539 L317.999234,33.1117613 C317.446949,33.1113605 316.999559,32.6633205 316.99996,32.1110359 C317.000361,31.5587513 317.448401,31.1113611 318.000685,31.1117619 L318.000685,31.1117619 Z M307.000688,31.1037789 L312.000687,31.1074075 C312.552971,31.1078083 313.000362,31.5558484 312.999961,32.108133 C312.99956,32.6604176 312.55152,33.1078078 311.999235,33.107407 L311.999235,33.107407 L306.999237,33.1037784 C306.446952,33.1033776 305.999562,32.6553375 305.999963,32.1030529 C306.000363,31.5507683 306.448403,31.1033781 307.000688,31.1037789 L307.000688,31.1037789 Z M296.000691,31.0957959 L301.00069,31.0994246 C301.552974,31.0998254 302.000364,31.5478654 301.999964,32.10015 C301.999563,32.6524346 301.551523,33.0998248 300.999238,33.099424 L300.999238,33.099424 L295.99924,33.0957954 C295.446955,33.0953946 294.999565,32.6473545 294.999966,32.0950699 C295.000366,31.5427853 295.448406,31.0953951 296.000691,31.0957959 L296.000691,31.0957959 Z M285.000694,31.087813 L290.000693,31.0914416 C290.552977,31.0918424 291.000367,31.5398824 290.999967,32.092167 C290.999566,32.6444516 290.551526,33.0918419 289.999241,33.0914411 L289.999241,33.0914411 L284.999242,33.0878124 C284.446958,33.0874116 283.999568,32.6393716 283.999968,32.087087 C284.000369,31.5348024 284.448409,31.0874121 285.000694,31.087813 L285.000694,31.087813 Z M274.000697,31.07983 L279.000695,31.0834586 C279.55298,31.0838594 280.00037,31.5318995 279.999969,32.0841841 C279.999569,32.6364687 279.551529,33.0838589 278.999244,33.0834581 L278.999244,33.0834581 L273.999245,33.0798295 C273.446961,33.0794286 272.99957,32.6313886 272.999971,32.079104 C273.000372,31.5268194 273.448412,31.0794292 274.000697,31.07983 L274.000697,31.07983 Z M263.0007,31.071847 L268.000698,31.0754756 C268.552983,31.0758764 269.000373,31.5239165 268.999972,32.0762011 C268.999572,32.6284857 268.551531,33.0758759 267.999247,33.0754751 L267.999247,33.0754751 L262.999248,33.0718465 C262.446964,33.0714457 261.999573,32.6234056 261.999974,32.071121 C262.000375,31.5188364 262.448415,31.0714462 263.0007,31.071847 L263.0007,31.071847 Z M252.000703,31.063864 L257.000701,31.0674927 C257.552986,31.0678935 258.000376,31.5159335 257.999975,32.0682181 C257.999574,32.6205027 257.551534,33.0678929 256.99925,33.0674921 L256.99925,33.0674921 L251.999251,33.0638635 C251.446966,33.0634627 250.999576,32.6154227 250.999977,32.0631381 C251.000378,31.5108534 251.448418,31.0634632 252.000703,31.063864 L252.000703,31.063864 Z M241.000705,31.0558811 L246.000704,31.0595097 C246.552989,31.0599105 247.000379,31.5079505 246.999978,32.0602352 C246.999577,32.6125198 246.551537,33.05991 245.999253,33.0595092 L245.999253,33.0595092 L240.999254,33.0558805 C240.446969,33.0554797 239.999579,32.6074397 239.99998,32.0551551 C240.000381,31.5028705 240.448421,31.0554803 241.000705,31.0558811 L241.000705,31.0558811 Z M230.000708,31.0478981 L235.000707,31.0515267 C235.552992,31.0519275 236.000382,31.4999676 235.999981,32.0522522 C235.99958,32.6045368 235.55154,33.051927 234.999256,33.0515262 L234.999256,33.0515262 L229.999257,33.0478976 C229.446972,33.0474968 228.999582,32.5994567 228.999983,32.0471721 C229.000384,31.4948875 229.448424,31.0474973 230.000708,31.0478981 L230.000708,31.0478981 Z M219.000711,31.0399151 L224.00071,31.0435437 C224.552995,31.0439446 225.000385,31.4919846 224.999984,32.0442692 C224.999583,32.5965538 224.551543,33.043944 223.999258,33.0435432 L223.999258,33.0435432 L218.99926,33.0399146 C218.446975,33.0395138 217.999585,32.5914737 217.999986,32.0391891 C218.000387,31.4869045 218.448427,31.0395143 219.000711,31.0399151 L219.000711,31.0399151 Z M208.000714,31.0319322 L213.000713,31.0355608 C213.552997,31.0359616 214.000388,31.4840016 213.999987,32.0362862 C213.999586,32.5885708 213.551546,33.0359611 212.999261,33.0355602 L212.999261,33.0355602 L207.999263,33.0319316 C207.446978,33.0315308 206.999588,32.5834908 206.999989,32.0312062 C207.000389,31.4789216 207.44843,31.0315313 208.000714,31.0319322 L208.000714,31.0319322 Z M197.000717,31.0239492 L202.000716,31.0275778 C202.553,31.0279786 203.000391,31.4760187 202.99999,32.0283033 C202.999589,32.5805879 202.551549,33.0279781 201.999264,33.0275773 L201.999264,33.0275773 L196.999266,33.0239487 C196.446981,33.0235478 195.999591,32.5755078 195.999992,32.0232232 C196.000392,31.4709386 196.448432,31.0235484 197.000717,31.0239492 L197.000717,31.0239492 Z M186.00072,31.0159662 L191.000719,31.0195948 C191.553003,31.0199956 192.000393,31.4680357 191.999993,32.0203203 C191.999592,32.5726049 191.551552,33.0199951 190.999267,33.0195943 L190.999267,33.0195943 L185.999268,33.0159657 C185.446984,33.0155649 184.999594,32.5675248 184.999994,32.0152402 C185.000395,31.4629556 185.448435,31.0155654 186.00072,31.0159662 L186.00072,31.0159662 Z M175.000723,31.0079832 L180.000722,31.0116119 C180.553006,31.0120127 181.000396,31.4600527 180.999996,32.0123373 C180.999595,32.5646219 180.551555,33.0120121 179.99927,33.0116113 L179.99927,33.0116113 L174.999271,33.0079827 C174.446987,33.0075819 173.999597,32.5595419 173.999997,32.0072572 C174.000398,31.4549726 174.448438,31.0075824 175.000723,31.0079832 L175.000723,31.0079832 Z" fill="#D22A80" fill-rule="nonzero"></path>
                    <text id="Operations" opacity="0.9" font-family="NeueHaasUnicaW1G-Medium, Neue Haas Unica W1G" font-size="18" font-weight="400" letter-spacing="0.2842104" fill="#000000">
                        <tspan x="0.113896" y="39">Operations</tspan>
                    </text>
                    <text id="Results" opacity="0.9" font-family="NeueHaasUnicaW1G-Medium, Neue Haas Unica W1G" font-size="18" font-weight="400" letter-spacing="0.2842104" fill="#000000">
                        <tspan x="30.5225272" y="74">Results</tspan>
                    </text>
                    <text id="sendOperation" opacity="0.9" font-family="iAWriterQuattroS-Regular, iA Writer Quattro S" font-size="18" font-weight="normal" letter-spacing="0.2842104" fill="#F0647D">
                        <tspan x="214" y="18">sendOperation</tspan>
                    </text>
                    <text id="next" opacity="0.9" font-family="iAWriterQuattroS-Regular, iA Writer Quattro S" font-size="18" font-weight="normal" letter-spacing="0.2842104" fill="#F0647D">
                        <tspan x="493" y="18">next</tspan>
                    </text>
                    <text id="sendResult" opacity="0.9" font-family="iAWriterQuattroS-Regular, iA Writer Quattro S" font-size="18" font-weight="normal" letter-spacing="0.2842104" fill="#F0647D">
                        <tspan x="214" y="98">sendResult</tspan>
                    </text>
                    <path id="Path-2" d="M357.743455,65.0703958 C358.29574,65.0705965 358.743293,65.5184743 358.743092,66.0707591 L358.743092,66.0707591 L358.738732,78.0707583 C358.738531,78.623043 358.290653,79.0705955 357.738368,79.0703949 C357.186084,79.0701942 356.738531,78.6223163 356.738732,78.0700316 L356.738732,78.0700316 L356.74,73.07 L352.221263,73.0683898 C351.708427,73.0682035 351.285896,72.6820098 351.228311,72.1846501 L351.221626,72.0680265 C351.221827,71.5157418 351.669705,71.0681893 352.221989,71.06839 L352.221989,71.06839 L356.741,71.07 L356.743092,66.0700324 C356.743278,65.5571966 357.129472,65.1346655 357.626832,65.0770811 Z M176.389649,65.0045013 C176.850871,65.0046689 177.224629,65.3786986 177.224461,65.83992 L177.224461,65.83992 L177.222,71.004 L181.222001,71.0062575 C181.734836,71.0064438 182.157367,71.3926376 182.214952,71.8899972 L182.221637,72.0066208 C182.221437,72.5589055 181.773559,73.006458 181.221274,73.0062574 L181.221274,73.0062574 L177.221,73.004 L177.219981,78.1695056 C177.21995,78.2559373 177.206503,78.3415728 177.18035,78.4234119 L177.13168,78.5429484 C176.925266,78.9554025 176.423574,79.1224306 176.01112,78.9160163 L176.01112,78.9160163 L163.683774,72.7467436 C163.522186,72.665876 163.391185,72.53478 163.310435,72.3731329 C163.10432,71.960529 163.271713,71.4589585 163.684317,71.2528439 L163.684317,71.2528439 L176.016143,65.0925311 C176.132124,65.034593 176.260002,65.0044542 176.389649,65.0045013 Z M341.22199,71.0643931 L346.22199,71.0662099 C346.774274,71.0664105 347.221827,71.5142884 347.221626,72.0665732 C347.221426,72.6188579 346.773548,73.0664104 346.221263,73.0662097 L346.221263,73.0662097 L341.221263,73.064393 C340.668979,73.0641923 340.221426,72.6163144 340.221627,72.0640297 C340.221827,71.511745 340.669705,71.0641925 341.22199,71.0643931 L341.22199,71.0643931 Z M330.221991,71.0603963 L335.22199,71.0622131 C335.774275,71.0624137 336.221828,71.5102916 336.221627,72.0625763 C336.221426,72.614861 335.773548,73.0624136 335.221264,73.0622129 L335.221264,73.0622129 L330.221264,73.0603962 C329.668979,73.0601955 329.221427,72.6123176 329.221627,72.0600329 C329.221828,71.5077482 329.669706,71.0601956 330.221991,71.0603963 L330.221991,71.0603963 Z M319.221992,71.0563995 L324.221991,71.0582162 C324.774276,71.0584169 325.221828,71.5062948 325.221628,72.0585795 C325.221427,72.6108642 324.773549,73.0584168 324.221264,73.0582161 L324.221264,73.0582161 L319.221265,73.0563994 C318.66898,73.0561987 318.221428,72.6083208 318.221628,72.0560361 C318.221829,71.5037514 318.669707,71.0561988 319.221992,71.0563995 L319.221992,71.0563995 Z M308.221992,71.0524027 L313.221992,71.0542194 C313.774277,71.0544201 314.221829,71.502298 314.221628,72.0545827 C314.221428,72.6068674 313.77355,73.0544199 313.221265,73.0542193 L313.221265,73.0542193 L308.221266,73.0524025 C307.668981,73.0522019 307.221428,72.604324 307.221629,72.0520393 C307.22183,71.4997545 307.669708,71.052202 308.221992,71.0524027 L308.221992,71.0524027 Z M297.221993,71.0484058 L302.221993,71.0502226 C302.774277,71.0504233 303.22183,71.4983011 303.221629,72.0505859 C303.221429,72.6028706 302.773551,73.0504231 302.221266,73.0502224 L302.221266,73.0502224 L297.221266,73.0484057 C296.668982,73.048205 296.221429,72.6003271 296.22163,72.0480424 C296.22183,71.4957577 296.669708,71.0482052 297.221993,71.0484058 L297.221993,71.0484058 Z M286.221994,71.044409 L291.221993,71.0462258 C291.774278,71.0464264 292.221831,71.4943043 292.22163,72.046589 C292.221429,72.5988737 291.773551,73.0464263 291.221267,73.0462256 L291.221267,73.0462256 L286.221267,73.0444089 C285.668982,73.0442082 285.22143,72.5963303 285.22163,72.0440456 C285.221831,71.4917609 285.669709,71.0442083 286.221994,71.044409 L286.221994,71.044409 Z M275.221994,71.0404122 L280.221994,71.0422289 C280.774279,71.0424296 281.221831,71.4903075 281.221631,72.0425922 C281.22143,72.5948769 280.773552,73.0424295 280.221267,73.0422288 L280.221267,73.0422288 L275.221268,73.0404121 C274.668983,73.0402114 274.22143,72.5923335 274.221631,72.0400488 C274.221832,71.4877641 274.66971,71.0402115 275.221994,71.0404122 L275.221994,71.0404122 Z M264.221995,71.0364154 L269.221995,71.0382321 C269.77428,71.0384328 270.221832,71.4863107 270.221631,72.0385954 C270.221431,72.5908801 269.773553,73.0384326 269.221268,73.038232 L269.221268,73.038232 L264.221268,73.0364152 C263.668984,73.0362146 263.221431,72.5883367 263.221632,72.036052 C263.221833,71.4837672 263.66971,71.0362147 264.221995,71.0364154 L264.221995,71.0364154 Z M253.221996,71.0324185 L258.221996,71.0342353 C258.77428,71.034436 259.221833,71.4823138 259.221632,72.0345986 C259.221431,72.5868833 258.773554,73.0344358 258.221269,73.0342351 L258.221269,73.0342351 L253.221269,73.0324184 C252.668984,73.0322177 252.221432,72.5843398 252.221633,72.0320551 C252.221833,71.4797704 252.669711,71.0322179 253.221996,71.0324185 L253.221996,71.0324185 Z M242.221997,71.0284217 L247.221996,71.0302385 C247.774281,71.0304391 248.221834,71.478317 248.221633,72.0306017 C248.221432,72.5828865 247.773554,73.030439 247.22127,73.0302383 L247.22127,73.0302383 L242.22127,73.0284216 C241.668985,73.0282209 241.221433,72.580343 241.221633,72.0280583 C241.221834,71.4757736 241.669712,71.028221 242.221997,71.0284217 L242.221997,71.0284217 Z M231.221997,71.0244249 L236.221997,71.0262416 C236.774282,71.0264423 237.221834,71.4743202 237.221634,72.0266049 C237.221433,72.5788896 236.773555,73.0264422 236.22127,73.0262415 L236.22127,73.0262415 L231.221271,73.0244248 C230.668986,73.0242241 230.221433,72.5763462 230.221634,72.0240615 C230.221835,71.4717768 230.669713,71.0242242 231.221997,71.0244249 L231.221997,71.0244249 Z M220.221998,71.0204281 L225.221998,71.0222448 C225.774282,71.0224455 226.221835,71.4703234 226.221634,72.0226081 C226.221434,72.5748928 225.773556,73.0224453 225.221271,73.0222447 L225.221271,73.0222447 L220.221271,73.0204279 C219.668987,73.0202273 219.221434,72.5723494 219.221635,72.0200647 C219.221835,71.4677799 219.669713,71.0202274 220.221998,71.0204281 L220.221998,71.0204281 Z M209.221999,71.0164312 L214.221998,71.018248 C214.774283,71.0184487 215.221836,71.4663266 215.221635,72.0186113 C215.221434,72.570896 214.773556,73.0184485 214.221272,73.0182479 L214.221272,73.0182479 L209.221272,73.0164311 C208.668987,73.0162304 208.221435,72.5683525 208.221635,72.0160678 C208.221836,71.4637831 208.669714,71.0162306 209.221999,71.0164312 L209.221999,71.0164312 Z M198.221999,71.0124344 L203.221999,71.0142512 C203.774284,71.0144518 204.221836,71.4623297 204.221636,72.0146144 C204.221435,72.5668992 203.773557,73.0144517 203.221272,73.014251 L203.221272,73.014251 L198.221273,73.0124343 C197.668988,73.0122336 197.221436,72.5643557 197.221636,72.012071 C197.221837,71.4597863 197.669715,71.0122337 198.221999,71.0124344 L198.221999,71.0124344 Z M187.222,71.0084376 L192.222,71.0102543 C192.774285,71.010455 193.221837,71.4583329 193.221636,72.0106176 C193.221436,72.5629023 192.773558,73.0104549 192.221273,73.0102542 L192.221273,73.0102542 L187.221274,73.0084375 C186.668989,73.0082368 186.221436,72.5603589 186.221637,72.0080742 C186.221838,71.4557895 186.669716,71.0082369 187.222,71.0084376 L187.222,71.0084376 Z" fill="#D22A80" fill-rule="nonzero"></path>
                    <path id="Path-2" d="M621.704339,24.7725935 C621.833987,24.7726876 621.961832,24.8029657 622.07775,24.86103 L622.07775,24.86103 L634.402859,31.0347694 C634.815238,31.2413333 634.982085,31.7430857 634.775521,32.155465 C634.694595,32.317024 634.563451,32.4479772 634.401775,32.5286688 L634.401775,32.5286688 L622.067718,38.6845124 C621.655039,38.8904775 621.15353,38.7229031 620.947565,38.3102245 C620.889669,38.1942221 620.859576,38.0663332 620.85967,37.9366857 L620.85967,37.9366857 L620.863,32.772 L616.085591,32.7685179 C615.572755,32.7681457 615.150364,32.3817989 615.09296,31.8844184 L615.086317,31.7677925 C615.086717,31.2155079 615.534757,30.7681176 616.087042,30.7685184 L616.087042,30.7685184 L620.864,30.772 L620.868618,25.6071026 C620.868927,25.1813598 621.187766,24.8302575 621.599579,24.7790242 Z M440.091443,24.6407925 C440.643727,24.6411933 441.091118,25.0892333 441.090717,25.6415179 L441.090717,25.6415179 L441.087,30.641 L445.087087,30.6444195 C445.599923,30.6447917 446.022314,31.0311385 446.079718,31.528519 L446.086361,31.645145 C446.08596,32.1974296 445.63792,32.6448198 445.085636,32.644419 L445.085636,32.644419 L441.085,32.641 L441.082008,37.6415148 C441.081636,38.1543505 440.695289,38.5767415 440.197909,38.6341457 L440.081283,38.6407888 C439.528998,38.640388 439.081608,38.1923479 439.082009,37.6400633 L439.082009,37.6400633 L439.090717,25.6400665 C439.091118,25.0877819 439.539158,24.6403917 440.091443,24.6407925 Z M605.087045,30.7605355 L610.087044,30.7641641 C610.639328,30.7645649 611.086719,31.212605 611.086318,31.7648896 C611.085917,32.3171742 610.637877,32.7645644 610.085592,32.7641636 L610.085592,32.7641636 L605.085594,32.760535 C604.533309,32.7601341 604.085919,32.3120941 604.08632,31.7598095 C604.08672,31.2075249 604.53476,30.7601347 605.087045,30.7605355 L605.087045,30.7605355 Z M594.087048,30.7525525 L599.087047,30.7561811 C599.639331,30.7565819 600.086721,31.204622 600.086321,31.7569066 C600.08592,32.3091912 599.63788,32.7565814 599.085595,32.7561806 L599.085595,32.7561806 L594.085596,32.752552 C593.533312,32.7521512 593.085922,32.3041111 593.086322,31.7518265 C593.086723,31.1995419 593.534763,30.7521517 594.087048,30.7525525 L594.087048,30.7525525 Z M583.087051,30.7445695 L588.087049,30.7481982 C588.639334,30.748599 589.086724,31.196639 589.086323,31.7489236 C589.085923,32.3012082 588.637883,32.7485984 588.085598,32.7481976 L588.085598,32.7481976 L583.085599,32.744569 C582.533315,32.7441682 582.085925,32.2961281 582.086325,31.7438435 C582.086726,31.1915589 582.534766,30.7441687 583.087051,30.7445695 L583.087051,30.7445695 Z M572.087054,30.7365866 L577.087052,30.7402152 C577.639337,30.740616 578.086727,31.188656 578.086326,31.7409406 C578.085926,32.2932253 577.637886,32.7406155 577.085601,32.7402147 L577.085601,32.7402147 L572.085602,32.736586 C571.533318,32.7361852 571.085927,32.2881452 571.086328,31.7358606 C571.086729,31.183576 571.534769,30.7361858 572.087054,30.7365866 L572.087054,30.7365866 Z M561.087057,30.7286036 L566.087055,30.7322322 C566.63934,30.732633 567.08673,31.1806731 567.086329,31.7329577 C567.085928,32.2852423 566.637888,32.7326325 566.085604,32.7322317 L566.085604,32.7322317 L561.085605,32.7286031 C560.533321,32.7282023 560.08593,32.2801622 560.086331,31.7278776 C560.086732,31.175593 560.534772,30.7282028 561.087057,30.7286036 L561.087057,30.7286036 Z M550.087059,30.7206206 L555.087058,30.7242492 C555.639343,30.72465 556.086733,31.1726901 556.086332,31.7249747 C556.085931,32.2772593 555.637891,32.7246495 555.085607,32.7242487 L555.085607,32.7242487 L550.085608,32.7206201 C549.533323,32.7202193 549.085933,32.2721792 549.086334,31.7198946 C549.086735,31.16761 549.534775,30.7202198 550.087059,30.7206206 L550.087059,30.7206206 Z M539.087062,30.7126376 L544.087061,30.7162663 C544.639346,30.7166671 545.086736,31.1647071 545.086335,31.7169917 C545.085934,32.2692763 544.637894,32.7166665 544.08561,32.7162657 L544.08561,32.7162657 L539.085611,32.7126371 C538.533326,32.7122363 538.085936,32.2641963 538.086337,31.7119117 C538.086738,31.1596271 538.534778,30.7122368 539.087062,30.7126376 L539.087062,30.7126376 Z M528.087065,30.7046547 L533.087064,30.7082833 C533.639349,30.7086841 534.086739,31.1567242 534.086338,31.7090088 C534.085937,32.2612934 533.637897,32.7086836 533.085613,32.7082828 L533.085613,32.7082828 L528.085614,32.7046541 C527.533329,32.7042533 527.085939,32.2562133 527.08634,31.7039287 C527.086741,31.1516441 527.534781,30.7042539 528.087065,30.7046547 L528.087065,30.7046547 Z M517.087068,30.6966717 L522.087067,30.7003003 C522.639351,30.7007011 523.086742,31.1487412 523.086341,31.7010258 C523.08594,32.2533104 522.6379,32.7007006 522.085615,32.7002998 L522.085615,32.7002998 L517.085617,32.6966712 C516.533332,32.6962704 516.085942,32.2482303 516.086343,31.6959457 C516.086744,31.1436611 516.534784,30.6962709 517.087068,30.6966717 L517.087068,30.6966717 Z M506.087071,30.6886887 L511.08707,30.6923174 C511.639354,30.6927182 512.086745,31.1407582 512.086344,31.6930428 C512.085943,32.2453274 511.637903,32.6927176 511.085618,32.6923168 L511.085618,32.6923168 L506.08562,32.6886882 C505.533335,32.6882874 505.085945,32.2402473 505.086346,31.6879627 C505.086746,31.1356781 505.534786,30.6882879 506.087071,30.6886887 L506.087071,30.6886887 Z M495.087074,30.6807058 L500.087073,30.6843344 C500.639357,30.6847352 501.086747,31.1327752 501.086347,31.6850598 C501.085946,32.2373444 500.637906,32.6847347 500.085621,32.6843339 L500.085621,32.6843339 L495.085623,32.6807052 C494.533338,32.6803044 494.085948,32.2322644 494.086349,31.6799798 C494.086749,31.1276952 494.534789,30.680305 495.087074,30.6807058 L495.087074,30.6807058 Z M484.087077,30.6727228 L489.087076,30.6763514 C489.63936,30.6767522 490.08675,31.1247923 490.08635,31.6770769 C490.085949,32.2293615 489.637909,32.6767517 489.085624,32.6763509 L489.085624,32.6763509 L484.085625,32.6727223 C483.533341,32.6723215 483.085951,32.2242814 483.086351,31.6719968 C483.086752,31.1197122 483.534792,30.672322 484.087077,30.6727228 L484.087077,30.6727228 Z M473.08708,30.6647398 L478.087078,30.6683684 C478.639363,30.6687692 479.086753,31.1168093 479.086352,31.6690939 C479.085952,32.2213785 478.637912,32.6687687 478.085627,32.6683679 L478.085627,32.6683679 L473.085628,32.6647393 C472.533344,32.6643385 472.085953,32.2162984 472.086354,31.6640138 C472.086755,31.1117292 472.534795,30.664339 473.08708,30.6647398 L473.08708,30.6647398 Z M462.087083,30.6567568 L467.087081,30.6603855 C467.639366,30.6607863 468.086756,31.1088263 468.086355,31.6611109 C468.085955,32.2133955 467.637914,32.6607857 467.08563,32.6603849 L467.08563,32.6603849 L462.085631,32.6567563 C461.533347,32.6563555 461.085956,32.2083155 461.086357,31.6560309 C461.086758,31.1037462 461.534798,30.656356 462.087083,30.6567568 L462.087083,30.6567568 Z M451.087086,30.6487739 L456.087084,30.6524025 C456.639369,30.6528033 457.086759,31.1008433 457.086358,31.653128 C457.085957,32.2054126 456.637917,32.6528028 456.085633,32.652402 L456.085633,32.652402 L451.085634,32.6487733 C450.533349,32.6483725 450.085959,32.2003325 450.08636,31.6480479 C450.086761,31.0957633 450.534801,30.6483731 451.087086,30.6487739 L451.087086,30.6487739 Z" fill="#D22A80" fill-rule="nonzero"></path>
                    <path id="Path-2" d="M633.829818,64.7111864 C634.382103,64.7113871 634.829655,65.159265 634.829455,65.7115497 L634.829455,65.7115497 L634.825094,77.7115489 C634.824894,78.2638336 634.377016,78.7113862 633.824731,78.7111855 C633.272446,78.7109848 632.824894,78.2631069 632.825095,77.7108222 L632.825095,77.7108222 L632.827,72.71 L628.307625,72.7091805 C627.79479,72.7089941 627.372259,72.3228004 627.314674,71.8254407 L627.307989,71.7088172 C627.308189,71.1565325 627.756067,70.7089799 628.308352,70.7091806 L628.308352,70.7091806 L632.827,70.71 L632.829455,65.710823 C632.829641,65.1979872 633.215835,64.7754562 633.713194,64.7178718 Z M452.476012,64.6452919 C452.937234,64.6454595 453.310992,65.0194892 453.310824,65.4807107 L453.310824,65.4807107 L453.308,70.645 L457.308363,70.6470481 C457.821199,70.6472345 458.24373,71.0334282 458.301315,71.5307879 L458.308,71.6474114 C458.307799,72.1996961 457.859921,72.6472487 457.307637,72.647048 L457.307637,72.647048 L453.308,72.645 L453.306344,77.8102962 C453.306313,77.8967279 453.292866,77.9823634 453.266713,78.0642026 L453.218043,78.1837391 C453.011629,78.5961931 452.509937,78.7632213 452.097483,78.5568069 L452.097483,78.5568069 L439.770137,72.3875342 C439.608549,72.3066666 439.477548,72.1755706 439.396798,72.0139236 C439.190683,71.6013196 439.358076,71.0997491 439.77068,70.8936345 L439.77068,70.8936345 L452.102505,64.7333217 C452.218487,64.6753837 452.346365,64.6452448 452.476012,64.6452919 Z M617.308353,70.7051838 L622.308352,70.7070005 C622.860637,70.7072012 623.30819,71.1550791 623.307989,71.7073638 C623.307788,72.2596485 622.85991,72.707201 622.307626,72.7070004 L622.307626,72.7070004 L617.307626,72.7051836 C616.755341,72.704983 616.307789,72.2571051 616.307989,71.7048204 C616.30819,71.1525356 616.756068,70.7049831 617.308353,70.7051838 L617.308353,70.7051838 Z M606.308354,70.7011869 L611.308353,70.7030037 C611.860638,70.7032044 612.30819,71.1510823 612.30799,71.703367 C612.307789,72.2556517 611.859911,72.7032042 611.307626,72.7030036 L611.307626,72.7030036 L606.307627,72.7011868 C605.755342,72.7009861 605.30779,72.2531082 605.30799,71.7008235 C605.308191,71.1485388 605.756069,70.7009863 606.308354,70.7011869 L606.308354,70.7011869 Z M595.308354,70.6971901 L600.308354,70.6990069 C600.860639,70.6992075 601.308191,71.1470854 601.30799,71.6993701 C601.30779,72.2516549 600.859912,72.6992074 600.307627,72.6990067 L600.307627,72.6990067 L595.307628,72.69719 C594.755343,72.6969893 594.30779,72.2491114 594.307991,71.6968267 C594.308192,71.144542 594.75607,70.6969895 595.308354,70.6971901 L595.308354,70.6971901 Z M584.308355,70.6931933 L589.308355,70.69501 C589.860639,70.6952107 590.308192,71.1430886 590.307991,71.6953733 C590.307791,72.247658 589.859913,72.6952106 589.307628,72.6950099 L589.307628,72.6950099 L584.307628,72.6931932 C583.755344,72.6929925 583.307791,72.2451146 583.307992,71.6928299 C583.308192,71.1405452 583.75607,70.6929926 584.308355,70.6931933 L584.308355,70.6931933 Z M573.308356,70.6891965 L578.308355,70.6910132 C578.86064,70.6912139 579.308193,71.1390918 579.307992,71.6913765 C579.307791,72.2436612 578.859913,72.6912138 578.307629,72.6910131 L578.307629,72.6910131 L573.307629,72.6891963 C572.755344,72.6889957 572.307792,72.2411178 572.307992,71.6888331 C572.308193,71.1365483 572.756071,70.6889958 573.308356,70.6891965 L573.308356,70.6891965 Z M562.308356,70.6851996 L567.308356,70.6870164 C567.860641,70.6872171 568.308193,71.135095 568.307993,71.6873797 C568.307792,72.2396644 567.859914,72.6872169 567.307629,72.6870163 L567.307629,72.6870163 L562.30763,72.6851995 C561.755345,72.6849988 561.307792,72.2371209 561.307993,71.6848362 C561.308194,71.1325515 561.756072,70.684999 562.308356,70.6851996 L562.308356,70.6851996 Z M551.308357,70.6812028 L556.308357,70.6830196 C556.860642,70.6832202 557.308194,71.1310981 557.307993,71.6833828 C557.307793,72.2356676 556.859915,72.6832201 556.30763,72.6830194 L556.30763,72.6830194 L551.30763,72.6812027 C550.755346,72.681002 550.307793,72.2331241 550.307994,71.6808394 C550.308195,71.1285547 550.756072,70.6810022 551.308357,70.6812028 L551.308357,70.6812028 Z M540.308358,70.677206 L545.308358,70.6790227 C545.860642,70.6792234 546.308195,71.1271013 546.307994,71.679386 C546.307793,72.2316707 545.859916,72.6792233 545.307631,72.6790226 L545.307631,72.6790226 L540.307631,72.6772059 C539.755346,72.6770052 539.307794,72.2291273 539.307995,71.6768426 C539.308195,71.1245579 539.756073,70.6770053 540.308358,70.677206 L540.308358,70.677206 Z M529.308359,70.6732092 L534.308358,70.6750259 C534.860643,70.6752266 535.308196,71.1231045 535.307995,71.6753892 C535.307794,72.2276739 534.859916,72.6752265 534.307632,72.6750258 L534.307632,72.6750258 L529.307632,72.673209 C528.755347,72.6730084 528.307795,72.2251305 528.307995,71.6728458 C528.308196,71.120561 528.756074,70.6730085 529.308359,70.6732092 L529.308359,70.6732092 Z M518.308359,70.6692124 L523.308359,70.6710291 C523.860644,70.6712298 524.308196,71.1191077 524.307996,71.6713924 C524.307795,72.2236771 523.859917,72.6712296 523.307632,72.671029 L523.307632,72.671029 L518.307633,72.6692122 C517.755348,72.6690115 517.307795,72.2211337 517.307996,71.6688489 C517.308197,71.1165642 517.756075,70.6690117 518.308359,70.6692124 L518.308359,70.6692124 Z M507.30836,70.6652155 L512.30836,70.6670323 C512.860644,70.6672329 513.308197,71.1151108 513.307996,71.6673955 C513.307796,72.2196803 512.859918,72.6672328 512.307633,72.6670321 L512.307633,72.6670321 L507.307633,72.6652154 C506.755349,72.6650147 506.307796,72.2171368 506.307997,71.6648521 C506.308197,71.1125674 506.756075,70.6650149 507.30836,70.6652155 L507.30836,70.6652155 Z M496.308361,70.6612187 L501.30836,70.6630354 C501.860645,70.6632361 502.308198,71.111114 502.307997,71.6633987 C502.307796,72.2156834 501.859918,72.663236 501.307634,72.6630353 L501.307634,72.6630353 L496.307634,72.6612186 C495.755349,72.6610179 495.307797,72.21314 495.307997,71.6608553 C495.308198,71.1085706 495.756076,70.661018 496.308361,70.6612187 L496.308361,70.6612187 Z M485.308361,70.6572219 L490.308361,70.6590386 C490.860646,70.6592393 491.308198,71.1071172 491.307998,71.6594019 C491.307797,72.2116866 490.859919,72.6592392 490.307634,72.6590385 L490.307634,72.6590385 L485.307635,72.6572217 C484.75535,72.6570211 484.307798,72.2091432 484.307998,71.6568585 C484.308199,71.1045738 484.756077,70.6570212 485.308361,70.6572219 L485.308361,70.6572219 Z M474.308362,70.6532251 L479.308362,70.6550418 C479.860647,70.6552425 480.308199,71.1031204 480.307998,71.6554051 C480.307798,72.2076898 479.85992,72.6552423 479.307635,72.6550417 L479.307635,72.6550417 L474.307636,72.6532249 C473.755351,72.6530242 473.307798,72.2051464 473.307999,71.6528616 C473.3082,71.1005769 473.756078,70.6530244 474.308362,70.6532251 L474.308362,70.6532251 Z M463.308363,70.6492282 L468.308363,70.651045 C468.860647,70.6512456 469.3082,71.0991235 469.307999,71.6514082 C469.307799,72.203693 468.859921,72.6512455 468.307636,72.6510448 L468.307636,72.6510448 L463.307636,72.6492281 C462.755352,72.6490274 462.307799,72.2011495 462.308,71.6488648 C462.3082,71.0965801 462.756078,70.6490276 463.308363,70.6492282 L463.308363,70.6492282 Z" fill="#D22A80" fill-rule="nonzero"></path>
                </g>
                <g id="Group-2" transform="translate(459.000000, 0.000000)">
                    <circle id="Oval" stroke="#D22A80" stroke-width="2" fill="#FFFFFF" cx="12" cy="13" r="12"></circle>
                    <text id="2" font-family="NeueHaasUnicaW1G-Medium, Neue Haas Unica W1G" font-size="16" font-weight="400" letter-spacing="0.2526315" fill="#000000">
                        <tspan x="7.72568425" y="19">2</tspan>
                    </text>
                </g>
                <g id="Group-2" transform="translate(180.000000, 0.000000)">
                    <circle id="Oval" stroke="#D22A80" stroke-width="2" fill="#FFFFFF" cx="12" cy="13" r="12"></circle>
                    <text id="1" font-family="NeueHaasUnicaW1G-Medium, Neue Haas Unica W1G" font-size="16" font-weight="400" letter-spacing="0.2526315" fill="#000000">
                        <tspan x="7.72568425" y="19">1</tspan>
                    </text>
                </g>
                <g id="Group-2" transform="translate(180.000000, 80.000000)">
                    <circle id="Oval" stroke="#D22A80" stroke-width="2" fill="#FFFFFF" cx="12" cy="13" r="12"></circle>
                    <text id="3" font-family="NeueHaasUnicaW1G-Medium, Neue Haas Unica W1G" font-size="16" font-weight="400" letter-spacing="0.2526315" fill="#000000">
                        <tspan x="7.72568425" y="19">3</tspan>
                    </text>
                </g>
                <rect id="Rectangle" stroke="#F09A64" stroke-width="3" x="384" y="22" width="30" height="63" rx="4"></rect>
                <rect id="Rectangle" stroke="#F09A64" stroke-width="3" opacity="0.3" x="649" y="20" width="30" height="63" rx="4"></rect>
                <rect id="Rectangle" stroke="#F09A64" stroke-width="3" opacity="0.3" x="117" y="20" width="30" height="63" rx="4"></rect>
            </g>
        </g>
    </g>
</svg>