<?xml version="1.0" encoding="UTF-8"?>
<svg width="309px" height="71px" viewBox="0 0 309 71" version="1.1" xmlns="http://www.w3.org/2000/svg" xmlns:xlink="http://www.w3.org/1999/xlink">
    <!-- Generator: Sketch 59 (86127) - https://sketch.com -->
    <title>formidable-intro</title>
    <desc>Created with Sketch.</desc>
    <g id="Page-1" stroke="none" stroke-width="1" fill="none" fill-rule="evenodd">
        <g id="graphql-requests" transform="translate(-167.000000, -70.000000)">
            <g id="formidable-intro" transform="translate(167.000000, 70.000000)">
                <g id="Formidable-Icon-White" fill="#000000">
                    <path d="M45.9564684,46.3404054 L40.4564684,36.500128 L45.9564684,27 L51.4564684,36.8405334 L45.9564684,46.3404054 Z M31.3366955,47.466468 L21.5871133,38 L38.4484909,38 L44.0562185,47.466468 L31.3366955,47.466468 Z M20.0352379,68.7080683 L10.0284947,63.0232669 L19.5284947,57.5231375 L29.5352379,63.2081978 L20.0352379,68.7080683 Z M7.79857371,3.50360335 L13.1917953,13.2831971 L7.90522267,22.5663943 L2.40535209,13.0666502 L7.79857371,3.50360335 Z M46.1364092,22.3768495 L40.6412106,12.8771054 L46.1412106,3.3768495 L51.6364092,12.8771054 L46.1364092,22.3768495 Z M15.3410399,14 L38.583974,14 L44.0412336,23.5768848 L10.0412336,23.5768848 L15.3410399,14 Z M38.5840145,12 L15.4159855,12 L10.0446548,2.37730547 L43.9931954,2.37730547 L38.5840145,12 Z M30.5644277,61.5879464 L20.5644277,56.0451008 L20.5644277,40.4993064 L30.5644277,50.1871098 L30.5644277,61.5879464 Z M38.5580337,35.5020195 L19.7143588,35.5020195 C19.4358279,35.4882151 19.1534605,35.5743647 18.9263389,35.7627691 C18.9178986,35.7699269 18.9104814,35.777596 18.9022968,35.7847538 C18.8836258,35.8011146 18.864699,35.8167084 18.847051,35.834603 C18.8467952,35.8348586 18.8462837,35.8356255 18.8457722,35.8361368 C18.6375774,36.0434583 18.5086705,36.3300271 18.5086705,36.6472724 L18.5086705,55.5597934 L9,61 L9,26 L44,26 L38.5580337,35.5020195 Z M53.848433,13.5559867 C54.0505223,13.2022207 54.0505223,12.7679017 53.848433,12.4141356 L47.0836893,0.578236897 C47.0806157,0.57233652 47.0762614,0.567462296 47.0729317,0.56156192 C47.0537216,0.529751194 47.0334871,0.498966621 47.0114596,0.469208201 C47.0040317,0.458946676 46.9966039,0.448685152 46.9886637,0.438680166 C46.9617697,0.404560597 46.933595,0.371467181 46.902859,0.340682608 C46.8677687,0.304767273 46.8337029,0.276035005 46.7988687,0.248072351 C46.7888795,0.240376208 46.7786342,0.232936603 46.768645,0.225496997 C46.7404703,0.204717411 46.7112711,0.185220514 46.6810473,0.166749771 C46.6720826,0.16136247 46.663118,0.155462094 46.6538971,0.150074794 C46.575008,0.105437163 46.4904839,0.0697783655 46.4013494,0.0446376309 C46.3903357,0.0415591736 46.3795781,0.0389937925 46.3685643,0.0361718733 C46.3342424,0.0274495776 46.2994083,0.0202665106 46.2638057,0.0148792103 C46.2515113,0.0130834435 46.2397292,0.0107746006 46.2274348,0.00949191002 C46.1815868,0.00384807163 46.1352267,0 46.0880981,0 L7.91164578,0 C7.8645172,0 7.81815702,0.00384807163 7.77230912,0.00949191002 C7.76027084,0.0107746006 7.74823256,0.0130834435 7.73619428,0.0148792103 C7.70059172,0.0202665106 7.66575755,0.0274495776 7.63117952,0.0361718733 C7.62016578,0.0389937925 7.60940817,0.0415591736 7.59865056,0.0446376309 C7.50951607,0.0697783655 7.42473586,0.105437163 7.34584672,0.150331332 C7.33688205,0.155462094 7.32817351,0.161105932 7.31920883,0.166749771 C7.28872894,0.185220514 7.25952971,0.204717411 7.23109888,0.225753536 C7.22110967,0.233193141 7.21112047,0.24011967 7.20138739,0.248072351 C7.16604096,0.275778467 7.13197519,0.305023811 7.10047076,0.336834537 C7.06691727,0.370697567 7.03823031,0.404304059 7.01108015,0.438936704 C7.00339614,0.448685152 6.99596827,0.458946676 6.98854039,0.469208201 C6.96651291,0.498966621 6.94602222,0.529751194 6.92706834,0.56156192 C6.9237386,0.567462296 6.91938433,0.572593058 6.91605459,0.578236897 L0.151567039,12.4141356 C-0.0505223465,12.7679017 -0.0505223465,13.2022207 0.151567039,13.5559867 L6.76442352,25.1263685 L6.76442352,63.0755378 C6.76442352,63.1229974 6.76826553,63.1691742 6.77364433,63.2150946 C6.77518113,63.2274084 6.7772302,63.2394657 6.77927927,63.251523 C6.78465807,63.2869252 6.79182981,63.3220709 6.80053835,63.3567036 C6.80309969,63.3674782 6.80566103,63.3785093 6.80873463,63.3892839 C6.83409185,63.4783027 6.86969442,63.5632168 6.91426166,63.6422305 C6.91964046,63.6514659 6.9252754,63.6599316 6.93065421,63.6689105 C6.94909582,63.699695 6.96881811,63.7289404 6.98982106,63.7574161 C6.99724894,63.7671646 7.00442068,63.7771696 7.01184855,63.786918 C7.03976711,63.8223203 7.06896634,63.8564398 7.10047076,63.8882506 C7.13453653,63.9216005 7.16809003,63.9503328 7.20266806,63.9777824 C7.21240113,63.9854785 7.22264648,63.9926616 7.23263569,64.0001012 C7.26234718,64.0221634 7.29308321,64.0426865 7.3250999,64.0619269 C7.33073484,64.0650053 7.33585751,64.069623 7.34174859,64.072958 L19.1587269,70.8481294 C19.3354591,70.9489489 19.5321697,71 19.7288802,71 C19.9255908,71 20.1223014,70.9489489 20.2987774,70.8481294 L32.1160119,64.072958 C32.1216468,64.069623 32.1270256,64.0650053 32.1326606,64.0619269 C32.1644211,64.0426865 32.1951572,64.0221634 32.2248687,64.0003577 C32.235114,63.9929181 32.2453594,63.9854785 32.2553486,63.9775258 C32.2896705,63.9505893 32.3227117,63.9223701 32.3534477,63.8915856 C32.3547284,63.8903029 32.3560091,63.8892767 32.3572897,63.8877375 C32.3887942,63.8561833 32.4179934,63.8223203 32.4456558,63.7871745 C32.4533398,63.7771696 32.4607677,63.7671646 32.4681956,63.756903 C32.4889424,63.7289404 32.5084085,63.699695 32.526594,63.6694235 C32.532229,63.6601882 32.53812,63.6514659 32.5434988,63.641974 C32.5883222,63.5629602 32.6236686,63.4783027 32.6490259,63.3892839 C32.6520995,63.3785093 32.6546608,63.3674782 32.6572221,63.3564471 C32.6659307,63.3220709 32.6731024,63.2869252 32.6784812,63.251523 C32.6802742,63.2394657 32.6825794,63.2274084 32.6841162,63.2150946 C32.689495,63.1691742 32.693337,63.1229974 32.693337,63.0755378 L32.693337,49.6414067 L46.0880981,49.6414067 C46.1352267,49.6414067 46.1815868,49.6375586 46.2274348,49.6321713 C46.2397292,49.6306321 46.2515113,49.6283233 46.2638057,49.6265275 C46.2994083,49.6211402 46.3342424,49.6139571 46.3685643,49.6052348 C46.3795781,49.6024129 46.3903357,49.6001041 46.4013494,49.5967691 C46.4904839,49.5713718 46.575008,49.5362261 46.6538971,49.4910754 C46.663118,49.4856881 46.6720826,49.4800442 46.6810473,49.4744004 C46.7112711,49.4561862 46.7404703,49.4366893 46.768645,49.4159097 C46.7786342,49.4084701 46.7888795,49.4010305 46.7988687,49.3930778 C46.8337029,49.3656282 46.8677687,49.3363829 46.8992731,49.3048287 C46.933595,49.2699395 46.9617697,49.2368461 46.9886637,49.2027265 C46.9966039,49.1927215 47.0040317,49.18246 47.0114596,49.1721985 C47.0334871,49.1421835 47.0537216,49.111399 47.0729317,49.0795882 C47.0762614,49.0739444 47.0806157,49.0688136 47.0836893,49.0631698 L53.848433,37.2272711 C54.0505223,36.873505 54.0505223,36.4389295 53.848433,36.08542 L47.4102596,24.8205751 L53.848433,13.5559867 Z" id="Fill-4"></path>
                </g>
                <path d="M92.992,30 L87.69,14.468 L84.39,14.468 L79.132,30 L82.256,30 L83.158,26.964 L88.988,26.964 L89.89,30 L92.992,30 Z M88.218,24.412 L83.928,24.412 L86.084,17.262 L88.218,24.412 Z M115.891334,19 L113.141334,19 L111.183334,26.524 L109.159334,19 L106.805334,19 L104.759334,26.524 L102.845334,19 L100.095334,19 L103.285334,30 L105.903334,30 L107.993334,22.982 L109.973334,30 L112.591334,30 L115.891334,19 Z M128.386001,24.456 C128.364001,20.276 125.108001,18.67 122.710001,18.67 C118.816001,18.67 117.078001,21.816 117.078001,24.456 C117.078001,27.14 118.794001,30.33 122.798001,30.33 C126.538001,30.33 128.386001,27.404 128.386001,24.456 Z M119.828001,24.39 C119.828001,22.168 121.126001,21.046 122.666001,21.046 C124.690001,21.046 125.636001,22.828 125.636001,24.588 C125.636001,26.26 124.734001,27.91 122.798001,27.91 C120.906001,27.91 119.828001,26.326 119.828001,24.39 Z M130.628668,19 L130.628668,30 L133.180668,30 L133.180668,25.292 C133.180668,24.654 133.180668,24.104 133.378668,23.488 C134.016668,21.464 136.128668,21.464 136.678668,21.464 L136.678668,18.758 L136.31334,18.7599026 C135.642585,18.7780473 133.95236,18.9576923 133.180668,20.562 L133.180668,19 L130.628668,19 Z M149.195335,30 L144.575335,23.202 L148.777335,19 L145.411335,19 L141.121335,23.202 L141.121335,14.468 L138.503335,14.468 L138.503335,30 L141.121335,30 L141.121335,26.59 L142.661335,25.072 L145.983335,30 L149.195335,30 Z M159.534002,20.716 C157.884002,18.802 155.662002,18.67 154.804002,18.67 C152.164002,18.67 150.074002,20.078 150.074002,22.256 C150.074002,24.6946667 152.694911,25.3278182 153.723861,25.5232691 L155.266002,25.798 C156.278002,25.974 156.894002,26.216 156.894002,26.854 C156.894002,27.338 156.322002,28.152 154.738002,28.152 C153.088002,28.152 152.098002,27.448 151.570002,26.744 L149.590002,28.35 L149.737636,28.4967442 C150.445757,29.1728673 152.050859,30.33 154.870002,30.33 C157.906002,30.33 159.820002,28.592 159.820002,26.568 C159.820002,24.786 158.544002,23.796 156.872002,23.488 L155.090002,23.158 C153.506002,22.872 152.846002,22.652 152.846002,21.926 C152.846002,20.936 154.166002,20.782 154.672002,20.782 C155.948002,20.782 157.070002,21.288 157.664002,22.454 L159.534002,20.716 Z M172.094669,30 L172.094669,22.564 C172.094669,20.034 170.554669,18.67 168.156669,18.67 C166.528669,18.67 165.340669,19.44 164.680669,20.122 L164.680669,14.468 L162.040669,14.468 L162.040669,30 L164.680669,30 L164.680669,23.906 C164.680669,22.256 166.000669,21.178 167.430669,21.178 C168.706669,21.178 169.498669,21.948 169.498669,23.554 L169.498669,30 L172.094669,30 Z M185.645336,24.456 C185.623336,20.276 182.367336,18.67 179.969336,18.67 C176.075336,18.67 174.337336,21.816 174.337336,24.456 C174.337336,27.14 176.053336,30.33 180.057336,30.33 C183.797336,30.33 185.645336,27.404 185.645336,24.456 Z M177.087336,24.39 C177.087336,22.168 178.385336,21.046 179.925336,21.046 C181.949336,21.046 182.895336,22.828 182.895336,24.588 C182.895336,26.26 181.993336,27.91 180.057336,27.91 C178.165336,27.91 177.087336,26.326 177.087336,24.39 Z M187.888003,19 L187.888003,33.586 L190.528003,33.586 L190.528003,29.098 C191.716003,30.198 192.860003,30.33 193.520003,30.33 L193.729068,30.3258343 C194.627293,30.2899053 196.237849,29.9915385 197.436003,28.306 C198.492003,26.832 198.536003,25.182 198.536003,24.588 C198.536003,22.388 197.634003,20.958 197.062003,20.276 C195.808003,18.802 194.246003,18.67 193.542003,18.67 C191.870003,18.67 190.968003,19.528 190.528003,19.99 L190.528003,19 L187.888003,19 Z M195.830003,24.456 C195.830003,27.206 194.224003,27.822 193.190003,27.822 C191.408003,27.822 190.484003,26.304 190.484003,24.434 C190.484003,22.916 191.254003,21.2 193.124003,21.2 C194.400003,21.2 195.830003,22.168 195.830003,24.456 Z M207.223337,14.468 L207.223337,30 L209.841337,30 L209.841337,28.856 C211.007337,30.198 212.217337,30.33 212.855337,30.33 C215.187337,30.33 217.849337,28.35 217.849337,24.434 C217.849337,21.002 215.674307,18.7829975 213.20021,18.6741924 L213.009337,18.67 C212.503337,18.67 210.985337,18.802 209.863337,19.924 L209.863337,14.468 L207.223337,14.468 Z M209.819337,24.236 C209.819337,22.454 210.809337,21.068 212.393337,21.068 C214.285337,21.068 215.143337,22.762 215.143337,24.236 C215.143337,26.59 213.933337,27.822 212.503337,27.822 C210.919337,27.822 209.819337,26.612 209.819337,24.236 Z M226.362004,19 L224.294004,27.206 L221.830004,19 L218.992004,19 L222.974004,30.22 L222.926735,30.3663988 C222.797504,30.7296364 222.446004,31.386 221.192004,31.386 C220.972004,31.386 220.730004,31.386 220.466004,31.342 L220.466004,33.63 L220.796401,33.6961983 C221.091277,33.7490909 221.420004,33.784 222.028004,33.784 C222.886004,33.784 223.590004,33.674 224.272004,33.124 C225.196004,32.376 225.746004,30.418 226.142004,29.032 L229.068004,19 L226.362004,19 Z M243.409338,19 L241.341338,27.206 L238.877338,19 L236.039338,19 L240.021338,30.22 L239.974069,30.3663988 C239.844838,30.7296364 239.493338,31.386 238.239338,31.386 C238.019338,31.386 237.777338,31.386 237.513338,31.342 L237.513338,33.63 L237.843735,33.6961983 C238.138611,33.7490909 238.467338,33.784 239.075338,33.784 C239.933338,33.784 240.637338,33.674 241.319338,33.124 C242.243338,32.376 242.793338,30.418 243.189338,29.032 L246.115338,19 L243.409338,19 Z M258.478005,24.456 C258.456005,20.276 255.200005,18.67 252.802005,18.67 C248.908005,18.67 247.170005,21.816 247.170005,24.456 C247.170005,27.14 248.886005,30.33 252.890005,30.33 C256.630005,30.33 258.478005,27.404 258.478005,24.456 Z M249.920005,24.39 C249.920005,22.168 251.218005,21.046 252.758005,21.046 C254.782005,21.046 255.728005,22.828 255.728005,24.588 C255.728005,26.26 254.826005,27.91 252.890005,27.91 C250.998005,27.91 249.920005,26.326 249.920005,24.39 Z M270.686672,30 L270.686672,19 L268.046672,19 L268.046672,23.906 C268.046672,24.742 268.024672,25.776 267.628672,26.546 C267.430672,26.942 266.770672,27.778 265.494672,27.778 C263.670243,27.778 263.359606,26.4892321 263.339744,25.4503274 L263.338672,19 L260.676672,19 L260.676672,25.908 C260.676672,26.92 260.720672,27.932 261.314672,28.812 C261.754672,29.472 262.656672,30.264 264.482672,30.264 C266.396672,30.264 267.496672,29.384 268.046672,28.878 L268.046672,30 L270.686672,30 Z M273.633339,19 L273.633339,30 L276.185339,30 L276.185339,25.292 C276.185339,24.654 276.185339,24.104 276.383339,23.488 C277.021339,21.464 279.133339,21.464 279.683339,21.464 L279.683339,18.758 L279.318011,18.7599026 C278.647256,18.7780473 276.957031,18.9576923 276.185339,20.562 L276.185339,19 L273.633339,19 Z M85.776,43.87 L85.776,42 L83.378,42 L83.3797442,41.0788646 C83.3955694,40.4364722 83.5485,39.734 84.94,39.734 C85.27,39.734 85.71,39.778 85.776,39.8 L85.776,37.556 C85.27,37.49 84.786,37.446 84.28,37.446 C81.3973529,37.446 80.7737215,38.5029706 80.7395309,40.3151814 L80.738,42 L79.088,42 L79.088,43.87 L80.738,43.87 L80.738,53 L83.378,53 L83.378,43.87 L85.776,43.87 Z M87.380667,42 L87.380667,53 L89.932667,53 L89.932667,48.292 C89.932667,47.654 89.932667,47.104 90.130667,46.488 C90.768667,44.464 92.880667,44.464 93.430667,44.464 L93.430667,41.758 L93.0653388,41.7599026 C92.3945842,41.7780473 90.7043593,41.9576923 89.932667,43.562 L89.932667,42 L87.380667,42 Z M97.895334,40.284 L97.895334,37.622 L95.277334,37.622 L95.277334,40.284 L97.895334,40.284 Z M97.895334,53 L97.895334,42 L95.277334,42 L95.277334,53 L97.895334,53 Z M111.116001,48.028 C111.116001,45.036 109.906001,41.67 105.704001,41.67 C102.844001,41.67 100.182001,43.496 100.182001,47.434 C100.182001,51.086 102.558001,53.33 105.836001,53.33 C108.718001,53.33 110.324001,51.724 111.204001,50.536 L108.960001,49.238 L108.889302,49.3517737 C108.594111,49.8023062 107.785392,50.756 106.078001,50.756 C103.526001,50.756 103.020001,48.578 102.976001,48.028 L111.116001,48.028 Z M108.212001,46.092 L103.064001,46.092 L103.103489,45.9131919 C103.257318,45.2851153 103.795311,43.782 105.748001,43.782 C107.816001,43.782 108.168001,45.542 108.212001,46.092 Z M113.270668,42 L113.270668,53 L115.932668,53 L115.932668,48.226 C115.932668,46.334 116.174668,45.41 116.966668,44.75 C117.516668,44.288 118.066668,44.244 118.352668,44.244 C119.920372,44.244 120.264042,45.508834 120.287349,46.6829989 L120.288668,53 L122.884668,53 L122.884668,45.344 C122.884668,43.2575484 121.73087,41.7685994 119.542907,41.6747093 L119.320668,41.67 C118.880668,41.67 116.922668,41.802 115.932668,43.298 L115.932668,42 L113.270668,42 Z M135.687335,53 L135.687335,37.468 L133.069335,37.468 L133.069335,42.902 C132.343335,42 131.023335,41.67 130.121335,41.67 C127.525335,41.67 125.127335,43.782 125.127335,47.72 C125.127335,51.724 127.701335,53.33 130.011335,53.33 C131.969335,53.33 132.849335,52.208 133.069335,51.944 L133.069335,53 L135.687335,53 Z M127.877335,47.434 C127.877335,45.586 128.867335,44.112 130.517335,44.112 C132.563335,44.112 133.047335,46.026 133.047335,47.698 C133.047335,49.744 131.925335,50.932 130.495335,50.932 C128.559335,50.932 127.877335,49.062 127.877335,47.434 Z M147.676002,43.716 C146.026002,41.802 143.804002,41.67 142.946002,41.67 C140.306002,41.67 138.216002,43.078 138.216002,45.256 C138.216002,47.6946667 140.836911,48.3278182 141.865861,48.5232691 L143.408002,48.798 C144.420002,48.974 145.036002,49.216 145.036002,49.854 C145.036002,50.338 144.464002,51.152 142.880002,51.152 C141.230002,51.152 140.240002,50.448 139.712002,49.744 L137.732002,51.35 L137.879636,51.4967442 C138.587757,52.1728673 140.192859,53.33 143.012002,53.33 C146.048002,53.33 147.962002,51.592 147.962002,49.568 C147.962002,47.786 146.686002,46.796 145.014002,46.488 L143.232002,46.158 C141.648002,45.872 140.988002,45.652 140.988002,44.926 C140.988002,43.936 142.308002,43.782 142.814002,43.782 C144.090002,43.782 145.212002,44.288 145.806002,45.454 L147.676002,43.716 Z M166.219336,53 C165.816003,52.3546667 165.745419,52.0975417 165.736456,51.4152361 L165.735336,44.794 C165.735336,42.858 164.349336,41.67 161.115336,41.67 C156.495336,41.67 156.341336,44.486 156.297336,45.212 L158.981336,45.366 L158.985273,45.2362609 C159.021856,44.6455 159.344336,43.716 161.203336,43.716 C162.853336,43.716 163.095336,44.53 163.095336,45.366 L162.795458,45.4640255 C162.210929,45.6460812 161.428427,45.8415455 160.335161,46.0590945 L159.707336,46.18 C157.617336,46.554 155.791336,47.5 155.791336,49.898 C155.791336,51.746 157.287336,53.264 159.795336,53.264 C161.137336,53.264 162.303336,52.714 163.029336,52.142 L163.095336,53 L166.219336,53 Z M163.095336,48.996 C163.095336,50.382 161.599336,50.998 160.389336,50.998 C159.069336,50.998 158.585336,50.382 158.585336,49.656 C158.585336,48.556 159.795336,48.314 161.005336,48.138 C162.017336,47.984 162.655336,47.742 163.095336,47.522 L163.095336,48.996 Z M167.318003,43.87 L167.318003,42 L168.924003,42 L168.924003,38.084 L171.564003,38.084 L171.564003,42 L173.918003,42 L173.918003,43.87 L171.564003,43.87 L171.564003,49.326 C171.564003,49.744 171.586003,50.228 171.828003,50.492 C172.136003,50.822 172.708003,50.822 172.818003,50.822 C173.192003,50.822 173.588003,50.778 173.918003,50.69 L173.918003,52.912 L173.359731,52.99296 C173.013363,53.04048 172.567203,53.088 172.026003,53.088 C169.672003,53.088 168.924003,52.23 168.924003,50.426 L168.924003,43.87 L167.318003,43.87 Z" id="Aworkshopbyyourfriendsat" fill="#000000" fill-rule="nonzero"></path>
                <g id="Formidable." transform="translate(184.000000, 36.000000)" fill-rule="nonzero">
                    <path d="M-5.68434189e-14,16.8 C-5.68434189e-14,17.136 0.144,17.28 0.48,17.28 L2.16,17.28 C2.496,17.28 2.64,17.136 2.64,16.8 L2.64,9.912 L9.312,9.912 C9.648,9.912 9.792,9.768 9.792,9.432 L9.792,8.04 C9.792,7.704 9.648,7.56 9.312,7.56 L2.64,7.56 L2.64,2.832 L11.04,2.832 C11.28,2.832 11.376,2.736 11.376,2.496 L11.376,0.96 C11.376,0.624 11.232,0.48 10.896,0.48 L0.48,0.48 C0.144,0.48 -5.68434189e-14,0.624 -5.68434189e-14,0.96 L-5.68434189e-14,16.8 Z M17.664,17.52 C20.856,17.52 23.544,15.528 23.544,11.64 C23.544,8.016 21.072,5.76 17.664,5.76 C14.256,5.76 11.784,8.016 11.784,11.64 C11.784,15.528 14.472,17.52 17.664,17.52 Z M17.664,15.408 C15.576,15.408 14.328,13.872 14.328,11.664 C14.328,9.24 15.816,7.872 17.664,7.872 C19.512,7.872 21,9.24 21,11.664 C21,13.872 19.752,15.408 17.664,15.408 Z M25.944,16.8 C25.944,17.136 26.088,17.28 26.424,17.28 L27.912,17.28 C28.248,17.28 28.392,17.136 28.392,16.8 L28.392,12.36 C28.392,10.92 28.704,10.008 29.232,9.264 C29.76,8.52 30.576,7.872 31.536,7.872 C32.568,7.872 33.072,8.376 33.168,9.192 C33.192,9.48 33.288,9.576 33.552,9.576 L35.064,9.576 C35.376,9.576 35.544,9.432 35.544,9.096 C35.544,7.08 34.2,5.76 32.04,5.76 C30.384,5.76 29.184,6.48 28.392,7.488 L28.392,6.48 C28.392,6.144 28.248,6 27.912,6 L26.424,6 C26.088,6 25.944,6.144 25.944,6.48 L25.944,16.8 Z M37.656,16.8 C37.656,17.136 37.8,17.28 38.136,17.28 L39.624,17.28 C39.96,17.28 40.104,17.136 40.104,16.8 L40.104,11.28 C40.104,10.032 40.368,9.552 40.872,8.904 C41.376,8.256 42.072,7.872 42.744,7.872 C43.728,7.872 44.16,8.4 44.16,9.408 L44.16,16.8 C44.16,17.136 44.304,17.28 44.64,17.28 L46.128,17.28 C46.464,17.28 46.608,17.136 46.608,16.8 L46.608,11.496 C46.608,10.296 46.872,9.624 47.472,8.904 C48.048,8.208 48.72,7.872 49.44,7.872 C50.424,7.872 50.856,8.424 50.856,9.432 L50.856,16.8 C50.856,17.136 51,17.28 51.336,17.28 L52.824,17.28 C53.16,17.28 53.304,17.136 53.304,16.8 L53.304,9.096 C53.304,6.84 51.912,5.76 49.92,5.76 C48.24,5.76 47.064,6.432 46.296,7.344 C45.864,6.336 44.88,5.76 43.44,5.76 C41.856,5.76 40.872,6.432 40.104,7.512 L40.104,6.48 C40.104,6.144 39.96,6 39.624,6 L38.136,6 C37.8,6 37.656,6.144 37.656,6.48 L37.656,16.8 Z M56.352,16.8 C56.352,17.136 56.496,17.28 56.832,17.28 L58.32,17.28 C58.656,17.28 58.8,17.136 58.8,16.8 L58.8,6.48 C58.8,6.144 58.656,6 58.32,6 L56.832,6 C56.496,6 56.352,6.144 56.352,6.48 L56.352,16.8 Z M55.944,2.544 C55.944,3.456 56.664,4.176 57.576,4.176 C58.488,4.176 59.208,3.456 59.208,2.544 C59.208,1.632 58.488,0.912 57.576,0.912 C56.664,0.912 55.944,1.632 55.944,2.544 Z M69.72,16.296 L69.912,16.8 C70.032,17.16 70.2,17.28 70.536,17.28 L71.712,17.28 C72.024,17.28 72.168,17.136 72.168,16.8 L72.168,0.48 C72.168,0.144 72.024,-7.10542736e-15 71.688,-7.10542736e-15 L70.2,-7.10542736e-15 C69.864,-7.10542736e-15 69.72,0.144 69.72,0.48 L69.72,6.96 C69.024,6.216 67.944,5.76 66.528,5.76 C63.552,5.76 61.032,7.944 61.032,11.64 C61.032,15.552 63.408,17.52 66.24,17.52 C67.968,17.52 68.784,17.088 69.72,16.296 Z M69.72,12.456 C69.72,13.248 69.6,13.752 69.144,14.328 C68.664,14.952 67.824,15.408 66.744,15.408 C64.8,15.408 63.576,13.824 63.576,11.664 C63.576,9.312 64.944,7.872 66.768,7.872 C67.752,7.872 68.544,8.328 69.072,8.928 C69.576,9.48 69.72,9.96 69.72,10.704 L69.72,12.456 Z M83.64,16.176 L83.832,16.8 C83.928,17.16 84.12,17.28 84.432,17.28 L85.608,17.28 C85.944,17.28 86.088,17.136 86.088,16.8 L86.088,6.48 C86.088,6.144 85.944,6 85.608,6 L84.12,6 C83.784,6 83.64,6.144 83.64,6.48 L83.64,7.08 C83.04,6.36 81.912,5.76 80.208,5.76 C77.04,5.76 74.448,7.944 74.448,11.64 C74.448,15.552 77.016,17.52 80.064,17.52 C81.792,17.52 82.704,17.064 83.64,16.176 Z M83.64,12.384 C83.64,13.152 83.496,13.632 83.088,14.184 C82.584,14.808 81.696,15.408 80.448,15.408 C78.432,15.408 76.992,13.968 76.992,11.664 C76.992,9.288 78.504,7.872 80.496,7.872 C81.624,7.872 82.44,8.352 82.944,8.856 C83.472,9.408 83.64,9.888 83.64,10.608 L83.64,12.384 Z M89.04,16.8 C89.04,17.136 89.184,17.28 89.52,17.28 L91.008,17.28 C91.344,17.28 91.488,17.136 91.488,16.8 L91.488,16.56 C92.4,17.16 93.456,17.52 94.848,17.52 C98.376,17.52 100.416,14.976 100.416,11.592 C100.416,7.944 98.712,5.76 95.472,5.76 C93.792,5.76 92.376,6.624 91.488,7.68 L91.488,0.48 C91.488,0.144 91.344,-7.10542736e-15 91.008,-7.10542736e-15 L89.52,-7.10542736e-15 C89.184,-7.10542736e-15 89.04,0.144 89.04,0.48 L89.04,16.8 Z M91.488,11.568 C91.488,10.704 91.68,10.272 91.968,9.768 C92.472,8.928 93.432,7.872 94.992,7.872 C96.624,7.872 97.872,9.12 97.872,11.616 C97.872,13.752 96.696,15.408 94.536,15.408 C93.696,15.408 92.832,15.144 92.112,14.616 C91.776,14.352 91.488,14.064 91.488,13.488 L91.488,11.568 Z M102.84,14.784 C102.84,16.752 104.256,17.52 105.576,17.52 C106.152,17.52 106.848,17.424 107.232,17.28 C107.376,17.232 107.472,17.136 107.472,16.92 L107.472,15.48 C107.472,15.288 107.376,15.168 107.232,15.168 C106.992,15.168 106.752,15.408 106.224,15.408 C105.672,15.408 105.288,15.072 105.288,14.208 L105.288,0.48 C105.288,0.144 105.144,-7.10542736e-15 104.808,-7.10542736e-15 L103.32,-7.10542736e-15 C102.984,-7.10542736e-15 102.84,0.144 102.84,0.48 L102.84,14.784 Z M118.488,13.92 C118.368,13.8 118.272,13.752 118.176,13.752 C118.0608,13.752 117.97632,13.79808 117.885696,13.89024 L117.816,13.968 C117.072,14.808 116.208,15.408 114.624,15.408 C112.704,15.408 111.408,14.256 111.096,12.432 L119.544,12.432 C119.88,12.432 120.024,12.288 120.024,11.952 L120.024,11.472 C120.024,8.736 118.248,5.76 114.408,5.76 C111.24,5.76 108.648,8.064 108.648,11.64 C108.648,15.432 111.504,17.52 114.504,17.52 C116.712,17.52 117.864,16.992 119.424,15.432 C119.52,15.336 119.568,15.24 119.568,15.144 C119.568,15.048 119.52,14.952 119.448,14.88 L118.488,13.92 Z M111.096,10.416 C111.48,8.808 112.92,7.872 114.456,7.872 C115.872,7.872 117.168,8.664 117.576,10.416 L111.096,10.416 Z" id="Formidable" fill="#FA5309"></path>
                    <path d="M121.2,15.888 C121.2,14.952 121.92,14.208 122.832,14.208 C123.768,14.208 124.512,14.952 124.512,15.888 C124.512,16.8 123.768,17.52 122.832,17.52 C121.92,17.52 121.2,16.8 121.2,15.888 Z" id="." fill="#000000"></path>
                </g>
            </g>
        </g>
    </g>
</svg>