<?xml version="1.0" encoding="UTF-8"?>
<svg width="815px" height="399px" viewBox="0 0 815 399" version="1.1" xmlns="http://www.w3.org/2000/svg" xmlns:xlink="http://www.w3.org/1999/xlink">
    <!-- Generator: Sketch 59 (86127) - https://sketch.com -->
    <title>graphql-field-simple</title>
    <desc>Created with Sketch.</desc>
    <defs>
        <linearGradient x1="100%" y1="48.8755673%" x2="0%" y2="48.8755673%" id="linearGradient-1">
            <stop stop-color="#FAF0FA" stop-opacity="0" offset="0%"></stop>
            <stop stop-color="#F9ECF9" stop-opacity="0.796028191" offset="14.794844%"></stop>
            <stop stop-color="#F4DEF4" stop-opacity="0.924314283" offset="75.4804604%"></stop>
            <stop stop-color="#F3DCF3" stop-opacity="0" offset="100%"></stop>
        </linearGradient>
    </defs>
    <g id="Page-1" stroke="none" stroke-width="1" fill="none" fill-rule="evenodd">
        <g id="Slide-3" transform="translate(-21.000000, -179.000000)">
            <path d="M188.15084,352.915136 C184.436288,352.915136 189.713797,352.915136 203.983367,352.915136 C328.033256,352.915136 330.40642,225.54211 400.859943,196.282376 C411.397974,191.905875 418.777993,191.905875 423,196.282376 L423,566.961533 C418.777993,571.012822 411.397974,571.012822 400.859943,566.961533 C330.121391,539.766472 328.033256,406.589601 203.983367,406.589601 C191.608034,406.589601 186.330525,406.589601 188.15084,406.589601 L188.15084,352.915136 Z" id="Rectangle" fill="url(#linearGradient-1)"></path>
            <text id="todos(first:-10)-{-." font-family="iAWriterQuattroS-Bold, iA Writer Quattro S" font-size="22" font-weight="bold" line-spacing="24" letter-spacing="0.3473684">
                <tspan x="34" y="389" fill="#F09A64">todos</tspan>
                <tspan x="98.436842" y="389" fill="#F0647D">(first: 10) {</tspan>
                <tspan x="251.452631" y="389" fill="#F09A64"> </tspan>
                <tspan x="261.7" y="389" fill="#F0647D">... }</tspan>
            </text>
            <text id="}" font-family="iAWriterQuattroS-Regular, iA Writer Quattro S" font-size="22" font-weight="normal" line-spacing="24" letter-spacing="0.3473684" fill="#ACACAC">
                <tspan x="401" y="560">}</tspan>
            </text>
            <text id="FieldNode-{" font-family="iAWriterQuattroS-Bold, iA Writer Quattro S" font-size="22" font-weight="bold" line-spacing="24" letter-spacing="0.3473684" fill="#ACACAC">
                <tspan x="401" y="224">FieldNode</tspan>
                <tspan x="510.782316" y="224.681793" font-family="iAWriterQuattroS-Regular, iA Writer Quattro S" font-weight="normal"> {</tspan>
            </text>
            <path id="Path-2" d="M441.984988,477.811318 C442.767351,474.480238 445.896719,472.141399 449.405717,472.446972 C453.257135,472.782365 456.107436,476.176445 455.772043,480.027863 C455.43665,483.87928 452.04257,486.729581 448.191153,486.394188 C444.673717,486.08788 441.991299,483.230361 441.808017,479.803229 L441.067142,479.729588 C440.517736,479.673271 440.118008,479.182235 440.174325,478.63283 C440.230642,478.083424 440.721677,477.683696 441.271083,477.740013 L441.271083,477.740013 Z M449.232208,474.439432 C446.569905,474.207591 444.213544,476.10686 443.847215,478.722962 C443.865393,478.812235 443.86979,478.905367 443.860592,479.000318 C443.852078,479.088197 443.832433,479.172312 443.803188,479.251404 C443.709034,481.891063 445.701871,484.169845 448.364662,484.401729 C451.115675,484.641295 453.540018,482.605366 453.779584,479.854353 C454.01915,477.103341 451.983221,474.678998 449.232208,474.439432 Z M430.266633,476.415814 L430.383069,476.42522 C432.027984,476.654056 433.675159,476.869435 435.324595,477.071357 C435.872787,477.138466 436.262782,477.637266 436.195673,478.185458 C436.128564,478.733651 435.629764,479.123646 435.081571,479.056537 C433.421273,478.853285 431.763245,478.636487 430.107488,478.406142 C429.560471,478.330043 429.178717,477.824907 429.254817,477.277891 C429.330916,476.730874 429.836052,476.34912 430.383069,476.42522 Z M418.413356,475.533028 C418.509159,474.989116 419.02775,474.625852 419.571662,474.721655 C421.20778,475.009836 422.846159,475.28454 424.486799,475.545768 C425.032213,475.632611 425.403959,476.145157 425.317116,476.690571 C425.230274,477.235985 424.717728,477.607731 424.172314,477.520888 C422.520843,477.257935 420.871648,476.981418 419.224729,476.691335 C418.680817,476.595532 418.317553,476.07694 418.413356,475.533028 Z M407.611572,473.391292 C407.726991,472.851203 408.258386,472.506939 408.798476,472.622359 C410.423533,472.96964 412.050845,473.303463 413.680413,473.623828 C414.222325,473.730365 414.575266,474.256036 414.468729,474.797948 C414.362192,475.33986 413.83652,475.692801 413.294608,475.586264 C411.654299,475.263787 410.016264,474.927764 408.380505,474.578196 C407.840416,474.462777 407.496152,473.931382 407.611572,473.391292 Z M396.893264,470.860895 C397.028058,470.325312 397.571505,470.000407 398.107088,470.135201 C399.718696,470.540804 401.332548,470.933007 402.948643,471.31181 C403.486354,471.437846 403.820083,471.97592 403.694046,472.513631 C403.56801,473.051342 403.029936,473.385071 402.492225,473.259035 C400.865535,472.877748 399.241113,472.482976 397.618958,472.074718 C397.083375,471.939925 396.758471,471.396478 396.893264,470.860895 Z M386.295752,467.954809 C386.449538,467.424368 387.004215,467.119029 387.534656,467.272815 C389.131462,467.735765 390.730494,468.185396 392.331755,468.621709 C392.864613,468.766903 393.178876,469.316572 393.033683,469.84943 C392.888489,470.382287 392.33882,470.696551 391.805962,470.551357 C390.194301,470.11221 388.584895,469.659662 386.977745,469.193714 C386.447304,469.039927 386.141965,468.485251 386.295752,467.954809 Z M375.785872,464.668424 C375.958265,464.143735 376.523362,463.858142 377.048052,464.030536 C378.627878,464.549608 380.209909,465.055481 381.794146,465.548157 C382.321517,465.712162 382.616084,466.272634 382.452079,466.800005 C382.288073,467.327377 381.727602,467.621943 381.20023,467.457938 C379.605837,466.962104 378.01368,466.452992 376.42376,465.930604 C375.899071,465.758211 375.613478,465.193114 375.785872,464.668424 Z M365.405666,461.01999 C365.596147,460.501593 366.170806,460.235765 366.689203,460.426247 C368.250533,460.999946 369.814041,461.560594 371.379728,462.108192 C371.901047,462.290523 372.175852,462.860944 371.993521,463.382263 C371.81119,463.903583 371.240769,464.178387 370.719449,463.996056 C369.143889,463.445006 367.570543,462.880829 365.99941,462.303528 C365.481013,462.113047 365.215185,461.538387 365.405666,461.01999 Z M355.153853,457.016649 C355.361858,456.505031 355.945227,456.258904 356.456844,456.466909 C357.999007,457.093895 359.543319,457.70799 361.089782,458.309194 C361.604536,458.509311 361.859601,459.088828 361.659484,459.603582 C361.459368,460.118336 360.879851,460.373401 360.365097,460.173284 C358.809075,459.568364 357.25524,458.950482 355.703593,458.31964 C355.191975,458.111635 354.945849,457.528266 355.153853,457.016649 Z M345.074313,452.577399 C345.308637,452.077289 345.904013,451.861825 346.404124,452.096149 C347.896325,452.79531 349.40683,453.479058 350.935641,454.147393 C351.441684,454.368614 351.672577,454.958179 351.451356,455.464222 C351.230134,455.970265 350.64057,456.201158 350.134527,455.979936 C348.589856,455.304669 347.063534,454.613761 345.555563,453.907211 C345.055452,453.672887 344.839989,453.07751 345.074313,452.577399 Z M335.273068,447.553195 C335.537337,447.06824 336.144701,446.889339 336.629656,447.153607 C338.076871,447.942243 339.543361,448.714645 341.029131,449.470813 C341.521337,449.721316 341.717276,450.3234 341.466773,450.815606 C341.21627,451.307812 340.614185,451.503751 340.121979,451.253248 C338.619518,450.488586 337.13641,449.707431 335.672656,448.909782 C335.187702,448.645514 335.0088,448.038149 335.273068,447.553195 Z M325.812675,441.918452 C326.108054,441.451794 326.725807,441.312945 327.192465,441.608325 C328.585516,442.490081 329.998756,443.354827 331.432189,444.202561 C331.907563,444.483698 332.065023,445.096971 331.783886,445.572345 C331.502749,446.047719 330.889476,446.205179 330.414102,445.924042 C328.963363,445.066073 327.532928,444.190807 326.122802,443.298242 C325.656144,443.002863 325.517296,442.38511 325.812675,441.918452 Z M316.785245,435.675995 C317.112273,435.230943 317.738167,435.135266 318.183219,435.462294 C319.512146,436.4388 320.862055,437.397612 322.23295,438.33873 C322.688269,438.651305 322.803985,439.273807 322.491409,439.729125 C322.178833,440.184444 321.556332,440.30016 321.101014,439.987584 C319.712511,439.034379 318.345154,438.063174 316.998947,437.073969 C316.553895,436.746942 316.458217,436.121047 316.785245,435.675995 Z M308.192048,428.772972 C308.550806,428.353077 309.182029,428.303516 309.601923,428.662274 C310.856665,429.734326 312.133037,430.788115 313.431044,431.823644 C313.862772,432.16807 313.933545,432.797267 313.589119,433.228996 C313.244693,433.660724 312.615496,433.731496 312.183767,433.38707 C310.868248,432.33757 309.574573,431.269495 308.302746,430.182846 C307.882852,429.824088 307.833291,429.192866 308.192048,428.772972 Z M300.162036,421.267054 C300.551572,420.875544 301.184735,420.873945 301.576245,421.263481 C302.747345,422.428679 303.940516,423.575216 305.155762,424.703094 C305.560566,425.078796 305.584159,425.711521 305.208457,426.116326 C304.832755,426.52113 304.20003,426.544722 303.795225,426.16902 C302.563017,425.025399 301.353143,423.862812 300.165609,422.681263 C299.774099,422.291727 299.772499,421.658564 300.162036,421.267054 Z M292.715814,413.148221 C293.134492,412.788044 293.765878,412.835469 294.126055,413.254147 C295.204668,414.507954 296.305546,415.742904 297.428694,416.959001 C297.803406,417.364723 297.778267,417.997388 297.372545,418.3721 C296.966824,418.746811 296.334158,418.721672 295.959447,418.315951 C294.820354,417.082589 293.703833,415.830092 292.609887,414.558462 C292.249711,414.139784 292.297136,413.508397 292.715814,413.148221 Z M279.291477,394.547774 C282.435881,392.505273 286.658031,393.304714 288.829993,396.398515 C290.851095,399.277424 290.400562,403.151117 287.919616,405.499224 C288.709263,406.56323 289.515239,407.614757 290.335462,408.654202 C290.677581,409.087761 290.603455,409.716572 290.169897,410.058691 C289.736339,410.40081 289.107528,410.326684 288.765408,409.893126 C287.726242,408.576219 286.70964,407.240214 285.715605,405.885115 L286.286209,406.654815 C283.227226,408.22264 279.402936,407.335958 277.371724,404.442646 C275.150398,401.278533 275.914679,396.912771 279.078793,394.691446 L279.078793,394.691446 Z M287.193098,397.547676 C285.606437,395.287595 282.488036,394.74168 280.227954,396.328341 L280.227954,396.328341 L280.038441,396.468036 C277.938419,398.092496 277.467291,401.097977 279.008619,403.293485 C280.542658,405.478609 283.508518,406.061384 285.746145,404.663666 C285.798621,404.597838 285.860189,404.538854 285.930447,404.487316 C286.011879,404.427582 286.099346,404.381987 286.189915,404.350081 C288.267394,402.722308 288.727663,399.733551 287.193098,397.547676 Z" fill="#D22A80" fill-rule="nonzero"></path>
            <text id="name-=-NameNode('tod" font-family="iAWriterQuattroS-Regular, iA Writer Quattro S" font-size="22" font-weight="normal" line-spacing="24" letter-spacing="0.3473684">
                <tspan x="418" y="248.681793" fill="#F0647D">name</tspan>
                <tspan x="478.789474" y="248.681793" fill="#ACACAC"> = </tspan>
                <tspan x="511.775579" y="248" font-family="iAWriterQuattroS-Bold, iA Writer Quattro S" font-weight="bold" fill="#ACACAC">NameNode</tspan>
                <tspan x="627.810526" y="248.681793" fill="#ACACAC">(</tspan>
                <tspan x="641.357894" y="248.681793" fill="#F09A64">'todos'</tspan>
                <tspan x="732.889473" y="248.681793" fill="#ACACAC">),</tspan>
                <tspan x="418" y="272.681793" fill="#F0647D">alias</tspan>
                <tspan x="472.536842" y="272.681793" fill="#ACACAC"> = </tspan>
                <tspan x="506.578947" y="272.681793" fill="#F09A64">null</tspan>
                <tspan x="547.568421" y="272.681793" fill="#ACACAC">,</tspan>
                <tspan x="418" y="296.681793" fill="#F0647D">arguments</tspan>
                <tspan x="539.926316" y="296.681793" fill="#ACACAC"> = [</tspan>
            </text>
            <text id="ArgumentNode-{" font-family="iAWriterQuattroS-Bold, iA Writer Quattro S" font-size="22" font-weight="bold" line-spacing="24" letter-spacing="0.3473684" fill="#ACACAC">
                <tspan x="431" y="321">ArgumentNode</tspan>
                <tspan x="594.624421" y="321.681793" font-family="iAWriterQuattroS-Regular, iA Writer Quattro S" font-weight="normal"> {</tspan>
            </text>
            <text id="name-=-NameNode('fir" font-family="iAWriterQuattroS-Regular, iA Writer Quattro S" font-size="22" font-weight="normal" line-spacing="24" letter-spacing="0.3473684">
                <tspan x="448" y="346.681793" fill="#F0647D">name</tspan>
                <tspan x="508.789474" y="346.681793" fill="#ACACAC"> = </tspan>
                <tspan x="541.775579" y="346" font-family="iAWriterQuattroS-Bold, iA Writer Quattro S" font-weight="bold" fill="#ACACAC">NameNode</tspan>
                <tspan x="657.810526" y="346.681793" fill="#ACACAC">(</tspan>
                <tspan x="671.357894" y="346.681793" fill="#F09A64">'first'</tspan>
                <tspan x="749.689473" y="346.681793" fill="#ACACAC">),</tspan>
                <tspan x="448" y="370.681793" fill="#F0647D">value</tspan>
                <tspan x="509.136842" y="370.681793" fill="#ACACAC"> = </tspan>
                <tspan x="542.122947" y="370" font-family="iAWriterQuattroS-Bold, iA Writer Quattro S" font-weight="bold" fill="#ACACAC">IntValueNode</tspan>
                <tspan x="689.247368" y="370.681793" fill="#ACACAC">(</tspan>
                <tspan x="702.794736" y="370.681793" fill="#F09A64">10</tspan>
                <tspan x="729.889473" y="370.681793" fill="#ACACAC">)</tspan>
            </text>
            <text id="}" font-family="iAWriterQuattroS-Regular, iA Writer Quattro S" font-size="22" font-weight="normal" line-spacing="24" letter-spacing="0.3473684" fill="#ACACAC">
                <tspan x="431" y="394">}</tspan>
            </text>
            <text id="]," font-family="iAWriterQuattroS-Regular, iA Writer Quattro S" font-size="22" font-weight="normal" line-spacing="24" letter-spacing="0.3473684" fill="#ACACAC">
                <tspan x="418" y="418">],</tspan>
            </text>
            <text id="selections-=-[-]" font-family="iAWriterQuattroS-Regular, iA Writer Quattro S" font-size="22" font-weight="normal" line-spacing="24" letter-spacing="0.3473684">
                <tspan x="439" y="466" fill="#F0647D">selections</tspan>
                <tspan x="557.973684" y="466" fill="#ACACAC"> = [</tspan>
                <tspan x="447.668" y="494.618073" fill="#ACACAC"></tspan>
                <tspan x="439" y="514" fill="#ACACAC">]</tspan>
            </text>
            <text id="..." font-family="iAWriterQuattroS-Bold, iA Writer Quattro S" font-size="22" font-weight="bold" line-spacing="24" letter-spacing="0.3473684" fill="#F0647D">
                <tspan x="464" y="490">...</tspan>
            </text>
            <text id="}" font-family="iAWriterQuattroS-Regular, iA Writer Quattro S" font-size="22" font-weight="normal" line-spacing="24" letter-spacing="0.3473684" fill="#ACACAC">
                <tspan x="419" y="536">}</tspan>
            </text>
            <text id="selectionSet-=-Selec" font-family="iAWriterQuattroS-Regular, iA Writer Quattro S" font-size="22" font-weight="normal" line-spacing="24" letter-spacing="0.3473684">
                <tspan x="419" y="442.681793" fill="#F0647D">selectionSet</tspan>
                <tspan x="561.768421" y="442.681793" fill="#ACACAC"> = </tspan>
                <tspan x="594.754526" y="442" font-family="iAWriterQuattroS-Bold, iA Writer Quattro S" font-weight="bold" fill="#ACACAC">SelectionSetNode</tspan>
                <tspan x="792.76842" y="442.681793" fill="#ACACAC"> {</tspan>
            </text>
        </g>
    </g>
</svg>