<?xml version="1.0" encoding="UTF-8"?>
<svg width="750px" height="379px" viewBox="0 0 750 379" version="1.1" xmlns="http://www.w3.org/2000/svg" xmlns:xlink="http://www.w3.org/1999/xlink">
    <!-- Generator: Sketch 59 (86127) - https://sketch.com -->
    <title>graphql-doc-simple</title>
    <desc>Created with Sketch.</desc>
    <defs>
        <linearGradient x1="100%" y1="48.8755673%" x2="0%" y2="48.8755673%" id="linearGradient-1">
            <stop stop-color="#FAF0FA" stop-opacity="0" offset="0%"></stop>
            <stop stop-color="#F9ECF9" stop-opacity="0.796028191" offset="14.794844%"></stop>
            <stop stop-color="#F4DEF4" stop-opacity="0.924314283" offset="75.4804604%"></stop>
            <stop stop-color="#F3DCF3" stop-opacity="0" offset="100%"></stop>
        </linearGradient>
    </defs>
    <g id="Page-1" stroke="none" stroke-width="1" fill="none" fill-rule="evenodd">
        <g id="Slide-2" transform="translate(-41.000000, -178.000000)">
            <g id="Group" transform="translate(62.000000, 203.000000)">
                <path d="M39.1508397,139.13041 C35.436288,139.13041 40.7137973,139.13041 54.9833673,139.13041 C179.033256,139.13041 181.40642,28.3124989 251.859943,2.85575442 C262.397974,-0.951918139 269.777993,-0.951918139 274,2.85575442 L274,325.356453 C269.777993,328.881182 262.397974,328.881182 251.859943,325.356453 C181.121391,301.696029 179.033256,185.828618 54.9833673,185.828618 C42.6080338,185.828618 37.3305246,185.828618 39.1508397,185.828618 L39.1508397,139.13041 Z" id="Rectangle" fill="url(#linearGradient-1)"></path>
                <text id="query-{-...-}" font-family="iAWriterQuattroS-Bold, iA Writer Quattro S" font-size="22" font-weight="bold" line-spacing="24" letter-spacing="0.3473684">
                    <tspan x="0" y="166" fill="#F09A64">query</tspan>
                    <tspan x="64.436842" y="166" fill="#F0647D"> { ... }</tspan>
                </text>
                <text id="DocumentNode-{" font-family="iAWriterQuattroS-Bold, iA Writer Quattro S" font-size="22" font-weight="bold" line-spacing="24" letter-spacing="0.3473684" fill="#ACACAC">
                    <tspan x="249" y="40">DocumentNode</tspan>
                    <tspan x="415.924421" y="40.6817932" font-family="iAWriterQuattroS-Regular, iA Writer Quattro S" font-weight="normal"> {</tspan>
                </text>
                <text id="definitions-=-[" font-family="iAWriterQuattroS-Regular, iA Writer Quattro S" font-size="22" font-weight="normal" line-spacing="24" letter-spacing="0.3473684">
                    <tspan x="269" y="67" fill="#F0647D">definitions</tspan>
                    <tspan x="391.621052" y="67" fill="#ACACAC"> = [</tspan>
                </text>
                <text id="}" font-family="iAWriterQuattroS-Regular, iA Writer Quattro S" font-size="22" font-weight="normal" line-spacing="24" letter-spacing="0.3473684" fill="#ACACAC">
                    <tspan x="249" y="323">}</tspan>
                </text>
                <text id="]" font-family="iAWriterQuattroS-Regular, iA Writer Quattro S" font-size="22" font-weight="normal" line-spacing="24" letter-spacing="0.3473684" fill="#ACACAC">
                    <tspan x="269" y="295">]</tspan>
                </text>
                <text id="selections-=-[-]" font-family="iAWriterQuattroS-Regular, iA Writer Quattro S" font-size="22" font-weight="normal" line-spacing="24" letter-spacing="0.3473684">
                    <tspan x="330" y="168" fill="#F0647D">selections</tspan>
                    <tspan x="448.973684" y="168" fill="#ACACAC"> = [</tspan>
                    <tspan x="338.668" y="196.618073" fill="#ACACAC"></tspan>
                    <tspan x="330" y="216" fill="#ACACAC">]</tspan>
                </text>
                <text id="..." font-family="iAWriterQuattroS-Bold, iA Writer Quattro S" font-size="22" font-weight="bold" line-spacing="24" letter-spacing="0.3473684" fill="#F0647D">
                    <tspan x="355" y="192">...</tspan>
                </text>
                <text id="}" font-family="iAWriterQuattroS-Regular, iA Writer Quattro S" font-size="22" font-weight="normal" line-spacing="24" letter-spacing="0.3473684" fill="#ACACAC">
                    <tspan x="310" y="240">}</tspan>
                </text>
                <text id="operation-=-'query'," font-family="iAWriterQuattroS-Regular, iA Writer Quattro S" font-size="22" font-weight="normal" line-spacing="24" letter-spacing="0.3473684">
                    <tspan x="310" y="120" fill="#F0647D">operation</tspan>
                    <tspan x="418.726316" y="120" fill="#ACACAC"> = </tspan>
                    <tspan x="452.768421" y="120" fill="#F09A64">'query'</tspan>
                    <tspan x="544.3" y="120" fill="#ACACAC">,</tspan>
                    <tspan x="310" y="144" fill="#F0647D">selectionSet</tspan>
                    <tspan x="452.768421" y="144" fill="#ACACAC"> = </tspan>
                    <tspan x="485.754526" y="143.318207" font-family="iAWriterQuattroS-Bold, iA Writer Quattro S" font-weight="bold" fill="#ACACAC">SelectionSetNode</tspan>
                    <tspan x="683.76842" y="144" fill="#ACACAC"> {</tspan>
                </text>
                <text id="}" font-family="iAWriterQuattroS-Regular, iA Writer Quattro S" font-size="22" font-weight="normal" line-spacing="24" letter-spacing="0.3473684" fill="#ACACAC">
                    <tspan x="289" y="264">}</tspan>
                </text>
                <text id="OperationDefinitionN" font-family="iAWriterQuattroS-Bold, iA Writer Quattro S" font-size="22" font-weight="bold" line-spacing="24" letter-spacing="0.3473684" fill="#ACACAC">
                    <tspan x="289" y="95">OperationDefinitionNode</tspan>
                    <tspan x="562.045473" y="95.6817932" font-family="iAWriterQuattroS-Regular, iA Writer Quattro S" font-weight="normal"> {</tspan>
                </text>
                <path id="Path-2" d="M218.196468,208.81612 C218.748715,208.809707 219.201599,209.252194 219.208012,209.804441 C219.214425,210.356689 218.771938,210.809573 218.219691,210.815985 C216.531173,210.835593 214.858505,210.840183 213.201687,210.829755 C212.649413,210.826279 212.204525,210.375754 212.208001,209.823481 C212.211477,209.271207 212.662001,208.826318 213.214275,208.829795 C214.859099,208.840147 216.51983,208.83559 218.196468,208.81612 Z M202.245281,208.528134 C203.886706,208.609683 205.545471,208.67499 207.221577,208.724053 C207.773626,208.740212 208.208049,209.200836 208.19189,209.752884 C208.17573,210.304932 207.715107,210.739356 207.163058,210.723196 C205.47344,210.673738 203.801101,210.607896 202.14604,210.52567 C201.594435,210.498265 201.169488,210.028886 201.196892,209.477281 C201.224297,208.925677 201.693677,208.500729 202.245281,208.528134 Z M229.104395,208.490161 C229.656082,208.464482 230.124131,208.890896 230.14981,209.442583 C230.175489,209.99427 229.749075,210.462319 229.197388,210.487998 L229.197388,210.487998 L227.007501,210.584214 C226.06135,210.6227 225.119873,210.65676 224.18307,210.686394 C223.631062,210.703856 223.169415,210.27052 223.151953,209.718512 C223.134491,209.166503 223.567827,208.704856 224.119836,208.687394 C225.516024,208.643228 226.922766,208.589163 228.340053,208.525198 L228.340053,208.525198 Z M240.063545,207.865576 C240.614567,207.828247 241.09152,208.244676 241.12885,208.795698 C241.16618,209.34672 240.74975,209.823673 240.198729,209.861003 C238.542763,209.973188 236.875625,210.077851 235.197316,210.17499 C234.645954,210.206902 234.173116,209.785805 234.141204,209.234443 C234.109292,208.683081 234.530389,208.210244 235.081751,208.178332 C236.75354,208.08157 238.414138,207.977318 240.063545,207.865576 Z M191.187557,207.713793 L191.304271,207.718647 C192.937774,207.881209 194.590241,208.026023 196.261671,208.153089 C196.812367,208.194954 197.224856,208.675319 197.182991,209.226015 C197.141126,209.776711 196.66076,210.189199 196.110065,210.147334 C194.423216,210.019097 192.755266,209.872925 191.106215,209.708816 C190.556645,209.654125 190.155467,209.164274 190.210158,208.614704 C190.26485,208.065134 190.754701,207.663955 191.304271,207.718647 Z M251.010686,206.999064 C251.560702,206.949057 252.047117,207.354394 252.097125,207.90441 C252.147133,208.454426 251.741796,208.940841 251.19178,208.990849 C249.539361,209.141087 247.875115,209.283357 246.199041,209.41766 C245.648521,209.461773 245.166475,209.051249 245.122363,208.500728 C245.07825,207.950208 245.488774,207.468163 246.039294,207.42405 C247.708273,207.290316 249.365404,207.148654 251.010686,206.999064 Z M180.321257,206.320196 L180.437506,206.331674 C182.057897,206.586592 183.699101,206.82205 185.361117,207.038046 C185.908796,207.109223 186.295078,207.610904 186.223901,208.158583 C186.152725,208.706262 185.651043,209.092544 185.103364,209.021367 C183.423721,208.803081 181.76483,208.565085 180.126692,208.307375 C179.581117,208.221546 179.208419,207.709692 179.294249,207.164117 C179.380078,206.618542 179.891932,206.245845 180.437506,206.331674 Z M261.92561,205.870195 C262.474195,205.80637 262.970651,206.199344 263.034477,206.747928 C263.098303,207.296512 262.705328,207.792969 262.156744,207.856795 C260.509288,208.04847 258.849282,208.231689 257.176728,208.406451 C256.627433,208.463846 256.135614,208.065083 256.07822,207.515788 C256.020825,206.966494 256.419588,206.474675 256.968883,206.417281 C258.633696,206.243327 260.285939,206.060965 261.92561,205.870195 Z M168.493041,205.042675 C168.614373,204.503883 169.14951,204.165465 169.688302,204.286797 C171.28724,204.646867 172.909047,204.985572 174.553726,205.302908 C175.096008,205.40754 175.450794,205.931968 175.346162,206.474251 C175.241531,207.016534 174.717103,207.37132 174.17482,207.266688 C172.510026,206.945471 170.868059,206.602555 169.248919,206.237936 C168.710127,206.116604 168.371709,205.581467 168.493041,205.042675 Z M272.808115,204.453992 C273.354729,204.375051 273.861841,204.754175 273.940782,205.300789 C274.019723,205.847403 273.640599,206.354515 273.093985,206.433456 C271.452369,206.670534 269.797395,206.898607 268.129063,207.117675 C267.581478,207.189578 267.079285,206.803962 267.007382,206.256378 C266.935479,205.708793 267.321095,205.2066 267.868679,205.134697 C269.528539,204.916742 271.175018,204.68984 272.808115,204.453992 Z M283.643759,202.723436 C284.187722,202.627923 284.70612,202.991464 284.801632,203.535427 C284.897145,204.07939 284.533605,204.597787 283.989642,204.6933 C282.355093,204.980306 280.706276,205.257688 279.043191,205.525449 C278.497928,205.613237 277.984739,205.242381 277.89695,204.697118 C277.809162,204.151855 278.180018,203.638665 278.725281,203.550877 C280.379065,203.284614 282.018558,203.0088 283.643759,202.723436 Z M157.891621,202.164489 C158.053124,201.636346 158.612193,201.339126 159.140336,201.500629 C160.705803,201.97934 162.296348,202.434639 163.911975,202.86652 C164.445526,203.009146 164.762433,203.557296 164.619807,204.090846 C164.477181,204.624397 163.929031,204.941304 163.395481,204.798678 C161.757072,204.360707 160.143738,203.898885 158.555481,203.413205 C158.027338,203.251701 157.730117,202.692632 157.891621,202.164489 Z M294.418592,200.647607 C294.959041,200.533881 295.489354,200.879809 295.603079,201.420258 C295.716805,201.960707 295.370877,202.49102 294.830428,202.604745 C293.207265,202.946303 291.56886,203.277576 289.915212,203.598563 C289.373047,203.703802 288.848222,203.349604 288.742983,202.807438 C288.637744,202.265273 288.991942,201.740448 289.534108,201.635209 C291.177535,201.316206 292.805697,200.987004 294.418592,200.647607 Z M147.529407,198.417459 C147.736004,197.905271 148.318693,197.65754 148.830881,197.864136 C150.348911,198.476448 151.894371,199.063157 153.467268,199.624258 C153.987446,199.809821 154.258705,200.381937 154.073142,200.902114 C153.887578,201.422292 153.315462,201.693551 152.795285,201.507988 C151.19693,200.937806 149.626076,200.341456 148.08273,199.718932 C147.570542,199.512336 147.322811,198.929647 147.529407,198.417459 Z M305.091743,198.197339 C305.627592,198.063607 306.170394,198.389587 306.304126,198.925436 C306.437859,199.461285 306.111879,200.004088 305.57603,200.13782 C303.966153,200.539598 302.339932,200.93034 300.697365,201.310047 C300.15927,201.434437 299.622221,201.099063 299.497831,200.560968 C299.373442,200.022874 299.708816,199.485824 300.24691,199.361434 C301.878221,198.984329 303.493165,198.596297 305.091743,198.197339 Z M315.672088,195.327128 C316.201942,195.171332 316.757772,195.474566 316.913569,196.004421 C317.069365,196.534276 316.766131,197.090106 316.236276,197.245902 C314.644151,197.714044 313.034468,198.170325 311.407228,198.614746 C310.874456,198.760253 310.324602,198.446313 310.179095,197.913541 C310.033588,197.380769 310.347528,196.830915 310.8803,196.685408 C312.495136,196.244374 314.092399,195.791613 315.672088,195.327128 Z M137.57845,193.727311 C137.834263,193.237844 138.438432,193.04843 138.927899,193.304243 C140.378387,194.062319 141.858557,194.792673 143.36842,195.495298 C143.869142,195.728313 144.086162,196.323124 143.853148,196.823846 C143.620133,197.324568 143.025322,197.541588 142.5246,197.308573 C140.987025,196.593052 139.479328,195.849116 138.001519,195.07676 C137.512051,194.820947 137.322637,194.216778 137.57845,193.727311 Z M326.116669,191.997049 C326.638765,191.816956 327.208003,192.094205 327.388096,192.616302 C327.568189,193.138398 327.29094,193.707636 326.768844,193.887729 C325.199534,194.42905 323.611333,194.9576 322.00424,195.473383 C321.478374,195.642154 320.91526,195.352673 320.746488,194.826807 C320.577716,194.300942 320.867197,193.737827 321.393063,193.569055 C322.986498,193.057656 324.561033,192.533654 326.116669,191.997049 Z M338.426419,180.806682 C341.998426,179.327944 346.092865,181.024874 347.571603,184.596881 C349.050341,188.168889 347.353411,192.263327 343.781404,193.742065 C340.517495,195.093257 336.817392,193.79298 335.075226,190.833477 C334.206856,191.174087 333.331063,191.510016 332.448934,191.841659 C331.931977,192.036014 331.355345,191.774492 331.16099,191.257535 C330.966636,190.740578 331.228158,190.163946 331.745115,189.969591 C332.920345,189.527754 334.084115,189.078279 335.236425,188.621168 L334.314841,188.983589 C333.475872,185.668692 335.173743,182.153224 338.426419,180.806682 Z M345.723691,185.361879 C344.66745,182.810445 341.742851,181.598352 339.191417,182.654594 C336.726098,183.675186 335.511236,186.440144 336.384899,188.927335 C336.447085,189.002121 336.497268,189.087612 336.534697,189.181963 C336.568335,189.26676 336.589567,189.35341 336.599259,189.439904 C337.737158,191.817456 340.550995,192.914783 343.016406,191.894153 C345.56784,190.837912 346.779933,187.913313 345.723691,185.361879 Z M118.480689,181.031876 C120.733716,177.890256 125.106941,177.16991 128.248561,179.422937 C131.103757,181.470553 131.959052,185.269392 130.400003,188.303366 C131.493412,189.021641 132.607217,189.720004 133.741099,190.39959 C134.214816,190.68351 134.368677,191.297697 134.084757,191.771414 C133.800837,192.245131 133.18665,192.398992 132.712933,192.115072 C131.259453,191.243935 129.838011,190.342376 128.448623,189.410396 L129.242645,189.935346 C126.873842,192.432974 122.965652,192.862301 120.089629,190.799748 C116.948009,188.546721 116.227662,184.173496 118.480689,181.031876 Z M127.082999,181.048195 C124.838985,179.43889 121.715253,179.953424 120.105948,182.197438 C118.496643,184.441452 119.011176,187.565184 121.25519,189.174489 C123.423628,190.729594 126.413525,190.301509 128.064579,188.246076 C128.090293,188.16872 128.127606,188.093844 128.17522,188.022862 C128.23458,187.934369 128.305612,187.858394 128.384897,187.795609 C129.805322,185.574666 129.252212,182.603857 127.082999,181.048195 Z" fill="#D22A80" fill-rule="nonzero"></path>
            </g>
        </g>
    </g>
</svg>