<?xml version="1.0" encoding="UTF-8"?>
<svg width="170px" height="171px" viewBox="0 0 170 171" version="1.1" xmlns="http://www.w3.org/2000/svg" xmlns:xlink="http://www.w3.org/1999/xlink">
    <!-- Generator: Sketch 59 (86127) - https://sketch.com -->
    <title>GraphQL_Logo</title>
    <desc>Created with Sketch.</desc>
    <g id="Page-1" stroke="none" stroke-width="1" fill="none" fill-rule="evenodd">
        <g id="graphql-requests" transform="translate(-337.000000, -99.000000)" fill="#E535AB" fill-rule="nonzero">
            <g id="GraphQL_Logo" transform="translate(358.000000, 113.000000)">
                <polygon id="Rectangle" transform="translate(38.228742, 56.540436) rotate(-149.999272) translate(-38.228742, -56.540436) " points="35.2170937 -1.56985667 41.2403897 -1.56985667 41.2403897 114.650729 35.2170937 114.650729"></polygon>
                <rect id="Rectangle" x="5" y="97.12" width="116" height="6"></rect>
                <polygon id="Rectangle" transform="translate(38.242567, 114.876181) rotate(-149.999272) translate(-38.242567, -114.876181) " points="4.67901928 111.864533 71.8061139 111.864533 71.8061139 117.887829 4.67901928 117.887829"></polygon>
                <polygon id="Rectangle" transform="translate(88.742992, 27.398944) rotate(-149.999272) translate(-88.742992, -27.398944) " points="55.1794444 24.3872957 122.306539 24.3872957 122.306539 30.4105917 55.1794444 30.4105917"></polygon>
                <polygon id="Rectangle" transform="translate(38.258677, 27.376011) rotate(-120.000728) translate(-38.258677, -27.376011) " points="35.2470294 -6.18753615 41.2703255 -6.18753615 41.2703255 60.9395584 35.2470294 60.9395584"></polygon>
                <polygon id="Rectangle" transform="translate(88.784321, 56.541525) rotate(-120.000728) translate(-88.784321, -56.541525) " points="30.6740282 53.5298768 146.894614 53.5298768 146.894614 59.5531729 30.6740282 59.5531729"></polygon>
                <rect id="Rectangle" x="10" y="38.12" width="6" height="67"></rect>
                <rect id="Rectangle" x="111" y="38.12" width="6" height="67"></rect>
                <polygon id="Rectangle" transform="translate(88.742738, 114.842689) rotate(-120.000728) translate(-88.742738, -114.842689) " points="86.1120813 85.6514742 91.3733941 85.6514742 91.3733941 144.033904 86.1120813 144.033904"></polygon>
                <path d="M125.309274,106.868198 C121.875131,112.847848 114.219852,114.888807 108.245873,111.451403 C102.271894,108.013999 100.232871,100.351453 103.667015,94.3718023 C107.101158,88.3921517 114.756437,86.3511932 120.730416,89.7885971 C126.740168,93.2618073 128.77919,100.888547 125.309274,106.868198" id="Path"></path>
                <path d="M23.3314029,47.8681977 C19.893999,53.8478483 12.2314528,55.8888068 6.25180228,52.4514029 C0.272151746,49.013999 -1.76880682,41.3514528 1.66859708,35.3718023 C5.10600098,29.3921517 12.7685472,27.3511932 18.7481977,30.7885971 C24.7278483,34.2618073 26.7688068,41.8885472 23.3314029,47.8681977" id="Path"></path>
                <path d="M1.66859708,106.868198 C-1.76880682,100.888547 0.272151746,93.2618073 6.25180228,89.7885971 C12.2314528,86.3511932 19.8581927,88.3921517 23.3314029,94.3718023 C26.7688068,100.351453 24.7278483,107.978193 18.7481977,111.451403 C12.7327409,114.888807 5.10600098,112.847848 1.66859708,106.868198" id="Path"></path>
                <path d="M103.668597,47.8681977 C100.231193,41.8885472 102.272152,34.2618073 108.251802,30.7885971 C114.231453,27.3511932 121.858193,29.3921517 125.331403,35.3718023 C128.768807,41.3514528 126.727848,48.9781927 120.748198,52.4514029 C114.768547,55.8888068 107.106001,53.8478483 103.668597,47.8681977" id="Path"></path>
                <path d="M63.5,142.12 C56.5873926,142.12 51,136.532607 51,129.62 C51,122.707393 56.5873926,117.12 63.5,117.12 C70.4126074,117.12 76,122.707393 76,129.62 C76,136.496791 70.4126074,142.12 63.5,142.12" id="Path"></path>
                <path d="M63.5,25.12 C56.5873926,25.12 51,19.5326074 51,12.62 C51,5.70739255 56.5873926,0.12 63.5,0.12 C70.4126074,0.12 76,5.70739255 76,12.62 C76,19.5326074 70.4126074,25.12 63.5,25.12" id="Path"></path>
            </g>
        </g>
    </g>
</svg>