<?xml version="1.0" encoding="UTF-8"?>
<svg width="610px" height="372px" viewBox="0 0 610 372" version="1.1" xmlns="http://www.w3.org/2000/svg" xmlns:xlink="http://www.w3.org/1999/xlink">
    <!-- Generator: Sketch 59 (86127) - https://sketch.com -->
    <title>introspection</title>
    <desc>Created with Sketch.</desc>
    <g id="Page-1" stroke="none" stroke-width="1" fill="none" fill-rule="evenodd">
        <g id="Slide-8" transform="translate(-90.000000, -159.000000)">
            <g id="Group" transform="translate(123.000000, 175.000000)">
                <g id="Group-2" transform="translate(0.000000, 6.000000)" fill="#ACACAC" font-size="22" letter-spacing="0.3473684" line-spacing="28">
                    <text id="id-name" font-family="iAWriterQuattroS-Bold, iA Writer Quattro S" font-weight="bold">
                        <tspan x="62" y="219">id</tspan>
                        <tspan x="62" y="247">name</tspan>
                    </text>
                    <text id="id-title-author-{" font-family="iAWriterQuattroS-Bold, iA Writer Quattro S" font-weight="bold">
                        <tspan x="41" y="107">id</tspan>
                        <tspan x="41" y="135">title</tspan>
                        <tspan x="41" y="163">author </tspan>
                        <tspan x="126.987579" y="163.681793" font-family="iAWriterQuattroS-Regular, iA Writer Quattro S" font-weight="normal">{</tspan>
                    </text>
                    <text id="book-{" font-family="iAWriterQuattroS-Bold, iA Writer Quattro S" font-weight="bold">
                        <tspan x="20" y="51">book </tspan>
                        <tspan x="85.492842" y="51.6817932" font-family="iAWriterQuattroS-Regular, iA Writer Quattro S" font-weight="normal">{</tspan>
                    </text>
                    <text id="{" font-family="iAWriterQuattroS-Regular, iA Writer Quattro S" font-weight="normal">
                        <tspan x="0" y="23">{</tspan>
                    </text>
                    <text id="}" font-family="iAWriterQuattroS-Regular, iA Writer Quattro S" font-weight="normal">
                        <tspan x="0" y="331">}</tspan>
                    </text>
                    <text id="}" font-family="iAWriterQuattroS-Regular, iA Writer Quattro S" font-weight="normal">
                        <tspan x="21" y="303">}</tspan>
                    </text>
                    <text id="}" font-family="iAWriterQuattroS-Regular, iA Writer Quattro S" font-weight="normal">
                        <tspan x="41" y="275">}</tspan>
                    </text>
                </g>
                <g id="Group-2" transform="translate(280.000000, 0.000000)" fill="#ACACAC" font-size="22" letter-spacing="0.3473684" line-spacing="28">
                    <text id="id-name" font-family="iAWriterQuattroS-Bold, iA Writer Quattro S" font-weight="bold">
                        <tspan x="62" y="219">id</tspan>
                        <tspan x="62" y="247">name</tspan>
                    </text>
                    <text id="id-title-author-{" font-family="iAWriterQuattroS-Bold, iA Writer Quattro S" font-weight="bold">
                        <tspan x="41" y="107">id</tspan>
                        <tspan x="41" y="135">title</tspan>
                        <tspan x="41" y="163">author </tspan>
                        <tspan x="126.987579" y="163.681793" font-family="iAWriterQuattroS-Regular, iA Writer Quattro S" font-weight="normal">{</tspan>
                    </text>
                    <text id="book-{" font-family="iAWriterQuattroS-Bold, iA Writer Quattro S" font-weight="bold">
                        <tspan x="20" y="51">book </tspan>
                        <tspan x="85.492842" y="51.6817932" font-family="iAWriterQuattroS-Regular, iA Writer Quattro S" font-weight="normal">{</tspan>
                    </text>
                    <text id="{" font-family="iAWriterQuattroS-Regular, iA Writer Quattro S" font-weight="normal">
                        <tspan x="0" y="23">{</tspan>
                    </text>
                    <text id="}" font-family="iAWriterQuattroS-Regular, iA Writer Quattro S" font-weight="normal">
                        <tspan x="0" y="331">}</tspan>
                    </text>
                    <text id="}" font-family="iAWriterQuattroS-Regular, iA Writer Quattro S" font-weight="normal">
                        <tspan x="21" y="303">}</tspan>
                    </text>
                    <text id="}" font-family="iAWriterQuattroS-Regular, iA Writer Quattro S" font-weight="normal">
                        <tspan x="41" y="275">}</tspan>
                    </text>
                </g>
                <text id="__typename" font-family="iAWriterQuattroS-Bold, iA Writer Quattro S" font-size="22" font-weight="bold" line-spacing="32" letter-spacing="0.3473684" fill="#F09A64">
                    <tspan x="321" y="75">__typename</tspan>
                </text>
                <text id="__typename" font-family="iAWriterQuattroS-Bold, iA Writer Quattro S" font-size="22" font-weight="bold" line-spacing="32" letter-spacing="0.3473684" fill="#F09A64">
                    <tspan x="340" y="187">__typename</tspan>
                </text>
                <path id="Path-2" d="M180.726652,82.9553918 C182.411642,82.9742223 184.076114,82.987091 185.720068,82.9939981 C186.272348,82.9963185 186.718178,83.4459108 186.715858,83.9981907 C186.713538,84.5504706 186.263945,84.9963008 185.711665,84.9939804 C184.063033,84.9870537 182.393913,84.9741491 180.704303,84.9552669 C180.152053,84.9490953 179.709368,84.4964049 179.71554,83.9441546 C179.721712,83.3919043 180.174402,82.9492202 180.726652,82.9553918 Z M196.702439,82.947516 C197.254676,82.9402387 197.708252,83.3820156 197.715529,83.9342524 C197.722807,84.4864892 197.28103,84.940065 196.728793,84.9473424 C195.082261,84.9690403 193.412757,84.9840324 191.720282,84.9923191 C191.168004,84.9950232 190.718102,84.5495054 190.715398,83.9972273 C190.712693,83.4449491 191.158211,82.9950472 191.710489,82.9923431 C193.397482,82.9840832 195.061466,82.9691407 196.702439,82.947516 Z M169.738205,82.7553589 C170.299075,82.7693177 170.857889,82.7826791 171.414649,82.7954432 L171.414649,82.7954432 L174.730546,82.8648591 C175.282732,82.8753027 175.721901,83.3314041 175.711458,83.8835901 C175.701014,84.4357761 175.244913,84.8749451 174.692727,84.8645015 C174.142853,84.8541017 173.590927,84.8431032 173.036948,84.8315061 L173.036948,84.8315061 L169.688445,84.7547398 C169.136331,84.740999 168.699893,84.2822831 168.713634,83.7301693 C168.727375,83.1780556 169.186091,82.7416181 169.738205,82.7553589 Z M207.67858,82.6916301 C208.230543,82.6727819 208.693277,83.1049569 208.712125,83.6569199 C208.730973,84.2088829 208.298798,84.6716169 207.746835,84.6904651 C206.103629,84.7465766 204.434306,84.7950582 202.738865,84.8359109 C202.18674,84.8492147 201.72837,84.4124142 201.715067,83.8602897 C201.701763,83.3081653 202.138563,82.8497951 202.690688,82.8364913 C204.379486,82.7957986 206.042118,82.7475113 207.67858,82.6916301 Z M158.758693,82.4154768 C159.319069,82.4360726 159.877572,82.4561241 160.434204,82.4756314 L160.434204,82.4756314 L163.751531,82.5861432 C164.303541,82.6035638 164.736911,83.0651783 164.719491,83.6171883 C164.70207,84.1691982 164.240456,84.6025686 163.688446,84.5851481 C163.138143,84.5677814 162.585971,84.5498696 162.031929,84.5314125 L162.031929,84.5314125 L158.685235,84.4141273 C158.133323,84.3938425 157.702354,83.9299853 157.722639,83.3780732 C157.742924,82.8261611 158.206781,82.395192 158.758693,82.4154768 Z M218.653176,82.251627 C219.204876,82.2262212 219.672713,82.6528671 219.698118,83.2045671 C219.723524,83.7562672 219.296878,84.224104 218.745178,84.2495098 C217.084879,84.3259665 215.418178,84.3981631 213.745077,84.4660995 C213.193247,84.4885067 212.727736,84.0593246 212.705328,83.5074946 C212.682921,82.9556646 213.112103,82.4901534 213.663933,82.4677463 C215.333422,82.3999565 216.996502,82.3279167 218.653176,82.251627 Z M147.774858,81.9534064 C148.334299,81.9797925 148.892025,82.0056797 149.448035,82.0310679 L149.448035,82.0310679 L152.763508,82.1774099 C153.315292,82.2009147 153.743547,82.6672787 153.720042,83.219063 C153.696538,83.7708474 153.230174,84.1991026 152.678389,84.1755978 C152.128225,84.1521621 151.576347,84.1282266 151.022754,84.1037916 L151.022754,84.1037916 L147.680632,83.9511856 C147.128961,83.9251659 146.702836,83.4568547 146.728855,82.9051833 C146.754875,82.3535118 147.223186,81.9273868 147.774858,81.9534064 Z M229.627804,81.6786011 C230.179147,81.6463556 230.652238,82.0671669 230.684484,82.6185095 C230.716729,83.1698521 230.295918,83.6429438 229.744575,83.6751893 C228.084461,83.7722818 226.417722,83.8649648 224.744358,83.9532383 C224.19284,83.982332 223.722161,83.5588235 223.693068,83.0073056 C223.663974,82.4557877 224.087482,81.985109 224.639,81.9560153 C226.308566,81.8679421 227.971501,81.7754707 229.627804,81.6786011 Z M136.801887,81.384304 C137.361009,81.4158302 137.918545,81.446895 138.474495,81.4774985 L138.474495,81.4774985 L141.791159,81.6555827 C142.342689,81.6844413 142.766398,82.1549395 142.737539,82.7064698 C142.708681,83.258 142.238182,83.6817091 141.686652,83.6528504 C141.136145,83.6240452 140.584053,83.5947782 140.030376,83.5650492 L140.030376,83.5650492 L136.689295,83.3811322 C136.137886,83.3500409 135.716085,82.8778312 135.747177,82.3264223 C135.778268,81.7750134 136.250478,81.3532126 136.801887,81.384304 Z M240.590388,80.9663001 C241.141263,80.9268665 241.619803,81.3414718 241.659236,81.8923469 C241.69867,82.4432221 241.284065,82.9217619 240.73319,82.9611955 C239.075567,83.0798541 237.411099,83.1939557 235.739786,83.3035004 C235.188683,83.3396219 234.712645,82.9221476 234.676523,82.3710453 C234.640402,81.8199431 235.057876,81.3439042 235.608978,81.3077827 C237.276301,81.1984995 238.93677,81.084672 240.590388,80.9663001 Z M125.709589,80.7185606 L125.826401,80.7193689 C126.384633,80.75545 126.941394,80.7911029 127.496682,80.8263276 L127.496682,80.8263276 L130.810755,81.0325386 C131.362015,81.0661642 131.781641,81.5403078 131.748015,82.0915679 C131.714389,82.6428281 131.240246,83.0624538 130.688986,83.0288282 C130.138777,82.9952668 129.587098,82.9612768 129.033948,82.9268583 L129.033948,82.9268583 L125.697401,82.7152044 C125.146266,82.6795821 124.728361,82.2039215 124.763983,81.6527868 C124.799606,81.101652 125.275266,80.6837466 125.826401,80.7193689 Z M294.658692,69.0553136 C294.786696,69.0347312 294.917733,69.0442339 295.041428,69.0830693 L295.041428,69.0830693 L308.193349,73.2122729 C308.633393,73.3504297 308.87812,73.8191534 308.739963,74.2591965 C308.685837,74.4315935 308.577255,74.5817847 308.430516,74.6872266 L308.430516,74.6872266 L297.236,82.731242 C296.861449,83.0003824 296.339634,82.91493 296.070493,82.5403787 C295.994839,82.4350937 295.944737,82.3136404 295.924154,82.1856371 L295.924154,82.1856371 L295.102962,77.0746251 C293.585051,77.3004877 292.060137,77.5216858 290.528221,77.7382194 C289.981372,77.8155155 289.475403,77.4348678 289.398107,76.8880189 C289.320811,76.3411699 289.701458,75.8352004 290.248307,75.7579042 C291.903287,75.5239758 293.550034,75.2845913 295.188547,75.0397508 L294.784,75.098 L293.966748,70.0124181 C293.899159,69.5920745 294.157926,69.1946193 294.556299,69.0783684 Z M251.546416,80.1069769 C252.096697,80.0599757 252.58089,80.4679648 252.627891,81.0182459 C252.674892,81.5685271 252.266903,82.05272 251.716622,82.0997212 C250.060523,82.2411735 248.397333,82.3779047 246.727051,82.5099151 C246.176483,82.5534291 245.694885,82.1423807 245.651371,81.5918128 C245.607857,81.041245 246.018905,80.5596464 246.569473,80.5161324 C248.235552,80.3844542 249.894534,80.248069 251.546416,80.1069769 Z M114.746455,79.9677031 L114.863258,79.9693751 C115.421188,80.009581 115.977743,80.0493868 116.532923,80.0887926 L116.532923,80.0887926 L119.847502,80.3204265 C120.398485,80.3583217 120.814425,80.8357019 120.77653,81.386685 C120.738635,81.9376681 120.261254,82.3536081 119.710271,82.3157129 C119.159864,82.2778573 118.608083,82.2396013 118.054927,82.200945 L118.054927,82.200945 L114.719506,81.9642022 C114.16865,81.9245061 113.754273,81.4457687 113.793969,80.8949124 C113.833665,80.3440561 114.312402,79.929679 114.863258,79.9693751 Z M262.485292,79.0934822 C263.034834,79.0385116 263.524889,79.4394412 263.579859,79.9889834 C263.63483,80.5385257 263.2339,81.0285801 262.684358,81.0835507 C261.030677,81.248968 259.369649,81.4094928 257.701273,81.5651253 C257.151375,81.6164218 256.664011,81.2122259 256.612715,80.6623285 C256.561418,80.1124312 256.965614,79.6250672 257.515512,79.5737707 C259.179461,79.4185513 260.836054,79.2584551 262.485292,79.0934822 Z M103.784672,79.1394598 L103.901461,79.1419146 C104.458842,79.1858383 105.014933,79.2293869 105.569736,79.2725604 L105.569736,79.2725604 L108.883085,79.5271011 C109.433789,79.5688545 109.846375,80.0491364 109.804622,80.5998406 C109.762868,81.1505447 109.282587,81.5631308 108.731882,81.5213773 C108.181576,81.4796539 107.629981,81.4375553 107.077098,81.3950813 L107.077098,81.3950813 L103.744341,81.1357334 C103.193763,81.0923458 102.782604,80.6108417 102.825991,80.0602639 C102.869379,79.509686 103.350883,79.0985271 103.901461,79.1419146 Z M92.8267194,78.2410126 L92.9434914,78.2441812 L97.9197435,78.6602043 C98.4701705,78.7054656 98.8796883,79.1883663 98.834427,79.7387933 C98.7891658,80.2892202 98.3062651,80.698738 97.7558381,80.6534768 L97.7558381,80.6534768 L92.774189,80.2370025 C92.2238865,80.1902509 91.815678,79.706243 91.8624295,79.1559406 C91.9091811,78.6056382 92.393189,78.1974296 92.9434914,78.2441812 Z M273.408739,77.9170868 C273.957375,77.8537112 274.453509,78.2470929 274.516885,78.7957293 C274.58026,79.3443658 274.186879,79.8404996 273.638242,79.9038752 C271.987195,80.0945955 270.328525,80.2802395 268.662232,80.4608071 C268.113162,80.5203071 267.619818,80.1234319 267.560318,79.5743616 C267.500818,79.0252913 267.897693,78.5319476 268.446764,78.4724477 C270.108386,78.2923861 271.762378,78.1072658 273.408739,77.9170868 Z M81.8704086,77.278192 L81.987161,77.2820147 L86.9603458,77.7264063 C87.5104997,77.7748735 87.9171972,78.2601519 87.86873,78.8103058 C87.8202628,79.3604598 87.3349845,79.7671572 86.7848306,79.7186901 C85.1357412,79.5734094 83.4763631,79.4251314 81.8066961,79.2738562 C81.2566643,79.2240221 80.8511738,78.7377348 80.9010078,78.187703 C80.9508419,77.6376711 81.4371292,77.2321807 81.987161,77.2820147 Z M284.30873,76.5693646 C284.856269,76.4971194 285.358703,76.8824211 285.430948,77.4299602 C285.503194,77.9774993 285.117892,78.4799338 284.570353,78.5521791 C282.922661,78.7695846 281.267055,78.9817191 279.603534,79.1885829 C279.055471,79.2567362 278.555928,78.8676922 278.487775,78.3196288 C278.419622,77.7715653 278.808666,77.2720229 279.356729,77.2038695 C281.015318,76.9976189 282.665985,76.7861173 284.30873,76.5693646 Z M70.9313404,76.2576817 L71.0480716,76.262106 L76.0219368,76.7328851 C76.5718238,76.7842925 76.9759213,77.271738 76.9245139,77.821625 C76.8731064,78.371512 76.3856609,78.7756095 75.8357739,78.7242021 L75.8357739,78.7242021 L70.8573445,78.252991 C70.3075768,78.2003232 69.9045977,77.7119527 69.9572656,77.162185 C70.0099334,76.6124172 70.4983039,76.2094382 71.0480716,76.262106 Z M59.9834033,75.1816089 L60.1001121,75.1865901 C61.7665238,75.3542604 63.4236634,75.5192321 65.0715308,75.6815053 C65.6211571,75.7356295 66.0228408,76.225066 65.9687165,76.7746922 C65.9145923,77.3243185 65.4251558,77.7260022 64.8755296,77.671878 C63.2262504,77.5094658 61.5677032,77.3443539 59.8998879,77.1765425 C59.3503778,77.1212521 58.9497335,76.6309644 59.0050238,76.0814542 C59.0603142,75.5319441 59.5506019,75.1312998 60.1001121,75.1865901 Z" fill="#D22A80" fill-rule="nonzero"></path>
                <path id="Path-2" d="M200.60514,198.944813 C202.289528,198.967738 203.953425,198.983521 205.596829,198.992161 C206.149106,198.995064 206.594461,199.445127 206.591557,199.997404 C206.588654,200.549682 206.138591,200.995037 205.586314,200.992133 C203.937307,200.983464 202.267844,200.967628 200.577922,200.944628 C200.025688,200.937112 199.584107,200.483345 199.591623,199.931112 C199.599139,199.378878 200.052906,198.937297 200.60514,198.944813 Z M216.575062,198.938997 C217.12728,198.930407 217.581904,199.371105 217.590494,199.923323 C217.599084,200.475541 217.158386,200.930165 216.606168,200.938755 C214.959202,200.964373 213.289305,200.981954 211.596474,200.991498 C211.044198,200.994612 210.593966,200.549428 210.590852,199.997152 C210.587738,199.444876 211.032922,198.994644 211.585198,198.99153 C213.271463,198.982023 214.934752,198.964511 216.575062,198.938997 Z M189.621166,198.702851 C191.303205,198.75337 192.966771,198.797448 194.611862,198.835083 C195.164002,198.847715 195.60136,199.305553 195.588729,199.857693 C195.576097,200.409833 195.118259,200.847192 194.566119,200.83456 C192.916234,200.796815 191.247903,200.752611 189.561123,200.701949 C189.009087,200.685369 188.575015,200.224415 188.591595,199.672379 C188.608175,199.120343 189.06913,198.68627 189.621166,198.702851 Z M227.540339,198.635459 C228.092168,198.613031 228.557696,199.042194 228.580124,199.594024 C228.602553,200.145853 228.173389,200.611381 227.62156,200.633809 C225.97798,200.700611 224.308343,200.758272 222.612646,200.806793 C222.060587,200.822589 221.600249,200.387863 221.584453,199.835804 C221.568656,199.283745 222.003382,198.823408 222.555441,198.807611 C224.243192,198.759317 225.904826,198.701933 227.540339,198.635459 Z M178.638302,198.293091 C179.198279,198.317875 179.756387,198.342007 180.312627,198.365487 L180.312627,198.365487 L183.627645,198.49855 C184.179531,198.519542 184.609905,198.983952 184.588912,199.535837 C184.56792,200.087723 184.103511,200.518097 183.551625,200.497105 C183.001473,200.476178 182.449454,200.454599 181.89557,200.432366 L181.89557,200.432366 L178.549871,200.291135 C177.998126,200.266715 177.570645,199.799642 177.595065,199.247897 C177.619484,198.696152 178.086558,198.268671 178.638302,198.293091 Z M238.516208,198.109256 C239.067657,198.078877 239.539322,198.501287 239.569701,199.052735 C239.600081,199.604184 239.177671,200.075849 238.626223,200.106228 C236.965315,200.197729 235.298007,200.284117 233.624299,200.365391 C233.072664,200.392179 232.60376,199.966706 232.576973,199.415071 C232.550186,198.863436 232.975659,198.394532 233.527293,198.367745 C235.196672,198.286681 236.859644,198.200518 238.516208,198.109256 Z M167.668824,197.737813 C168.227945,197.769527 168.785353,197.800643 169.341048,197.831162 L169.341048,197.831162 L172.654662,198.007103 C173.206223,198.03537 173.630436,198.505414 173.602168,199.056975 C173.573901,199.608536 173.103857,200.032749 172.552297,200.004481 C170.902118,199.91991 169.236541,199.829951 167.555563,199.734603 C167.004165,199.703327 166.582522,199.230976 166.613799,198.679578 C166.645075,198.128179 167.117426,197.706537 167.668824,197.737813 Z M249.480049,197.424269 C250.030986,197.385708 250.508869,197.80107 250.54743,198.352007 C250.585992,198.902944 250.170629,199.380826 249.619692,199.419388 C247.96089,199.535492 246.295479,199.646316 244.62346,199.75186 C244.072272,199.786654 243.597241,199.368033 243.562448,198.816845 C243.527654,198.265658 243.946275,197.790626 244.497463,197.755833 C246.16494,197.650575 247.825802,197.540054 249.480049,197.424269 Z M156.585545,197.052871 L156.702354,197.054044 C158.377295,197.167551 160.038006,197.276092 161.684487,197.379667 C162.235683,197.414341 162.654406,197.889282 162.619732,198.440477 C162.585058,198.991672 162.110117,199.410395 161.558922,199.375721 C161.009016,199.341128 160.457532,199.305983 159.904468,199.270285 L159.904468,199.270285 L156.567129,199.049467 C156.016108,199.012126 155.599689,198.535164 155.63703,197.984143 C155.674372,197.433122 156.151334,197.016703 156.702354,197.054044 Z M260.434396,196.572333 C260.984664,196.52518 261.46897,196.933035 261.516123,197.483303 C261.563277,198.033571 261.155421,198.517877 260.605153,198.56503 C258.948144,198.707022 257.284302,198.843553 255.613626,198.974623 C255.063033,199.017819 254.581672,198.606492 254.538476,198.0559 C254.49528,197.505307 254.906607,197.023946 255.457199,196.98075 C257.123106,196.850053 258.782172,196.713915 260.434396,196.572333 Z M145.626785,196.253995 L145.743577,196.256315 C147.41823,196.386341 149.079643,196.511744 150.727813,196.632526 C151.278621,196.672891 151.692417,197.152131 151.652053,197.702938 C151.611688,198.253746 151.132448,198.667542 150.581641,198.627177 C148.930575,198.506183 147.26628,198.380562 145.588756,198.250314 C145.038129,198.207562 144.626415,197.726532 144.669167,197.175905 C144.71192,196.625277 145.192949,196.213563 145.743577,196.256315 Z M271.370967,195.545466 C271.920388,195.489288 272.411322,195.889141 272.467499,196.438561 C272.523676,196.987981 272.123824,197.478915 271.574404,197.535092 C269.920267,197.704225 268.259064,197.867711 266.590794,198.025549 C266.040965,198.077569 265.553069,197.674015 265.501049,197.124186 C265.449028,196.574357 265.852582,196.086461 266.402412,196.034441 C268.065672,195.877076 269.721857,195.714085 271.370967,195.545466 Z M134.671757,195.352812 L134.788523,195.356164 C135.345468,195.404364 135.901042,195.452086 136.455247,195.49933 L136.455247,195.49933 L139.764035,195.777054 C140.314445,195.822524 140.72378,196.30558 140.678309,196.85599 C140.632839,197.4064 140.149783,197.815734 139.599373,197.770264 C137.950595,197.634056 136.289497,197.49354 134.61608,197.348716 C134.065852,197.301097 133.658407,196.816446 133.706026,196.266218 C133.753645,195.71599 134.238295,195.308545 134.788523,195.356164 Z M314.510799,183.474309 C314.638097,183.44974 314.769368,183.455146 314.894215,183.4901 L314.894215,183.4901 L328.168658,187.20662 C328.612801,187.330969 328.872045,187.791822 328.747696,188.235965 C328.698979,188.409968 328.59514,188.563476 328.451765,188.673449 L328.451765,188.673449 L317.513883,197.063092 C317.147918,197.343796 316.623689,197.274679 316.342985,196.908715 C316.26408,196.805843 316.21021,196.686014 316.18564,196.558716 L316.18564,196.558716 L315.204129,191.474085 C313.575683,191.765091 311.939179,192.049655 310.294617,192.327776 C309.750065,192.419868 309.233962,192.053077 309.14187,191.508524 C309.049777,190.963972 309.416569,190.447869 309.961121,190.355777 C311.608276,190.077217 313.247281,189.792177 314.878134,189.500657 L314.825,189.509 L313.849078,184.452553 C313.768397,184.034525 314.014627,183.629183 314.409175,183.50055 Z M282.282693,194.33528 C282.831061,194.269622 283.328828,194.660936 283.394486,195.209304 C283.460144,195.757672 283.06883,196.255438 282.520462,196.321096 C280.869305,196.518796 279.21083,196.710647 277.545039,196.896651 C276.996166,196.957938 276.501532,196.562672 276.440244,196.013798 C276.378957,195.464925 276.774223,194.970291 277.323097,194.909004 C278.98362,194.723588 280.636819,194.532347 282.282693,194.33528 Z M123.718671,194.35902 L123.835407,194.363308 C124.392358,194.416008 124.948023,194.468258 125.5024,194.520059 L125.5024,194.520059 L128.813224,194.825476 C129.363234,194.875552 129.768511,195.362017 129.718435,195.912027 C129.66836,196.462037 129.181895,196.867314 128.631885,196.817238 C128.081867,196.767162 127.530563,196.716637 126.977973,196.665661 L126.977973,196.665661 L123.647005,196.354414 C123.097176,196.302388 122.693627,195.814489 122.745653,195.26466 C122.797679,194.714831 123.285578,194.311282 123.835407,194.363308 Z M112.780503,193.282297 L112.897205,193.287437 C113.453085,193.34413 114.007757,193.400401 114.56122,193.45625 L114.56122,193.45625 L117.867496,193.786282 C118.417109,193.84054 118.818674,194.330075 118.764415,194.879688 C118.710157,195.429301 118.220622,195.830865 117.671009,195.776606 C117.121663,195.722374 116.571109,195.66772 116.019347,195.612643 L116.019347,195.612643 L112.694281,195.277116 C112.144847,195.22108 111.744868,194.730249 111.800904,194.180815 C111.856939,193.63138 112.34777,193.231401 112.897205,193.287437 Z M293.177482,192.93094 C293.724563,192.855305 294.229374,193.237488 294.305009,193.784569 C294.380644,194.33165 293.998462,194.836461 293.451381,194.912096 C291.804264,195.139813 290.14957,195.361474 288.4873,195.577078 C287.939603,195.648117 287.438019,195.261709 287.36698,194.714012 C287.295941,194.166315 287.682349,193.664731 288.230046,193.593692 C289.886776,193.378806 291.535921,193.157889 293.177482,192.93094 Z M101.845127,192.128761 L101.961792,192.134681 C103.627127,192.315783 105.282201,192.493302 106.927013,192.667238 C107.476235,192.725317 107.874385,193.217633 107.816306,193.766855 C107.758227,194.316078 107.265912,194.714228 106.716689,194.656148 C105.069904,194.482004 103.412865,194.304274 101.74557,194.122959 C101.196522,194.063251 100.799834,193.569757 100.859542,193.020709 C100.91925,192.471662 101.412744,192.074973 101.961792,192.134681 Z M304.045117,191.322867 C304.590643,191.236734 305.102705,191.609146 305.188839,192.154672 C305.274972,192.700199 304.90256,193.212261 304.357033,193.298394 C302.714559,193.557725 301.064233,193.810778 299.406055,194.057554 C298.859786,194.138851 298.351044,193.761918 298.269746,193.215649 C298.188449,192.669381 298.565382,192.160638 299.111651,192.079341 C300.764,191.833433 302.408488,191.581275 304.045117,191.322867 Z M90.9170093,190.905138 L91.0336356,190.911775 C92.6981835,191.103162 94.3530047,191.291153 95.9980991,191.475747 C96.5469395,191.537332 96.9419383,192.032179 96.8803536,192.581019 C96.8187689,193.12986 96.3239215,193.524858 95.7750812,193.463274 C94.1281697,193.278476 92.4715373,193.090279 90.8051839,192.898685 C90.256514,192.8356 89.8628698,192.339674 89.925955,191.791004 C89.9890402,191.242334 90.4849657,190.84869 91.0336356,190.911775 Z M80.0032838,189.61779 L80.1198705,189.62509 L85.0796358,190.217611 C85.6281041,190.282426 86.0201821,190.779591 85.9553666,191.328059 C85.8905511,191.876527 85.3933864,192.268605 84.8449181,192.20379 C83.199214,192.009308 81.5442845,191.811601 79.8801295,191.610669 C79.331827,191.544466 78.9410078,191.046312 79.0072105,190.498009 C79.0734131,189.949707 79.5715679,189.558887 80.1198705,189.62509 Z" fill="#D22A80" fill-rule="nonzero"></path>
                <text id="&quot;Book&quot;" font-family="iAWriterQuattroS-Regular, iA Writer Quattro S" font-size="16" font-weight="normal" line-spacing="24" letter-spacing="0.2526316" fill="#000000">
                    <tspan x="465" y="65">"Book"</tspan>
                </text>
                <text id="&quot;Author&quot;" font-family="iAWriterQuattroS-Regular, iA Writer Quattro S" font-size="16" font-weight="normal" line-spacing="24" letter-spacing="0.2526316" fill="#000000">
                    <tspan x="482" y="174">"Author"</tspan>
                </text>
            </g>
        </g>
    </g>
</svg>