<?xml version="1.0" encoding="UTF-8"?>
<svg width="466px" height="322px" viewBox="0 0 466 322" version="1.1" xmlns="http://www.w3.org/2000/svg" xmlns:xlink="http://www.w3.org/1999/xlink">
    <!-- Generator: Sketch 59 (86127) - https://sketch.com -->
    <title>normalised-cache-data</title>
    <desc>Created with Sketch.</desc>
    <g id="Page-1" stroke="none" stroke-width="1" fill="none" fill-rule="evenodd">
        <g id="Slide-10" transform="translate(-171.000000, -183.000000)">
            <g id="normalised-cache-data" transform="translate(173.000000, 183.000000)">
                <rect id="Rectangle" stroke="#F09A64" stroke-width="3" opacity="0.3" x="137" y="85" width="97" height="41" rx="4"></rect>
                <rect id="Rectangle" stroke="#F09A64" stroke-width="3" opacity="0.3" x="258" y="85" width="97" height="41" rx="4"></rect>
                <rect id="Rectangle" stroke="#F09A64" stroke-width="3" opacity="0.3" x="0" y="85" width="97" height="41" rx="4"></rect>
                <rect id="Rectangle" fill="#B19CFE" opacity="0.3" x="89" y="0" width="97" height="41" rx="4"></rect>
                <rect id="Rectangle" fill="#B19CFE" opacity="0.3" x="234" y="0" width="97" height="41" rx="4"></rect>
                <rect id="Rectangle" stroke="#F09A64" stroke-width="3" opacity="0.3" x="89" y="170" width="97" height="41" rx="4"></rect>
                <rect id="Rectangle" stroke="#F09A64" stroke-width="3" opacity="0.3" x="113" y="255" width="97" height="41" rx="4"></rect>
                <rect id="Rectangle" stroke="#F09A64" stroke-width="3" opacity="0.3" x="234" y="173" width="97" height="41" rx="4"></rect>
                <text id="Query-A" font-family="NeueHaasUnicaW1G-Medium, Neue Haas Unica W1G" font-size="18" font-weight="400" line-spacing="24" letter-spacing="0.284210515" fill="#000000">
                    <tspan x="94.4572632" y="29.11">Query A</tspan>
                </text>
                <text id="Query-B" font-family="NeueHaasUnicaW1G-Medium, Neue Haas Unica W1G" font-size="18" font-weight="400" line-spacing="24" letter-spacing="0.284210515" fill="#000000">
                    <tspan x="239.898263" y="29.11">Query B</tspan>
                </text>
                <text id="Entities" font-family="NeueHaasUnicaW1G-Medium, Neue Haas Unica W1G" font-size="18" font-weight="400" line-spacing="24" letter-spacing="0.284210515" fill="#000000">
                    <tspan x="400" y="203">Entities</tspan>
                </text>
                <path d="M348,69.6254218 L348,65 L348.36,65 C366.36,65 374.82,78.2980877 374.82,108.074241 L374.82,158.375703 L374.825824,159.751288 C374.981689,177.820842 378.288293,185.098796 387.42,190.175478 L387.42,196.535433 L386.746002,196.920446 C377.903879,202.112561 374.82,209.720706 374.82,228.335208 L374.82,278.925759 C374.82,308.404151 366.528354,321.73239 348.897139,321.996007 L348,322 L348,317.374578 C364.92,317.374578 371.94,306.100112 371.94,278.925759 L371.94,228.335208 L371.945654,226.938726 C372.095281,208.772427 375.244444,199.283562 384.9,193.644544 L384.9,193.066367 C375,187.284589 371.94,177.455568 371.94,158.375703 L371.94,108.074241 C371.94,80.8998875 364.92,69.6254218 348,69.6254218 Z" id="}" fill="#ACACAC" fill-rule="nonzero"></path>
                <path id="Path-2" d="M56.94887,73.1993271 C57.3613991,72.9930625 57.8630303,73.160273 58.0692949,73.572802 L58.0692949,73.572802 L60.379,78.192 L63.8906223,76.4366549 C64.3493166,76.2073077 64.9000077,76.3635682 65.174091,76.7825681 L65.2322631,76.8838685 C65.4792523,77.377847 65.279028,77.97852 64.7850495,78.2255093 L64.7850495,78.2255093 L61.273,79.98 L63.5832535,84.6007193 C63.6219069,84.6780262 63.6482071,84.7606249 63.6614457,84.8455152 L63.671419,84.9741942 C63.671419,85.4354157 63.2975251,85.8093096 62.8363036,85.8093096 L62.8363036,85.8093096 L49.051407,85.8093096 C48.8707129,85.8093096 48.6948931,85.750703 48.5503378,85.6422865 C48.1813606,85.3655536 48.1065818,84.8421022 48.3833147,84.473125 L48.3833147,84.473125 L56.6542527,73.4452077 C56.7320412,73.3414897 56.8329097,73.2573072 56.94887,73.1993271 Z M73.7293214,71.5173053 C74.2232999,71.2703161 74.8239729,71.4705404 75.0709622,71.9645189 C75.3179514,72.4584974 75.1177271,73.0591705 74.6237486,73.3061597 L74.6237486,73.3061597 L70.1516126,75.5422277 C69.6576341,75.7892169 69.0569611,75.5889926 68.8099718,75.0950141 C68.5629826,74.6010356 68.7632069,74.0003626 69.2571854,73.7533733 L69.2571854,73.7533733 Z M83.5680205,66.5979558 C84.061999,66.3509665 84.662672,66.5511909 84.9096613,67.0451694 C85.1566505,67.5391479 84.9564262,68.1398209 84.4624477,68.3868102 L84.4624477,68.3868102 L79.9903117,70.6228781 C79.4963332,70.8698674 78.8956602,70.669643 78.6486709,70.1756645 C78.4016817,69.681686 78.601906,69.081013 79.0958845,68.8340238 L79.0958845,68.8340238 Z M93.4067196,61.6786062 C93.9006981,61.431617 94.5013711,61.6318413 94.7483604,62.1258198 C94.9953496,62.6197983 94.7951253,63.2204714 94.3011468,63.4674606 L94.3011468,63.4674606 L89.8290108,65.7035286 C89.3350323,65.9505178 88.7343593,65.7502935 88.48737,65.256315 C88.2403808,64.7623365 88.4406051,64.1616635 88.9345836,63.9146742 L88.9345836,63.9146742 Z M103.245419,56.7592567 C103.739397,56.5122674 104.34007,56.7124918 104.587059,57.2064703 C104.834049,57.7004488 104.633824,58.3011218 104.139846,58.5481111 L104.139846,58.5481111 L99.6677099,60.784179 C99.1737314,61.0311683 98.5730584,60.8309439 98.3260691,60.3369654 C98.0790799,59.8429869 98.2793042,59.2423139 98.7732827,58.9953247 L98.7732827,58.9953247 Z M113.084118,51.8399071 C113.578096,51.5929179 114.178769,51.7931422 114.425759,52.2871207 C114.672748,52.7810992 114.472523,53.3817723 113.978545,53.6287615 L113.978545,53.6287615 L109.506409,55.8648295 C109.012431,56.1118187 108.411757,55.9115944 108.164768,55.4176159 C107.917779,54.9236374 108.118003,54.3229644 108.611982,54.0759751 L108.611982,54.0759751 Z M122.922817,46.9205576 C123.416795,46.6735683 124.017468,46.8737927 124.264458,47.3677712 C124.511447,47.8617497 124.311223,48.4624227 123.817244,48.709412 L123.817244,48.709412 L119.345108,50.9454799 C118.85113,51.1924692 118.250457,50.9922448 118.003467,50.4982663 C117.756478,50.0042878 117.956702,49.4036148 118.450681,49.1566256 L118.450681,49.1566256 Z M133.869505,34.7390097 C137.327354,33.0100849 141.532066,34.4116553 143.26099,37.8695048 C144.989915,41.3273543 143.588345,45.5320656 140.130495,47.2609903 C136.976412,48.8380321 133.200923,47.8104366 131.249793,44.9934578 L129.183807,46.0261304 C128.689829,46.2731196 128.089156,46.0728953 127.842166,45.5789168 C127.595177,45.0849383 127.795402,44.4842653 128.28938,44.237276 L128.28938,44.237276 L130.355236,43.2044716 C129.272092,39.9532832 130.715298,36.316113 133.869505,34.7390097 Z" fill="#D22A80" fill-rule="nonzero"></path>
                <path id="Path-2" d="M185.828391,71.6897616 C186.247162,71.4964829 186.743325,71.6792801 186.936604,72.0980505 L186.936604,72.0980505 L192.713278,84.6141767 C192.788999,84.7782396 192.809465,84.9624365 192.771605,85.1391196 C192.674965,85.5901031 192.231029,85.8773558 191.780046,85.7807165 L191.780046,85.7807165 L178.301141,82.8923796 C178.174371,82.8652147 178.055667,82.8089075 177.954429,82.7279174 C177.594276,82.4397946 177.535883,81.9142629 177.824006,81.5541094 L177.824006,81.5541094 L181.05,77.521 L178.00672,75.0860006 C177.608632,74.7675302 177.518432,74.2068307 177.77827,73.7832545 L177.850546,73.6804367 C178.195555,73.2491748 178.824848,73.1792534 179.25611,73.524263 L179.25611,73.524263 L182.3,75.959 L185.526238,71.92632 C185.58698,71.8503917 185.660356,71.7858523 185.742908,71.7354077 Z M169.260989,66.8087912 C169.605999,66.3775293 170.235291,66.3076079 170.666553,66.6526174 L170.666553,66.6526174 L174.570897,69.7760927 C175.002159,70.1211022 175.07208,70.7503946 174.727071,71.1816565 C174.382061,71.6129185 173.752769,71.6828398 173.321507,71.3378303 L173.321507,71.3378303 L169.417163,68.2143551 C168.985901,67.8693455 168.915979,67.2400531 169.260989,66.8087912 Z M160.671432,59.9371457 C161.016442,59.5058837 161.645734,59.4359624 162.076996,59.7809719 L162.076996,59.7809719 L165.98134,62.9044472 C166.412602,63.2494567 166.482523,63.8787491 166.137514,64.310011 C165.792504,64.7412729 165.163212,64.8111943 164.73195,64.4661848 L164.73195,64.4661848 L160.827606,61.3427095 C160.396344,60.9977 160.326423,60.3684076 160.671432,59.9371457 Z M152.081875,53.0655002 C152.426885,52.6342382 153.056177,52.5643168 153.487439,52.9093264 L153.487439,52.9093264 L157.391783,56.0328016 C157.823045,56.3778112 157.892966,57.0071036 157.547957,57.4383655 C157.202947,57.8696274 156.573655,57.9395488 156.142393,57.5945392 L156.142393,57.5945392 L152.238049,54.471064 C151.806787,54.1260545 151.736866,53.4967621 152.081875,53.0655002 Z M143.492318,46.1938546 C143.837328,45.7625927 144.46662,45.6926713 144.897882,46.0376809 L144.897882,46.0376809 L148.802226,49.1611561 C149.233488,49.5061657 149.30341,50.135458 148.9584,50.56672 C148.61339,50.9979819 147.984098,51.0679033 147.552836,50.7228937 L147.552836,50.7228937 L143.648492,47.5994185 C143.21723,47.2544089 143.147309,46.6251166 143.492318,46.1938546 Z M131.533918,36.6271347 C133.948985,33.6083011 138.354032,33.1188515 141.372865,35.5339183 C144.391699,37.9489852 144.881149,42.3540318 142.466082,45.3728653 C140.051015,48.3916989 135.645968,48.8811485 132.627135,46.4660817 C129.608301,44.0510148 129.118851,39.6459682 131.533918,36.6271347 Z" fill="#D22A80" fill-rule="nonzero"></path>
                <path id="Path-2" d="M142.368845,156.459187 C142.708092,156.146718 143.236412,156.168426 143.548881,156.507673 L143.548881,156.507673 L147.047,160.306 L149.949329,157.634329 C150.324309,157.288948 150.8922,157.284529 151.271638,157.605402 L151.362351,157.692388 C151.736513,158.098616 151.710519,158.731247 151.304292,159.105409 L151.304292,159.105409 L148.402,161.777 L151.901944,165.576578 C151.9605,165.640152 152.008652,165.712233 152.044888,165.790134 L152.090117,165.911014 C152.217882,166.354186 151.962194,166.817022 151.519022,166.944787 L151.519022,166.944787 L138.273585,170.763397 C138.099963,170.813452 137.914788,170.805844 137.745857,170.741714 C137.314661,170.578023 137.097805,170.095771 137.261496,169.664574 L137.261496,169.664574 L142.15387,156.777059 C142.199883,156.655851 142.273484,156.547021 142.368845,156.459187 Z M158.04027,150.182036 C158.446498,149.807873 159.079129,149.833867 159.453292,150.240095 C159.827454,150.646322 159.80146,151.278953 159.395233,151.653116 L159.395233,151.653116 L155.717532,155.040522 C155.311305,155.414685 154.678674,155.388691 154.304511,154.982463 C153.930348,154.576236 153.956342,153.943604 154.36257,153.569442 L154.36257,153.569442 Z M166.131211,142.729742 C166.537439,142.35558 167.17007,142.381574 167.544232,142.787801 C167.918395,143.194029 167.892401,143.82666 167.486173,144.200822 L167.486173,144.200822 L163.808473,147.588229 C163.402246,147.962391 162.769614,147.936397 162.395452,147.53017 C162.021289,147.123942 162.047283,146.491311 162.453511,146.117148 L162.453511,146.117148 Z M174.222152,135.277449 C174.628379,134.903286 175.26101,134.92928 175.635173,135.335508 C176.009336,135.741735 175.983342,136.374366 175.577114,136.748529 L175.577114,136.748529 L171.899414,140.135935 C171.493186,140.510098 170.860555,140.484104 170.486393,140.077876 C170.11223,139.671649 170.138224,139.039017 170.544451,138.664855 L170.544451,138.664855 Z M181.257631,120.640034 C184.101224,118.020896 188.529643,118.202853 191.14878,121.046445 C193.767918,123.890038 193.585962,128.318457 190.742369,130.937595 C188.148711,133.326525 184.236579,133.385122 181.581469,131.219208 L179.990355,132.683642 C179.584127,133.057804 178.951496,133.03181 178.577333,132.625583 C178.203171,132.219355 178.229165,131.586724 178.635392,131.212561 L178.635392,131.212561 L180.225521,129.747094 C178.284617,126.923234 178.66393,123.029005 181.257631,120.640034 Z" fill="#D22A80" fill-rule="nonzero"></path>
                <path id="Path-2" d="M261.088366,155.345216 C261.455246,155.065709 261.979247,155.136538 262.258754,155.503418 L262.258754,155.503418 L270.612614,166.468654 C270.722118,166.612388 270.782048,166.787761 270.783411,166.96845 C270.786889,167.429658 270.415825,167.806361 269.954617,167.809838 L269.954617,167.809838 L256.170112,167.913785 C256.040468,167.914763 255.912377,167.885543 255.795983,167.828438 C255.38191,167.625291 255.210922,167.124934 255.41407,166.710862 L255.41407,166.710862 L257.689,162.073 L254.169847,160.347445 C253.709437,160.121563 253.500007,159.588818 253.667203,159.116877 L253.71253,159.009215 C253.955787,158.513388 254.554933,158.30864 255.05076,158.551897 L255.05076,158.551897 L258.569,160.278 L260.844714,155.641679 C260.887542,155.554384 260.945173,155.475466 261.014819,155.408317 Z M243.837015,154.164195 C244.080272,153.668368 244.679419,153.46362 245.175246,153.706877 L245.175246,153.706877 L249.664116,155.909159 C250.159943,156.152416 250.364691,156.751562 250.121433,157.247389 C249.878176,157.743216 249.27903,157.947964 248.783203,157.704707 L248.783203,157.704707 L244.294333,155.502425 C243.798506,155.259168 243.593758,154.660022 243.837015,154.164195 Z M233.961501,149.319175 C234.204758,148.823348 234.803904,148.6186 235.299731,148.861857 L235.299731,148.861857 L239.788601,151.064139 C240.284428,151.307396 240.489176,151.906543 240.245919,152.402369 C240.002662,152.898196 239.403516,153.102944 238.907689,152.859687 L238.907689,152.859687 L234.418819,150.657405 C233.922992,150.414148 233.718244,149.815002 233.961501,149.319175 Z M224.085986,144.474155 C224.329244,143.978328 224.92839,143.77358 225.424217,144.016838 L225.424217,144.016838 L229.913087,146.219119 C230.408914,146.462377 230.613662,147.061523 230.370405,147.55735 C230.127147,148.053177 229.528001,148.257925 229.032174,148.014667 L229.032174,148.014667 L224.543304,145.812386 C224.047477,145.569128 223.842729,144.969982 224.085986,144.474155 Z M214.210472,139.629136 C214.453729,139.133309 215.052876,138.928561 215.548702,139.171818 L215.548702,139.171818 L220.037573,141.3741 C220.5334,141.617357 220.738148,142.216503 220.49489,142.71233 C220.251633,143.208157 219.652487,143.412905 219.15666,143.169648 L219.15666,143.169648 L214.66779,140.967366 C214.171963,140.724109 213.967215,140.124963 214.210472,139.629136 Z M204.334958,134.784116 C204.578215,134.288289 205.177361,134.083541 205.673188,134.326798 L205.673188,134.326798 L210.162058,136.52908 C210.657885,136.772337 210.862633,137.371483 210.619376,137.86731 C210.376119,138.363137 209.776973,138.567885 209.281146,138.324628 L209.281146,138.324628 L204.792275,136.122346 C204.296449,135.879089 204.0917,135.279943 204.334958,134.784116 Z M194.459443,129.939096 C194.702701,129.443269 195.301847,129.238521 195.797674,129.481778 L195.797674,129.481778 L200.286544,131.68406 C200.782371,131.927317 200.987119,132.526464 200.743862,133.022291 C200.500604,133.518117 199.901458,133.722866 199.405631,133.479608 L199.405631,133.479608 L194.916761,131.277327 C194.420934,131.034069 194.216186,130.434923 194.459443,129.939096 Z M179.715582,122.70562 C181.418383,119.234831 185.612406,117.801595 189.083194,119.504396 C192.553983,121.207197 193.987219,125.40122 192.284418,128.872008 C190.581617,132.342797 186.387594,133.776034 182.916806,132.073232 C179.446017,130.370431 178.012781,126.176408 179.715582,122.70562 Z" fill="#D22A80" fill-rule="nonzero"></path>
                <path id="Path-2" d="M153.307872,239.026189 C153.792986,238.762214 154.400243,238.941484 154.664217,239.426598 L154.664217,239.426598 L156.559,242.907 L161.095137,240.439371 C161.171057,240.398059 161.252693,240.36891 161.337073,240.352735 L161.465329,240.338304 C161.926273,240.322307 162.312911,240.683007 162.328908,241.143951 L162.328908,241.143951 L162.80704,254.920553 C162.813307,255.101138 162.760834,255.278885 162.657497,255.427114 C162.393728,255.805468 161.873186,255.898357 161.494832,255.634589 L161.494832,255.634589 L150.186671,247.751133 C150.080318,247.676989 149.992687,247.579101 149.93072,247.465221 C149.710271,247.060095 149.859981,246.552966 150.265108,246.332517 L150.265108,246.332517 L154.802,243.864 L152.907462,240.382534 C152.662343,239.932071 152.799409,239.376291 153.20865,239.087839 Z M148.050225,229.364038 C148.53534,229.100064 149.142596,229.279333 149.406571,229.764448 L149.406571,229.764448 L151.79641,234.156334 C152.060384,234.641449 151.881115,235.248705 151.396,235.512679 C150.910886,235.776654 150.30363,235.597384 150.039655,235.11227 L150.039655,235.11227 L147.649816,230.720383 C147.385842,230.235269 147.565111,229.628013 148.050225,229.364038 Z M142.792579,219.701888 C143.277693,219.437913 143.88495,219.617183 144.148924,220.102297 L144.148924,220.102297 L146.538763,224.494184 C146.802738,224.979298 146.623468,225.586555 146.138354,225.850529 C145.65324,226.114503 145.045983,225.935234 144.782009,225.450119 L144.782009,225.450119 L142.392169,221.058233 C142.128195,220.573118 142.307464,219.965862 142.792579,219.701888 Z M134.654225,204.745766 C138.050026,202.897945 142.300821,204.152831 144.148641,207.548632 C145.996462,210.944433 144.741576,215.195228 141.345775,217.043048 C137.949974,218.890869 133.699179,217.635983 131.851359,214.240182 C130.003538,210.844381 131.258424,206.593586 134.654225,204.745766 Z" fill="#D22A80" fill-rule="nonzero"></path>
                <path id="Path-2" d="M290.812112,151.6271 C291.090448,151.15008 291.702784,150.989015 292.179804,151.26735 C292.656824,151.545685 292.817889,152.158021 292.539554,152.635041 L292.539554,152.635041 L290.527,156.083 L294.98819,158.686516 C295.072174,158.73552 295.146737,158.798685 295.208695,158.872986 L295.266335,158.950887 C295.518694,159.336944 295.41031,159.854483 295.024252,160.106842 L295.024252,160.106842 L283.485846,167.649291 C283.334599,167.748158 283.155365,167.795303 282.975047,167.783649 C282.514786,167.753901 282.165786,167.356671 282.195533,166.89641 L282.195533,166.89641 L283.084618,153.140215 C283.09298,153.010837 283.131349,152.885183 283.196688,152.773204 C283.42913,152.374837 283.940501,152.240329 284.338868,152.472771 L284.338868,152.472771 L288.8,155.075 Z M296.355786,142.12617 C296.634121,141.64915 297.246457,141.488084 297.723477,141.766419 C298.200497,142.044754 298.361563,142.65709 298.083228,143.13411 L298.083228,143.13411 L295.563376,147.452715 C295.285041,147.929735 294.672705,148.090801 294.195685,147.812466 C293.718665,147.534131 293.557599,146.921794 293.835934,146.444775 L293.835934,146.444775 Z M301.89946,132.625239 C302.177795,132.148219 302.790131,131.987153 303.267151,132.265488 C303.744171,132.543824 303.905237,133.15616 303.626902,133.63318 L303.626902,133.63318 L301.10705,137.951785 C300.828715,138.428805 300.216379,138.58987 299.739359,138.311535 C299.262339,138.0332 299.101273,137.420864 299.379608,136.943844 L299.379608,136.943844 Z M300.953953,122.340216 C302.902299,119.001077 307.188653,117.873616 310.527792,119.821962 C313.866932,121.770308 314.994393,126.056662 313.046047,129.395801 C311.097701,132.734941 306.811347,133.862401 303.472208,131.914056 C300.133068,129.96571 299.005607,125.679356 300.953953,122.340216 Z" fill="#D22A80" fill-rule="nonzero"></path>
                <path id="Path-2" d="M298.314121,69.0233427 C298.799335,68.7595511 299.406524,68.9390493 299.670315,69.4242631 L299.670315,69.4242631 L301.563,72.906 L306.100621,70.4390307 C306.176557,70.3977478 306.258204,70.3686292 306.342591,70.3524859 L306.470852,70.3381037 C306.931802,70.3222798 307.318303,70.6831257 307.334127,71.1440757 L307.334127,71.1440757 L307.807069,84.9208569 C307.813269,85.1014446 307.760729,85.2791716 307.657336,85.4273614 C307.393425,85.8056158 306.872847,85.8983095 306.494593,85.6343986 L306.494593,85.6343986 L295.189403,77.7466837 C295.083077,77.6724994 294.995483,77.5745785 294.933559,77.4606757 C294.713262,77.0554662 294.863164,76.5483935 295.268373,76.328097 L295.268373,76.328097 L299.806,73.861 L297.913201,70.379537 C297.668251,69.9289813 297.805526,69.3732533 298.214876,69.084956 Z M293.060114,59.3592125 C293.545328,59.0954209 294.152517,59.274919 294.416309,59.7601328 L294.416309,59.7601328 L296.804494,64.1529193 C297.068285,64.6381331 296.888787,65.2453219 296.403573,65.5091135 C295.918359,65.7729052 295.311171,65.593407 295.047379,65.1081932 L295.047379,65.1081932 L292.659194,60.7154067 C292.395403,60.2301929 292.574901,59.6230041 293.060114,59.3592125 Z M287.806108,49.6950822 C288.291322,49.4312906 288.89851,49.6107888 289.162302,50.0960025 L289.162302,50.0960025 L291.550487,54.488789 C291.814279,54.9740028 291.63478,55.5811917 291.149567,55.8449833 C290.664353,56.1087749 290.057164,55.9292768 289.793372,55.444063 L289.793372,55.444063 L287.405187,51.0512765 C287.141396,50.5660627 287.320894,49.9588738 287.806108,49.6950822 Z M279.656541,34.7049086 C283.053038,32.8583673 287.30336,34.1148543 289.149901,37.5113508 C290.996442,40.9078474 289.739955,45.1581694 286.343459,47.0047107 C282.946962,48.851252 278.69664,47.594765 276.850099,44.1982685 C275.003558,40.8017719 276.260045,36.5514499 279.656541,34.7049086 Z" fill="#D22A80" fill-rule="nonzero"></path>
            </g>
        </g>
    </g>
</svg>