<?xml version="1.0" encoding="UTF-8"?>
<svg width="647px" height="338px" viewBox="0 0 647 338" version="1.1" xmlns="http://www.w3.org/2000/svg" xmlns:xlink="http://www.w3.org/1999/xlink">
    <!-- Generator: Sketch 59 (86127) - https://sketch.com -->
    <title>operation-metadata</title>
    <desc>Created with Sketch.</desc>
    <g id="Page-1" stroke="none" stroke-width="1" fill="none" fill-rule="evenodd">
        <g id="Slide-5" transform="translate(-85.000000, -215.000000)">
            <g id="Group" transform="translate(104.000000, 224.000000)">
                <path d="M24.304,93.352 L17.528,93.352 C11.032,93.352 8.344,89.824 8.344,85.848 C8.344,81.984 9.352,77.448 9.352,73.976 C9.352,70.336 7.672,67.76 2.296,67.76 L2.296,61.152 C7.672,61.096 9.408,58.912 9.408,55.552 C9.408,52.36 8.344,50.68 8.344,47.152 C8.344,43.176 11.704,39.76 17.36,39.76 L24.304,39.76 L24.304,46.368 C18.422963,45.9832593 16.4259753,47.6484335 16.5128681,50.8340612 L16.52,51.016 C16.576,52.752 17.248,55.44 17.248,57.512 C17.248,60.872 15.512,63.672 11.2,64.12 C15.68,64.512 17.248,67.704 17.248,71.288 C17.248,74.368 16.52,78.736 16.464,81.872 C16.296,85.232 18.256,87.024 24.304,86.632 L24.304,93.352 Z" id="{" fill="#F4B8C6" fill-rule="nonzero" opacity="0.72" style="mix-blend-mode: screen;"></path>
                <text id="&quot;url&quot;:" font-family="iAWriterQuattroS-Bold, iA Writer Quattro S" font-size="22" font-weight="bold" letter-spacing="0.3473684" fill="#F0647D">
                    <tspan x="36" y="79">"url":</tspan>
                </text>
                <text id="..." font-family="iAWriterQuattroS-Bold, iA Writer Quattro S" font-size="22" font-weight="bold" letter-spacing="0.3473684" fill="#F0647D">
                    <tspan x="36" y="309">...</tspan>
                </text>
                <text id="string" font-family="iAWriterQuattroS-Bold, iA Writer Quattro S" font-size="22" font-weight="bold" letter-spacing="0.3473684" fill="#F09A64">
                    <tspan x="257" y="79">string</tspan>
                </text>
                <line x1="39" y1="92" x2="608" y2="92" id="Line" stroke="#ACACAC" stroke-width="2" opacity="0.5" stroke-linecap="square"></line>
                <line x1="39" y1="133" x2="608" y2="133" id="Line" stroke="#ACACAC" stroke-width="2" opacity="0.5" stroke-linecap="square"></line>
                <line x1="39" y1="202" x2="608" y2="202" id="Line" stroke="#ACACAC" stroke-width="2" opacity="0.5" stroke-linecap="square"></line>
                <line x1="39" y1="272" x2="608" y2="272" id="Line" stroke="#ACACAC" stroke-width="2" opacity="0.5" stroke-linecap="square"></line>
                <text id="&quot;fetchOptions&quot;:" font-family="iAWriterQuattroS-Bold, iA Writer Quattro S" font-size="22" font-weight="bold" letter-spacing="0.3473684" fill="#F0647D">
                    <tspan x="36" y="120">"fetchOptions":</tspan>
                </text>
                <text id="Object" font-family="iAWriterQuattroS-Bold, iA Writer Quattro S" font-size="22" font-weight="bold" letter-spacing="0.3473684" fill="#F09A64">
                    <tspan x="257" y="120">Object</tspan>
                </text>
                <text id="&quot;fetch&quot;:" font-family="iAWriterQuattroS-Bold, iA Writer Quattro S" font-size="22" font-weight="bold" letter-spacing="0.3473684" fill="#F0647D">
                    <tspan x="36" y="161">"fetch":</tspan>
                </text>
                <text id="fetch-Polyfill" font-family="iAWriterQuattroS-Bold, iA Writer Quattro S" font-size="22" font-weight="bold" letter-spacing="0.3473684" fill="#F09A64">
                    <tspan x="257" y="161">fetch Polyfill</tspan>
                </text>
                <text id="&quot;requestPolicy&quot;:" font-family="iAWriterQuattroS-Bold, iA Writer Quattro S" font-size="22" font-weight="bold" letter-spacing="0.3473684" fill="#F0647D">
                    <tspan x="36" y="230">"requestPolicy":</tspan>
                </text>
                <text id="'cache-first'-|-'net" font-family="iAWriterQuattroS-Bold, iA Writer Quattro S" font-size="22" font-weight="bold" letter-spacing="0.3473684">
                    <tspan x="257" y="230" fill="#F09A64">'cache-first' |</tspan>
                    <tspan x="257" y="259" fill="#F09A64">'network-only' </tspan>
                    <tspan x="450.310526" y="259" fill="#ACACAC">...</tspan>
                </text>
                <text id="Operation-Context" opacity="0.9" font-family="NeueHaasUnicaW1G-Bold, Neue Haas Unica W1G" font-size="19" font-weight="bold" letter-spacing="0.3" fill="#000000">
                    <tspan x="0" y="22">Operation Context</tspan>
                </text>
            </g>
        </g>
    </g>
</svg>