<?xml version="1.0" encoding="UTF-8"?>
<svg width="671px" height="275px" viewBox="0 0 671 275" version="1.1" xmlns="http://www.w3.org/2000/svg" xmlns:xlink="http://www.w3.org/1999/xlink">
    <!-- Generator: Sketch 59 (86127) - https://sketch.com -->
    <title>operation-flow</title>
    <desc>Created with Sketch.</desc>
    <g id="Page-1" stroke="none" stroke-width="1" fill="none" fill-rule="evenodd">
        <g id="Slide-10" transform="translate(-88.000000, -228.000000)">
            <g id="Group-3" transform="translate(107.000000, 248.000000)">
                <path id="Path-2" d="M96.9964022,82.0000009 C97.5486869,81.9997171 97.9966322,82.4472021 97.996916,82.9994868 L97.996916,82.9994868 L97.999,87.999 L101.999485,87.9974303 C102.512321,87.9971667 102.935191,88.3829896 102.993212,88.8802985 L102.999999,88.9969162 C103.000283,89.5492009 102.552798,89.9971462 102.000513,89.99743 L102.000513,89.99743 L98,89.999 L98.0030837,94.9994852 C98.0033473,95.512321 97.6175244,95.9351907 97.1202154,95.9932114 L97.0035978,95.9999991 C96.4513131,96.0002829 96.0033678,95.5527979 96.003084,95.0005132 L96.003084,95.0005132 L95.9969163,83.0005148 C95.9966325,82.4482301 96.4441175,82.0002848 96.9964022,82.0000009 Z M156.609297,81.9693617 C156.738945,81.969295 156.866827,81.9994146 156.982817,82.0573352 L156.982817,82.0573352 L169.31557,88.2157905 C169.728205,88.421843 169.895674,88.9233882 169.689621,89.3360232 C169.608895,89.4976824 169.477914,89.6287982 169.316338,89.7096901 L169.316338,89.7096901 L156.989922,95.8808195 C156.577499,96.087296 156.075782,95.9203434 155.869305,95.5079204 C155.811266,95.39199 155.781015,95.2641384 155.780948,95.1344909 L155.780948,95.1344909 L155.777,89.969 L152.000507,89.9717315 C151.487671,89.9719951 151.064801,89.5861722 151.006781,89.0888633 L150.999993,88.9722456 C150.999709,88.4199609 151.447194,87.9720156 151.999479,87.9717318 L151.999479,87.9717318 L155.777,87.969 L155.774611,82.8049061 C155.774392,82.3791633 156.092796,82.027666 156.504545,81.9759222 Z M112.999484,87.9917766 C113.551769,87.9914928 113.999714,88.4389778 113.999998,88.9912625 C114.000282,89.5435472 113.552797,89.9914925 113.000512,89.9917763 L113.000512,89.9917763 L108.000513,89.9943462 C107.448228,89.9946301 107.000283,89.547145 106.999999,88.9948603 C106.999715,88.4425756 107.4472,87.9946303 107.999485,87.9943465 L107.999485,87.9943465 Z M123.999482,87.9861229 C124.551767,87.9858391 124.999712,88.4333242 124.999996,88.9856088 C125.00028,89.5378935 124.552795,89.9858388 124.00051,89.9861227 L124.00051,89.9861227 L119.000511,89.9886925 C118.448226,89.9889764 118.000281,89.5414913 117.999997,88.9892066 C117.999713,88.436922 118.447198,87.9889766 118.999483,87.9886928 L118.999483,87.9886928 Z M134.999481,87.9804693 C135.551766,87.9801854 135.999711,88.4276705 135.999995,88.9799552 C136.000279,89.5322398 135.552794,89.9801851 135.000509,89.980469 L135.000509,89.980469 L130.00051,89.9830389 C129.448225,89.9833227 129.00028,89.5358376 128.999996,88.983553 C128.999712,88.4312683 129.447197,87.983323 129.999482,87.9830391 L129.999482,87.9830391 Z M145.99948,87.9748156 C146.551764,87.9745317 146.99971,88.4220168 146.999993,88.9743015 C147.000277,89.5265862 146.552792,89.9745315 146.000507,89.9748153 L146.000507,89.9748153 L141.000508,89.9773852 C140.448223,89.977669 140.000278,89.530184 139.999994,88.9778993 C139.99971,88.4256146 140.447196,87.9776693 140.99948,87.9773854 L140.99948,87.9773854 Z" fill="#D22A80" fill-rule="nonzero"></path>
                <path id="Path-2" d="M200,82 C203.526469,82 206.443877,84.6077016 206.92911,87.9999918 L211,88 C211.552285,88 212,88.4477153 212,89 C212,89.5522847 211.552285,90 211,90 L211,90 L206.928967,90.0010101 C206.443302,93.3928118 203.526122,96 200,96 C196.134007,96 193,92.8659932 193,89 C193,85.1340068 196.134007,82 200,82 Z M345.612893,82 C345.742541,82 345.870408,82.0301853 345.986368,82.0881655 L345.986368,82.0881655 L358.315954,88.2529586 C358.728483,88.4592232 358.895694,88.9608544 358.689429,89.3733835 C358.608621,89.5350012 358.477572,89.6660496 358.315954,89.7468584 L358.315954,89.7468584 L345.986368,95.9116516 C345.573839,96.1179161 345.072208,95.9507057 344.865943,95.5381766 C344.807963,95.4222163 344.777778,95.2943493 344.777778,95.1647017 L344.777778,95.1647017 L344.777778,82.8351154 C344.777778,82.3738939 345.151672,82 345.612893,82 Z M222,88 C222.552285,88 223,88.4477153 223,89 C223,89.5522847 222.552285,90 222,90 L222,90 L217,90 C216.447715,90 216,89.5522847 216,89 C216,88.4477153 216.447715,88 217,88 L217,88 Z M233,88 C233.552285,88 234,88.4477153 234,89 C234,89.5522847 233.552285,90 233,90 L233,90 L228,90 C227.447715,90 227,89.5522847 227,89 C227,88.4477153 227.447715,88 228,88 L228,88 Z M244,88 C244.552285,88 245,88.4477153 245,89 C245,89.5522847 244.552285,90 244,90 L244,90 L239,90 C238.447715,90 238,89.5522847 238,89 C238,88.4477153 238.447715,88 239,88 L239,88 Z M255,88 C255.552285,88 256,88.4477153 256,89 C256,89.5522847 255.552285,90 255,90 L255,90 L250,90 C249.447715,90 249,89.5522847 249,89 C249,88.4477153 249.447715,88 250,88 L250,88 Z M266,88 C266.552285,88 267,88.4477153 267,89 C267,89.5522847 266.552285,90 266,90 L266,90 L261,90 C260.447715,90 260,89.5522847 260,89 C260,88.4477153 260.447715,88 261,88 L261,88 Z M277,88 C277.552285,88 278,88.4477153 278,89 C278,89.5522847 277.552285,90 277,90 L277,90 L272,90 C271.447715,90 271,89.5522847 271,89 C271,88.4477153 271.447715,88 272,88 L272,88 Z M288,88 C288.552285,88 289,88.4477153 289,89 C289,89.5522847 288.552285,90 288,90 L288,90 L283,90 C282.447715,90 282,89.5522847 282,89 C282,88.4477153 282.447715,88 283,88 L283,88 Z M299,88 C299.552285,88 300,88.4477153 300,89 C300,89.5522847 299.552285,90 299,90 L299,90 L294,90 C293.447715,90 293,89.5522847 293,89 C293,88.4477153 293.447715,88 294,88 L294,88 Z M310,88 C310.552285,88 311,88.4477153 311,89 C311,89.5522847 310.552285,90 310,90 L310,90 L305,90 C304.447715,90 304,89.5522847 304,89 C304,88.4477153 304.447715,88 305,88 L305,88 Z M321,88 C321.552285,88 322,88.4477153 322,89 C322,89.5522847 321.552285,90 321,90 L321,90 L316,90 C315.447715,90 315,89.5522847 315,89 C315,88.4477153 315.447715,88 316,88 L316,88 Z M332,88 C332.552285,88 333,88.4477153 333,89 C333,89.5522847 332.552285,90 332,90 L332,90 L327,90 C326.447715,90 326,89.5522847 326,89 C326,88.4477153 326.447715,88 327,88 L327,88 Z M343,88 C343.552285,88 344,88.4477153 344,89 C344,89.5522847 343.552285,90 343,90 L343,90 L338,90 C337.447715,90 337,89.5522847 337,89 C337,88.4477153 337.447715,88 338,88 L338,88 Z" fill="#D22A80" fill-rule="nonzero"></path>
                <text id="Operation" opacity="0.9" font-family="NeueHaasUnicaW1G-Medium, Neue Haas Unica W1G" font-size="18" font-weight="400" letter-spacing="0.2842104" fill="#000000">
                    <tspan x="0.5601064" y="94">Operation</tspan>
                </text>
                <text id="Result" opacity="0.9" font-family="NeueHaasUnicaW1G-Medium, Neue Haas Unica W1G" font-size="18" font-weight="400" letter-spacing="0.2842104" fill="#000000">
                    <tspan x="30.9687376" y="206">Result</tspan>
                </text>
                <text id="fetch(...)" opacity="0.9" font-family="iAWriterQuattroS-BoldItalic, iA Writer Quattro S" font-size="16" font-style="italic" font-weight="bold" letter-spacing="0.252631467" fill="#D22A80">
                    <tspan x="332" y="153">fetch(...)</tspan>
                </text>
                <g id="Group" transform="translate(301.000000, 12.000000)">
                    <text id="fetch" opacity="0.9" font-family="iAWriterQuattroS-Bold, iA Writer Quattro S" font-size="18" font-weight="bold" letter-spacing="0.2842104" fill="#F0647D">
                        <tspan x="53.989474" y="18">fetch</tspan>
                    </text>
                    <rect id="Rectangle" stroke="#F09A64" stroke-width="3" opacity="0.3" x="7" y="0" width="141" height="217" rx="4"></rect>
                    <rect id="Rectangle" stroke="#F09A64" stroke-width="3" opacity="0.3" x="24" y="36" width="106" height="104" rx="4"></rect>
                </g>
                <g id="Group" transform="translate(488.000000, 14.000000)">
                    <text id="fallback" opacity="0.9" font-family="iAWriterQuattroS-Bold, iA Writer Quattro S" font-size="18" font-weight="bold" letter-spacing="0.2842104" fill="#F0647D">
                        <tspan x="32.9131584" y="18">fallback</tspan>
                    </text>
                    <rect id="Rectangle" stroke="#F09A64" stroke-width="3" opacity="0.3" x="0" y="0" width="141" height="215" rx="4"></rect>
                    <rect id="Rectangle" stroke="#F09A64" stroke-width="3" opacity="0.3" x="17" y="34" width="106" height="104" rx="4"></rect>
                </g>
                <g id="Group" transform="translate(129.000000, 10.000000)">
                    <text id="dedup" opacity="0.9" font-family="iAWriterQuattroS-Bold, iA Writer Quattro S" font-size="18" font-weight="bold" letter-spacing="0.2842104" fill="#F0647D">
                        <tspan x="42.789474" y="18">dedup</tspan>
                    </text>
                    <rect id="Rectangle" stroke="#F09A64" stroke-width="3" opacity="0.3" x="0" y="0" width="141" height="215" rx="4"></rect>
                    <rect id="Rectangle" stroke="#F09A64" stroke-width="3" opacity="0.3" x="17" y="34" width="106" height="104" rx="4"></rect>
                </g>
                <g id="Group-2" transform="translate(296.000000, 0.000000)">
                    <circle id="Oval" stroke="#D22A80" stroke-width="2" fill="#FFFFFF" cx="12" cy="13" r="12"></circle>
                    <text id="2" font-family="NeueHaasUnicaW1G-Medium, Neue Haas Unica W1G" font-size="16" font-weight="400" letter-spacing="0.2526315" fill="#000000">
                        <tspan x="7.72568425" y="19">2</tspan>
                    </text>
                </g>
                <g id="Group-2" transform="translate(494.000000, 38.000000)">
                    <circle id="Oval" stroke="#D22A80" stroke-width="2" fill="#FFFFFF" cx="12" cy="13" r="12"></circle>
                    <text id="2" font-family="NeueHaasUnicaW1G-Medium, Neue Haas Unica W1G" font-size="16" font-weight="400" letter-spacing="0.2526315" fill="#000000">
                        <tspan x="7.72568425" y="19">2</tspan>
                    </text>
                </g>
                <g id="Group-2" transform="translate(117.000000, 0.000000)">
                    <circle id="Oval" stroke="#D22A80" stroke-width="2" fill="#FFFFFF" cx="12" cy="13" r="12"></circle>
                    <text id="1" font-family="NeueHaasUnicaW1G-Medium, Neue Haas Unica W1G" font-size="16" font-weight="400" letter-spacing="0.2526315" fill="#000000">
                        <tspan x="7.72568425" y="19">1</tspan>
                    </text>
                </g>
                <g id="Group-2" transform="translate(314.000000, 38.000000)">
                    <circle id="Oval" stroke="#D22A80" stroke-width="2" fill="#FFFFFF" cx="12" cy="13" r="12"></circle>
                    <text id="1" font-family="NeueHaasUnicaW1G-Medium, Neue Haas Unica W1G" font-size="16" font-weight="400" letter-spacing="0.2526315" fill="#000000">
                        <tspan x="7.72568425" y="19">1</tspan>
                    </text>
                </g>
                <path id="Path-2" d="M383.587226,169.953862 C383.778897,169.435904 384.354166,169.171397 384.872124,169.363069 C385.390082,169.55474 385.654589,170.130009 385.462917,170.647967 C385.005395,171.884337 384.522848,173.124879 384.015281,174.369592 L384.406,173.395 L389.144475,175.585456 C389.528233,175.762878 389.713541,176.194678 389.592678,176.587876 L389.552043,176.693934 C389.497636,176.811614 389.416578,176.91501 389.315288,176.995934 L389.315288,176.995934 L378.545489,185.600283 C378.185148,185.888171 377.659655,185.829437 377.371767,185.469096 C377.25898,185.327924 377.195023,185.153979 377.189497,184.973369 L377.189497,184.973369 L376.767897,171.194921 C376.753791,170.733915 377.116074,170.348761 377.57708,170.334655 C377.706667,170.33069 377.835398,170.35695 377.953077,170.411357 L377.953077,170.411357 L382.589948,172.554139 C382.934878,171.685154 383.267303,170.818395 383.587226,169.953862 Z M386.8663,159.531879 C387.00429,158.997111 387.549669,158.675459 388.084437,158.81345 C388.619205,158.95144 388.940857,159.496819 388.802867,160.031587 C388.387114,161.642794 387.927125,163.261368 387.422916,164.887308 C387.259335,165.414811 386.699101,165.709829 386.171598,165.546248 C385.644094,165.382668 385.349077,164.822433 385.512657,164.29493 C386.007409,162.69949 386.458618,161.111807 386.8663,159.531879 Z M389.983635,147.990976 L390.100102,147.999981 C390.647377,148.0742 391.030865,148.578021 390.956646,149.125296 C390.732214,150.780212 390.459059,152.443273 390.137198,154.114467 C390.032751,154.656785 389.508444,155.01175 388.966125,154.907303 C388.423807,154.802856 388.068842,154.278549 388.173289,153.736231 C388.488189,152.10118 388.75535,150.474616 388.974788,148.856525 C389.049007,148.30925 389.552827,147.925763 390.100102,147.999981 Z M390.73393,137.015097 C391.286213,137.016414 391.732859,137.465196 391.731542,138.017479 C391.727541,139.694871 391.671127,141.381111 391.562312,143.076173 C391.526931,143.627323 391.051454,144.045436 390.500303,144.010055 C389.949153,143.974674 389.53104,143.499197 389.566421,142.948046 C389.672607,141.293921 389.727645,139.648817 389.731547,138.012709 C389.732865,137.460425 390.181647,137.013779 390.73393,137.015097 Z M390.152526,126.011307 C390.702752,125.963666 391.187419,126.371091 391.23506,126.921317 C391.380855,128.605166 391.494724,130.280331 391.576662,131.946809 C391.603784,132.498428 391.178596,132.967589 390.626978,132.994712 C390.075359,133.021834 389.606197,132.596646 389.579075,132.045027 C389.49836,130.403428 389.386175,128.753034 389.242515,127.093841 C389.194874,126.543615 389.6023,126.058947 390.152526,126.011307 Z M388.702372,115.112127 C389.247335,115.022492 389.761778,115.391607 389.851413,115.93657 C390.125772,117.604619 390.370157,119.264523 390.584561,120.916282 C390.655653,121.463972 390.269295,121.965594 389.721605,122.036686 C389.173915,122.107778 388.672293,121.721419 388.6012,121.173729 C388.389719,119.544493 388.14863,117.906973 387.877929,116.261167 C387.788294,115.716204 388.15741,115.201762 388.702372,115.112127 Z M386.464134,104.328069 C387.001565,104.200843 387.540375,104.53338 387.667601,105.070811 C388.057091,106.716109 388.418613,108.353808 388.752163,109.983908 C388.862877,110.524982 388.514002,111.053361 387.972928,111.164075 C387.431855,111.274789 386.903476,110.925914 386.792762,110.38484 C386.46332,108.774819 386.106198,107.157051 385.721391,105.531536 C385.594166,104.994105 385.926703,104.455294 386.464134,104.328069 Z M379.862256,82.334413 C383.543558,81.1537695 387.484944,83.1809539 388.665587,86.862256 C389.744564,90.226557 388.144386,93.808078 385.050959,95.3011026 C385.44374,96.6129741 385.81764,97.9205468 386.17438,99.2234555 C386.320229,99.7561341 386.006642,100.306189 385.473963,100.452038 C384.941285,100.597887 384.391229,100.2843 384.24538,99.7516213 C383.811328,98.1663488 383.351524,96.5738727 382.865963,94.9741932 L383.143603,95.9068889 C379.771966,96.4694773 376.409216,94.4890304 375.334413,91.137744 C374.15377,87.4564419 376.180954,83.5150564 379.862256,82.334413 Z" fill="#D22A80" fill-rule="nonzero"></path>
                <path id="Path-2" d="M358,192 C361.865993,192 365,195.134007 365,199 C365,202.865993 361.865993,206 358,206 C354.473878,206 351.556698,203.392812 351.071033,200.00101 L347,200 C346.447715,200 346,199.552285 346,199 C346,198.447715 346.447715,198 347,198 L347,198 L351.07089,197.999992 C351.556123,194.607702 354.473531,192 358,192 Z M235.013632,192.088348 C235.426161,191.882084 235.927792,192.049294 236.134057,192.461823 C236.192037,192.577784 236.222222,192.705651 236.222222,192.835298 L236.222222,192.835298 L236.222209,198.371423 C236.405537,198.144859 236.685852,198 237,198 L237,198 L242,198 C242.552285,198 243,198.447715 243,199 C243,199.552285 242.552285,200 242,200 L242,200 L237,200 C236.685852,200 236.405537,199.855141 236.222209,199.628577 L236.222222,205.164885 C236.222222,205.626106 235.848328,206 235.387107,206 C235.257459,206 235.129592,205.969815 235.013632,205.911835 L235.013632,205.911835 L222.684046,199.747041 C222.271517,199.540777 222.104306,199.039146 222.310571,198.626617 C222.391379,198.464999 222.522428,198.33395 222.684046,198.253142 L222.684046,198.253142 Z M341,198 C341.552285,198 342,198.447715 342,199 C342,199.552285 341.552285,200 341,200 L341,200 L336,200 C335.447715,200 335,199.552285 335,199 C335,198.447715 335.447715,198 336,198 L336,198 Z M330,198 C330.552285,198 331,198.447715 331,199 C331,199.552285 330.552285,200 330,200 L330,200 L325,200 C324.447715,200 324,199.552285 324,199 C324,198.447715 324.447715,198 325,198 L325,198 Z M319,198 C319.552285,198 320,198.447715 320,199 C320,199.552285 319.552285,200 319,200 L319,200 L314,200 C313.447715,200 313,199.552285 313,199 C313,198.447715 313.447715,198 314,198 L314,198 Z M308,198 C308.552285,198 309,198.447715 309,199 C309,199.552285 308.552285,200 308,200 L308,200 L303,200 C302.447715,200 302,199.552285 302,199 C302,198.447715 302.447715,198 303,198 L303,198 Z M297,198 C297.552285,198 298,198.447715 298,199 C298,199.552285 297.552285,200 297,200 L297,200 L292,200 C291.447715,200 291,199.552285 291,199 C291,198.447715 291.447715,198 292,198 L292,198 Z M286,198 C286.552285,198 287,198.447715 287,199 C287,199.552285 286.552285,200 286,200 L286,200 L281,200 C280.447715,200 280,199.552285 280,199 C280,198.447715 280.447715,198 281,198 L281,198 Z M275,198 C275.552285,198 276,198.447715 276,199 C276,199.552285 275.552285,200 275,200 L275,200 L270,200 C269.447715,200 269,199.552285 269,199 C269,198.447715 269.447715,198 270,198 L270,198 Z M264,198 C264.552285,198 265,198.447715 265,199 C265,199.552285 264.552285,200 264,200 L264,200 L259,200 C258.447715,200 258,199.552285 258,199 C258,198.447715 258.447715,198 259,198 L259,198 Z M253,198 C253.552285,198 254,198.447715 254,199 C254,199.552285 253.552285,200 253,200 L253,200 L248,200 C247.447715,200 247,199.552285 247,199 C247,198.447715 247.447715,198 248,198 L248,198 Z" fill="#D22A80" fill-rule="nonzero"></path>
                <path id="Path-2" d="M109.006418,192.075825 C109.418732,191.869131 109.920538,192.035818 110.127232,192.448132 C110.185333,192.564031 110.215652,192.691867 110.215787,192.821514 L110.215787,192.821514 L110.228643,205.151094 C110.229124,205.612315 109.85562,205.986599 109.394399,205.98708 C109.264752,205.987215 109.136853,205.957163 109.020833,205.899304 L109.020833,205.899304 L96.6848247,199.74737 C96.2720808,199.541536 96.1043474,199.04008 96.3101817,198.627336 C96.390822,198.465634 96.5217336,198.334449 96.683267,198.253471 L96.683267,198.253471 Z M199.992701,191.892603 C203.858692,191.888571 206.995965,195.019309 206.999996,198.8853 C207.004027,202.751291 203.87329,205.888564 200.007299,205.892595 C196.480832,205.896272 193.560707,203.291614 193.071937,199.899832 L189.001869,199.904067 C188.449585,199.904643 188.001403,199.457395 188.000827,198.905111 C188.000251,198.352826 188.447499,197.904644 188.999784,197.904069 L188.999784,197.904069 L193.069882,197.899599 C193.551671,194.506911 196.466309,191.89628 199.992701,191.892603 Z M116.999823,197.979145 C117.552107,197.978569 118.000289,198.425817 118.000865,198.978102 C118.001441,199.530386 117.554193,199.978568 117.001908,199.979144 L117.001908,199.979144 L112.001911,199.984358 C111.449626,199.984933 111.001445,199.537685 111.000869,198.985401 C111.000293,198.433116 111.447541,197.984935 111.999825,197.984359 L111.999825,197.984359 Z M127.999817,197.967675 C128.552101,197.967099 129.000283,198.414347 129.000859,198.966632 C129.001435,199.518916 128.554187,199.967098 128.001902,199.967674 L128.001902,199.967674 L123.001905,199.972888 C122.44962,199.973463 122.001439,199.526215 122.000863,198.973931 C122.000287,198.421646 122.447535,197.973465 122.999819,197.972889 L122.999819,197.972889 Z M138.999811,197.956205 C139.552095,197.955629 140.000277,198.402877 140.000853,198.955162 C140.001429,199.507446 139.554181,199.955628 139.001896,199.956204 L139.001896,199.956204 L134.001899,199.961418 C133.449614,199.961993 133.001433,199.514745 133.000857,198.962461 C133.000281,198.410176 133.447529,197.961995 133.999813,197.961419 L133.999813,197.961419 Z M149.999805,197.944735 C150.552089,197.944159 151.000271,198.391407 151.000847,198.943692 C151.001423,199.495976 150.554175,199.944158 150.00189,199.944734 L150.00189,199.944734 L145.001893,199.949948 C144.449608,199.950523 144.001427,199.503275 144.000851,198.950991 C144.000275,198.398706 144.447523,197.950525 144.999807,197.949949 L144.999807,197.949949 Z M160.999799,197.933265 C161.552083,197.932689 162.000265,198.379937 162.000841,198.932222 C162.001417,199.484506 161.554169,199.932688 161.001884,199.933264 L161.001884,199.933264 L156.001887,199.938478 C155.449602,199.939053 155.001421,199.491805 155.000845,198.939521 C155.000269,198.387236 155.447517,197.939054 155.999801,197.938479 L155.999801,197.938479 Z M171.999793,197.921795 C172.552077,197.921219 173.000259,198.368467 173.000835,198.920752 C173.001411,199.473036 172.554163,199.921218 172.001878,199.921794 L172.001878,199.921794 L167.001881,199.927007 C166.449597,199.927583 166.001415,199.480335 166.000839,198.928051 C166.000263,198.375766 166.447511,197.927584 166.999796,197.927009 L166.999796,197.927009 Z M182.999787,197.910325 C183.552071,197.909749 184.000253,198.356997 184.000829,198.909282 C184.001405,199.461566 183.554157,199.909748 183.001872,199.910324 L183.001872,199.910324 L178.001875,199.915537 C177.449591,199.916113 177.001409,199.468865 177.000833,198.916581 C177.000257,198.364296 177.447505,197.916114 177.99979,197.915539 L177.99979,197.915539 Z" fill="#D22A80" fill-rule="nonzero"></path>
            </g>
        </g>
    </g>
</svg>