<?xml version="1.0" encoding="UTF-8"?>
<svg width="653px" height="296px" viewBox="0 0 653 296" version="1.1" xmlns="http://www.w3.org/2000/svg" xmlns:xlink="http://www.w3.org/1999/xlink">
    <!-- Generator: Sketch 59 (86127) - https://sketch.com -->
    <title>operation-keys</title>
    <desc>Created with Sketch.</desc>
    <g id="Page-1" stroke="none" stroke-width="1" fill="none" fill-rule="evenodd">
        <g id="Slide-6" transform="translate(-95.000000, -210.000000)">
            <g id="Group" transform="translate(108.000000, 232.000000)">
                <text id="hash(" font-family="iAWriterQuattroS-Bold, iA Writer Quattro S" font-size="22" font-weight="bold" letter-spacing="0.3473684" fill="#F0647D">
                    <tspan x="0" y="74">hash(</tspan>
                </text>
                <text id="stableStringify(-var" font-family="iAWriterQuattroS-Bold, iA Writer Quattro S" font-size="22" font-weight="bold" letter-spacing="0.3473684">
                    <tspan x="26" y="142" fill="#ACACAC">stableStringify(</tspan>
                    <tspan x="209.757894" y="142" fill="#F0647D"> </tspan>
                    <tspan x="220.005263" y="142" fill="#F09A64">variables</tspan>
                    <tspan x="325.431578" y="142" fill="#F0647D"> </tspan>
                    <tspan x="335.678947" y="142" fill="#ACACAC">)</tspan>
                </text>
                <text id=")" font-family="iAWriterQuattroS-Bold, iA Writer Quattro S" font-size="22" font-weight="bold" letter-spacing="0.3473684" fill="#F0647D">
                    <tspan x="0" y="177">)</tspan>
                </text>
                <text id="stringify(-query-)-+" font-family="iAWriterQuattroS-Bold, iA Writer Quattro S" font-size="22" font-weight="bold" letter-spacing="0.3473684">
                    <tspan x="26" y="110" fill="#ACACAC">stringify(</tspan>
                    <tspan x="138.373684" y="110" fill="#F09A64"> query </tspan>
                    <tspan x="223.305263" y="110" fill="#ACACAC">) </tspan>
                    <tspan x="247.1" y="110" fill="#F0647D">+</tspan>
                </text>
                <path id="Path-2" d="M353.364189,210.676918 C357.216516,210.352148 360.602723,213.211799 360.927492,217.064127 C361.252262,220.916455 358.392611,224.302661 354.540284,224.627431 C351.023767,224.92389 347.89565,222.566909 347.129982,219.223575 C345.538311,219.3454 343.956548,219.458084 342.384991,219.562067 C341.833911,219.59853 341.357614,219.181351 341.321151,218.630271 C341.284689,218.079191 341.701868,217.602894 342.252948,217.566431 C343.900537,217.457417 345.559467,217.338793 347.229738,217.21056 L346.964056,217.230212 C347.166126,213.812531 349.852781,210.972947 353.364189,210.676918 Z M358.934562,217.23214 C358.702584,214.480478 356.283865,212.43787 353.532202,212.669849 C350.780539,212.901827 348.737932,215.320546 348.96991,218.072208 C349.201889,220.823871 351.620607,222.866479 354.37227,222.6345 C357.123933,222.402522 359.16654,219.983803 358.934562,217.23214 Z M309.369868,218.444139 C311.01771,218.472122 312.679454,218.488339 314.355101,218.492792 C314.907384,218.494259 315.353908,218.943162 315.35244,219.495445 C315.350973,220.047728 314.90207,220.494252 314.349787,220.492785 C312.664631,220.488307 310.993339,220.471996 309.33591,220.443851 C308.783705,220.434473 308.343656,219.979221 308.353033,219.427016 C308.36241,218.874811 308.817663,218.434762 309.369868,218.444139 Z M325.340483,218.358745 C325.892573,218.344086 326.352014,218.779761 326.366672,219.331851 C326.381331,219.883941 325.945656,220.343382 325.393566,220.35804 C323.709792,220.402746 322.038936,220.436432 320.380995,220.459097 C319.828762,220.466647 319.374969,220.025093 319.36742,219.47286 C319.35987,218.920627 319.801424,218.466833 320.353657,218.459284 C322.00298,218.436737 323.665256,218.403224 325.340483,218.358745 Z M298.40659,218.073952 C300.051676,218.158206 301.711746,218.229788 303.386799,218.288697 C303.938742,218.308108 304.370445,218.771283 304.351034,219.323226 C304.331623,219.87517 303.868449,220.306873 303.316505,220.287462 C301.630827,220.228179 299.96009,220.156137 298.304293,220.071335 C297.752731,220.043086 297.328502,219.573057 297.35675,219.021495 C297.384999,218.469933 297.855028,218.045704 298.40659,218.073952 Z M336.314227,217.920359 C336.86574,217.891175 337.336488,218.314607 337.365672,218.86612 C337.394856,219.417633 336.971425,219.888381 336.419912,219.917565 C334.739053,220.006509 333.070262,220.085162 331.413539,220.153523 C330.861724,220.176293 330.395931,219.747417 330.373162,219.195601 C330.350392,218.643786 330.779268,218.177993 331.331084,218.155224 C332.980033,218.087184 334.641081,218.008895 336.314227,217.920359 Z M287.348937,217.303319 L287.465693,217.307047 C289.104701,217.454207 290.759894,217.587686 292.431273,217.707484 C292.982144,217.746968 293.396705,218.225546 293.357221,218.776417 C293.317737,219.327289 292.839159,219.74185 292.288288,219.702366 C290.604998,219.581715 288.937849,219.447271 287.28684,219.299034 C286.736768,219.249645 286.330884,218.763686 286.380273,218.213614 C286.429662,217.663542 286.915621,217.257658 287.465693,217.307047 Z M276.476553,216.08984 L276.593039,216.098603 C278.223022,216.316209 279.870551,216.518994 281.535626,216.706955 C282.084425,216.768907 282.479094,217.264018 282.417143,217.812817 C282.355191,218.361616 281.860081,218.756284 281.311281,218.694333 C279.632815,218.504859 277.971849,218.300421 276.328384,218.081016 C275.780956,218.007933 275.396423,217.50491 275.469506,216.957482 C275.542588,216.410054 276.045611,216.025521 276.593039,216.098603 Z M264.601171,215.190674 C264.700982,214.647484 265.222238,214.288054 265.765429,214.387865 C267.381532,214.684825 269.01671,214.965685 270.670961,215.230444 C271.216306,215.317725 271.587639,215.830569 271.500359,216.375913 C271.413078,216.921258 270.900233,217.292591 270.354889,217.20531 C268.685554,216.938138 267.035251,216.654679 265.40398,216.354933 C264.860789,216.255121 264.501359,215.733865 264.601171,215.190674 Z M253.839965,212.85167 C253.969856,212.314877 254.510311,211.985018 255.047104,212.114909 C256.642782,212.501025 258.259228,212.869626 259.896444,213.220707 C260.436452,213.336505 260.780342,213.868142 260.664544,214.40815 C260.548746,214.948159 260.017109,215.292049 259.477101,215.176251 C257.822906,214.821529 256.189448,214.449049 254.576726,214.058809 C254.039933,213.928918 253.710074,213.388463 253.839965,212.85167 Z M243.249478,209.873395 C243.413072,209.345896 243.973314,209.050893 244.500813,209.214487 C246.068197,209.700582 247.658219,210.167597 249.270881,210.615529 C249.80302,210.763335 250.114583,211.31454 249.966776,211.846679 C249.81897,212.378817 249.267765,212.69038 248.735627,212.542574 C247.103917,212.089352 245.494837,211.616739 243.908386,211.12473 C243.380887,210.961136 243.085884,210.400894 243.249478,209.873395 Z M232.888803,206.179407 C233.089901,205.665035 233.669903,205.411076 234.184275,205.612174 C235.712206,206.20953 237.26477,206.786134 238.84197,207.341982 C239.362853,207.525555 239.636297,208.096629 239.452724,208.617513 C239.269151,209.138396 238.698076,209.41184 238.177193,209.228267 C236.578807,208.664953 235.005087,208.080491 233.456037,207.474878 C232.941665,207.273781 232.687706,206.693778 232.888803,206.179407 Z M222.75903,201.86964 C222.98186,201.364304 223.572156,201.135287 224.077493,201.358117 C225.581243,202.021202 227.106624,202.680908 228.653635,203.337235 C229.162056,203.552935 229.399353,204.139951 229.183653,204.648372 C228.967953,205.156794 228.380937,205.394091 227.872516,205.178391 C226.316919,204.518421 224.782932,203.854993 223.270553,203.188103 C222.765217,202.965273 222.5362,202.374977 222.75903,201.86964 Z M212.779742,197.228765 C213.019918,196.731438 213.617782,196.522976 214.115109,196.763151 C215.592848,197.476801 217.094528,198.186722 218.620149,198.892911 C219.121343,199.124907 219.339572,199.719276 219.107575,200.220471 C218.875579,200.721665 218.28121,200.939894 217.780016,200.707897 C216.244543,199.997148 214.732989,199.28256 213.245355,198.564131 C212.748028,198.323956 212.539566,197.726092 212.779742,197.228765 Z M202.986421,192.212631 C203.246617,191.725479 203.852462,191.541496 204.339613,191.801692 C205.784976,192.573686 207.257075,193.341529 208.755909,194.105218 C209.247999,194.355949 209.443659,194.958124 209.192928,195.450214 C208.942198,195.942304 208.340022,196.137964 207.847932,195.887234 C206.33769,195.117731 204.854166,194.343929 203.39736,193.565823 C202.910208,193.305627 202.726225,192.699782 202.986421,192.212631 Z M193.44082,186.766861 C193.72429,186.292875 194.33833,186.138431 194.812316,186.421901 C196.21562,187.261155 197.649037,188.095754 199.112565,188.925693 C199.592979,189.198126 199.761581,189.808431 199.489147,190.288845 C199.216713,190.76926 198.606409,190.937862 198.125994,190.665428 C196.649148,189.827937 195.202411,188.985582 193.78578,188.138358 C193.311793,187.854887 193.15735,187.240848 193.44082,186.766861 Z M184.188994,180.801343 C184.49979,180.344808 185.121835,180.226664 185.57837,180.53746 C186.92721,181.455712 188.310345,182.368692 189.727776,183.276392 C190.192868,183.57423 190.328455,184.192707 190.030617,184.657799 C189.732779,185.122892 189.114302,185.258479 188.649209,184.960641 C187.216112,184.042908 185.817335,183.119603 184.452878,182.190719 C183.996343,181.879923 183.878198,181.257878 184.188994,180.801343 Z M175.358644,174.239602 C175.701555,173.806669 176.3305,173.733692 176.763432,174.076603 C178.039594,175.087407 179.355214,176.092185 180.710297,177.090927 C181.154876,177.418597 181.249649,178.044629 180.921979,178.489208 C180.594309,178.933788 179.968277,179.028561 179.523698,178.700891 C178.150127,177.688522 176.816108,176.669692 175.521642,175.644391 C175.08871,175.30148 175.015733,174.672534 175.358644,174.239602 Z M158.662842,158.443019 C161.405369,155.718235 165.837501,155.732619 168.562285,158.475147 C171.039971,160.968968 171.252766,164.859844 169.208961,167.593708 C170.168593,168.490898 171.159653,169.384284 172.180358,170.273172 C172.596849,170.635876 172.640452,171.267537 172.277748,171.684028 C171.915045,172.100519 171.283383,172.144122 170.866892,171.781418 C169.576805,170.657937 168.332726,169.526887 167.134664,168.388252 L167.796235,169.010075 C165.046464,171.077215 161.123878,170.851862 158.630713,168.342462 C155.90593,165.599934 155.920314,161.167802 158.662842,158.443019 Z M167.143489,159.884763 C165.197215,157.925815 162.031406,157.915541 160.072458,159.861815 C158.11351,161.808089 158.103235,164.973897 160.049509,166.932845 C161.995783,168.891794 165.161591,168.902068 167.12054,166.955794 L167.09,166.984 L167.098708,166.974496 C167.110479,166.962111 167.122491,166.950094 167.13473,166.938445 C169.079528,164.993539 169.084848,161.838765 167.143489,159.884763 Z" fill="#D22A80" fill-rule="nonzero"></path>
                <path id="Path-2" d="M114.43694,72.9746701 C117.474118,71.1786439 121.315298,71.9401568 123.458962,74.6168266 L124.818732,73.8238948 L124.818732,73.8238948 L126.983155,72.5724303 C127.461779,72.2968635 128.073172,72.4614743 128.348739,72.9400987 C128.624306,73.4187232 128.459695,74.030116 127.98107,74.3056828 C126.542969,75.1336663 125.103629,75.9694128 123.663053,76.8129222 L124.475746,76.339661 C125.780895,79.5053389 124.596634,83.2314355 121.56306,85.0253299 C118.235363,86.9931538 113.942494,85.8907582 111.97467,82.5630604 L111.97467,82.5630604 L111.850678,82.3447021 C110.055828,79.0498149 111.181583,74.8997152 114.43694,72.9746701 Z M122.252994,76.370887 C120.825433,74.0596236 117.803636,73.3073088 115.454957,74.6961929 C113.07803,76.1017814 112.290604,79.1681161 113.696193,81.5450432 L113.696193,81.5450432 L113.817119,81.7394281 C115.271601,83.9640239 118.234142,84.6703515 120.545043,83.3038071 C122.92197,81.8982186 123.709396,78.8318839 122.303807,76.4549568 L122.352,76.542 L122.294814,76.4552604 L122.294814,76.4552604 Z M136.576956,67.153504 C137.060082,66.8859082 137.668662,67.0606302 137.936258,67.5437564 C138.203854,68.0268827 138.029132,68.6354631 137.546006,68.9030588 C136.093788,69.7074184 134.640299,70.5197548 133.185538,71.3400682 C132.704465,71.6113369 132.094571,71.4412565 131.823302,70.960183 C131.552034,70.4791095 131.722114,69.8692156 132.203188,69.5979469 C133.662366,68.7751425 135.120288,67.9603282 136.576956,67.153504 Z M146.260767,61.8976753 C146.748436,61.6384497 147.353913,61.8236393 147.613139,62.3113078 C147.872364,62.7989763 147.687174,63.4044536 147.199506,63.6636791 C145.734753,64.4422846 144.268696,65.2290686 142.801335,66.0240313 C142.315736,66.2871116 141.70881,66.1067238 141.44573,65.621124 C141.18265,65.1355242 141.363038,64.528599 141.848637,64.2655187 C143.320635,63.4680443 144.791344,62.6787631 146.260767,61.8976753 Z M156.032308,56.8146268 C156.524547,56.5641891 157.126606,56.7602078 157.377044,57.252447 C157.627481,57.7446861 157.431463,58.3467447 156.939224,58.5971824 C155.460786,59.349371 153.981009,60.1099579 152.499892,60.8789432 C152.009734,61.1334298 151.40608,60.9423803 151.151593,60.4522222 C150.897107,59.9620641 151.088156,59.3584102 151.578314,59.1039236 C153.064301,58.33241 154.548965,57.569311 156.032308,56.8146268 Z M165.90564,51.9061415 C166.402472,51.6649433 167.000763,51.8721752 167.241962,52.369007 C167.48316,52.8658388 167.275928,53.4641304 166.779096,53.7053287 C165.286682,54.4298548 163.792892,55.1630081 162.297726,55.9047885 C161.802982,56.1502405 161.202934,55.9481493 160.957482,55.4534051 C160.71203,54.958661 160.914121,54.3586135 161.408866,54.1131615 C162.909148,53.3688428 164.408073,52.6331695 165.90564,51.9061415 Z M175.8574,47.1928687 C176.358821,46.9613611 176.952976,47.1801689 177.184484,47.6815896 C177.415991,48.1830103 177.197184,48.777166 176.695763,49.0086736 C175.190341,49.7037316 173.683508,50.40764 172.175262,51.1203987 C171.675928,51.3563716 171.079843,51.1428747 170.84387,50.64354 C170.607897,50.1442052 170.821394,49.5481205 171.320729,49.3121475 C172.834345,48.5968507 174.346569,47.8904244 175.8574,47.1928687 Z M185.916929,42.6704368 C186.422931,42.4491214 187.012538,42.6799055 187.233853,43.1859074 C187.455169,43.6919093 187.224385,44.2815165 186.718383,44.5028319 C185.19863,45.1675419 183.677427,45.841347 182.154772,46.5242474 C181.650848,46.7502539 181.059122,46.5249572 180.833116,46.0210331 C180.607109,45.517109 180.832406,44.9253833 181.33633,44.6993768 C182.864627,44.0139458 184.391494,43.3376324 185.916929,42.6704368 Z M196.063355,38.3583451 C196.573901,38.1477244 197.158522,38.3908621 197.369143,38.9014082 C197.579764,39.4119544 197.336626,39.9965756 196.82608,40.2071963 C195.293085,40.8396181 193.7586,41.481373 192.222625,42.1324612 C191.714138,42.3480051 191.127195,42.1105277 190.911651,41.6020405 C190.696107,41.0935533 190.933584,40.50661 191.442071,40.2910661 C192.983968,39.6374676 194.524396,38.9932272 196.063355,38.3583451 Z M206.287311,34.2698656 C206.802338,34.0704522 207.381506,34.3263074 207.58092,34.8413344 C207.780333,35.3563613 207.524478,35.9355296 207.009451,36.1349431 C205.462954,36.7337317 203.914928,37.3421008 202.365373,37.9600504 C201.852376,38.1646292 201.270666,37.914607 201.066087,37.40161 C200.861508,36.888613 201.11153,36.3069028 201.624527,36.1023239 C203.180296,35.4818963 204.734557,34.8710768 206.287311,34.2698656 Z M216.615175,30.4046752 C217.134606,30.2170305 217.707803,30.485996 217.895448,31.0054264 C218.083093,31.5248567 217.814127,32.0980543 217.294697,32.285699 C215.734963,32.8491544 214.173659,33.4224408 212.610786,34.0055584 C212.093344,34.1986191 211.517368,33.9356563 211.324307,33.4182145 C211.131246,32.9007727 211.394209,32.3247966 211.911651,32.1317359 C213.48104,31.5461873 215.048881,30.9705004 216.615175,30.4046752 Z M227.049799,26.8103397 C227.575254,26.6402942 228.139068,26.9284106 228.309114,27.4538656 C228.479159,27.9793206 228.191043,28.5431352 227.665588,28.7131807 C226.070033,29.2295273 224.494925,29.7549087 222.940265,30.2893229 C222.417976,30.4688594 221.849035,30.1910042 221.669498,29.6687159 C221.489962,29.1464276 221.767817,28.5774861 222.290105,28.3979496 C223.856245,27.8595895 225.442809,27.3303868 227.049799,26.8103397 Z M237.607176,23.6087944 C238.13846,23.4579434 238.69144,23.7663452 238.842291,24.2976289 C238.993142,24.8289127 238.68474,25.3818921 238.153456,25.5327431 C236.540515,25.9907162 234.946354,26.4569948 233.370972,26.9315776 C232.842161,27.0908814 232.284334,26.791337 232.12503,26.2625263 C231.965726,25.7337157 232.265271,25.1758886 232.794081,25.0165848 C234.379691,24.5389208 235.984056,24.0696579 237.607176,23.6087944 Z M248.275795,20.7678067 C248.811655,20.6341187 249.354431,20.9601436 249.488119,21.4960037 C249.621807,22.0318637 249.295782,22.5746396 248.759922,22.7083275 C247.133629,23.1140599 245.524654,23.5274575 243.932997,23.9485194 C243.399079,24.0897638 242.851752,23.7714389 242.710508,23.2375208 C242.569263,22.7036028 242.887588,22.1562755 243.421506,22.0150312 C245.022309,21.5915499 246.640405,21.1758087 248.275795,20.7678067 Z M259.007505,18.2558697 C259.546968,18.1375554 260.080202,18.4789638 260.198516,19.0184266 C260.31683,19.5578895 259.975422,20.0911232 259.435959,20.2094375 C257.798971,20.5684598 256.178029,20.9345891 254.573134,21.3078246 C254.035204,21.4329259 253.497712,21.0982625 253.37261,20.5603331 C253.247509,20.0224036 253.582173,19.484911 254.120102,19.3598097 C255.733213,18.9846635 257.362347,18.6166838 259.007505,18.2558697 Z M269.815954,16.0328025 C270.358273,15.9283592 270.882578,16.2833278 270.987021,16.8256469 C271.091464,17.3679661 270.736496,17.8922706 270.194177,17.9967138 C268.548291,18.3136889 266.917339,18.6372823 265.301323,18.9674935 C264.760219,19.0780608 264.231935,18.7290419 264.121368,18.1879381 C264.010801,17.6468343 264.359819,17.1185506 264.900923,17.0079833 C266.524354,16.6762572 268.162697,16.3511971 269.815954,16.0328025 Z M280.673062,14.0738141 C281.217648,13.9819233 281.733615,14.3489057 281.825506,14.8934923 C281.917397,15.4380789 281.550414,15.9540457 281.005828,16.0459365 C279.352954,16.324834 277.714029,16.6099165 276.089054,16.9011835 C275.545433,16.9986243 275.02575,16.6369238 274.928309,16.0933028 C274.830868,15.5496819 275.192569,15.0299986 275.73619,14.9325579 C277.367884,14.6400866 279.013508,14.3538388 280.673062,14.0738141 Z M291.548327,12.3571951 C292.094713,12.2766925 292.602907,12.6543658 292.68341,13.2007519 C292.763912,13.747138 292.386239,14.2553317 291.839853,14.3358342 C290.181932,14.5801063 288.53708,14.8301748 286.905295,15.0860396 C286.359677,15.1715928 285.848012,14.7986366 285.762459,14.2530185 C285.676905,13.7074004 286.049862,13.195735 286.59548,13.1101817 C288.233379,12.8533582 289.884328,12.6023628 291.548327,12.3571951 Z M350.351331,0.421828463 C354.209431,0.174899845 357.537213,3.10233207 357.784142,6.96043135 L357.784142,6.96043135 L357.795462,7.20084898 C357.90869,10.9558511 355.023261,14.1514576 351.245539,14.3932419 C347.727902,14.61838 344.651114,12.2046867 343.948322,8.85274026 L343.192108,8.9043358 L343.192108,8.9043358 L341.481058,9.02533225 C340.93019,9.0648701 340.451572,8.65035537 340.412034,8.09948769 C340.372496,7.54862001 340.787011,7.07000176 341.337878,7.03046391 C342.479029,6.94855925 343.624857,6.86874083 344.775364,6.79100861 L343.819193,6.85738496 C344.084365,3.43864062 346.830264,0.647186152 350.351331,0.421828463 Z M302.466773,10.8560786 C303.014592,10.7859829 303.51551,11.1732536 303.585606,11.7210721 C303.655702,12.2688905 303.268431,12.7698089 302.720612,12.8399046 C301.058609,13.0525651 299.408889,13.2706758 297.771452,13.4942364 C297.224244,13.5689472 296.720079,13.1859124 296.645368,12.6387043 C296.570658,12.0914961 296.953692,11.5873312 297.500901,11.5126205 C299.143924,11.2882971 300.799215,11.0694499 302.466773,10.8560786 Z M355.769762,6.8720236 C355.486481,4.22390648 353.16234,2.2460086 350.479075,2.41774466 C347.799858,2.58922167 345.748977,4.84072148 345.79916,7.4981064 C345.821401,7.56937129 345.835276,7.64402419 345.840499,7.72132419 C345.84589,7.80111599 345.841766,7.87935293 345.829098,7.95492526 C346.116878,10.596681 348.438276,12.568822 351.117795,12.3973257 C353.87358,12.2209481 355.964603,9.8439605 355.788226,7.0881753 L355.788226,7.0881753 Z M313.409486,9.55390973 C313.95844,9.49334998 314.452549,9.8892721 314.513109,10.4382265 C314.573669,10.9871809 314.177747,11.4812898 313.628792,11.5418496 C311.963896,11.7255182 310.310575,11.9143244 308.66883,12.1082681 C308.120359,12.1730605 307.623211,11.7809614 307.558418,11.2324905 C307.493626,10.6840195 307.885725,10.1868714 308.434196,10.1220791 C310.081065,9.92753008 311.739495,9.73814037 313.409486,9.55390973 Z M324.372725,8.43419806 C324.922577,8.38240995 325.410302,8.78616992 325.46209,9.33602121 C325.513878,9.8858725 325.110118,10.3735976 324.560267,10.4253857 C322.892746,10.5824422 321.236169,10.7443575 319.590537,10.9111314 C319.041066,10.9668166 318.550491,10.5665246 318.494806,10.0170543 C318.439121,9.46758399 318.839413,8.97700858 319.388883,8.92132343 C321.039233,8.7540715 322.700514,8.59169643 324.372725,8.43419806 Z M335.352379,7.48260123 C335.902933,7.43890985 336.384663,7.84980304 336.428355,8.40035686 C336.472046,8.95091067 336.061153,9.43264159 335.510599,9.47633298 C333.841265,9.60880965 332.1823,9.74589149 330.533707,9.88757837 C329.98345,9.93486964 329.499042,9.52713593 329.451751,8.97687965 C329.40446,8.42662336 329.812194,7.94221535 330.36245,7.89492408 C332.015401,7.75286272 333.67871,7.61542182 335.352379,7.48260123 Z" fill="#D22A80" fill-rule="nonzero"></path>
                <text id="Properties-of-any-ob" opacity="0.9" font-family="NeueHaasUnicaW1G-Medium, Neue Haas Unica W1G" font-size="16" font-weight="400" line-spacing="19" letter-spacing="0.2526315" fill="#000000">
                    <tspan x="365" y="232">Properties of any objects need </tspan>
                    <tspan x="365" y="251">to be </tspan>
                    <tspan x="406.819789" y="250.824" font-family="NeueHaasUnicaW1G-Bold, Neue Haas Unica W1G" font-weight="bold">stabily sorted</tspan>
                    <tspan x="512.08463" y="251">.</tspan>
                </text>
                <text id="DocumentNodes-can-ei" opacity="0.9" font-family="NeueHaasUnicaW1G-Bold, Neue Haas Unica W1G" font-size="16" font-weight="bold" line-spacing="19" letter-spacing="0.2526315" fill="#000000">
                    <tspan x="365" y="19">DocumentNodes</tspan>
                    <tspan x="496.252209" y="19.176" font-family="NeueHaasUnicaW1G-Medium, Neue Haas Unica W1G" font-weight="400"> can either use </tspan>
                    <tspan x="365" y="38.176" font-family="NeueHaasUnicaW1G-Medium, Neue Haas Unica W1G" font-weight="400">names or be stringified.</tspan>
                </text>
            </g>
        </g>
    </g>
</svg>