<?xml version="1.0" encoding="UTF-8"?>
<svg width="671px" height="275px" viewBox="0 0 671 275" version="1.1" xmlns="http://www.w3.org/2000/svg" xmlns:xlink="http://www.w3.org/1999/xlink">
    <!-- Generator: Sketch 59 (86127) - https://sketch.com -->
    <title>teardown-flow</title>
    <desc>Created with Sketch.</desc>
    <g id="Page-1" stroke="none" stroke-width="1" fill="none" fill-rule="evenodd">
        <g id="Slide-10" transform="translate(-88.000000, -228.000000)">
            <g id="Group-3" transform="translate(108.000000, 248.000000)">
                <path id="Path-2" d="M95.9964022,82.0000009 C96.5486869,81.9997171 96.9966322,82.4472021 96.996916,82.9994868 L96.996916,82.9994868 L96.999,87.999 L100.999485,87.9974303 C101.512321,87.9971667 101.935191,88.3829896 101.993212,88.8802985 L101.999999,88.9969162 C102.000283,89.5492009 101.552798,89.9971462 101.000513,89.99743 L101.000513,89.99743 L97,89.999 L97.0030837,94.9994852 C97.0033473,95.512321 96.6175244,95.9351907 96.1202154,95.9932114 L96.0035978,95.9999991 C95.4513131,96.0002829 95.0033678,95.5527979 95.003084,95.0005132 L95.003084,95.0005132 L94.9969163,83.0005148 C94.9966325,82.4482301 95.4441175,82.0002848 95.9964022,82.0000009 Z M155.609297,81.9693617 C155.738945,81.969295 155.866827,81.9994146 155.982817,82.0573352 L155.982817,82.0573352 L168.31557,88.2157905 C168.728205,88.421843 168.895674,88.9233882 168.689621,89.3360232 C168.608895,89.4976824 168.477914,89.6287982 168.316338,89.7096901 L168.316338,89.7096901 L155.989922,95.8808195 C155.577499,96.087296 155.075782,95.9203434 154.869305,95.5079204 C154.811266,95.39199 154.781015,95.2641384 154.780948,95.1344909 L154.780948,95.1344909 L154.777,89.969 L151.000507,89.9717315 C150.487671,89.9719951 150.064801,89.5861722 150.006781,89.0888633 L149.999993,88.9722456 C149.999709,88.4199609 150.447194,87.9720156 150.999479,87.9717318 L150.999479,87.9717318 L154.777,87.969 L154.774611,82.8049061 C154.774392,82.3791633 155.092796,82.027666 155.504545,81.9759222 Z M111.999484,87.9917766 C112.551769,87.9914928 112.999714,88.4389778 112.999998,88.9912625 C113.000282,89.5435472 112.552797,89.9914925 112.000512,89.9917763 L112.000512,89.9917763 L107.000513,89.9943462 C106.448228,89.9946301 106.000283,89.547145 105.999999,88.9948603 C105.999715,88.4425756 106.4472,87.9946303 106.999485,87.9943465 L106.999485,87.9943465 Z M122.999482,87.9861229 C123.551767,87.9858391 123.999712,88.4333242 123.999996,88.9856088 C124.00028,89.5378935 123.552795,89.9858388 123.00051,89.9861227 L123.00051,89.9861227 L118.000511,89.9886925 C117.448226,89.9889764 117.000281,89.5414913 116.999997,88.9892066 C116.999713,88.436922 117.447198,87.9889766 117.999483,87.9886928 L117.999483,87.9886928 Z M133.999481,87.9804693 C134.551766,87.9801854 134.999711,88.4276705 134.999995,88.9799552 C135.000279,89.5322398 134.552794,89.9801851 134.000509,89.980469 L134.000509,89.980469 L129.00051,89.9830389 C128.448225,89.9833227 128.00028,89.5358376 127.999996,88.983553 C127.999712,88.4312683 128.447197,87.983323 128.999482,87.9830391 L128.999482,87.9830391 Z M144.99948,87.9748156 C145.551764,87.9745317 145.99971,88.4220168 145.999993,88.9743015 C146.000277,89.5265862 145.552792,89.9745315 145.000507,89.9748153 L145.000507,89.9748153 L140.000508,89.9773852 C139.448223,89.977669 139.000278,89.530184 138.999994,88.9778993 C138.99971,88.4256146 139.447196,87.9776693 139.99948,87.9773854 L139.99948,87.9773854 Z" fill="#D22A80" fill-rule="nonzero"></path>
                <path id="Path-2" d="M199,82 C202.526469,82 205.443877,84.6077016 205.92911,87.9999918 L210,88 C210.552285,88 211,88.4477153 211,89 C211,89.5522847 210.552285,90 210,90 L210,90 L205.928967,90.0010101 C205.443302,93.3928118 202.526122,96 199,96 C195.134007,96 192,92.8659932 192,89 C192,85.1340068 195.134007,82 199,82 Z M344.612893,82 C344.742541,82 344.870408,82.0301853 344.986368,82.0881655 L344.986368,82.0881655 L357.315954,88.2529586 C357.728483,88.4592232 357.895694,88.9608544 357.689429,89.3733835 C357.608621,89.5350012 357.477572,89.6660496 357.315954,89.7468584 L357.315954,89.7468584 L344.986368,95.9116516 C344.573839,96.1179161 344.072208,95.9507057 343.865943,95.5381766 C343.807963,95.4222163 343.777778,95.2943493 343.777778,95.1647017 L343.777778,95.1647017 L343.777778,82.8351154 C343.777778,82.3738939 344.151672,82 344.612893,82 Z M221,88 C221.552285,88 222,88.4477153 222,89 C222,89.5522847 221.552285,90 221,90 L221,90 L216,90 C215.447715,90 215,89.5522847 215,89 C215,88.4477153 215.447715,88 216,88 L216,88 Z M232,88 C232.552285,88 233,88.4477153 233,89 C233,89.5522847 232.552285,90 232,90 L232,90 L227,90 C226.447715,90 226,89.5522847 226,89 C226,88.4477153 226.447715,88 227,88 L227,88 Z M243,88 C243.552285,88 244,88.4477153 244,89 C244,89.5522847 243.552285,90 243,90 L243,90 L238,90 C237.447715,90 237,89.5522847 237,89 C237,88.4477153 237.447715,88 238,88 L238,88 Z M254,88 C254.552285,88 255,88.4477153 255,89 C255,89.5522847 254.552285,90 254,90 L254,90 L249,90 C248.447715,90 248,89.5522847 248,89 C248,88.4477153 248.447715,88 249,88 L249,88 Z M265,88 C265.552285,88 266,88.4477153 266,89 C266,89.5522847 265.552285,90 265,90 L265,90 L260,90 C259.447715,90 259,89.5522847 259,89 C259,88.4477153 259.447715,88 260,88 L260,88 Z M276,88 C276.552285,88 277,88.4477153 277,89 C277,89.5522847 276.552285,90 276,90 L276,90 L271,90 C270.447715,90 270,89.5522847 270,89 C270,88.4477153 270.447715,88 271,88 L271,88 Z M287,88 C287.552285,88 288,88.4477153 288,89 C288,89.5522847 287.552285,90 287,90 L287,90 L282,90 C281.447715,90 281,89.5522847 281,89 C281,88.4477153 281.447715,88 282,88 L282,88 Z M298,88 C298.552285,88 299,88.4477153 299,89 C299,89.5522847 298.552285,90 298,90 L298,90 L293,90 C292.447715,90 292,89.5522847 292,89 C292,88.4477153 292.447715,88 293,88 L293,88 Z M309,88 C309.552285,88 310,88.4477153 310,89 C310,89.5522847 309.552285,90 309,90 L309,90 L304,90 C303.447715,90 303,89.5522847 303,89 C303,88.4477153 303.447715,88 304,88 L304,88 Z M320,88 C320.552285,88 321,88.4477153 321,89 C321,89.5522847 320.552285,90 320,90 L320,90 L315,90 C314.447715,90 314,89.5522847 314,89 C314,88.4477153 314.447715,88 315,88 L315,88 Z M331,88 C331.552285,88 332,88.4477153 332,89 C332,89.5522847 331.552285,90 331,90 L331,90 L326,90 C325.447715,90 325,89.5522847 325,89 C325,88.4477153 325.447715,88 326,88 L326,88 Z M342,88 C342.552285,88 343,88.4477153 343,89 C343,89.5522847 342.552285,90 342,90 L342,90 L337,90 C336.447715,90 336,89.5522847 336,89 C336,88.4477153 336.447715,88 337,88 L337,88 Z" fill="#D22A80" fill-rule="nonzero"></path>
                <text id="Teardown" opacity="0.9" font-family="NeueHaasUnicaW1G-Medium, Neue Haas Unica W1G" font-size="18" font-weight="400" letter-spacing="0.2842104" fill="#000000">
                    <tspan x="0.6183168" y="94">Teardown</tspan>
                </text>
                <text id="fetch(...)" opacity="0.9" font-family="iAWriterQuattroS-BoldItalic, iA Writer Quattro S" font-size="16" font-style="italic" font-weight="bold" letter-spacing="0.252631467" fill="#D22A80">
                    <tspan x="331" y="153">fetch(...)</tspan>
                </text>
                <g id="Group" transform="translate(300.000000, 12.000000)">
                    <text id="fetch" opacity="0.9" font-family="iAWriterQuattroS-Bold, iA Writer Quattro S" font-size="18" font-weight="bold" letter-spacing="0.2842104" fill="#F0647D">
                        <tspan x="53.989474" y="18">fetch</tspan>
                    </text>
                    <rect id="Rectangle" stroke="#F09A64" stroke-width="3" opacity="0.3" x="7" y="0" width="141" height="217" rx="4"></rect>
                    <rect id="Rectangle" stroke="#F09A64" stroke-width="3" opacity="0.3" x="24" y="36" width="106" height="104" rx="4"></rect>
                </g>
                <g id="Group" transform="translate(487.000000, 14.000000)">
                    <text id="fallback" opacity="0.9" font-family="iAWriterQuattroS-Bold, iA Writer Quattro S" font-size="18" font-weight="bold" letter-spacing="0.2842104" fill="#F0647D">
                        <tspan x="32.9131584" y="18">fallback</tspan>
                    </text>
                    <rect id="Rectangle" stroke="#F09A64" stroke-width="3" opacity="0.3" x="0" y="0" width="141" height="215" rx="4"></rect>
                    <rect id="Rectangle" stroke="#F09A64" stroke-width="3" opacity="0.3" x="17" y="34" width="106" height="104" rx="4"></rect>
                </g>
                <g id="Group" transform="translate(128.000000, 10.000000)">
                    <text id="dedup" opacity="0.9" font-family="iAWriterQuattroS-Bold, iA Writer Quattro S" font-size="18" font-weight="bold" letter-spacing="0.2842104" fill="#F0647D">
                        <tspan x="42.789474" y="18">dedup</tspan>
                    </text>
                    <rect id="Rectangle" stroke="#F09A64" stroke-width="3" opacity="0.3" x="0" y="0" width="141" height="215" rx="4"></rect>
                    <rect id="Rectangle" stroke="#F09A64" stroke-width="3" opacity="0.3" x="17" y="34" width="106" height="104" rx="4"></rect>
                </g>
                <g id="Group-2" transform="translate(295.000000, 0.000000)">
                    <circle id="Oval" stroke="#D22A80" stroke-width="2" fill="#FFFFFF" cx="12" cy="13" r="12"></circle>
                    <text id="2" font-family="NeueHaasUnicaW1G-Medium, Neue Haas Unica W1G" font-size="16" font-weight="400" letter-spacing="0.2526315" fill="#000000">
                        <tspan x="7.72568425" y="19">2</tspan>
                    </text>
                </g>
                <g id="Group-2" transform="translate(493.000000, 38.000000)">
                    <circle id="Oval" stroke="#D22A80" stroke-width="2" fill="#FFFFFF" cx="12" cy="13" r="12"></circle>
                    <text id="2" font-family="NeueHaasUnicaW1G-Medium, Neue Haas Unica W1G" font-size="16" font-weight="400" letter-spacing="0.2526315" fill="#000000">
                        <tspan x="7.72568425" y="19">2</tspan>
                    </text>
                </g>
                <g id="Group-2" transform="translate(116.000000, 0.000000)">
                    <circle id="Oval" stroke="#D22A80" stroke-width="2" fill="#FFFFFF" cx="12" cy="13" r="12"></circle>
                    <text id="1" font-family="NeueHaasUnicaW1G-Medium, Neue Haas Unica W1G" font-size="16" font-weight="400" letter-spacing="0.2526315" fill="#000000">
                        <tspan x="7.72568425" y="19">1</tspan>
                    </text>
                </g>
                <g id="Group-2" transform="translate(313.000000, 38.000000)">
                    <circle id="Oval" stroke="#D22A80" stroke-width="2" fill="#FFFFFF" cx="12" cy="13" r="12"></circle>
                    <text id="1" font-family="NeueHaasUnicaW1G-Medium, Neue Haas Unica W1G" font-size="16" font-weight="400" letter-spacing="0.2526315" fill="#000000">
                        <tspan x="7.72568425" y="19">1</tspan>
                    </text>
                </g>
                <path id="Path-2" d="M379,82 C382.526469,82 385.443877,84.6077016 385.92911,87.9999918 L390,88 C390.552285,88 391,88.4477153 391,89 C391,89.5522847 390.552285,90 390,90 L390,90 L385.928967,90.0010101 C385.443302,93.3928118 382.526122,96 379,96 C375.134007,96 372,92.8659932 372,89 C372,85.1340068 375.134007,82 379,82 Z M529.612893,82 C529.742541,82 529.870408,82.0301853 529.986368,82.0881655 L529.986368,82.0881655 L542.315954,88.2529586 C542.728483,88.4592232 542.895694,88.9608544 542.689429,89.3733835 C542.608621,89.5350012 542.477572,89.6660496 542.315954,89.7468584 L542.315954,89.7468584 L529.986368,95.9116516 C529.573839,96.1179161 529.072208,95.9507057 528.865943,95.5381766 C528.807963,95.4222163 528.777778,95.2943493 528.777778,95.1647017 L528.777778,95.1647017 L528.777,90 L528,90 C527.487164,90 527.064493,89.6139598 527.006728,89.1166211 L527,89 C527,88.4477153 527.447715,88 528,88 L528,88 L528.777,88 L528.777778,82.8351154 C528.777778,82.4093725 529.096362,82.0580389 529.508138,82.0065067 Z M401,88 C401.552285,88 402,88.4477153 402,89 C402,89.5522847 401.552285,90 401,90 L401,90 L396,90 C395.447715,90 395,89.5522847 395,89 C395,88.4477153 395.447715,88 396,88 L396,88 Z M412,88 C412.552285,88 413,88.4477153 413,89 C413,89.5522847 412.552285,90 412,90 L412,90 L407,90 C406.447715,90 406,89.5522847 406,89 C406,88.4477153 406.447715,88 407,88 L407,88 Z M423,88 C423.552285,88 424,88.4477153 424,89 C424,89.5522847 423.552285,90 423,90 L423,90 L418,90 C417.447715,90 417,89.5522847 417,89 C417,88.4477153 417.447715,88 418,88 L418,88 Z M434,88 C434.552285,88 435,88.4477153 435,89 C435,89.5522847 434.552285,90 434,90 L434,90 L429,90 C428.447715,90 428,89.5522847 428,89 C428,88.4477153 428.447715,88 429,88 L429,88 Z M445,88 C445.552285,88 446,88.4477153 446,89 C446,89.5522847 445.552285,90 445,90 L445,90 L440,90 C439.447715,90 439,89.5522847 439,89 C439,88.4477153 439.447715,88 440,88 L440,88 Z M456,88 C456.552285,88 457,88.4477153 457,89 C457,89.5522847 456.552285,90 456,90 L456,90 L451,90 C450.447715,90 450,89.5522847 450,89 C450,88.4477153 450.447715,88 451,88 L451,88 Z M467,88 C467.552285,88 468,88.4477153 468,89 C468,89.5522847 467.552285,90 467,90 L467,90 L462,90 C461.447715,90 461,89.5522847 461,89 C461,88.4477153 461.447715,88 462,88 L462,88 Z M478,88 C478.552285,88 479,88.4477153 479,89 C479,89.5522847 478.552285,90 478,90 L478,90 L473,90 C472.447715,90 472,89.5522847 472,89 C472,88.4477153 472.447715,88 473,88 L473,88 Z M489,88 C489.552285,88 490,88.4477153 490,89 C490,89.5522847 489.552285,90 489,90 L489,90 L484,90 C483.447715,90 483,89.5522847 483,89 C483,88.4477153 483.447715,88 484,88 L484,88 Z M500,88 C500.552285,88 501,88.4477153 501,89 C501,89.5522847 500.552285,90 500,90 L500,90 L495,90 C494.447715,90 494,89.5522847 494,89 C494,88.4477153 494.447715,88 495,88 L495,88 Z M511,88 C511.552285,88 512,88.4477153 512,89 C512,89.5522847 511.552285,90 511,90 L511,90 L506,90 C505.447715,90 505,89.5522847 505,89 C505,88.4477153 505.447715,88 506,88 L506,88 Z M522,88 C522.552285,88 523,88.4477153 523,89 C523,89.5522847 522.552285,90 522,90 L522,90 L517,90 C516.447715,90 516,89.5522847 516,89 C516,88.4477153 516.447715,88 517,88 L517,88 Z" fill="#D22A80" fill-rule="nonzero"></path>
            </g>
        </g>
    </g>
</svg>